G04 #@! TF.GenerationSoftware,KiCad,Pcbnew,7.0.5*
G04 #@! TF.CreationDate,2023-09-06T13:43:01-04:00*
G04 #@! TF.ProjectId,INS-1 Matrix_DRC,494e532d-3120-44d6-9174-7269785f4452,rev?*
G04 #@! TF.SameCoordinates,Original*
G04 #@! TF.FileFunction,Paste,Top*
G04 #@! TF.FilePolarity,Positive*
%FSLAX46Y46*%
G04 Gerber Fmt 4.6, Leading zero omitted, Abs format (unit mm)*
G04 Created by KiCad (PCBNEW 7.0.5) date 2023-09-06 13:43:01*
%MOMM*%
%LPD*%
G01*
G04 APERTURE LIST*
%ADD10R,0.550000X2.000000*%
%ADD11R,2.000000X0.550000*%
G04 APERTURE END LIST*
D10*
X87566000Y-152342000D03*
X83566000Y-152342000D03*
X86766000Y-152342000D03*
X79566000Y-152342000D03*
D11*
X90366000Y-148742000D03*
X90366000Y-147942000D03*
X90366000Y-147142000D03*
X90366000Y-146342000D03*
X90366000Y-145542000D03*
X90366000Y-144742000D03*
X90366000Y-143942000D03*
X90366000Y-143142000D03*
X90366000Y-142342000D03*
X90366000Y-141542000D03*
D10*
X87566000Y-138742000D03*
X86766000Y-138742000D03*
X85966000Y-138742000D03*
X85166000Y-138742000D03*
X84366000Y-138742000D03*
X83566000Y-138742000D03*
X82766000Y-138742000D03*
X81966000Y-138742000D03*
X81166000Y-138742000D03*
X80366000Y-138742000D03*
X79566000Y-138742000D03*
D11*
X76766000Y-141542000D03*
X76766000Y-142342000D03*
X76766000Y-143142000D03*
X76766000Y-143942000D03*
X76766000Y-144742000D03*
X76766000Y-145542000D03*
X76766000Y-146342000D03*
X76766000Y-147142000D03*
X76766000Y-147942000D03*
X76766000Y-148742000D03*
X76766000Y-149542000D03*
D10*
X85966000Y-152342000D03*
X80366000Y-152342000D03*
X81166000Y-152342000D03*
X81966000Y-152342000D03*
D11*
X90366000Y-149542000D03*
D10*
X82766000Y-152342000D03*
X85166000Y-152342000D03*
X84366000Y-152342000D03*
X79058000Y-40063000D03*
X83058000Y-40063000D03*
X79858000Y-40063000D03*
X87058000Y-40063000D03*
D11*
X76258000Y-43663000D03*
X76258000Y-44463000D03*
X76258000Y-45263000D03*
X76258000Y-46063000D03*
X76258000Y-46863000D03*
X76258000Y-47663000D03*
X76258000Y-48463000D03*
X76258000Y-49263000D03*
X76258000Y-50063000D03*
X76258000Y-50863000D03*
D10*
X79058000Y-53663000D03*
X79858000Y-53663000D03*
X80658000Y-53663000D03*
X81458000Y-53663000D03*
X82258000Y-53663000D03*
X83058000Y-53663000D03*
X83858000Y-53663000D03*
X84658000Y-53663000D03*
X85458000Y-53663000D03*
X86258000Y-53663000D03*
X87058000Y-53663000D03*
D11*
X89858000Y-50863000D03*
X89858000Y-50063000D03*
X89858000Y-49263000D03*
X89858000Y-48463000D03*
X89858000Y-47663000D03*
X89858000Y-46863000D03*
X89858000Y-46063000D03*
X89858000Y-45263000D03*
X89858000Y-44463000D03*
X89858000Y-43663000D03*
X89858000Y-42863000D03*
D10*
X80658000Y-40063000D03*
X86258000Y-40063000D03*
X85458000Y-40063000D03*
X84658000Y-40063000D03*
D11*
X76258000Y-42863000D03*
D10*
X83858000Y-40063000D03*
X81458000Y-40063000D03*
X82258000Y-40063000D03*
M02*
