%TF.GenerationSoftware,KiCad,Pcbnew,7.0.5*%
%TF.CreationDate,2023-09-06T13:43:12-04:00*%
%TF.ProjectId,INS-1 Matrix_DRC,494e532d-3120-44d6-9174-7269785f4452,rev?*%
%TF.SameCoordinates,Original*%
%TF.FileFunction,Drillmap*%
%TF.FilePolarity,Positive*%
%FSLAX45Y45*%
G04 Gerber Fmt 4.5, Leading zero omitted, Abs format (unit mm)*
G04 Created by KiCad (PCBNEW 7.0.5) date 2023-09-06 13:43:12*
%MOMM*%
%LPD*%
G01*
G04 APERTURE LIST*
%ADD10C,0.100000*%
%ADD11C,0.200000*%
%ADD12C,0.115200*%
%ADD13C,0.320000*%
G04 APERTURE END LIST*
D10*
X5080000Y-3810000D02*
X5080000Y-15430500D01*
X10020300Y-3810000D02*
X5080000Y-3810000D01*
X5080000Y-15430500D02*
X10020300Y-15430500D01*
X10020300Y-15430500D02*
X10020300Y-3810000D01*
D11*
D12*
X5200200Y-4603300D02*
X5315400Y-4718500D01*
X5315400Y-4603300D02*
X5200200Y-4718500D01*
X5200200Y-14522000D02*
X5315400Y-14637200D01*
X5315400Y-14522000D02*
X5200200Y-14637200D01*
X9784900Y-4603300D02*
X9900100Y-4718500D01*
X9900100Y-4603300D02*
X9784900Y-4718500D01*
X9784900Y-14522000D02*
X9900100Y-14637200D01*
X9900100Y-14522000D02*
X9784900Y-14637200D01*
D13*
X5590000Y-4160000D02*
G75*
G03*
X5590000Y-4160000I-160000J0D01*
G01*
X5590000Y-15080000D02*
G75*
G03*
X5590000Y-15080000I-160000J0D01*
G01*
X9830000Y-4160000D02*
G75*
G03*
X9830000Y-4160000I-160000J0D01*
G01*
X9830000Y-15080000D02*
G75*
G03*
X9830000Y-15080000I-160000J0D01*
G01*
D11*
X5335777Y-15746984D02*
X5335777Y-15546984D01*
X5335777Y-15546984D02*
X5383396Y-15546984D01*
X5383396Y-15546984D02*
X5411967Y-15556508D01*
X5411967Y-15556508D02*
X5431015Y-15575555D01*
X5431015Y-15575555D02*
X5440539Y-15594603D01*
X5440539Y-15594603D02*
X5450063Y-15632698D01*
X5450063Y-15632698D02*
X5450063Y-15661269D01*
X5450063Y-15661269D02*
X5440539Y-15699365D01*
X5440539Y-15699365D02*
X5431015Y-15718412D01*
X5431015Y-15718412D02*
X5411967Y-15737460D01*
X5411967Y-15737460D02*
X5383396Y-15746984D01*
X5383396Y-15746984D02*
X5335777Y-15746984D01*
X5535777Y-15746984D02*
X5535777Y-15613650D01*
X5535777Y-15651746D02*
X5545301Y-15632698D01*
X5545301Y-15632698D02*
X5554824Y-15623174D01*
X5554824Y-15623174D02*
X5573872Y-15613650D01*
X5573872Y-15613650D02*
X5592920Y-15613650D01*
X5659586Y-15746984D02*
X5659586Y-15613650D01*
X5659586Y-15546984D02*
X5650062Y-15556508D01*
X5650062Y-15556508D02*
X5659586Y-15566031D01*
X5659586Y-15566031D02*
X5669110Y-15556508D01*
X5669110Y-15556508D02*
X5659586Y-15546984D01*
X5659586Y-15546984D02*
X5659586Y-15566031D01*
X5783396Y-15746984D02*
X5764348Y-15737460D01*
X5764348Y-15737460D02*
X5754824Y-15718412D01*
X5754824Y-15718412D02*
X5754824Y-15546984D01*
X5888158Y-15746984D02*
X5869110Y-15737460D01*
X5869110Y-15737460D02*
X5859586Y-15718412D01*
X5859586Y-15718412D02*
X5859586Y-15546984D01*
X6116729Y-15746984D02*
X6116729Y-15546984D01*
X6116729Y-15546984D02*
X6183396Y-15689841D01*
X6183396Y-15689841D02*
X6250062Y-15546984D01*
X6250062Y-15546984D02*
X6250062Y-15746984D01*
X6431015Y-15746984D02*
X6431015Y-15642222D01*
X6431015Y-15642222D02*
X6421491Y-15623174D01*
X6421491Y-15623174D02*
X6402443Y-15613650D01*
X6402443Y-15613650D02*
X6364348Y-15613650D01*
X6364348Y-15613650D02*
X6345301Y-15623174D01*
X6431015Y-15737460D02*
X6411967Y-15746984D01*
X6411967Y-15746984D02*
X6364348Y-15746984D01*
X6364348Y-15746984D02*
X6345301Y-15737460D01*
X6345301Y-15737460D02*
X6335777Y-15718412D01*
X6335777Y-15718412D02*
X6335777Y-15699365D01*
X6335777Y-15699365D02*
X6345301Y-15680317D01*
X6345301Y-15680317D02*
X6364348Y-15670793D01*
X6364348Y-15670793D02*
X6411967Y-15670793D01*
X6411967Y-15670793D02*
X6431015Y-15661269D01*
X6526253Y-15613650D02*
X6526253Y-15813650D01*
X6526253Y-15623174D02*
X6545301Y-15613650D01*
X6545301Y-15613650D02*
X6583396Y-15613650D01*
X6583396Y-15613650D02*
X6602443Y-15623174D01*
X6602443Y-15623174D02*
X6611967Y-15632698D01*
X6611967Y-15632698D02*
X6621491Y-15651746D01*
X6621491Y-15651746D02*
X6621491Y-15708888D01*
X6621491Y-15708888D02*
X6611967Y-15727936D01*
X6611967Y-15727936D02*
X6602443Y-15737460D01*
X6602443Y-15737460D02*
X6583396Y-15746984D01*
X6583396Y-15746984D02*
X6545301Y-15746984D01*
X6545301Y-15746984D02*
X6526253Y-15737460D01*
X6707205Y-15727936D02*
X6716729Y-15737460D01*
X6716729Y-15737460D02*
X6707205Y-15746984D01*
X6707205Y-15746984D02*
X6697682Y-15737460D01*
X6697682Y-15737460D02*
X6707205Y-15727936D01*
X6707205Y-15727936D02*
X6707205Y-15746984D01*
X6707205Y-15623174D02*
X6716729Y-15632698D01*
X6716729Y-15632698D02*
X6707205Y-15642222D01*
X6707205Y-15642222D02*
X6697682Y-15632698D01*
X6697682Y-15632698D02*
X6707205Y-15623174D01*
X6707205Y-15623174D02*
X6707205Y-15642222D01*
D12*
X4959800Y-16017900D02*
X5075000Y-16133100D01*
X5075000Y-16017900D02*
X4959800Y-16133100D01*
D11*
X5440539Y-16166984D02*
X5326253Y-16166984D01*
X5383396Y-16166984D02*
X5383396Y-15966984D01*
X5383396Y-15966984D02*
X5364348Y-15995555D01*
X5364348Y-15995555D02*
X5345301Y-16014603D01*
X5345301Y-16014603D02*
X5326253Y-16024127D01*
X5526253Y-16147936D02*
X5535777Y-16157460D01*
X5535777Y-16157460D02*
X5526253Y-16166984D01*
X5526253Y-16166984D02*
X5516729Y-16157460D01*
X5516729Y-16157460D02*
X5526253Y-16147936D01*
X5526253Y-16147936D02*
X5526253Y-16166984D01*
X5726253Y-16166984D02*
X5611967Y-16166984D01*
X5669110Y-16166984D02*
X5669110Y-15966984D01*
X5669110Y-15966984D02*
X5650062Y-15995555D01*
X5650062Y-15995555D02*
X5631015Y-16014603D01*
X5631015Y-16014603D02*
X5611967Y-16024127D01*
X5907205Y-15966984D02*
X5811967Y-15966984D01*
X5811967Y-15966984D02*
X5802443Y-16062222D01*
X5802443Y-16062222D02*
X5811967Y-16052698D01*
X5811967Y-16052698D02*
X5831015Y-16043174D01*
X5831015Y-16043174D02*
X5878634Y-16043174D01*
X5878634Y-16043174D02*
X5897682Y-16052698D01*
X5897682Y-16052698D02*
X5907205Y-16062222D01*
X5907205Y-16062222D02*
X5916729Y-16081269D01*
X5916729Y-16081269D02*
X5916729Y-16128888D01*
X5916729Y-16128888D02*
X5907205Y-16147936D01*
X5907205Y-16147936D02*
X5897682Y-16157460D01*
X5897682Y-16157460D02*
X5878634Y-16166984D01*
X5878634Y-16166984D02*
X5831015Y-16166984D01*
X5831015Y-16166984D02*
X5811967Y-16157460D01*
X5811967Y-16157460D02*
X5802443Y-16147936D01*
X5992920Y-15986031D02*
X6002443Y-15976508D01*
X6002443Y-15976508D02*
X6021491Y-15966984D01*
X6021491Y-15966984D02*
X6069110Y-15966984D01*
X6069110Y-15966984D02*
X6088158Y-15976508D01*
X6088158Y-15976508D02*
X6097682Y-15986031D01*
X6097682Y-15986031D02*
X6107205Y-16005079D01*
X6107205Y-16005079D02*
X6107205Y-16024127D01*
X6107205Y-16024127D02*
X6097682Y-16052698D01*
X6097682Y-16052698D02*
X5983396Y-16166984D01*
X5983396Y-16166984D02*
X6107205Y-16166984D01*
X6192920Y-16166984D02*
X6192920Y-16033650D01*
X6192920Y-16052698D02*
X6202443Y-16043174D01*
X6202443Y-16043174D02*
X6221491Y-16033650D01*
X6221491Y-16033650D02*
X6250063Y-16033650D01*
X6250063Y-16033650D02*
X6269110Y-16043174D01*
X6269110Y-16043174D02*
X6278634Y-16062222D01*
X6278634Y-16062222D02*
X6278634Y-16166984D01*
X6278634Y-16062222D02*
X6288158Y-16043174D01*
X6288158Y-16043174D02*
X6307205Y-16033650D01*
X6307205Y-16033650D02*
X6335777Y-16033650D01*
X6335777Y-16033650D02*
X6354824Y-16043174D01*
X6354824Y-16043174D02*
X6364348Y-16062222D01*
X6364348Y-16062222D02*
X6364348Y-16166984D01*
X6459586Y-16166984D02*
X6459586Y-16033650D01*
X6459586Y-16052698D02*
X6469110Y-16043174D01*
X6469110Y-16043174D02*
X6488158Y-16033650D01*
X6488158Y-16033650D02*
X6516729Y-16033650D01*
X6516729Y-16033650D02*
X6535777Y-16043174D01*
X6535777Y-16043174D02*
X6545301Y-16062222D01*
X6545301Y-16062222D02*
X6545301Y-16166984D01*
X6545301Y-16062222D02*
X6554824Y-16043174D01*
X6554824Y-16043174D02*
X6573872Y-16033650D01*
X6573872Y-16033650D02*
X6602443Y-16033650D01*
X6602443Y-16033650D02*
X6621491Y-16043174D01*
X6621491Y-16043174D02*
X6631015Y-16062222D01*
X6631015Y-16062222D02*
X6631015Y-16166984D01*
X7021491Y-15957460D02*
X6850063Y-16214603D01*
X7278634Y-15966984D02*
X7297682Y-15966984D01*
X7297682Y-15966984D02*
X7316729Y-15976508D01*
X7316729Y-15976508D02*
X7326253Y-15986031D01*
X7326253Y-15986031D02*
X7335777Y-16005079D01*
X7335777Y-16005079D02*
X7345301Y-16043174D01*
X7345301Y-16043174D02*
X7345301Y-16090793D01*
X7345301Y-16090793D02*
X7335777Y-16128888D01*
X7335777Y-16128888D02*
X7326253Y-16147936D01*
X7326253Y-16147936D02*
X7316729Y-16157460D01*
X7316729Y-16157460D02*
X7297682Y-16166984D01*
X7297682Y-16166984D02*
X7278634Y-16166984D01*
X7278634Y-16166984D02*
X7259586Y-16157460D01*
X7259586Y-16157460D02*
X7250063Y-16147936D01*
X7250063Y-16147936D02*
X7240539Y-16128888D01*
X7240539Y-16128888D02*
X7231015Y-16090793D01*
X7231015Y-16090793D02*
X7231015Y-16043174D01*
X7231015Y-16043174D02*
X7240539Y-16005079D01*
X7240539Y-16005079D02*
X7250063Y-15986031D01*
X7250063Y-15986031D02*
X7259586Y-15976508D01*
X7259586Y-15976508D02*
X7278634Y-15966984D01*
X7431015Y-16147936D02*
X7440539Y-16157460D01*
X7440539Y-16157460D02*
X7431015Y-16166984D01*
X7431015Y-16166984D02*
X7421491Y-16157460D01*
X7421491Y-16157460D02*
X7431015Y-16147936D01*
X7431015Y-16147936D02*
X7431015Y-16166984D01*
X7564348Y-15966984D02*
X7583396Y-15966984D01*
X7583396Y-15966984D02*
X7602444Y-15976508D01*
X7602444Y-15976508D02*
X7611967Y-15986031D01*
X7611967Y-15986031D02*
X7621491Y-16005079D01*
X7621491Y-16005079D02*
X7631015Y-16043174D01*
X7631015Y-16043174D02*
X7631015Y-16090793D01*
X7631015Y-16090793D02*
X7621491Y-16128888D01*
X7621491Y-16128888D02*
X7611967Y-16147936D01*
X7611967Y-16147936D02*
X7602444Y-16157460D01*
X7602444Y-16157460D02*
X7583396Y-16166984D01*
X7583396Y-16166984D02*
X7564348Y-16166984D01*
X7564348Y-16166984D02*
X7545301Y-16157460D01*
X7545301Y-16157460D02*
X7535777Y-16147936D01*
X7535777Y-16147936D02*
X7526253Y-16128888D01*
X7526253Y-16128888D02*
X7516729Y-16090793D01*
X7516729Y-16090793D02*
X7516729Y-16043174D01*
X7516729Y-16043174D02*
X7526253Y-16005079D01*
X7526253Y-16005079D02*
X7535777Y-15986031D01*
X7535777Y-15986031D02*
X7545301Y-15976508D01*
X7545301Y-15976508D02*
X7564348Y-15966984D01*
X7802444Y-16033650D02*
X7802444Y-16166984D01*
X7754825Y-15957460D02*
X7707206Y-16100317D01*
X7707206Y-16100317D02*
X7831015Y-16100317D01*
X8002444Y-15966984D02*
X7907206Y-15966984D01*
X7907206Y-15966984D02*
X7897682Y-16062222D01*
X7897682Y-16062222D02*
X7907206Y-16052698D01*
X7907206Y-16052698D02*
X7926253Y-16043174D01*
X7926253Y-16043174D02*
X7973872Y-16043174D01*
X7973872Y-16043174D02*
X7992920Y-16052698D01*
X7992920Y-16052698D02*
X8002444Y-16062222D01*
X8002444Y-16062222D02*
X8011967Y-16081269D01*
X8011967Y-16081269D02*
X8011967Y-16128888D01*
X8011967Y-16128888D02*
X8002444Y-16147936D01*
X8002444Y-16147936D02*
X7992920Y-16157460D01*
X7992920Y-16157460D02*
X7973872Y-16166984D01*
X7973872Y-16166984D02*
X7926253Y-16166984D01*
X7926253Y-16166984D02*
X7907206Y-16157460D01*
X7907206Y-16157460D02*
X7897682Y-16147936D01*
X8183396Y-16033650D02*
X8183396Y-16166984D01*
X8135777Y-15957460D02*
X8088158Y-16100317D01*
X8088158Y-16100317D02*
X8211967Y-16100317D01*
X8278634Y-15966984D02*
X8278634Y-16005079D01*
X8354825Y-15966984D02*
X8354825Y-16005079D01*
X8650063Y-16243174D02*
X8640539Y-16233650D01*
X8640539Y-16233650D02*
X8621491Y-16205079D01*
X8621491Y-16205079D02*
X8611968Y-16186031D01*
X8611968Y-16186031D02*
X8602444Y-16157460D01*
X8602444Y-16157460D02*
X8592920Y-16109841D01*
X8592920Y-16109841D02*
X8592920Y-16071746D01*
X8592920Y-16071746D02*
X8602444Y-16024127D01*
X8602444Y-16024127D02*
X8611968Y-15995555D01*
X8611968Y-15995555D02*
X8621491Y-15976508D01*
X8621491Y-15976508D02*
X8640539Y-15947936D01*
X8640539Y-15947936D02*
X8650063Y-15938412D01*
X8811968Y-16033650D02*
X8811968Y-16166984D01*
X8764349Y-15957460D02*
X8716730Y-16100317D01*
X8716730Y-16100317D02*
X8840539Y-16100317D01*
X9069111Y-16166984D02*
X9069111Y-15966984D01*
X9154825Y-16166984D02*
X9154825Y-16062222D01*
X9154825Y-16062222D02*
X9145301Y-16043174D01*
X9145301Y-16043174D02*
X9126253Y-16033650D01*
X9126253Y-16033650D02*
X9097682Y-16033650D01*
X9097682Y-16033650D02*
X9078634Y-16043174D01*
X9078634Y-16043174D02*
X9069111Y-16052698D01*
X9278634Y-16166984D02*
X9259587Y-16157460D01*
X9259587Y-16157460D02*
X9250063Y-16147936D01*
X9250063Y-16147936D02*
X9240539Y-16128888D01*
X9240539Y-16128888D02*
X9240539Y-16071746D01*
X9240539Y-16071746D02*
X9250063Y-16052698D01*
X9250063Y-16052698D02*
X9259587Y-16043174D01*
X9259587Y-16043174D02*
X9278634Y-16033650D01*
X9278634Y-16033650D02*
X9307206Y-16033650D01*
X9307206Y-16033650D02*
X9326253Y-16043174D01*
X9326253Y-16043174D02*
X9335777Y-16052698D01*
X9335777Y-16052698D02*
X9345301Y-16071746D01*
X9345301Y-16071746D02*
X9345301Y-16128888D01*
X9345301Y-16128888D02*
X9335777Y-16147936D01*
X9335777Y-16147936D02*
X9326253Y-16157460D01*
X9326253Y-16157460D02*
X9307206Y-16166984D01*
X9307206Y-16166984D02*
X9278634Y-16166984D01*
X9459587Y-16166984D02*
X9440539Y-16157460D01*
X9440539Y-16157460D02*
X9431015Y-16138412D01*
X9431015Y-16138412D02*
X9431015Y-15966984D01*
X9611968Y-16157460D02*
X9592920Y-16166984D01*
X9592920Y-16166984D02*
X9554825Y-16166984D01*
X9554825Y-16166984D02*
X9535777Y-16157460D01*
X9535777Y-16157460D02*
X9526253Y-16138412D01*
X9526253Y-16138412D02*
X9526253Y-16062222D01*
X9526253Y-16062222D02*
X9535777Y-16043174D01*
X9535777Y-16043174D02*
X9554825Y-16033650D01*
X9554825Y-16033650D02*
X9592920Y-16033650D01*
X9592920Y-16033650D02*
X9611968Y-16043174D01*
X9611968Y-16043174D02*
X9621492Y-16062222D01*
X9621492Y-16062222D02*
X9621492Y-16081269D01*
X9621492Y-16081269D02*
X9526253Y-16100317D01*
X9697682Y-16157460D02*
X9716730Y-16166984D01*
X9716730Y-16166984D02*
X9754825Y-16166984D01*
X9754825Y-16166984D02*
X9773873Y-16157460D01*
X9773873Y-16157460D02*
X9783396Y-16138412D01*
X9783396Y-16138412D02*
X9783396Y-16128888D01*
X9783396Y-16128888D02*
X9773873Y-16109841D01*
X9773873Y-16109841D02*
X9754825Y-16100317D01*
X9754825Y-16100317D02*
X9726253Y-16100317D01*
X9726253Y-16100317D02*
X9707206Y-16090793D01*
X9707206Y-16090793D02*
X9697682Y-16071746D01*
X9697682Y-16071746D02*
X9697682Y-16062222D01*
X9697682Y-16062222D02*
X9707206Y-16043174D01*
X9707206Y-16043174D02*
X9726253Y-16033650D01*
X9726253Y-16033650D02*
X9754825Y-16033650D01*
X9754825Y-16033650D02*
X9773873Y-16043174D01*
X9850063Y-16243174D02*
X9859587Y-16233650D01*
X9859587Y-16233650D02*
X9878634Y-16205079D01*
X9878634Y-16205079D02*
X9888158Y-16186031D01*
X9888158Y-16186031D02*
X9897682Y-16157460D01*
X9897682Y-16157460D02*
X9907206Y-16109841D01*
X9907206Y-16109841D02*
X9907206Y-16071746D01*
X9907206Y-16071746D02*
X9897682Y-16024127D01*
X9897682Y-16024127D02*
X9888158Y-15995555D01*
X9888158Y-15995555D02*
X9878634Y-15976508D01*
X9878634Y-15976508D02*
X9859587Y-15947936D01*
X9859587Y-15947936D02*
X9850063Y-15938412D01*
X10211968Y-16243174D02*
X10202444Y-16233650D01*
X10202444Y-16233650D02*
X10183396Y-16205079D01*
X10183396Y-16205079D02*
X10173873Y-16186031D01*
X10173873Y-16186031D02*
X10164349Y-16157460D01*
X10164349Y-16157460D02*
X10154825Y-16109841D01*
X10154825Y-16109841D02*
X10154825Y-16071746D01*
X10154825Y-16071746D02*
X10164349Y-16024127D01*
X10164349Y-16024127D02*
X10173873Y-15995555D01*
X10173873Y-15995555D02*
X10183396Y-15976508D01*
X10183396Y-15976508D02*
X10202444Y-15947936D01*
X10202444Y-15947936D02*
X10211968Y-15938412D01*
X10288158Y-16033650D02*
X10288158Y-16166984D01*
X10288158Y-16052698D02*
X10297682Y-16043174D01*
X10297682Y-16043174D02*
X10316730Y-16033650D01*
X10316730Y-16033650D02*
X10345301Y-16033650D01*
X10345301Y-16033650D02*
X10364349Y-16043174D01*
X10364349Y-16043174D02*
X10373873Y-16062222D01*
X10373873Y-16062222D02*
X10373873Y-16166984D01*
X10497682Y-16166984D02*
X10478634Y-16157460D01*
X10478634Y-16157460D02*
X10469111Y-16147936D01*
X10469111Y-16147936D02*
X10459587Y-16128888D01*
X10459587Y-16128888D02*
X10459587Y-16071746D01*
X10459587Y-16071746D02*
X10469111Y-16052698D01*
X10469111Y-16052698D02*
X10478634Y-16043174D01*
X10478634Y-16043174D02*
X10497682Y-16033650D01*
X10497682Y-16033650D02*
X10526254Y-16033650D01*
X10526254Y-16033650D02*
X10545301Y-16043174D01*
X10545301Y-16043174D02*
X10554825Y-16052698D01*
X10554825Y-16052698D02*
X10564349Y-16071746D01*
X10564349Y-16071746D02*
X10564349Y-16128888D01*
X10564349Y-16128888D02*
X10554825Y-16147936D01*
X10554825Y-16147936D02*
X10545301Y-16157460D01*
X10545301Y-16157460D02*
X10526254Y-16166984D01*
X10526254Y-16166984D02*
X10497682Y-16166984D01*
X10621492Y-16033650D02*
X10697682Y-16033650D01*
X10650063Y-15966984D02*
X10650063Y-16138412D01*
X10650063Y-16138412D02*
X10659587Y-16157460D01*
X10659587Y-16157460D02*
X10678634Y-16166984D01*
X10678634Y-16166984D02*
X10697682Y-16166984D01*
X10916730Y-16033650D02*
X10916730Y-16233650D01*
X10916730Y-16043174D02*
X10935777Y-16033650D01*
X10935777Y-16033650D02*
X10973873Y-16033650D01*
X10973873Y-16033650D02*
X10992920Y-16043174D01*
X10992920Y-16043174D02*
X11002444Y-16052698D01*
X11002444Y-16052698D02*
X11011968Y-16071746D01*
X11011968Y-16071746D02*
X11011968Y-16128888D01*
X11011968Y-16128888D02*
X11002444Y-16147936D01*
X11002444Y-16147936D02*
X10992920Y-16157460D01*
X10992920Y-16157460D02*
X10973873Y-16166984D01*
X10973873Y-16166984D02*
X10935777Y-16166984D01*
X10935777Y-16166984D02*
X10916730Y-16157460D01*
X11126254Y-16166984D02*
X11107206Y-16157460D01*
X11107206Y-16157460D02*
X11097682Y-16138412D01*
X11097682Y-16138412D02*
X11097682Y-15966984D01*
X11288158Y-16166984D02*
X11288158Y-16062222D01*
X11288158Y-16062222D02*
X11278634Y-16043174D01*
X11278634Y-16043174D02*
X11259587Y-16033650D01*
X11259587Y-16033650D02*
X11221492Y-16033650D01*
X11221492Y-16033650D02*
X11202444Y-16043174D01*
X11288158Y-16157460D02*
X11269111Y-16166984D01*
X11269111Y-16166984D02*
X11221492Y-16166984D01*
X11221492Y-16166984D02*
X11202444Y-16157460D01*
X11202444Y-16157460D02*
X11192920Y-16138412D01*
X11192920Y-16138412D02*
X11192920Y-16119365D01*
X11192920Y-16119365D02*
X11202444Y-16100317D01*
X11202444Y-16100317D02*
X11221492Y-16090793D01*
X11221492Y-16090793D02*
X11269111Y-16090793D01*
X11269111Y-16090793D02*
X11288158Y-16081269D01*
X11354825Y-16033650D02*
X11431015Y-16033650D01*
X11383396Y-15966984D02*
X11383396Y-16138412D01*
X11383396Y-16138412D02*
X11392920Y-16157460D01*
X11392920Y-16157460D02*
X11411968Y-16166984D01*
X11411968Y-16166984D02*
X11431015Y-16166984D01*
X11573873Y-16157460D02*
X11554825Y-16166984D01*
X11554825Y-16166984D02*
X11516730Y-16166984D01*
X11516730Y-16166984D02*
X11497682Y-16157460D01*
X11497682Y-16157460D02*
X11488158Y-16138412D01*
X11488158Y-16138412D02*
X11488158Y-16062222D01*
X11488158Y-16062222D02*
X11497682Y-16043174D01*
X11497682Y-16043174D02*
X11516730Y-16033650D01*
X11516730Y-16033650D02*
X11554825Y-16033650D01*
X11554825Y-16033650D02*
X11573873Y-16043174D01*
X11573873Y-16043174D02*
X11583396Y-16062222D01*
X11583396Y-16062222D02*
X11583396Y-16081269D01*
X11583396Y-16081269D02*
X11488158Y-16100317D01*
X11754825Y-16166984D02*
X11754825Y-15966984D01*
X11754825Y-16157460D02*
X11735777Y-16166984D01*
X11735777Y-16166984D02*
X11697682Y-16166984D01*
X11697682Y-16166984D02*
X11678634Y-16157460D01*
X11678634Y-16157460D02*
X11669111Y-16147936D01*
X11669111Y-16147936D02*
X11659587Y-16128888D01*
X11659587Y-16128888D02*
X11659587Y-16071746D01*
X11659587Y-16071746D02*
X11669111Y-16052698D01*
X11669111Y-16052698D02*
X11678634Y-16043174D01*
X11678634Y-16043174D02*
X11697682Y-16033650D01*
X11697682Y-16033650D02*
X11735777Y-16033650D01*
X11735777Y-16033650D02*
X11754825Y-16043174D01*
X11831015Y-16243174D02*
X11840539Y-16233650D01*
X11840539Y-16233650D02*
X11859587Y-16205079D01*
X11859587Y-16205079D02*
X11869111Y-16186031D01*
X11869111Y-16186031D02*
X11878634Y-16157460D01*
X11878634Y-16157460D02*
X11888158Y-16109841D01*
X11888158Y-16109841D02*
X11888158Y-16071746D01*
X11888158Y-16071746D02*
X11878634Y-16024127D01*
X11878634Y-16024127D02*
X11869111Y-15995555D01*
X11869111Y-15995555D02*
X11859587Y-15976508D01*
X11859587Y-15976508D02*
X11840539Y-15947936D01*
X11840539Y-15947936D02*
X11831015Y-15938412D01*
X5075000Y-16339500D02*
G75*
G03*
X5075000Y-16339500I-100000J0D01*
G01*
X5316729Y-16230984D02*
X5440539Y-16230984D01*
X5440539Y-16230984D02*
X5373872Y-16307174D01*
X5373872Y-16307174D02*
X5402444Y-16307174D01*
X5402444Y-16307174D02*
X5421491Y-16316698D01*
X5421491Y-16316698D02*
X5431015Y-16326222D01*
X5431015Y-16326222D02*
X5440539Y-16345269D01*
X5440539Y-16345269D02*
X5440539Y-16392888D01*
X5440539Y-16392888D02*
X5431015Y-16411936D01*
X5431015Y-16411936D02*
X5421491Y-16421460D01*
X5421491Y-16421460D02*
X5402444Y-16430984D01*
X5402444Y-16430984D02*
X5345301Y-16430984D01*
X5345301Y-16430984D02*
X5326253Y-16421460D01*
X5326253Y-16421460D02*
X5316729Y-16411936D01*
X5526253Y-16411936D02*
X5535777Y-16421460D01*
X5535777Y-16421460D02*
X5526253Y-16430984D01*
X5526253Y-16430984D02*
X5516729Y-16421460D01*
X5516729Y-16421460D02*
X5526253Y-16411936D01*
X5526253Y-16411936D02*
X5526253Y-16430984D01*
X5611967Y-16250031D02*
X5621491Y-16240508D01*
X5621491Y-16240508D02*
X5640539Y-16230984D01*
X5640539Y-16230984D02*
X5688158Y-16230984D01*
X5688158Y-16230984D02*
X5707205Y-16240508D01*
X5707205Y-16240508D02*
X5716729Y-16250031D01*
X5716729Y-16250031D02*
X5726253Y-16269079D01*
X5726253Y-16269079D02*
X5726253Y-16288127D01*
X5726253Y-16288127D02*
X5716729Y-16316698D01*
X5716729Y-16316698D02*
X5602443Y-16430984D01*
X5602443Y-16430984D02*
X5726253Y-16430984D01*
X5850062Y-16230984D02*
X5869110Y-16230984D01*
X5869110Y-16230984D02*
X5888158Y-16240508D01*
X5888158Y-16240508D02*
X5897682Y-16250031D01*
X5897682Y-16250031D02*
X5907205Y-16269079D01*
X5907205Y-16269079D02*
X5916729Y-16307174D01*
X5916729Y-16307174D02*
X5916729Y-16354793D01*
X5916729Y-16354793D02*
X5907205Y-16392888D01*
X5907205Y-16392888D02*
X5897682Y-16411936D01*
X5897682Y-16411936D02*
X5888158Y-16421460D01*
X5888158Y-16421460D02*
X5869110Y-16430984D01*
X5869110Y-16430984D02*
X5850062Y-16430984D01*
X5850062Y-16430984D02*
X5831015Y-16421460D01*
X5831015Y-16421460D02*
X5821491Y-16411936D01*
X5821491Y-16411936D02*
X5811967Y-16392888D01*
X5811967Y-16392888D02*
X5802443Y-16354793D01*
X5802443Y-16354793D02*
X5802443Y-16307174D01*
X5802443Y-16307174D02*
X5811967Y-16269079D01*
X5811967Y-16269079D02*
X5821491Y-16250031D01*
X5821491Y-16250031D02*
X5831015Y-16240508D01*
X5831015Y-16240508D02*
X5850062Y-16230984D01*
X6040539Y-16230984D02*
X6059586Y-16230984D01*
X6059586Y-16230984D02*
X6078634Y-16240508D01*
X6078634Y-16240508D02*
X6088158Y-16250031D01*
X6088158Y-16250031D02*
X6097682Y-16269079D01*
X6097682Y-16269079D02*
X6107205Y-16307174D01*
X6107205Y-16307174D02*
X6107205Y-16354793D01*
X6107205Y-16354793D02*
X6097682Y-16392888D01*
X6097682Y-16392888D02*
X6088158Y-16411936D01*
X6088158Y-16411936D02*
X6078634Y-16421460D01*
X6078634Y-16421460D02*
X6059586Y-16430984D01*
X6059586Y-16430984D02*
X6040539Y-16430984D01*
X6040539Y-16430984D02*
X6021491Y-16421460D01*
X6021491Y-16421460D02*
X6011967Y-16411936D01*
X6011967Y-16411936D02*
X6002443Y-16392888D01*
X6002443Y-16392888D02*
X5992920Y-16354793D01*
X5992920Y-16354793D02*
X5992920Y-16307174D01*
X5992920Y-16307174D02*
X6002443Y-16269079D01*
X6002443Y-16269079D02*
X6011967Y-16250031D01*
X6011967Y-16250031D02*
X6021491Y-16240508D01*
X6021491Y-16240508D02*
X6040539Y-16230984D01*
X6192920Y-16430984D02*
X6192920Y-16297650D01*
X6192920Y-16316698D02*
X6202443Y-16307174D01*
X6202443Y-16307174D02*
X6221491Y-16297650D01*
X6221491Y-16297650D02*
X6250063Y-16297650D01*
X6250063Y-16297650D02*
X6269110Y-16307174D01*
X6269110Y-16307174D02*
X6278634Y-16326222D01*
X6278634Y-16326222D02*
X6278634Y-16430984D01*
X6278634Y-16326222D02*
X6288158Y-16307174D01*
X6288158Y-16307174D02*
X6307205Y-16297650D01*
X6307205Y-16297650D02*
X6335777Y-16297650D01*
X6335777Y-16297650D02*
X6354824Y-16307174D01*
X6354824Y-16307174D02*
X6364348Y-16326222D01*
X6364348Y-16326222D02*
X6364348Y-16430984D01*
X6459586Y-16430984D02*
X6459586Y-16297650D01*
X6459586Y-16316698D02*
X6469110Y-16307174D01*
X6469110Y-16307174D02*
X6488158Y-16297650D01*
X6488158Y-16297650D02*
X6516729Y-16297650D01*
X6516729Y-16297650D02*
X6535777Y-16307174D01*
X6535777Y-16307174D02*
X6545301Y-16326222D01*
X6545301Y-16326222D02*
X6545301Y-16430984D01*
X6545301Y-16326222D02*
X6554824Y-16307174D01*
X6554824Y-16307174D02*
X6573872Y-16297650D01*
X6573872Y-16297650D02*
X6602443Y-16297650D01*
X6602443Y-16297650D02*
X6621491Y-16307174D01*
X6621491Y-16307174D02*
X6631015Y-16326222D01*
X6631015Y-16326222D02*
X6631015Y-16430984D01*
X7021491Y-16221460D02*
X6850063Y-16478603D01*
X7278634Y-16230984D02*
X7297682Y-16230984D01*
X7297682Y-16230984D02*
X7316729Y-16240508D01*
X7316729Y-16240508D02*
X7326253Y-16250031D01*
X7326253Y-16250031D02*
X7335777Y-16269079D01*
X7335777Y-16269079D02*
X7345301Y-16307174D01*
X7345301Y-16307174D02*
X7345301Y-16354793D01*
X7345301Y-16354793D02*
X7335777Y-16392888D01*
X7335777Y-16392888D02*
X7326253Y-16411936D01*
X7326253Y-16411936D02*
X7316729Y-16421460D01*
X7316729Y-16421460D02*
X7297682Y-16430984D01*
X7297682Y-16430984D02*
X7278634Y-16430984D01*
X7278634Y-16430984D02*
X7259586Y-16421460D01*
X7259586Y-16421460D02*
X7250063Y-16411936D01*
X7250063Y-16411936D02*
X7240539Y-16392888D01*
X7240539Y-16392888D02*
X7231015Y-16354793D01*
X7231015Y-16354793D02*
X7231015Y-16307174D01*
X7231015Y-16307174D02*
X7240539Y-16269079D01*
X7240539Y-16269079D02*
X7250063Y-16250031D01*
X7250063Y-16250031D02*
X7259586Y-16240508D01*
X7259586Y-16240508D02*
X7278634Y-16230984D01*
X7431015Y-16411936D02*
X7440539Y-16421460D01*
X7440539Y-16421460D02*
X7431015Y-16430984D01*
X7431015Y-16430984D02*
X7421491Y-16421460D01*
X7421491Y-16421460D02*
X7431015Y-16411936D01*
X7431015Y-16411936D02*
X7431015Y-16430984D01*
X7631015Y-16430984D02*
X7516729Y-16430984D01*
X7573872Y-16430984D02*
X7573872Y-16230984D01*
X7573872Y-16230984D02*
X7554825Y-16259555D01*
X7554825Y-16259555D02*
X7535777Y-16278603D01*
X7535777Y-16278603D02*
X7516729Y-16288127D01*
X7707206Y-16250031D02*
X7716729Y-16240508D01*
X7716729Y-16240508D02*
X7735777Y-16230984D01*
X7735777Y-16230984D02*
X7783396Y-16230984D01*
X7783396Y-16230984D02*
X7802444Y-16240508D01*
X7802444Y-16240508D02*
X7811967Y-16250031D01*
X7811967Y-16250031D02*
X7821491Y-16269079D01*
X7821491Y-16269079D02*
X7821491Y-16288127D01*
X7821491Y-16288127D02*
X7811967Y-16316698D01*
X7811967Y-16316698D02*
X7697682Y-16430984D01*
X7697682Y-16430984D02*
X7821491Y-16430984D01*
X7992920Y-16230984D02*
X7954825Y-16230984D01*
X7954825Y-16230984D02*
X7935777Y-16240508D01*
X7935777Y-16240508D02*
X7926253Y-16250031D01*
X7926253Y-16250031D02*
X7907206Y-16278603D01*
X7907206Y-16278603D02*
X7897682Y-16316698D01*
X7897682Y-16316698D02*
X7897682Y-16392888D01*
X7897682Y-16392888D02*
X7907206Y-16411936D01*
X7907206Y-16411936D02*
X7916729Y-16421460D01*
X7916729Y-16421460D02*
X7935777Y-16430984D01*
X7935777Y-16430984D02*
X7973872Y-16430984D01*
X7973872Y-16430984D02*
X7992920Y-16421460D01*
X7992920Y-16421460D02*
X8002444Y-16411936D01*
X8002444Y-16411936D02*
X8011967Y-16392888D01*
X8011967Y-16392888D02*
X8011967Y-16345269D01*
X8011967Y-16345269D02*
X8002444Y-16326222D01*
X8002444Y-16326222D02*
X7992920Y-16316698D01*
X7992920Y-16316698D02*
X7973872Y-16307174D01*
X7973872Y-16307174D02*
X7935777Y-16307174D01*
X7935777Y-16307174D02*
X7916729Y-16316698D01*
X7916729Y-16316698D02*
X7907206Y-16326222D01*
X7907206Y-16326222D02*
X7897682Y-16345269D01*
X8135777Y-16230984D02*
X8154825Y-16230984D01*
X8154825Y-16230984D02*
X8173872Y-16240508D01*
X8173872Y-16240508D02*
X8183396Y-16250031D01*
X8183396Y-16250031D02*
X8192920Y-16269079D01*
X8192920Y-16269079D02*
X8202444Y-16307174D01*
X8202444Y-16307174D02*
X8202444Y-16354793D01*
X8202444Y-16354793D02*
X8192920Y-16392888D01*
X8192920Y-16392888D02*
X8183396Y-16411936D01*
X8183396Y-16411936D02*
X8173872Y-16421460D01*
X8173872Y-16421460D02*
X8154825Y-16430984D01*
X8154825Y-16430984D02*
X8135777Y-16430984D01*
X8135777Y-16430984D02*
X8116729Y-16421460D01*
X8116729Y-16421460D02*
X8107206Y-16411936D01*
X8107206Y-16411936D02*
X8097682Y-16392888D01*
X8097682Y-16392888D02*
X8088158Y-16354793D01*
X8088158Y-16354793D02*
X8088158Y-16307174D01*
X8088158Y-16307174D02*
X8097682Y-16269079D01*
X8097682Y-16269079D02*
X8107206Y-16250031D01*
X8107206Y-16250031D02*
X8116729Y-16240508D01*
X8116729Y-16240508D02*
X8135777Y-16230984D01*
X8278634Y-16230984D02*
X8278634Y-16269079D01*
X8354825Y-16230984D02*
X8354825Y-16269079D01*
X8650063Y-16507174D02*
X8640539Y-16497650D01*
X8640539Y-16497650D02*
X8621491Y-16469079D01*
X8621491Y-16469079D02*
X8611968Y-16450031D01*
X8611968Y-16450031D02*
X8602444Y-16421460D01*
X8602444Y-16421460D02*
X8592920Y-16373841D01*
X8592920Y-16373841D02*
X8592920Y-16335746D01*
X8592920Y-16335746D02*
X8602444Y-16288127D01*
X8602444Y-16288127D02*
X8611968Y-16259555D01*
X8611968Y-16259555D02*
X8621491Y-16240508D01*
X8621491Y-16240508D02*
X8640539Y-16211936D01*
X8640539Y-16211936D02*
X8650063Y-16202412D01*
X8811968Y-16297650D02*
X8811968Y-16430984D01*
X8764349Y-16221460D02*
X8716730Y-16364317D01*
X8716730Y-16364317D02*
X8840539Y-16364317D01*
X9069111Y-16430984D02*
X9069111Y-16230984D01*
X9154825Y-16430984D02*
X9154825Y-16326222D01*
X9154825Y-16326222D02*
X9145301Y-16307174D01*
X9145301Y-16307174D02*
X9126253Y-16297650D01*
X9126253Y-16297650D02*
X9097682Y-16297650D01*
X9097682Y-16297650D02*
X9078634Y-16307174D01*
X9078634Y-16307174D02*
X9069111Y-16316698D01*
X9278634Y-16430984D02*
X9259587Y-16421460D01*
X9259587Y-16421460D02*
X9250063Y-16411936D01*
X9250063Y-16411936D02*
X9240539Y-16392888D01*
X9240539Y-16392888D02*
X9240539Y-16335746D01*
X9240539Y-16335746D02*
X9250063Y-16316698D01*
X9250063Y-16316698D02*
X9259587Y-16307174D01*
X9259587Y-16307174D02*
X9278634Y-16297650D01*
X9278634Y-16297650D02*
X9307206Y-16297650D01*
X9307206Y-16297650D02*
X9326253Y-16307174D01*
X9326253Y-16307174D02*
X9335777Y-16316698D01*
X9335777Y-16316698D02*
X9345301Y-16335746D01*
X9345301Y-16335746D02*
X9345301Y-16392888D01*
X9345301Y-16392888D02*
X9335777Y-16411936D01*
X9335777Y-16411936D02*
X9326253Y-16421460D01*
X9326253Y-16421460D02*
X9307206Y-16430984D01*
X9307206Y-16430984D02*
X9278634Y-16430984D01*
X9459587Y-16430984D02*
X9440539Y-16421460D01*
X9440539Y-16421460D02*
X9431015Y-16402412D01*
X9431015Y-16402412D02*
X9431015Y-16230984D01*
X9611968Y-16421460D02*
X9592920Y-16430984D01*
X9592920Y-16430984D02*
X9554825Y-16430984D01*
X9554825Y-16430984D02*
X9535777Y-16421460D01*
X9535777Y-16421460D02*
X9526253Y-16402412D01*
X9526253Y-16402412D02*
X9526253Y-16326222D01*
X9526253Y-16326222D02*
X9535777Y-16307174D01*
X9535777Y-16307174D02*
X9554825Y-16297650D01*
X9554825Y-16297650D02*
X9592920Y-16297650D01*
X9592920Y-16297650D02*
X9611968Y-16307174D01*
X9611968Y-16307174D02*
X9621492Y-16326222D01*
X9621492Y-16326222D02*
X9621492Y-16345269D01*
X9621492Y-16345269D02*
X9526253Y-16364317D01*
X9697682Y-16421460D02*
X9716730Y-16430984D01*
X9716730Y-16430984D02*
X9754825Y-16430984D01*
X9754825Y-16430984D02*
X9773873Y-16421460D01*
X9773873Y-16421460D02*
X9783396Y-16402412D01*
X9783396Y-16402412D02*
X9783396Y-16392888D01*
X9783396Y-16392888D02*
X9773873Y-16373841D01*
X9773873Y-16373841D02*
X9754825Y-16364317D01*
X9754825Y-16364317D02*
X9726253Y-16364317D01*
X9726253Y-16364317D02*
X9707206Y-16354793D01*
X9707206Y-16354793D02*
X9697682Y-16335746D01*
X9697682Y-16335746D02*
X9697682Y-16326222D01*
X9697682Y-16326222D02*
X9707206Y-16307174D01*
X9707206Y-16307174D02*
X9726253Y-16297650D01*
X9726253Y-16297650D02*
X9754825Y-16297650D01*
X9754825Y-16297650D02*
X9773873Y-16307174D01*
X9850063Y-16507174D02*
X9859587Y-16497650D01*
X9859587Y-16497650D02*
X9878634Y-16469079D01*
X9878634Y-16469079D02*
X9888158Y-16450031D01*
X9888158Y-16450031D02*
X9897682Y-16421460D01*
X9897682Y-16421460D02*
X9907206Y-16373841D01*
X9907206Y-16373841D02*
X9907206Y-16335746D01*
X9907206Y-16335746D02*
X9897682Y-16288127D01*
X9897682Y-16288127D02*
X9888158Y-16259555D01*
X9888158Y-16259555D02*
X9878634Y-16240508D01*
X9878634Y-16240508D02*
X9859587Y-16211936D01*
X9859587Y-16211936D02*
X9850063Y-16202412D01*
X10211968Y-16507174D02*
X10202444Y-16497650D01*
X10202444Y-16497650D02*
X10183396Y-16469079D01*
X10183396Y-16469079D02*
X10173873Y-16450031D01*
X10173873Y-16450031D02*
X10164349Y-16421460D01*
X10164349Y-16421460D02*
X10154825Y-16373841D01*
X10154825Y-16373841D02*
X10154825Y-16335746D01*
X10154825Y-16335746D02*
X10164349Y-16288127D01*
X10164349Y-16288127D02*
X10173873Y-16259555D01*
X10173873Y-16259555D02*
X10183396Y-16240508D01*
X10183396Y-16240508D02*
X10202444Y-16211936D01*
X10202444Y-16211936D02*
X10211968Y-16202412D01*
X10288158Y-16297650D02*
X10288158Y-16430984D01*
X10288158Y-16316698D02*
X10297682Y-16307174D01*
X10297682Y-16307174D02*
X10316730Y-16297650D01*
X10316730Y-16297650D02*
X10345301Y-16297650D01*
X10345301Y-16297650D02*
X10364349Y-16307174D01*
X10364349Y-16307174D02*
X10373873Y-16326222D01*
X10373873Y-16326222D02*
X10373873Y-16430984D01*
X10497682Y-16430984D02*
X10478634Y-16421460D01*
X10478634Y-16421460D02*
X10469111Y-16411936D01*
X10469111Y-16411936D02*
X10459587Y-16392888D01*
X10459587Y-16392888D02*
X10459587Y-16335746D01*
X10459587Y-16335746D02*
X10469111Y-16316698D01*
X10469111Y-16316698D02*
X10478634Y-16307174D01*
X10478634Y-16307174D02*
X10497682Y-16297650D01*
X10497682Y-16297650D02*
X10526254Y-16297650D01*
X10526254Y-16297650D02*
X10545301Y-16307174D01*
X10545301Y-16307174D02*
X10554825Y-16316698D01*
X10554825Y-16316698D02*
X10564349Y-16335746D01*
X10564349Y-16335746D02*
X10564349Y-16392888D01*
X10564349Y-16392888D02*
X10554825Y-16411936D01*
X10554825Y-16411936D02*
X10545301Y-16421460D01*
X10545301Y-16421460D02*
X10526254Y-16430984D01*
X10526254Y-16430984D02*
X10497682Y-16430984D01*
X10621492Y-16297650D02*
X10697682Y-16297650D01*
X10650063Y-16230984D02*
X10650063Y-16402412D01*
X10650063Y-16402412D02*
X10659587Y-16421460D01*
X10659587Y-16421460D02*
X10678634Y-16430984D01*
X10678634Y-16430984D02*
X10697682Y-16430984D01*
X10916730Y-16297650D02*
X10916730Y-16497650D01*
X10916730Y-16307174D02*
X10935777Y-16297650D01*
X10935777Y-16297650D02*
X10973873Y-16297650D01*
X10973873Y-16297650D02*
X10992920Y-16307174D01*
X10992920Y-16307174D02*
X11002444Y-16316698D01*
X11002444Y-16316698D02*
X11011968Y-16335746D01*
X11011968Y-16335746D02*
X11011968Y-16392888D01*
X11011968Y-16392888D02*
X11002444Y-16411936D01*
X11002444Y-16411936D02*
X10992920Y-16421460D01*
X10992920Y-16421460D02*
X10973873Y-16430984D01*
X10973873Y-16430984D02*
X10935777Y-16430984D01*
X10935777Y-16430984D02*
X10916730Y-16421460D01*
X11126254Y-16430984D02*
X11107206Y-16421460D01*
X11107206Y-16421460D02*
X11097682Y-16402412D01*
X11097682Y-16402412D02*
X11097682Y-16230984D01*
X11288158Y-16430984D02*
X11288158Y-16326222D01*
X11288158Y-16326222D02*
X11278634Y-16307174D01*
X11278634Y-16307174D02*
X11259587Y-16297650D01*
X11259587Y-16297650D02*
X11221492Y-16297650D01*
X11221492Y-16297650D02*
X11202444Y-16307174D01*
X11288158Y-16421460D02*
X11269111Y-16430984D01*
X11269111Y-16430984D02*
X11221492Y-16430984D01*
X11221492Y-16430984D02*
X11202444Y-16421460D01*
X11202444Y-16421460D02*
X11192920Y-16402412D01*
X11192920Y-16402412D02*
X11192920Y-16383365D01*
X11192920Y-16383365D02*
X11202444Y-16364317D01*
X11202444Y-16364317D02*
X11221492Y-16354793D01*
X11221492Y-16354793D02*
X11269111Y-16354793D01*
X11269111Y-16354793D02*
X11288158Y-16345269D01*
X11354825Y-16297650D02*
X11431015Y-16297650D01*
X11383396Y-16230984D02*
X11383396Y-16402412D01*
X11383396Y-16402412D02*
X11392920Y-16421460D01*
X11392920Y-16421460D02*
X11411968Y-16430984D01*
X11411968Y-16430984D02*
X11431015Y-16430984D01*
X11573873Y-16421460D02*
X11554825Y-16430984D01*
X11554825Y-16430984D02*
X11516730Y-16430984D01*
X11516730Y-16430984D02*
X11497682Y-16421460D01*
X11497682Y-16421460D02*
X11488158Y-16402412D01*
X11488158Y-16402412D02*
X11488158Y-16326222D01*
X11488158Y-16326222D02*
X11497682Y-16307174D01*
X11497682Y-16307174D02*
X11516730Y-16297650D01*
X11516730Y-16297650D02*
X11554825Y-16297650D01*
X11554825Y-16297650D02*
X11573873Y-16307174D01*
X11573873Y-16307174D02*
X11583396Y-16326222D01*
X11583396Y-16326222D02*
X11583396Y-16345269D01*
X11583396Y-16345269D02*
X11488158Y-16364317D01*
X11754825Y-16430984D02*
X11754825Y-16230984D01*
X11754825Y-16421460D02*
X11735777Y-16430984D01*
X11735777Y-16430984D02*
X11697682Y-16430984D01*
X11697682Y-16430984D02*
X11678634Y-16421460D01*
X11678634Y-16421460D02*
X11669111Y-16411936D01*
X11669111Y-16411936D02*
X11659587Y-16392888D01*
X11659587Y-16392888D02*
X11659587Y-16335746D01*
X11659587Y-16335746D02*
X11669111Y-16316698D01*
X11669111Y-16316698D02*
X11678634Y-16307174D01*
X11678634Y-16307174D02*
X11697682Y-16297650D01*
X11697682Y-16297650D02*
X11735777Y-16297650D01*
X11735777Y-16297650D02*
X11754825Y-16307174D01*
X11831015Y-16507174D02*
X11840539Y-16497650D01*
X11840539Y-16497650D02*
X11859587Y-16469079D01*
X11859587Y-16469079D02*
X11869111Y-16450031D01*
X11869111Y-16450031D02*
X11878634Y-16421460D01*
X11878634Y-16421460D02*
X11888158Y-16373841D01*
X11888158Y-16373841D02*
X11888158Y-16335746D01*
X11888158Y-16335746D02*
X11878634Y-16288127D01*
X11878634Y-16288127D02*
X11869111Y-16259555D01*
X11869111Y-16259555D02*
X11859587Y-16240508D01*
X11859587Y-16240508D02*
X11840539Y-16211936D01*
X11840539Y-16211936D02*
X11831015Y-16202412D01*
M02*
