G04 #@! TF.GenerationSoftware,KiCad,Pcbnew,7.0.5*
G04 #@! TF.CreationDate,2023-09-06T13:43:01-04:00*
G04 #@! TF.ProjectId,INS-1 Matrix_DRC,494e532d-3120-44d6-9174-7269785f4452,rev?*
G04 #@! TF.SameCoordinates,Original*
G04 #@! TF.FileFunction,Copper,L1,Top*
G04 #@! TF.FilePolarity,Positive*
%FSLAX46Y46*%
G04 Gerber Fmt 4.6, Leading zero omitted, Abs format (unit mm)*
G04 Created by KiCad (PCBNEW 7.0.5) date 2023-09-06 13:43:01*
%MOMM*%
%LPD*%
G01*
G04 APERTURE LIST*
G04 Aperture macros list*
%AMRoundRect*
0 Rectangle with rounded corners*
0 $1 Rounding radius*
0 $2 $3 $4 $5 $6 $7 $8 $9 X,Y pos of 4 corners*
0 Add a 4 corners polygon primitive as box body*
4,1,4,$2,$3,$4,$5,$6,$7,$8,$9,$2,$3,0*
0 Add four circle primitives for the rounded corners*
1,1,$1+$1,$2,$3*
1,1,$1+$1,$4,$5*
1,1,$1+$1,$6,$7*
1,1,$1+$1,$8,$9*
0 Add four rect primitives between the rounded corners*
20,1,$1+$1,$2,$3,$4,$5,0*
20,1,$1+$1,$4,$5,$6,$7,0*
20,1,$1+$1,$6,$7,$8,$9,0*
20,1,$1+$1,$8,$9,$2,$3,0*%
G04 Aperture macros list end*
G04 #@! TA.AperFunction,ComponentPad*
%ADD10R,1.308000X1.308000*%
G04 #@! TD*
G04 #@! TA.AperFunction,ComponentPad*
%ADD11C,1.308000*%
G04 #@! TD*
G04 #@! TA.AperFunction,ComponentPad*
%ADD12RoundRect,0.250000X0.600000X-0.600000X0.600000X0.600000X-0.600000X0.600000X-0.600000X-0.600000X0*%
G04 #@! TD*
G04 #@! TA.AperFunction,ComponentPad*
%ADD13C,1.700000*%
G04 #@! TD*
G04 #@! TA.AperFunction,SMDPad,CuDef*
%ADD14R,0.550000X2.000000*%
G04 #@! TD*
G04 #@! TA.AperFunction,SMDPad,CuDef*
%ADD15R,2.000000X0.550000*%
G04 #@! TD*
G04 #@! TA.AperFunction,ViaPad*
%ADD16C,1.000000*%
G04 #@! TD*
G04 #@! TA.AperFunction,ViaPad*
%ADD17C,0.800000*%
G04 #@! TD*
G04 #@! TA.AperFunction,ViaPad*
%ADD18C,0.700000*%
G04 #@! TD*
G04 #@! TA.AperFunction,Conductor*
%ADD19C,0.500000*%
G04 #@! TD*
G04 #@! TA.AperFunction,Conductor*
%ADD20C,0.400000*%
G04 #@! TD*
G04 #@! TA.AperFunction,Conductor*
%ADD21C,0.200000*%
G04 #@! TD*
G04 #@! TA.AperFunction,Conductor*
%ADD22C,0.250000*%
G04 #@! TD*
G04 APERTURE END LIST*
D10*
X79629000Y-135890000D03*
D11*
X79629000Y-130810000D03*
D10*
X71374000Y-78105000D03*
D11*
X71374000Y-73025000D03*
D10*
X54864000Y-127635000D03*
D11*
X54864000Y-122555000D03*
D10*
X71374000Y-127635000D03*
D11*
X71374000Y-122555000D03*
D10*
X71374000Y-119380000D03*
D11*
X71374000Y-114300000D03*
D10*
X71374000Y-135890000D03*
D11*
X71374000Y-130810000D03*
D10*
X54864000Y-86360000D03*
D11*
X54864000Y-81280000D03*
D10*
X79629000Y-111125000D03*
D11*
X79629000Y-106045000D03*
D12*
X56642000Y-143637000D03*
D13*
X56642000Y-141097000D03*
X59182000Y-143637000D03*
X59182000Y-141097000D03*
X61722000Y-143637000D03*
X61722000Y-141097000D03*
X64262000Y-143637000D03*
X64262000Y-141097000D03*
D14*
X87566000Y-152342000D03*
X83566000Y-152342000D03*
X86766000Y-152342000D03*
X79566000Y-152342000D03*
D15*
X90366000Y-148742000D03*
X90366000Y-147942000D03*
X90366000Y-147142000D03*
X90366000Y-146342000D03*
X90366000Y-145542000D03*
X90366000Y-144742000D03*
X90366000Y-143942000D03*
X90366000Y-143142000D03*
X90366000Y-142342000D03*
X90366000Y-141542000D03*
D14*
X87566000Y-138742000D03*
X86766000Y-138742000D03*
X85966000Y-138742000D03*
X85166000Y-138742000D03*
X84366000Y-138742000D03*
X83566000Y-138742000D03*
X82766000Y-138742000D03*
X81966000Y-138742000D03*
X81166000Y-138742000D03*
X80366000Y-138742000D03*
X79566000Y-138742000D03*
D15*
X76766000Y-141542000D03*
X76766000Y-142342000D03*
X76766000Y-143142000D03*
X76766000Y-143942000D03*
X76766000Y-144742000D03*
X76766000Y-145542000D03*
X76766000Y-146342000D03*
X76766000Y-147142000D03*
X76766000Y-147942000D03*
X76766000Y-148742000D03*
X76766000Y-149542000D03*
D14*
X85966000Y-152342000D03*
X80366000Y-152342000D03*
X81166000Y-152342000D03*
X81966000Y-152342000D03*
D15*
X90366000Y-149542000D03*
D14*
X82766000Y-152342000D03*
X85166000Y-152342000D03*
X84366000Y-152342000D03*
D10*
X63119000Y-61595000D03*
D11*
X63119000Y-56515000D03*
D10*
X87884000Y-69850000D03*
D11*
X87884000Y-64770000D03*
D10*
X96139000Y-69850000D03*
D11*
X96139000Y-64770000D03*
D14*
X79058000Y-40063000D03*
X83058000Y-40063000D03*
X79858000Y-40063000D03*
X87058000Y-40063000D03*
D15*
X76258000Y-43663000D03*
X76258000Y-44463000D03*
X76258000Y-45263000D03*
X76258000Y-46063000D03*
X76258000Y-46863000D03*
X76258000Y-47663000D03*
X76258000Y-48463000D03*
X76258000Y-49263000D03*
X76258000Y-50063000D03*
X76258000Y-50863000D03*
D14*
X79058000Y-53663000D03*
X79858000Y-53663000D03*
X80658000Y-53663000D03*
X81458000Y-53663000D03*
X82258000Y-53663000D03*
X83058000Y-53663000D03*
X83858000Y-53663000D03*
X84658000Y-53663000D03*
X85458000Y-53663000D03*
X86258000Y-53663000D03*
X87058000Y-53663000D03*
D15*
X89858000Y-50863000D03*
X89858000Y-50063000D03*
X89858000Y-49263000D03*
X89858000Y-48463000D03*
X89858000Y-47663000D03*
X89858000Y-46863000D03*
X89858000Y-46063000D03*
X89858000Y-45263000D03*
X89858000Y-44463000D03*
X89858000Y-43663000D03*
X89858000Y-42863000D03*
D14*
X80658000Y-40063000D03*
X86258000Y-40063000D03*
X85458000Y-40063000D03*
X84658000Y-40063000D03*
D15*
X76258000Y-42863000D03*
D14*
X83858000Y-40063000D03*
X81458000Y-40063000D03*
X82258000Y-40063000D03*
D10*
X63119000Y-86360000D03*
D11*
X63119000Y-81280000D03*
D10*
X79629000Y-119380000D03*
D11*
X79629000Y-114300000D03*
D10*
X87884000Y-61595000D03*
D11*
X87884000Y-56515000D03*
D10*
X54864000Y-119380000D03*
D11*
X54864000Y-114300000D03*
D10*
X71374000Y-69850000D03*
D11*
X71374000Y-64770000D03*
D10*
X54864000Y-61595000D03*
D11*
X54864000Y-56515000D03*
D10*
X87884000Y-86360000D03*
D11*
X87884000Y-81280000D03*
D10*
X96139000Y-78105000D03*
D11*
X96139000Y-73025000D03*
D10*
X87884000Y-135890000D03*
D11*
X87884000Y-130810000D03*
D10*
X63119000Y-102870000D03*
D11*
X63119000Y-97790000D03*
D10*
X96139000Y-94615000D03*
D11*
X96139000Y-89535000D03*
D10*
X96139000Y-127635000D03*
D11*
X96139000Y-122555000D03*
D10*
X79629000Y-69850000D03*
D11*
X79629000Y-64770000D03*
D10*
X96139000Y-111125000D03*
D11*
X96139000Y-106045000D03*
D10*
X79629000Y-127635000D03*
D11*
X79629000Y-122555000D03*
D10*
X87884000Y-119380000D03*
D11*
X87884000Y-114300000D03*
D10*
X79629000Y-94615000D03*
D11*
X79629000Y-89535000D03*
D10*
X54864000Y-135890000D03*
D11*
X54864000Y-130810000D03*
D10*
X87884000Y-102870000D03*
D11*
X87884000Y-97790000D03*
D10*
X87884000Y-94615000D03*
D11*
X87884000Y-89535000D03*
D10*
X96139000Y-86360000D03*
D11*
X96139000Y-81280000D03*
D10*
X87884000Y-111125000D03*
D11*
X87884000Y-106045000D03*
D10*
X79629000Y-86360000D03*
D11*
X79629000Y-81280000D03*
D10*
X87884000Y-127635000D03*
D11*
X87884000Y-122555000D03*
D10*
X79629000Y-61595000D03*
D11*
X79629000Y-56515000D03*
D10*
X71374000Y-111045000D03*
D11*
X71374000Y-105965000D03*
D10*
X54864000Y-102870000D03*
D11*
X54864000Y-97790000D03*
D10*
X63119000Y-135890000D03*
D11*
X63119000Y-130810000D03*
D10*
X96139000Y-119380000D03*
D11*
X96139000Y-114300000D03*
D10*
X79629000Y-102870000D03*
D11*
X79629000Y-97790000D03*
D10*
X63119000Y-119380000D03*
D11*
X63119000Y-114300000D03*
D10*
X71374000Y-102870000D03*
D11*
X71374000Y-97790000D03*
D10*
X96139000Y-135890000D03*
D11*
X96139000Y-130810000D03*
D10*
X54864000Y-94615000D03*
D11*
X54864000Y-89535000D03*
D10*
X63119000Y-111125000D03*
D11*
X63119000Y-106045000D03*
D10*
X79629000Y-78105000D03*
D11*
X79629000Y-73025000D03*
D10*
X96139000Y-61595000D03*
D11*
X96139000Y-56515000D03*
D10*
X96139000Y-102870000D03*
D11*
X96139000Y-97790000D03*
D10*
X71374000Y-86360000D03*
D11*
X71374000Y-81280000D03*
D10*
X54864000Y-111125000D03*
D11*
X54864000Y-106045000D03*
D10*
X63119000Y-78105000D03*
D11*
X63119000Y-73025000D03*
D10*
X54864000Y-69850000D03*
D11*
X54864000Y-64770000D03*
D12*
X56642000Y-51308000D03*
D13*
X56642000Y-48768000D03*
X59182000Y-51308000D03*
X59182000Y-48768000D03*
X61722000Y-51308000D03*
X61722000Y-48768000D03*
X64262000Y-51308000D03*
X64262000Y-48768000D03*
D10*
X71374000Y-61595000D03*
D11*
X71374000Y-56515000D03*
D10*
X63119000Y-94615000D03*
D11*
X63119000Y-89535000D03*
D10*
X87884000Y-78105000D03*
D11*
X87884000Y-73025000D03*
D10*
X63119000Y-127635000D03*
D11*
X63119000Y-122555000D03*
D10*
X63119000Y-69850000D03*
D11*
X63119000Y-64770000D03*
D10*
X71374000Y-94615000D03*
D11*
X71374000Y-89535000D03*
D10*
X54864000Y-78105000D03*
D11*
X54864000Y-73025000D03*
D16*
X84697490Y-147839510D03*
X59309000Y-146812000D03*
X81523500Y-42615132D03*
X78613000Y-42527133D03*
X53467000Y-52959000D03*
X65913000Y-147828000D03*
X82296000Y-43688000D03*
X56780510Y-146038490D03*
X70485000Y-45593000D03*
X82550000Y-147828000D03*
D17*
X59055000Y-114554000D03*
X92329000Y-129667000D03*
X91186000Y-75692000D03*
X59182000Y-119507000D03*
D16*
X58801000Y-134620000D03*
D18*
X93472000Y-65913000D03*
D16*
X59055000Y-129286000D03*
X66167000Y-59309000D03*
D17*
X58801000Y-74803000D03*
X91059000Y-72517000D03*
X58928000Y-64643000D03*
X59182000Y-109093000D03*
X59182000Y-106680000D03*
X92075000Y-131953000D03*
X58801000Y-68326000D03*
D18*
X94361000Y-61214000D03*
D17*
X58928000Y-79629000D03*
X58801000Y-84201000D03*
X58928000Y-122682000D03*
X58674000Y-88773000D03*
X85852000Y-149828500D03*
X69977000Y-149733000D03*
X80629914Y-47587500D03*
X82042000Y-150278500D03*
X81661000Y-45974000D03*
X62865000Y-148971000D03*
X72390000Y-149104000D03*
X62865000Y-53721000D03*
X79071390Y-48311652D03*
X87630000Y-149606000D03*
X86741000Y-150876000D03*
X87058000Y-41402000D03*
D18*
X91371376Y-66352376D03*
X91342188Y-65180188D03*
X90170000Y-65151000D03*
X89408000Y-63119000D03*
X89008500Y-58801000D03*
X88519000Y-75311000D03*
X87219812Y-75213188D03*
X85979000Y-75311000D03*
X84680500Y-74374683D03*
X83820000Y-72390000D03*
X83071500Y-73525183D03*
X82234636Y-82206506D03*
X81280000Y-81661000D03*
X80772000Y-79554500D03*
X77597000Y-83907500D03*
X76660798Y-84484070D03*
X73660000Y-88011000D03*
X72871883Y-88846588D03*
X69850000Y-90297000D03*
X69547943Y-91354198D03*
X70263762Y-92203698D03*
X66802000Y-99441000D03*
X69370500Y-109956894D03*
X70358000Y-109347000D03*
X76200000Y-110236000D03*
X77089000Y-111252000D03*
X76708000Y-118110000D03*
X77587602Y-117450298D03*
X78311160Y-116622428D03*
X83615500Y-121412000D03*
X84415500Y-126238000D03*
X84992070Y-125301798D03*
X85604084Y-124388373D03*
X78774312Y-142274312D03*
X79976041Y-142391500D03*
X81661000Y-143191500D03*
X84074000Y-143991500D03*
X85217000Y-144791500D03*
X86360000Y-145566500D03*
X84455000Y-51308000D03*
D17*
X86487000Y-147828000D03*
X79883000Y-48895000D03*
D18*
X85323191Y-50292000D03*
X86172691Y-49323781D03*
X87034500Y-48641000D03*
X87757000Y-46863000D03*
D19*
X53340000Y-54610000D02*
X56642000Y-51308000D01*
D20*
X60428000Y-42188000D02*
X54991000Y-47625000D01*
X84836000Y-148279000D02*
X84836000Y-150114000D01*
X81661000Y-42477632D02*
X81661000Y-41549528D01*
X84836000Y-148279000D02*
X84836000Y-147978020D01*
X78613000Y-42527133D02*
X78273867Y-42188000D01*
X85166000Y-150444000D02*
X85166000Y-152342000D01*
X84836000Y-150114000D02*
X85166000Y-150444000D01*
X84836000Y-147978020D02*
X84697490Y-147839510D01*
X78273867Y-42188000D02*
X60428000Y-42188000D01*
X54991000Y-49657000D02*
X56642000Y-51308000D01*
D19*
X56642000Y-143637000D02*
X53340000Y-140335000D01*
D20*
X81523500Y-42615132D02*
X81661000Y-42477632D01*
X59309000Y-146812000D02*
X56642000Y-144145000D01*
X54991000Y-47625000D02*
X54991000Y-49657000D01*
X56642000Y-144145000D02*
X56642000Y-143637000D01*
D19*
X53340000Y-140335000D02*
X53340000Y-54610000D01*
D20*
X81458000Y-41346528D02*
X81458000Y-40063000D01*
X81661000Y-41549528D02*
X81458000Y-41346528D01*
X70485000Y-45593000D02*
X64643000Y-45593000D01*
D21*
X82258000Y-38989000D02*
X82258000Y-40063000D01*
X83030000Y-153642000D02*
X84102000Y-153642000D01*
D20*
X82423000Y-43561000D02*
X82423000Y-41463000D01*
D21*
X83594000Y-38763000D02*
X82484000Y-38763000D01*
D20*
X82550000Y-149098000D02*
X82550000Y-147828000D01*
D19*
X65913000Y-147828000D02*
X61722000Y-143637000D01*
D21*
X83858000Y-40063000D02*
X83858000Y-39027000D01*
D20*
X63012000Y-50018000D02*
X63012000Y-47224000D01*
X82296000Y-43688000D02*
X82423000Y-43561000D01*
X63012000Y-47224000D02*
X64643000Y-45593000D01*
X61722000Y-51308000D02*
X63012000Y-50018000D01*
D21*
X83858000Y-39027000D02*
X83594000Y-38763000D01*
X82484000Y-38763000D02*
X82258000Y-38989000D01*
D20*
X82677000Y-149225000D02*
X82550000Y-149098000D01*
X82423000Y-41463000D02*
X82258000Y-41298000D01*
D21*
X82766000Y-152342000D02*
X82766000Y-153378000D01*
X84366000Y-153378000D02*
X84366000Y-152342000D01*
D20*
X84366000Y-150914000D02*
X84366000Y-152342000D01*
D19*
X52451000Y-142494000D02*
X52451000Y-53975000D01*
D20*
X84366000Y-150914000D02*
X82677000Y-149225000D01*
D21*
X84102000Y-153642000D02*
X84366000Y-153378000D01*
X82766000Y-153378000D02*
X83030000Y-153642000D01*
D19*
X56780510Y-146038490D02*
X55995490Y-146038490D01*
D20*
X82258000Y-41298000D02*
X82258000Y-40063000D01*
D19*
X52451000Y-53975000D02*
X53467000Y-52959000D01*
X55995490Y-146038490D02*
X52451000Y-142494000D01*
X59055000Y-129286000D02*
X58801000Y-129540000D01*
X91186000Y-75692000D02*
X91186000Y-72644000D01*
X58801000Y-88646000D02*
X58801000Y-84201000D01*
X58801000Y-68326000D02*
X58801000Y-64770000D01*
D21*
X58928000Y-84074000D02*
X58801000Y-84201000D01*
X92329000Y-131699000D02*
X92075000Y-131953000D01*
X94361000Y-65024000D02*
X93472000Y-65913000D01*
D19*
X59055000Y-114554000D02*
X59055000Y-119380000D01*
X58801000Y-129540000D02*
X58801000Y-134620000D01*
D21*
X91186000Y-72644000D02*
X91059000Y-72517000D01*
X58928000Y-74930000D02*
X58801000Y-74803000D01*
X94361000Y-61214000D02*
X94361000Y-65024000D01*
X58928000Y-122682000D02*
X59182000Y-122428000D01*
X58801000Y-64770000D02*
X58928000Y-64643000D01*
D19*
X66167000Y-53213000D02*
X66167000Y-59309000D01*
X58928000Y-79629000D02*
X58928000Y-84074000D01*
X64262000Y-51308000D02*
X66167000Y-53213000D01*
D21*
X58674000Y-88773000D02*
X58801000Y-88646000D01*
X59055000Y-119380000D02*
X59182000Y-119507000D01*
X92329000Y-129667000D02*
X92329000Y-131699000D01*
D19*
X59182000Y-122428000D02*
X59182000Y-119507000D01*
X59182000Y-109093000D02*
X59182000Y-106680000D01*
X58928000Y-79629000D02*
X58928000Y-74930000D01*
D22*
X85966000Y-149942500D02*
X85966000Y-152342000D01*
X60547000Y-142272000D02*
X60547000Y-144123701D01*
X61722000Y-141097000D02*
X60872000Y-140247000D01*
X60547000Y-49943000D02*
X61722000Y-48768000D01*
X66156299Y-149733000D02*
X69977000Y-149733000D01*
X85852000Y-149828500D02*
X85966000Y-149942500D01*
X60872000Y-53848000D02*
X60547000Y-53523000D01*
X80658000Y-47559414D02*
X80629914Y-47587500D01*
X60547000Y-144123701D02*
X66156299Y-149733000D01*
X60872000Y-140247000D02*
X60872000Y-53848000D01*
X61722000Y-141097000D02*
X60547000Y-142272000D01*
X60547000Y-53523000D02*
X60547000Y-49943000D01*
X80658000Y-40063000D02*
X80658000Y-47559414D01*
X59182000Y-141097000D02*
X60422000Y-139857000D01*
X61584299Y-147701000D02*
X61526149Y-147642851D01*
X58007000Y-144123701D02*
X58007000Y-142272000D01*
X58007000Y-142272000D02*
X59182000Y-141097000D01*
X61536851Y-147642851D02*
X62865000Y-148971000D01*
X61526149Y-147642851D02*
X61536851Y-147642851D01*
X60422000Y-54209701D02*
X57912000Y-51699701D01*
X60422000Y-139857000D02*
X60422000Y-54209701D01*
X83058000Y-40063000D02*
X83185000Y-40190000D01*
X57912000Y-50038000D02*
X59182000Y-48768000D01*
X83566000Y-152342000D02*
X83566000Y-151092000D01*
X83566000Y-151092000D02*
X82752500Y-150278500D01*
X83185000Y-44450000D02*
X81661000Y-45974000D01*
X82752500Y-150278500D02*
X82042000Y-150278500D01*
X61526149Y-147642851D02*
X58007000Y-144123701D01*
X83185000Y-40190000D02*
X83185000Y-44450000D01*
X57912000Y-51699701D02*
X57912000Y-50038000D01*
X87630000Y-149606000D02*
X87566000Y-149670000D01*
X64262000Y-141097000D02*
X61341000Y-138176000D01*
X72269000Y-149104000D02*
X72390000Y-149104000D01*
X79071390Y-47484323D02*
X79071390Y-48311652D01*
X61341000Y-55245000D02*
X62865000Y-53721000D01*
X61341000Y-138176000D02*
X61341000Y-134620000D01*
X64262000Y-141097000D02*
X72269000Y-149104000D01*
X61341000Y-134620000D02*
X61341000Y-55245000D01*
X79438000Y-47117713D02*
X79071390Y-47484323D01*
X87566000Y-149670000D02*
X87566000Y-152342000D01*
X79438000Y-42185406D02*
X79438000Y-47117713D01*
X79058000Y-41805406D02*
X79438000Y-42185406D01*
X79058000Y-40063000D02*
X79058000Y-41805406D01*
X86741000Y-150876000D02*
X86741000Y-152317000D01*
X86741000Y-152317000D02*
X86766000Y-152342000D01*
X87058000Y-41402000D02*
X87058000Y-40063000D01*
D21*
X93980000Y-54356000D02*
X93980000Y-49364416D01*
X91478584Y-46863000D02*
X93980000Y-49364416D01*
X89858000Y-46863000D02*
X91478584Y-46863000D01*
X96139000Y-56515000D02*
X93980000Y-54356000D01*
X91430056Y-47663000D02*
X93148000Y-49380944D01*
X93148000Y-49380944D02*
X93148000Y-64575752D01*
X93148000Y-64575752D02*
X91371376Y-66352376D01*
X89858000Y-47663000D02*
X91430056Y-47663000D01*
X91381528Y-48463000D02*
X92548000Y-49629472D01*
X92548000Y-63974376D02*
X91342188Y-65180188D01*
X89858000Y-48463000D02*
X91381528Y-48463000D01*
X92548000Y-49629472D02*
X92548000Y-63974376D01*
X89858000Y-49263000D02*
X91333000Y-49263000D01*
X91333000Y-49263000D02*
X91948000Y-49878000D01*
X91948000Y-63373000D02*
X90170000Y-65151000D01*
X91948000Y-49878000D02*
X91948000Y-63373000D01*
X89858500Y-62668500D02*
X89408000Y-63119000D01*
X88113000Y-50063000D02*
X87757000Y-50419000D01*
X89858500Y-55568500D02*
X89858500Y-62668500D01*
X88138000Y-51816000D02*
X88138000Y-53848000D01*
X89858000Y-50063000D02*
X88113000Y-50063000D01*
X87757000Y-50419000D02*
X87757000Y-51435000D01*
X87757000Y-51435000D02*
X88138000Y-51816000D01*
X88138000Y-53848000D02*
X89858500Y-55568500D01*
X89858000Y-50863000D02*
X90458500Y-51463500D01*
X88959082Y-64770000D02*
X87884000Y-64770000D01*
X90458500Y-51463500D02*
X90458500Y-63270582D01*
X90458500Y-63270582D02*
X88959082Y-64770000D01*
X87058000Y-53663000D02*
X89038000Y-55643000D01*
X89038000Y-55643000D02*
X89038000Y-58771500D01*
X89038000Y-58771500D02*
X89008500Y-58801000D01*
X86730000Y-56907000D02*
X86730000Y-73522000D01*
X86258000Y-53663000D02*
X86258000Y-56413000D01*
X86741000Y-56896000D02*
X86730000Y-56907000D01*
X86730000Y-73522000D02*
X88519000Y-75311000D01*
X86258000Y-56413000D02*
X86741000Y-56896000D01*
X85458000Y-57010000D02*
X86130000Y-57682000D01*
X85458000Y-53663000D02*
X85458000Y-57010000D01*
X86130000Y-74123376D02*
X87219812Y-75213188D01*
X86130000Y-57682000D02*
X86130000Y-74123376D01*
X84658000Y-53663000D02*
X84658000Y-54813000D01*
X84658000Y-54813000D02*
X84709000Y-54864000D01*
X85530000Y-57971000D02*
X85530000Y-74862000D01*
X84709000Y-57150000D02*
X85530000Y-57971000D01*
X84709000Y-54864000D02*
X84709000Y-57150000D01*
X85530000Y-74862000D02*
X85979000Y-75311000D01*
X83858000Y-53663000D02*
X83858000Y-54869357D01*
X83858000Y-54869357D02*
X84109000Y-55120357D01*
X84109000Y-55120357D02*
X84109000Y-57820000D01*
X84109000Y-57820000D02*
X84680500Y-58391500D01*
X84680500Y-58391500D02*
X84680500Y-74374683D01*
X83058000Y-54917885D02*
X83422000Y-55281885D01*
X83422000Y-71992000D02*
X83820000Y-72390000D01*
X83058000Y-53663000D02*
X83058000Y-54917885D01*
X83422000Y-55281885D02*
X83422000Y-71992000D01*
X82258000Y-53663000D02*
X82258000Y-54966413D01*
X82822000Y-55530413D02*
X82822000Y-73275683D01*
X82822000Y-73275683D02*
X83071500Y-73525183D01*
X82258000Y-54966413D02*
X82822000Y-55530413D01*
X81458000Y-53663000D02*
X81458000Y-55014941D01*
X82222000Y-82175082D02*
X82222000Y-82193870D01*
X82222000Y-82193870D02*
X82234636Y-82206506D01*
X82222000Y-55778941D02*
X82222000Y-82175082D01*
X81458000Y-55014941D02*
X82222000Y-55778941D01*
X81622000Y-81573000D02*
X81534000Y-81661000D01*
X80658000Y-53663000D02*
X80658000Y-55063469D01*
X80658000Y-55063469D02*
X81622000Y-56027469D01*
X81622000Y-56027469D02*
X81622000Y-81573000D01*
X81534000Y-81661000D02*
X81280000Y-81661000D01*
X79858000Y-55111997D02*
X80783000Y-56036997D01*
X80783000Y-56036997D02*
X80783000Y-79543500D01*
X79858000Y-53663000D02*
X79858000Y-55111997D01*
X80783000Y-79543500D02*
X80772000Y-79554500D01*
X78475000Y-54246000D02*
X78475000Y-80126000D01*
X79058000Y-53663000D02*
X78475000Y-54246000D01*
X78475000Y-80126000D02*
X79629000Y-81280000D01*
X77470000Y-52324000D02*
X77470000Y-83780500D01*
X76258000Y-50863000D02*
X76258000Y-51112000D01*
X76258000Y-51112000D02*
X77470000Y-52324000D01*
X77470000Y-83780500D02*
X77597000Y-83907500D01*
X74783000Y-50063000D02*
X74041000Y-50805000D01*
X76258000Y-50063000D02*
X74783000Y-50063000D01*
X76660798Y-54054798D02*
X76660798Y-84484070D01*
X74041000Y-51435000D02*
X76660798Y-54054798D01*
X74041000Y-50805000D02*
X74041000Y-51435000D01*
X74734472Y-49263000D02*
X73441000Y-50556472D01*
X76258000Y-49263000D02*
X74734472Y-49263000D01*
X73441000Y-50556472D02*
X73441000Y-87792000D01*
X73441000Y-87792000D02*
X73660000Y-88011000D01*
X76258000Y-48463000D02*
X74685944Y-48463000D01*
X72644000Y-88618705D02*
X72871883Y-88846588D01*
X74685944Y-48463000D02*
X72644000Y-50504944D01*
X72644000Y-50504944D02*
X72644000Y-88618705D01*
X76258000Y-47663000D02*
X74637416Y-47663000D01*
X72044000Y-50256416D02*
X72044000Y-52797000D01*
X70220000Y-54621000D02*
X70220000Y-88381000D01*
X74637416Y-47663000D02*
X72044000Y-50256416D01*
X72044000Y-52797000D02*
X70220000Y-54621000D01*
X70220000Y-88381000D02*
X71374000Y-89535000D01*
X71444000Y-52381000D02*
X69620000Y-54205000D01*
X76258000Y-46863000D02*
X74588888Y-46863000D01*
X69620000Y-54205000D02*
X69620000Y-90067000D01*
X74588888Y-46863000D02*
X71444000Y-50007888D01*
X71444000Y-50007888D02*
X71444000Y-52381000D01*
X69620000Y-90067000D02*
X69850000Y-90297000D01*
X74540360Y-46063000D02*
X70844000Y-49759360D01*
X76258000Y-46063000D02*
X74540360Y-46063000D01*
X70844000Y-51965000D02*
X69000000Y-53809000D01*
X70844000Y-49759360D02*
X70844000Y-51965000D01*
X69000000Y-90806255D02*
X69547943Y-91354198D01*
X69000000Y-53809000D02*
X69000000Y-90806255D01*
X76258000Y-45263000D02*
X74491832Y-45263000D01*
X70263262Y-92204198D02*
X70263762Y-92203698D01*
X69195861Y-92204198D02*
X70263262Y-92204198D01*
X70244000Y-51676000D02*
X68400000Y-53520000D01*
X68400000Y-53520000D02*
X68400000Y-91408337D01*
X74491832Y-45263000D02*
X70244000Y-49510832D01*
X68400000Y-91408337D02*
X69195861Y-92204198D01*
X70244000Y-49510832D02*
X70244000Y-51676000D01*
X67800000Y-53271472D02*
X67800000Y-98443000D01*
X69644000Y-51427472D02*
X67800000Y-53271472D01*
X67800000Y-98443000D02*
X66802000Y-99441000D01*
X74443304Y-44463000D02*
X69644000Y-49262304D01*
X76258000Y-44463000D02*
X74443304Y-44463000D01*
X69644000Y-49262304D02*
X69644000Y-51427472D01*
X67200000Y-53022944D02*
X69044000Y-51178944D01*
X66548000Y-97790000D02*
X67200000Y-97138000D01*
X74394776Y-43663000D02*
X76258000Y-43663000D01*
X63119000Y-97790000D02*
X66548000Y-97790000D01*
X69044000Y-49013776D02*
X74394776Y-43663000D01*
X67200000Y-97138000D02*
X67200000Y-53022944D01*
X69044000Y-51178944D02*
X69044000Y-49013776D01*
X76766000Y-149537000D02*
X76746000Y-149517000D01*
X69390000Y-144077752D02*
X69390000Y-140434640D01*
X66720500Y-137765140D02*
X66720500Y-104366972D01*
X72136000Y-98552000D02*
X71374000Y-97790000D01*
X72136000Y-98951472D02*
X72136000Y-98552000D01*
X69390000Y-140434640D02*
X66720500Y-137765140D01*
X74829248Y-149517000D02*
X69390000Y-144077752D01*
X76766000Y-149542000D02*
X76766000Y-149537000D01*
X66720500Y-104366972D02*
X72136000Y-98951472D01*
X76746000Y-149517000D02*
X74829248Y-149517000D01*
X67320500Y-104615500D02*
X74146000Y-97790000D01*
X74902776Y-148742000D02*
X69990000Y-143829224D01*
X67320500Y-137516612D02*
X67320500Y-104615500D01*
X76766000Y-148742000D02*
X74902776Y-148742000D01*
X69990000Y-143829224D02*
X69990000Y-140186112D01*
X69990000Y-140186112D02*
X67320500Y-137516612D01*
X74146000Y-97790000D02*
X79629000Y-97790000D01*
X67920500Y-106937969D02*
X70834469Y-104024000D01*
X70590000Y-143580696D02*
X70590000Y-139937584D01*
X70590000Y-139937584D02*
X67920500Y-137268084D01*
X70834469Y-104024000D02*
X81650000Y-104024000D01*
X74951304Y-147942000D02*
X70590000Y-143580696D01*
X67920500Y-137268084D02*
X67920500Y-106937969D01*
X81650000Y-104024000D02*
X87884000Y-97790000D01*
X76766000Y-147942000D02*
X74951304Y-147942000D01*
X71190000Y-139689056D02*
X68520500Y-137019556D01*
X96139000Y-99187000D02*
X96139000Y-97790000D01*
X68520500Y-137019556D02*
X68520500Y-107186497D01*
X71190000Y-143332168D02*
X71190000Y-139689056D01*
X76766000Y-147142000D02*
X74999832Y-147142000D01*
X90678000Y-104648000D02*
X96139000Y-99187000D01*
X68520500Y-107186497D02*
X71058997Y-104648000D01*
X71058997Y-104648000D02*
X90678000Y-104648000D01*
X74999832Y-147142000D02*
X71190000Y-143332168D01*
X69620000Y-137270528D02*
X69620000Y-110206394D01*
X71790000Y-139440528D02*
X69620000Y-137270528D01*
X75048360Y-146342000D02*
X71790000Y-143083640D01*
X71790000Y-143083640D02*
X71790000Y-139440528D01*
X76766000Y-146342000D02*
X75048360Y-146342000D01*
X69620000Y-110206394D02*
X69370500Y-109956894D01*
X72390000Y-142835112D02*
X72390000Y-139192000D01*
X72390000Y-139192000D02*
X70220000Y-137022000D01*
X76766000Y-145542000D02*
X75096888Y-145542000D01*
X70220000Y-109485000D02*
X70358000Y-109347000D01*
X70220000Y-137022000D02*
X70220000Y-109485000D01*
X75096888Y-145542000D02*
X72390000Y-142835112D01*
X76766000Y-144742000D02*
X75145416Y-144742000D01*
X73025000Y-107616000D02*
X71374000Y-105965000D01*
X75145416Y-144742000D02*
X73025000Y-142621584D01*
X73025000Y-142621584D02*
X73025000Y-107616000D01*
X78704105Y-106045000D02*
X79629000Y-106045000D01*
X76766000Y-143942000D02*
X75193944Y-143942000D01*
X73660000Y-111089105D02*
X78704105Y-106045000D01*
X73660000Y-142408056D02*
X73660000Y-111089105D01*
X75193944Y-143942000D02*
X73660000Y-142408056D01*
X75242472Y-143142000D02*
X74295000Y-142194528D01*
X74295000Y-142194528D02*
X74295000Y-112141000D01*
X74295000Y-112141000D02*
X76200000Y-110236000D01*
X76766000Y-143142000D02*
X75242472Y-143142000D01*
X76766000Y-142342000D02*
X75291000Y-142342000D01*
X74930000Y-113411000D02*
X77089000Y-111252000D01*
X74930000Y-141981000D02*
X74930000Y-113411000D01*
X75291000Y-142342000D02*
X74930000Y-141981000D01*
X76766000Y-118168000D02*
X76766000Y-141542000D01*
X76708000Y-118110000D02*
X76766000Y-118168000D01*
X78677000Y-138742000D02*
X77587602Y-137652602D01*
X77587602Y-137652602D02*
X77587602Y-117450298D01*
X79566000Y-138742000D02*
X78677000Y-138742000D01*
X80366000Y-137267000D02*
X80143000Y-137044000D01*
X78437602Y-116748870D02*
X78311160Y-116622428D01*
X78437602Y-136775000D02*
X78437602Y-116748870D01*
X80366000Y-138742000D02*
X80366000Y-137267000D01*
X78706602Y-137044000D02*
X78437602Y-136775000D01*
X80143000Y-137044000D02*
X78706602Y-137044000D01*
X81166000Y-136652000D02*
X81166000Y-115837000D01*
X81166000Y-138742000D02*
X81166000Y-136652000D01*
X81166000Y-115837000D02*
X79629000Y-114300000D01*
X82931000Y-114300000D02*
X87884000Y-114300000D01*
X81966000Y-136398000D02*
X81966000Y-115265000D01*
X81966000Y-138742000D02*
X81966000Y-136398000D01*
X81966000Y-115265000D02*
X82931000Y-114300000D01*
X82766000Y-136779000D02*
X82766000Y-116243000D01*
X83185000Y-115824000D02*
X94615000Y-115824000D01*
X82766000Y-116243000D02*
X83185000Y-115824000D01*
X82766000Y-138742000D02*
X82766000Y-136779000D01*
X94615000Y-115824000D02*
X96139000Y-114300000D01*
X83566000Y-136779000D02*
X83566000Y-121461500D01*
X83566000Y-121461500D02*
X83615500Y-121412000D01*
X83566000Y-138742000D02*
X83566000Y-136779000D01*
X84366000Y-136779000D02*
X84366000Y-126287500D01*
X84366000Y-126287500D02*
X84415500Y-126238000D01*
X84366000Y-138742000D02*
X84366000Y-136779000D01*
X85166000Y-138742000D02*
X85166000Y-136779000D01*
X85265500Y-126590082D02*
X85265500Y-125575228D01*
X85166000Y-136779000D02*
X85166000Y-126689582D01*
X85166000Y-126689582D02*
X85265500Y-126590082D01*
X85265500Y-125575228D02*
X84992070Y-125301798D01*
X85966000Y-124750289D02*
X85966000Y-138742000D01*
X85604084Y-124388373D02*
X85966000Y-124750289D01*
X86730000Y-123709000D02*
X86730000Y-137506000D01*
X86766000Y-137542000D02*
X86766000Y-138742000D01*
X86730000Y-137506000D02*
X86766000Y-137542000D01*
X87884000Y-122555000D02*
X86730000Y-123709000D01*
X87566000Y-138742000D02*
X89281000Y-137027000D01*
X91440000Y-122555000D02*
X96139000Y-122555000D01*
X89281000Y-124714000D02*
X91440000Y-122555000D01*
X89281000Y-137027000D02*
X89281000Y-124714000D01*
X90366000Y-141542000D02*
X79506624Y-141542000D01*
X79506624Y-141542000D02*
X78774312Y-142274312D01*
X80025541Y-142342000D02*
X79976041Y-142391500D01*
X90366000Y-142342000D02*
X80025541Y-142342000D01*
X81710500Y-143142000D02*
X81661000Y-143191500D01*
X90366000Y-143142000D02*
X81710500Y-143142000D01*
X84123500Y-143942000D02*
X84074000Y-143991500D01*
X90366000Y-143942000D02*
X84123500Y-143942000D01*
X90361000Y-144717000D02*
X85291500Y-144717000D01*
X90366000Y-144742000D02*
X90366000Y-144722000D01*
X85291500Y-144717000D02*
X85217000Y-144791500D01*
X90366000Y-144722000D02*
X90361000Y-144717000D01*
X86384500Y-145542000D02*
X86360000Y-145566500D01*
X90366000Y-145542000D02*
X86384500Y-145542000D01*
X88009334Y-42863000D02*
X84455000Y-46417334D01*
X89858000Y-42863000D02*
X88009334Y-42863000D01*
X84455000Y-46417334D02*
X84455000Y-51308000D01*
D22*
X80010000Y-40215000D02*
X80010000Y-47182109D01*
X79883000Y-47309109D02*
X79883000Y-48895000D01*
X84963000Y-146939000D02*
X85852000Y-147828000D01*
X79858000Y-40063000D02*
X80010000Y-40215000D01*
X85852000Y-147828000D02*
X86487000Y-147828000D01*
X79566000Y-147637000D02*
X79566000Y-152342000D01*
X80264000Y-146939000D02*
X84963000Y-146939000D01*
X80010000Y-47182109D02*
X79883000Y-47309109D01*
X79566000Y-147637000D02*
X80264000Y-146939000D01*
D21*
X85322691Y-46398171D02*
X85322691Y-50291500D01*
X88057862Y-43663000D02*
X85322691Y-46398171D01*
X89858000Y-43663000D02*
X88057862Y-43663000D01*
X85322691Y-50291500D02*
X85323191Y-50292000D01*
X86172691Y-46396699D02*
X86172691Y-49323781D01*
X89858000Y-44463000D02*
X88106390Y-44463000D01*
X88106390Y-44463000D02*
X86172691Y-46396699D01*
X86907000Y-46510918D02*
X86907000Y-48513500D01*
X88154918Y-45263000D02*
X86907000Y-46510918D01*
X89858000Y-45263000D02*
X88154918Y-45263000D01*
X86907000Y-48513500D02*
X87034500Y-48641000D01*
X89858000Y-46063000D02*
X88557000Y-46063000D01*
X88557000Y-46063000D02*
X87757000Y-46863000D01*
M02*
