G04 #@! TF.GenerationSoftware,KiCad,Pcbnew,7.0.5*
G04 #@! TF.CreationDate,2023-09-06T13:43:01-04:00*
G04 #@! TF.ProjectId,INS-1 Matrix_DRC,494e532d-3120-44d6-9174-7269785f4452,rev?*
G04 #@! TF.SameCoordinates,Original*
G04 #@! TF.FileFunction,Legend,Top*
G04 #@! TF.FilePolarity,Positive*
%FSLAX46Y46*%
G04 Gerber Fmt 4.6, Leading zero omitted, Abs format (unit mm)*
G04 Created by KiCad (PCBNEW 7.0.5) date 2023-09-06 13:43:01*
%MOMM*%
%LPD*%
G01*
G04 APERTURE LIST*
G04 Aperture macros list*
%AMRoundRect*
0 Rectangle with rounded corners*
0 $1 Rounding radius*
0 $2 $3 $4 $5 $6 $7 $8 $9 X,Y pos of 4 corners*
0 Add a 4 corners polygon primitive as box body*
4,1,4,$2,$3,$4,$5,$6,$7,$8,$9,$2,$3,0*
0 Add four circle primitives for the rounded corners*
1,1,$1+$1,$2,$3*
1,1,$1+$1,$4,$5*
1,1,$1+$1,$6,$7*
1,1,$1+$1,$8,$9*
0 Add four rect primitives between the rounded corners*
20,1,$1+$1,$2,$3,$4,$5,0*
20,1,$1+$1,$4,$5,$6,$7,0*
20,1,$1+$1,$6,$7,$8,$9,0*
20,1,$1+$1,$8,$9,$2,$3,0*%
G04 Aperture macros list end*
%ADD10C,0.150000*%
%ADD11C,0.127000*%
%ADD12C,0.120000*%
%ADD13C,0.500000*%
%ADD14R,1.308000X1.308000*%
%ADD15C,1.308000*%
%ADD16RoundRect,0.250000X0.600000X-0.600000X0.600000X0.600000X-0.600000X0.600000X-0.600000X-0.600000X0*%
%ADD17C,1.700000*%
%ADD18R,0.550000X2.000000*%
%ADD19R,2.000000X0.550000*%
%ADD20C,3.200000*%
%ADD21C,1.152000*%
G04 APERTURE END LIST*
D10*
X64370009Y-44922887D02*
X64417628Y-44780030D01*
X64417628Y-44780030D02*
X64465247Y-44732411D01*
X64465247Y-44732411D02*
X64560485Y-44684792D01*
X64560485Y-44684792D02*
X64703342Y-44684792D01*
X64703342Y-44684792D02*
X64798580Y-44732411D01*
X64798580Y-44732411D02*
X64846200Y-44780030D01*
X64846200Y-44780030D02*
X64893819Y-44875268D01*
X64893819Y-44875268D02*
X64893819Y-45256220D01*
X64893819Y-45256220D02*
X63893819Y-45256220D01*
X63893819Y-45256220D02*
X63893819Y-44922887D01*
X63893819Y-44922887D02*
X63941438Y-44827649D01*
X63941438Y-44827649D02*
X63989057Y-44780030D01*
X63989057Y-44780030D02*
X64084295Y-44732411D01*
X64084295Y-44732411D02*
X64179533Y-44732411D01*
X64179533Y-44732411D02*
X64274771Y-44780030D01*
X64274771Y-44780030D02*
X64322390Y-44827649D01*
X64322390Y-44827649D02*
X64370009Y-44922887D01*
X64370009Y-44922887D02*
X64370009Y-45256220D01*
X64893819Y-43780030D02*
X64893819Y-44256220D01*
X64893819Y-44256220D02*
X63893819Y-44256220D01*
X56653133Y-148653779D02*
X56653133Y-149415684D01*
X56272180Y-149034731D02*
X57034085Y-149034731D01*
X56272180Y-150415683D02*
X56272180Y-149844255D01*
X56272180Y-150129969D02*
X57272180Y-150129969D01*
X57272180Y-150129969D02*
X57129323Y-150034731D01*
X57129323Y-150034731D02*
X57034085Y-149939493D01*
X57034085Y-149939493D02*
X56986466Y-149844255D01*
X57176942Y-150796636D02*
X57224561Y-150844255D01*
X57224561Y-150844255D02*
X57272180Y-150939493D01*
X57272180Y-150939493D02*
X57272180Y-151177588D01*
X57272180Y-151177588D02*
X57224561Y-151272826D01*
X57224561Y-151272826D02*
X57176942Y-151320445D01*
X57176942Y-151320445D02*
X57081704Y-151368064D01*
X57081704Y-151368064D02*
X56986466Y-151368064D01*
X56986466Y-151368064D02*
X56843609Y-151320445D01*
X56843609Y-151320445D02*
X56272180Y-150749017D01*
X56272180Y-150749017D02*
X56272180Y-151368064D01*
X57272180Y-151653779D02*
X56272180Y-151987112D01*
X56272180Y-151987112D02*
X57272180Y-152320445D01*
X59591580Y-137013792D02*
X59639200Y-137061411D01*
X59639200Y-137061411D02*
X59686819Y-137204268D01*
X59686819Y-137204268D02*
X59686819Y-137299506D01*
X59686819Y-137299506D02*
X59639200Y-137442363D01*
X59639200Y-137442363D02*
X59543961Y-137537601D01*
X59543961Y-137537601D02*
X59448723Y-137585220D01*
X59448723Y-137585220D02*
X59258247Y-137632839D01*
X59258247Y-137632839D02*
X59115390Y-137632839D01*
X59115390Y-137632839D02*
X58924914Y-137585220D01*
X58924914Y-137585220D02*
X58829676Y-137537601D01*
X58829676Y-137537601D02*
X58734438Y-137442363D01*
X58734438Y-137442363D02*
X58686819Y-137299506D01*
X58686819Y-137299506D02*
X58686819Y-137204268D01*
X58686819Y-137204268D02*
X58734438Y-137061411D01*
X58734438Y-137061411D02*
X58782057Y-137013792D01*
X59686819Y-136109030D02*
X59686819Y-136585220D01*
X59686819Y-136585220D02*
X58686819Y-136585220D01*
X59686819Y-135775696D02*
X58686819Y-135775696D01*
X59686819Y-135204268D02*
X59115390Y-135632839D01*
X58686819Y-135204268D02*
X59258247Y-135775696D01*
X59502561Y-55470588D02*
X59550180Y-55375350D01*
X59550180Y-55375350D02*
X59550180Y-55232493D01*
X59550180Y-55232493D02*
X59502561Y-55089636D01*
X59502561Y-55089636D02*
X59407323Y-54994398D01*
X59407323Y-54994398D02*
X59312085Y-54946779D01*
X59312085Y-54946779D02*
X59121609Y-54899160D01*
X59121609Y-54899160D02*
X58978752Y-54899160D01*
X58978752Y-54899160D02*
X58788276Y-54946779D01*
X58788276Y-54946779D02*
X58693038Y-54994398D01*
X58693038Y-54994398D02*
X58597800Y-55089636D01*
X58597800Y-55089636D02*
X58550180Y-55232493D01*
X58550180Y-55232493D02*
X58550180Y-55327731D01*
X58550180Y-55327731D02*
X58597800Y-55470588D01*
X58597800Y-55470588D02*
X58645419Y-55518207D01*
X58645419Y-55518207D02*
X58978752Y-55518207D01*
X58978752Y-55518207D02*
X58978752Y-55327731D01*
X58550180Y-55946779D02*
X59550180Y-55946779D01*
X59550180Y-55946779D02*
X58550180Y-56518207D01*
X58550180Y-56518207D02*
X59550180Y-56518207D01*
X58550180Y-56994398D02*
X59550180Y-56994398D01*
X59550180Y-56994398D02*
X59550180Y-57232493D01*
X59550180Y-57232493D02*
X59502561Y-57375350D01*
X59502561Y-57375350D02*
X59407323Y-57470588D01*
X59407323Y-57470588D02*
X59312085Y-57518207D01*
X59312085Y-57518207D02*
X59121609Y-57565826D01*
X59121609Y-57565826D02*
X58978752Y-57565826D01*
X58978752Y-57565826D02*
X58788276Y-57518207D01*
X58788276Y-57518207D02*
X58693038Y-57470588D01*
X58693038Y-57470588D02*
X58597800Y-57375350D01*
X58597800Y-57375350D02*
X58550180Y-57232493D01*
X58550180Y-57232493D02*
X58550180Y-56994398D01*
X64370009Y-137251887D02*
X64417628Y-137109030D01*
X64417628Y-137109030D02*
X64465247Y-137061411D01*
X64465247Y-137061411D02*
X64560485Y-137013792D01*
X64560485Y-137013792D02*
X64703342Y-137013792D01*
X64703342Y-137013792D02*
X64798580Y-137061411D01*
X64798580Y-137061411D02*
X64846200Y-137109030D01*
X64846200Y-137109030D02*
X64893819Y-137204268D01*
X64893819Y-137204268D02*
X64893819Y-137585220D01*
X64893819Y-137585220D02*
X63893819Y-137585220D01*
X63893819Y-137585220D02*
X63893819Y-137251887D01*
X63893819Y-137251887D02*
X63941438Y-137156649D01*
X63941438Y-137156649D02*
X63989057Y-137109030D01*
X63989057Y-137109030D02*
X64084295Y-137061411D01*
X64084295Y-137061411D02*
X64179533Y-137061411D01*
X64179533Y-137061411D02*
X64274771Y-137109030D01*
X64274771Y-137109030D02*
X64322390Y-137156649D01*
X64322390Y-137156649D02*
X64370009Y-137251887D01*
X64370009Y-137251887D02*
X64370009Y-137585220D01*
X64893819Y-136109030D02*
X64893819Y-136585220D01*
X64893819Y-136585220D02*
X63893819Y-136585220D01*
X62226819Y-44780030D02*
X62226819Y-45256220D01*
X62226819Y-45256220D02*
X61226819Y-45256220D01*
X61703009Y-44446696D02*
X61703009Y-44113363D01*
X62226819Y-43970506D02*
X62226819Y-44446696D01*
X62226819Y-44446696D02*
X61226819Y-44446696D01*
X61226819Y-44446696D02*
X61226819Y-43970506D01*
X62226819Y-137109030D02*
X62226819Y-137585220D01*
X62226819Y-137585220D02*
X61226819Y-137585220D01*
X61703009Y-136775696D02*
X61703009Y-136442363D01*
X62226819Y-136299506D02*
X62226819Y-136775696D01*
X62226819Y-136775696D02*
X61226819Y-136775696D01*
X61226819Y-136775696D02*
X61226819Y-136299506D01*
X57019819Y-137585220D02*
X56019819Y-137585220D01*
X56019819Y-137585220D02*
X56019819Y-137347125D01*
X56019819Y-137347125D02*
X56067438Y-137204268D01*
X56067438Y-137204268D02*
X56162676Y-137109030D01*
X56162676Y-137109030D02*
X56257914Y-137061411D01*
X56257914Y-137061411D02*
X56448390Y-137013792D01*
X56448390Y-137013792D02*
X56591247Y-137013792D01*
X56591247Y-137013792D02*
X56781723Y-137061411D01*
X56781723Y-137061411D02*
X56876961Y-137109030D01*
X56876961Y-137109030D02*
X56972200Y-137204268D01*
X56972200Y-137204268D02*
X57019819Y-137347125D01*
X57019819Y-137347125D02*
X57019819Y-137585220D01*
X57019819Y-136585220D02*
X56019819Y-136585220D01*
X57019819Y-136109030D02*
X56019819Y-136109030D01*
X56019819Y-136109030D02*
X57019819Y-135537602D01*
X57019819Y-135537602D02*
X56019819Y-135537602D01*
X59591580Y-44684792D02*
X59639200Y-44732411D01*
X59639200Y-44732411D02*
X59686819Y-44875268D01*
X59686819Y-44875268D02*
X59686819Y-44970506D01*
X59686819Y-44970506D02*
X59639200Y-45113363D01*
X59639200Y-45113363D02*
X59543961Y-45208601D01*
X59543961Y-45208601D02*
X59448723Y-45256220D01*
X59448723Y-45256220D02*
X59258247Y-45303839D01*
X59258247Y-45303839D02*
X59115390Y-45303839D01*
X59115390Y-45303839D02*
X58924914Y-45256220D01*
X58924914Y-45256220D02*
X58829676Y-45208601D01*
X58829676Y-45208601D02*
X58734438Y-45113363D01*
X58734438Y-45113363D02*
X58686819Y-44970506D01*
X58686819Y-44970506D02*
X58686819Y-44875268D01*
X58686819Y-44875268D02*
X58734438Y-44732411D01*
X58734438Y-44732411D02*
X58782057Y-44684792D01*
X59686819Y-43780030D02*
X59686819Y-44256220D01*
X59686819Y-44256220D02*
X58686819Y-44256220D01*
X59686819Y-43446696D02*
X58686819Y-43446696D01*
X59686819Y-42875268D02*
X59115390Y-43303839D01*
X58686819Y-42875268D02*
X59258247Y-43446696D01*
X57019819Y-45256220D02*
X56019819Y-45256220D01*
X56019819Y-45256220D02*
X56019819Y-45018125D01*
X56019819Y-45018125D02*
X56067438Y-44875268D01*
X56067438Y-44875268D02*
X56162676Y-44780030D01*
X56162676Y-44780030D02*
X56257914Y-44732411D01*
X56257914Y-44732411D02*
X56448390Y-44684792D01*
X56448390Y-44684792D02*
X56591247Y-44684792D01*
X56591247Y-44684792D02*
X56781723Y-44732411D01*
X56781723Y-44732411D02*
X56876961Y-44780030D01*
X56876961Y-44780030D02*
X56972200Y-44875268D01*
X56972200Y-44875268D02*
X57019819Y-45018125D01*
X57019819Y-45018125D02*
X57019819Y-45256220D01*
X56019819Y-44065744D02*
X56019819Y-43875268D01*
X56019819Y-43875268D02*
X56067438Y-43780030D01*
X56067438Y-43780030D02*
X56162676Y-43684792D01*
X56162676Y-43684792D02*
X56353152Y-43637173D01*
X56353152Y-43637173D02*
X56686485Y-43637173D01*
X56686485Y-43637173D02*
X56876961Y-43684792D01*
X56876961Y-43684792D02*
X56972200Y-43780030D01*
X56972200Y-43780030D02*
X57019819Y-43875268D01*
X57019819Y-43875268D02*
X57019819Y-44065744D01*
X57019819Y-44065744D02*
X56972200Y-44160982D01*
X56972200Y-44160982D02*
X56876961Y-44256220D01*
X56876961Y-44256220D02*
X56686485Y-44303839D01*
X56686485Y-44303839D02*
X56353152Y-44303839D01*
X56353152Y-44303839D02*
X56162676Y-44256220D01*
X56162676Y-44256220D02*
X56067438Y-44160982D01*
X56067438Y-44160982D02*
X56019819Y-44065744D01*
X56019819Y-43208601D02*
X56829342Y-43208601D01*
X56829342Y-43208601D02*
X56924580Y-43160982D01*
X56924580Y-43160982D02*
X56972200Y-43113363D01*
X56972200Y-43113363D02*
X57019819Y-43018125D01*
X57019819Y-43018125D02*
X57019819Y-42827649D01*
X57019819Y-42827649D02*
X56972200Y-42732411D01*
X56972200Y-42732411D02*
X56924580Y-42684792D01*
X56924580Y-42684792D02*
X56829342Y-42637173D01*
X56829342Y-42637173D02*
X56019819Y-42637173D01*
X56019819Y-42303839D02*
X56019819Y-41732411D01*
X57019819Y-42018125D02*
X56019819Y-42018125D01*
X62042561Y-55470588D02*
X62090180Y-55375350D01*
X62090180Y-55375350D02*
X62090180Y-55232493D01*
X62090180Y-55232493D02*
X62042561Y-55089636D01*
X62042561Y-55089636D02*
X61947323Y-54994398D01*
X61947323Y-54994398D02*
X61852085Y-54946779D01*
X61852085Y-54946779D02*
X61661609Y-54899160D01*
X61661609Y-54899160D02*
X61518752Y-54899160D01*
X61518752Y-54899160D02*
X61328276Y-54946779D01*
X61328276Y-54946779D02*
X61233038Y-54994398D01*
X61233038Y-54994398D02*
X61137800Y-55089636D01*
X61137800Y-55089636D02*
X61090180Y-55232493D01*
X61090180Y-55232493D02*
X61090180Y-55327731D01*
X61090180Y-55327731D02*
X61137800Y-55470588D01*
X61137800Y-55470588D02*
X61185419Y-55518207D01*
X61185419Y-55518207D02*
X61518752Y-55518207D01*
X61518752Y-55518207D02*
X61518752Y-55327731D01*
X61090180Y-55946779D02*
X62090180Y-55946779D01*
X62090180Y-55946779D02*
X61090180Y-56518207D01*
X61090180Y-56518207D02*
X62090180Y-56518207D01*
X61090180Y-56994398D02*
X62090180Y-56994398D01*
X62090180Y-56994398D02*
X62090180Y-57232493D01*
X62090180Y-57232493D02*
X62042561Y-57375350D01*
X62042561Y-57375350D02*
X61947323Y-57470588D01*
X61947323Y-57470588D02*
X61852085Y-57518207D01*
X61852085Y-57518207D02*
X61661609Y-57565826D01*
X61661609Y-57565826D02*
X61518752Y-57565826D01*
X61518752Y-57565826D02*
X61328276Y-57518207D01*
X61328276Y-57518207D02*
X61233038Y-57470588D01*
X61233038Y-57470588D02*
X61137800Y-57375350D01*
X61137800Y-57375350D02*
X61090180Y-57232493D01*
X61090180Y-57232493D02*
X61090180Y-56994398D01*
X64519133Y-147148779D02*
X64519133Y-147910684D01*
X64138180Y-147529731D02*
X64900085Y-147529731D01*
X64138180Y-148910683D02*
X64138180Y-148339255D01*
X64138180Y-148624969D02*
X65138180Y-148624969D01*
X65138180Y-148624969D02*
X64995323Y-148529731D01*
X64995323Y-148529731D02*
X64900085Y-148434493D01*
X64900085Y-148434493D02*
X64852466Y-148339255D01*
X65138180Y-149244017D02*
X65138180Y-149910683D01*
X65138180Y-149910683D02*
X64138180Y-149482112D01*
X65138180Y-150482112D02*
X65138180Y-150577350D01*
X65138180Y-150577350D02*
X65090561Y-150672588D01*
X65090561Y-150672588D02*
X65042942Y-150720207D01*
X65042942Y-150720207D02*
X64947704Y-150767826D01*
X64947704Y-150767826D02*
X64757228Y-150815445D01*
X64757228Y-150815445D02*
X64519133Y-150815445D01*
X64519133Y-150815445D02*
X64328657Y-150767826D01*
X64328657Y-150767826D02*
X64233419Y-150720207D01*
X64233419Y-150720207D02*
X64185800Y-150672588D01*
X64185800Y-150672588D02*
X64138180Y-150577350D01*
X64138180Y-150577350D02*
X64138180Y-150482112D01*
X64138180Y-150482112D02*
X64185800Y-150386874D01*
X64185800Y-150386874D02*
X64233419Y-150339255D01*
X64233419Y-150339255D02*
X64328657Y-150291636D01*
X64328657Y-150291636D02*
X64519133Y-150244017D01*
X64519133Y-150244017D02*
X64757228Y-150244017D01*
X64757228Y-150244017D02*
X64947704Y-150291636D01*
X64947704Y-150291636D02*
X65042942Y-150339255D01*
X65042942Y-150339255D02*
X65090561Y-150386874D01*
X65090561Y-150386874D02*
X65138180Y-150482112D01*
X65138180Y-151101160D02*
X64138180Y-151434493D01*
X64138180Y-151434493D02*
X65138180Y-151767826D01*
X64392133Y-54946779D02*
X64392133Y-55708684D01*
X64011180Y-55327731D02*
X64773085Y-55327731D01*
X64011180Y-56708683D02*
X64011180Y-56137255D01*
X64011180Y-56422969D02*
X65011180Y-56422969D01*
X65011180Y-56422969D02*
X64868323Y-56327731D01*
X64868323Y-56327731D02*
X64773085Y-56232493D01*
X64773085Y-56232493D02*
X64725466Y-56137255D01*
X65011180Y-57042017D02*
X65011180Y-57708683D01*
X65011180Y-57708683D02*
X64011180Y-57280112D01*
X65011180Y-58280112D02*
X65011180Y-58375350D01*
X65011180Y-58375350D02*
X64963561Y-58470588D01*
X64963561Y-58470588D02*
X64915942Y-58518207D01*
X64915942Y-58518207D02*
X64820704Y-58565826D01*
X64820704Y-58565826D02*
X64630228Y-58613445D01*
X64630228Y-58613445D02*
X64392133Y-58613445D01*
X64392133Y-58613445D02*
X64201657Y-58565826D01*
X64201657Y-58565826D02*
X64106419Y-58518207D01*
X64106419Y-58518207D02*
X64058800Y-58470588D01*
X64058800Y-58470588D02*
X64011180Y-58375350D01*
X64011180Y-58375350D02*
X64011180Y-58280112D01*
X64011180Y-58280112D02*
X64058800Y-58184874D01*
X64058800Y-58184874D02*
X64106419Y-58137255D01*
X64106419Y-58137255D02*
X64201657Y-58089636D01*
X64201657Y-58089636D02*
X64392133Y-58042017D01*
X64392133Y-58042017D02*
X64630228Y-58042017D01*
X64630228Y-58042017D02*
X64820704Y-58089636D01*
X64820704Y-58089636D02*
X64915942Y-58137255D01*
X64915942Y-58137255D02*
X64963561Y-58184874D01*
X64963561Y-58184874D02*
X65011180Y-58280112D01*
X65011180Y-58899160D02*
X64011180Y-59232493D01*
X64011180Y-59232493D02*
X65011180Y-59565826D01*
X56526133Y-56451779D02*
X56526133Y-57213684D01*
X56145180Y-56832731D02*
X56907085Y-56832731D01*
X56145180Y-58213683D02*
X56145180Y-57642255D01*
X56145180Y-57927969D02*
X57145180Y-57927969D01*
X57145180Y-57927969D02*
X57002323Y-57832731D01*
X57002323Y-57832731D02*
X56907085Y-57737493D01*
X56907085Y-57737493D02*
X56859466Y-57642255D01*
X57049942Y-58594636D02*
X57097561Y-58642255D01*
X57097561Y-58642255D02*
X57145180Y-58737493D01*
X57145180Y-58737493D02*
X57145180Y-58975588D01*
X57145180Y-58975588D02*
X57097561Y-59070826D01*
X57097561Y-59070826D02*
X57049942Y-59118445D01*
X57049942Y-59118445D02*
X56954704Y-59166064D01*
X56954704Y-59166064D02*
X56859466Y-59166064D01*
X56859466Y-59166064D02*
X56716609Y-59118445D01*
X56716609Y-59118445D02*
X56145180Y-58547017D01*
X56145180Y-58547017D02*
X56145180Y-59166064D01*
X57145180Y-59451779D02*
X56145180Y-59785112D01*
X56145180Y-59785112D02*
X57145180Y-60118445D01*
X59629561Y-147672588D02*
X59677180Y-147577350D01*
X59677180Y-147577350D02*
X59677180Y-147434493D01*
X59677180Y-147434493D02*
X59629561Y-147291636D01*
X59629561Y-147291636D02*
X59534323Y-147196398D01*
X59534323Y-147196398D02*
X59439085Y-147148779D01*
X59439085Y-147148779D02*
X59248609Y-147101160D01*
X59248609Y-147101160D02*
X59105752Y-147101160D01*
X59105752Y-147101160D02*
X58915276Y-147148779D01*
X58915276Y-147148779D02*
X58820038Y-147196398D01*
X58820038Y-147196398D02*
X58724800Y-147291636D01*
X58724800Y-147291636D02*
X58677180Y-147434493D01*
X58677180Y-147434493D02*
X58677180Y-147529731D01*
X58677180Y-147529731D02*
X58724800Y-147672588D01*
X58724800Y-147672588D02*
X58772419Y-147720207D01*
X58772419Y-147720207D02*
X59105752Y-147720207D01*
X59105752Y-147720207D02*
X59105752Y-147529731D01*
X58677180Y-148148779D02*
X59677180Y-148148779D01*
X59677180Y-148148779D02*
X58677180Y-148720207D01*
X58677180Y-148720207D02*
X59677180Y-148720207D01*
X58677180Y-149196398D02*
X59677180Y-149196398D01*
X59677180Y-149196398D02*
X59677180Y-149434493D01*
X59677180Y-149434493D02*
X59629561Y-149577350D01*
X59629561Y-149577350D02*
X59534323Y-149672588D01*
X59534323Y-149672588D02*
X59439085Y-149720207D01*
X59439085Y-149720207D02*
X59248609Y-149767826D01*
X59248609Y-149767826D02*
X59105752Y-149767826D01*
X59105752Y-149767826D02*
X58915276Y-149720207D01*
X58915276Y-149720207D02*
X58820038Y-149672588D01*
X58820038Y-149672588D02*
X58724800Y-149577350D01*
X58724800Y-149577350D02*
X58677180Y-149434493D01*
X58677180Y-149434493D02*
X58677180Y-149196398D01*
X62169561Y-147672588D02*
X62217180Y-147577350D01*
X62217180Y-147577350D02*
X62217180Y-147434493D01*
X62217180Y-147434493D02*
X62169561Y-147291636D01*
X62169561Y-147291636D02*
X62074323Y-147196398D01*
X62074323Y-147196398D02*
X61979085Y-147148779D01*
X61979085Y-147148779D02*
X61788609Y-147101160D01*
X61788609Y-147101160D02*
X61645752Y-147101160D01*
X61645752Y-147101160D02*
X61455276Y-147148779D01*
X61455276Y-147148779D02*
X61360038Y-147196398D01*
X61360038Y-147196398D02*
X61264800Y-147291636D01*
X61264800Y-147291636D02*
X61217180Y-147434493D01*
X61217180Y-147434493D02*
X61217180Y-147529731D01*
X61217180Y-147529731D02*
X61264800Y-147672588D01*
X61264800Y-147672588D02*
X61312419Y-147720207D01*
X61312419Y-147720207D02*
X61645752Y-147720207D01*
X61645752Y-147720207D02*
X61645752Y-147529731D01*
X61217180Y-148148779D02*
X62217180Y-148148779D01*
X62217180Y-148148779D02*
X61217180Y-148720207D01*
X61217180Y-148720207D02*
X62217180Y-148720207D01*
X61217180Y-149196398D02*
X62217180Y-149196398D01*
X62217180Y-149196398D02*
X62217180Y-149434493D01*
X62217180Y-149434493D02*
X62169561Y-149577350D01*
X62169561Y-149577350D02*
X62074323Y-149672588D01*
X62074323Y-149672588D02*
X61979085Y-149720207D01*
X61979085Y-149720207D02*
X61788609Y-149767826D01*
X61788609Y-149767826D02*
X61645752Y-149767826D01*
X61645752Y-149767826D02*
X61455276Y-149720207D01*
X61455276Y-149720207D02*
X61360038Y-149672588D01*
X61360038Y-149672588D02*
X61264800Y-149577350D01*
X61264800Y-149577350D02*
X61217180Y-149434493D01*
X61217180Y-149434493D02*
X61217180Y-149196398D01*
X78654121Y-132919065D02*
X79104065Y-132919065D01*
X78879093Y-133706467D02*
X78879093Y-132919065D01*
X79741486Y-132919065D02*
X79366532Y-132919065D01*
X79366532Y-132919065D02*
X79329037Y-133294018D01*
X79329037Y-133294018D02*
X79366532Y-133256523D01*
X79366532Y-133256523D02*
X79441523Y-133219028D01*
X79441523Y-133219028D02*
X79629000Y-133219028D01*
X79629000Y-133219028D02*
X79703990Y-133256523D01*
X79703990Y-133256523D02*
X79741486Y-133294018D01*
X79741486Y-133294018D02*
X79778981Y-133369009D01*
X79778981Y-133369009D02*
X79778981Y-133556486D01*
X79778981Y-133556486D02*
X79741486Y-133631476D01*
X79741486Y-133631476D02*
X79703990Y-133668972D01*
X79703990Y-133668972D02*
X79629000Y-133706467D01*
X79629000Y-133706467D02*
X79441523Y-133706467D01*
X79441523Y-133706467D02*
X79366532Y-133668972D01*
X79366532Y-133668972D02*
X79329037Y-133631476D01*
X80041449Y-132919065D02*
X80566383Y-132919065D01*
X80566383Y-132919065D02*
X80228925Y-133706467D01*
X70399121Y-75134065D02*
X70849065Y-75134065D01*
X70624093Y-75921467D02*
X70624093Y-75134065D01*
X71523981Y-75921467D02*
X71074037Y-75921467D01*
X71299009Y-75921467D02*
X71299009Y-75134065D01*
X71299009Y-75134065D02*
X71224018Y-75246551D01*
X71224018Y-75246551D02*
X71149028Y-75321542D01*
X71149028Y-75321542D02*
X71074037Y-75359037D01*
X72198897Y-75396532D02*
X72198897Y-75921467D01*
X72011421Y-75096570D02*
X71823944Y-75659000D01*
X71823944Y-75659000D02*
X72311383Y-75659000D01*
X53889121Y-124664065D02*
X54339065Y-124664065D01*
X54114093Y-125451467D02*
X54114093Y-124664065D01*
X54938990Y-124926532D02*
X54938990Y-125451467D01*
X54751514Y-124626570D02*
X54564037Y-125189000D01*
X54564037Y-125189000D02*
X55051476Y-125189000D01*
X55463925Y-125001523D02*
X55388935Y-124964028D01*
X55388935Y-124964028D02*
X55351439Y-124926532D01*
X55351439Y-124926532D02*
X55313944Y-124851542D01*
X55313944Y-124851542D02*
X55313944Y-124814046D01*
X55313944Y-124814046D02*
X55351439Y-124739056D01*
X55351439Y-124739056D02*
X55388935Y-124701560D01*
X55388935Y-124701560D02*
X55463925Y-124664065D01*
X55463925Y-124664065D02*
X55613907Y-124664065D01*
X55613907Y-124664065D02*
X55688897Y-124701560D01*
X55688897Y-124701560D02*
X55726393Y-124739056D01*
X55726393Y-124739056D02*
X55763888Y-124814046D01*
X55763888Y-124814046D02*
X55763888Y-124851542D01*
X55763888Y-124851542D02*
X55726393Y-124926532D01*
X55726393Y-124926532D02*
X55688897Y-124964028D01*
X55688897Y-124964028D02*
X55613907Y-125001523D01*
X55613907Y-125001523D02*
X55463925Y-125001523D01*
X55463925Y-125001523D02*
X55388935Y-125039018D01*
X55388935Y-125039018D02*
X55351439Y-125076514D01*
X55351439Y-125076514D02*
X55313944Y-125151504D01*
X55313944Y-125151504D02*
X55313944Y-125301486D01*
X55313944Y-125301486D02*
X55351439Y-125376476D01*
X55351439Y-125376476D02*
X55388935Y-125413972D01*
X55388935Y-125413972D02*
X55463925Y-125451467D01*
X55463925Y-125451467D02*
X55613907Y-125451467D01*
X55613907Y-125451467D02*
X55688897Y-125413972D01*
X55688897Y-125413972D02*
X55726393Y-125376476D01*
X55726393Y-125376476D02*
X55763888Y-125301486D01*
X55763888Y-125301486D02*
X55763888Y-125151504D01*
X55763888Y-125151504D02*
X55726393Y-125076514D01*
X55726393Y-125076514D02*
X55688897Y-125039018D01*
X55688897Y-125039018D02*
X55613907Y-125001523D01*
X70399121Y-124664065D02*
X70849065Y-124664065D01*
X70624093Y-125451467D02*
X70624093Y-124664065D01*
X71486486Y-124664065D02*
X71111532Y-124664065D01*
X71111532Y-124664065D02*
X71074037Y-125039018D01*
X71074037Y-125039018D02*
X71111532Y-125001523D01*
X71111532Y-125001523D02*
X71186523Y-124964028D01*
X71186523Y-124964028D02*
X71374000Y-124964028D01*
X71374000Y-124964028D02*
X71448990Y-125001523D01*
X71448990Y-125001523D02*
X71486486Y-125039018D01*
X71486486Y-125039018D02*
X71523981Y-125114009D01*
X71523981Y-125114009D02*
X71523981Y-125301486D01*
X71523981Y-125301486D02*
X71486486Y-125376476D01*
X71486486Y-125376476D02*
X71448990Y-125413972D01*
X71448990Y-125413972D02*
X71374000Y-125451467D01*
X71374000Y-125451467D02*
X71186523Y-125451467D01*
X71186523Y-125451467D02*
X71111532Y-125413972D01*
X71111532Y-125413972D02*
X71074037Y-125376476D01*
X72011421Y-124664065D02*
X72086411Y-124664065D01*
X72086411Y-124664065D02*
X72161402Y-124701560D01*
X72161402Y-124701560D02*
X72198897Y-124739056D01*
X72198897Y-124739056D02*
X72236393Y-124814046D01*
X72236393Y-124814046D02*
X72273888Y-124964028D01*
X72273888Y-124964028D02*
X72273888Y-125151504D01*
X72273888Y-125151504D02*
X72236393Y-125301486D01*
X72236393Y-125301486D02*
X72198897Y-125376476D01*
X72198897Y-125376476D02*
X72161402Y-125413972D01*
X72161402Y-125413972D02*
X72086411Y-125451467D01*
X72086411Y-125451467D02*
X72011421Y-125451467D01*
X72011421Y-125451467D02*
X71936430Y-125413972D01*
X71936430Y-125413972D02*
X71898935Y-125376476D01*
X71898935Y-125376476D02*
X71861439Y-125301486D01*
X71861439Y-125301486D02*
X71823944Y-125151504D01*
X71823944Y-125151504D02*
X71823944Y-124964028D01*
X71823944Y-124964028D02*
X71861439Y-124814046D01*
X71861439Y-124814046D02*
X71898935Y-124739056D01*
X71898935Y-124739056D02*
X71936430Y-124701560D01*
X71936430Y-124701560D02*
X72011421Y-124664065D01*
X70399121Y-116409065D02*
X70849065Y-116409065D01*
X70624093Y-117196467D02*
X70624093Y-116409065D01*
X71448990Y-116671532D02*
X71448990Y-117196467D01*
X71261514Y-116371570D02*
X71074037Y-116934000D01*
X71074037Y-116934000D02*
X71561476Y-116934000D01*
X72198897Y-116671532D02*
X72198897Y-117196467D01*
X72011421Y-116371570D02*
X71823944Y-116934000D01*
X71823944Y-116934000D02*
X72311383Y-116934000D01*
X70399121Y-132919065D02*
X70849065Y-132919065D01*
X70624093Y-133706467D02*
X70624093Y-132919065D01*
X71486486Y-132919065D02*
X71111532Y-132919065D01*
X71111532Y-132919065D02*
X71074037Y-133294018D01*
X71074037Y-133294018D02*
X71111532Y-133256523D01*
X71111532Y-133256523D02*
X71186523Y-133219028D01*
X71186523Y-133219028D02*
X71374000Y-133219028D01*
X71374000Y-133219028D02*
X71448990Y-133256523D01*
X71448990Y-133256523D02*
X71486486Y-133294018D01*
X71486486Y-133294018D02*
X71523981Y-133369009D01*
X71523981Y-133369009D02*
X71523981Y-133556486D01*
X71523981Y-133556486D02*
X71486486Y-133631476D01*
X71486486Y-133631476D02*
X71448990Y-133668972D01*
X71448990Y-133668972D02*
X71374000Y-133706467D01*
X71374000Y-133706467D02*
X71186523Y-133706467D01*
X71186523Y-133706467D02*
X71111532Y-133668972D01*
X71111532Y-133668972D02*
X71074037Y-133631476D01*
X72198897Y-132919065D02*
X72048916Y-132919065D01*
X72048916Y-132919065D02*
X71973925Y-132956560D01*
X71973925Y-132956560D02*
X71936430Y-132994056D01*
X71936430Y-132994056D02*
X71861439Y-133106542D01*
X71861439Y-133106542D02*
X71823944Y-133256523D01*
X71823944Y-133256523D02*
X71823944Y-133556486D01*
X71823944Y-133556486D02*
X71861439Y-133631476D01*
X71861439Y-133631476D02*
X71898935Y-133668972D01*
X71898935Y-133668972D02*
X71973925Y-133706467D01*
X71973925Y-133706467D02*
X72123907Y-133706467D01*
X72123907Y-133706467D02*
X72198897Y-133668972D01*
X72198897Y-133668972D02*
X72236393Y-133631476D01*
X72236393Y-133631476D02*
X72273888Y-133556486D01*
X72273888Y-133556486D02*
X72273888Y-133369009D01*
X72273888Y-133369009D02*
X72236393Y-133294018D01*
X72236393Y-133294018D02*
X72198897Y-133256523D01*
X72198897Y-133256523D02*
X72123907Y-133219028D01*
X72123907Y-133219028D02*
X71973925Y-133219028D01*
X71973925Y-133219028D02*
X71898935Y-133256523D01*
X71898935Y-133256523D02*
X71861439Y-133294018D01*
X71861439Y-133294018D02*
X71823944Y-133369009D01*
X53889121Y-83389065D02*
X54339065Y-83389065D01*
X54114093Y-84176467D02*
X54114093Y-83389065D01*
X55013981Y-84176467D02*
X54564037Y-84176467D01*
X54789009Y-84176467D02*
X54789009Y-83389065D01*
X54789009Y-83389065D02*
X54714018Y-83501551D01*
X54714018Y-83501551D02*
X54639028Y-83576542D01*
X54639028Y-83576542D02*
X54564037Y-83614037D01*
X55463925Y-83726523D02*
X55388935Y-83689028D01*
X55388935Y-83689028D02*
X55351439Y-83651532D01*
X55351439Y-83651532D02*
X55313944Y-83576542D01*
X55313944Y-83576542D02*
X55313944Y-83539046D01*
X55313944Y-83539046D02*
X55351439Y-83464056D01*
X55351439Y-83464056D02*
X55388935Y-83426560D01*
X55388935Y-83426560D02*
X55463925Y-83389065D01*
X55463925Y-83389065D02*
X55613907Y-83389065D01*
X55613907Y-83389065D02*
X55688897Y-83426560D01*
X55688897Y-83426560D02*
X55726393Y-83464056D01*
X55726393Y-83464056D02*
X55763888Y-83539046D01*
X55763888Y-83539046D02*
X55763888Y-83576542D01*
X55763888Y-83576542D02*
X55726393Y-83651532D01*
X55726393Y-83651532D02*
X55688897Y-83689028D01*
X55688897Y-83689028D02*
X55613907Y-83726523D01*
X55613907Y-83726523D02*
X55463925Y-83726523D01*
X55463925Y-83726523D02*
X55388935Y-83764018D01*
X55388935Y-83764018D02*
X55351439Y-83801514D01*
X55351439Y-83801514D02*
X55313944Y-83876504D01*
X55313944Y-83876504D02*
X55313944Y-84026486D01*
X55313944Y-84026486D02*
X55351439Y-84101476D01*
X55351439Y-84101476D02*
X55388935Y-84138972D01*
X55388935Y-84138972D02*
X55463925Y-84176467D01*
X55463925Y-84176467D02*
X55613907Y-84176467D01*
X55613907Y-84176467D02*
X55688897Y-84138972D01*
X55688897Y-84138972D02*
X55726393Y-84101476D01*
X55726393Y-84101476D02*
X55763888Y-84026486D01*
X55763888Y-84026486D02*
X55763888Y-83876504D01*
X55763888Y-83876504D02*
X55726393Y-83801514D01*
X55726393Y-83801514D02*
X55688897Y-83764018D01*
X55688897Y-83764018D02*
X55613907Y-83726523D01*
X78654121Y-108154065D02*
X79104065Y-108154065D01*
X78879093Y-108941467D02*
X78879093Y-108154065D01*
X79291542Y-108154065D02*
X79778981Y-108154065D01*
X79778981Y-108154065D02*
X79516514Y-108454028D01*
X79516514Y-108454028D02*
X79629000Y-108454028D01*
X79629000Y-108454028D02*
X79703990Y-108491523D01*
X79703990Y-108491523D02*
X79741486Y-108529018D01*
X79741486Y-108529018D02*
X79778981Y-108604009D01*
X79778981Y-108604009D02*
X79778981Y-108791486D01*
X79778981Y-108791486D02*
X79741486Y-108866476D01*
X79741486Y-108866476D02*
X79703990Y-108903972D01*
X79703990Y-108903972D02*
X79629000Y-108941467D01*
X79629000Y-108941467D02*
X79404028Y-108941467D01*
X79404028Y-108941467D02*
X79329037Y-108903972D01*
X79329037Y-108903972D02*
X79291542Y-108866476D01*
X80153935Y-108941467D02*
X80303916Y-108941467D01*
X80303916Y-108941467D02*
X80378907Y-108903972D01*
X80378907Y-108903972D02*
X80416402Y-108866476D01*
X80416402Y-108866476D02*
X80491393Y-108753990D01*
X80491393Y-108753990D02*
X80528888Y-108604009D01*
X80528888Y-108604009D02*
X80528888Y-108304046D01*
X80528888Y-108304046D02*
X80491393Y-108229056D01*
X80491393Y-108229056D02*
X80453897Y-108191560D01*
X80453897Y-108191560D02*
X80378907Y-108154065D01*
X80378907Y-108154065D02*
X80228925Y-108154065D01*
X80228925Y-108154065D02*
X80153935Y-108191560D01*
X80153935Y-108191560D02*
X80116439Y-108229056D01*
X80116439Y-108229056D02*
X80078944Y-108304046D01*
X80078944Y-108304046D02*
X80078944Y-108491523D01*
X80078944Y-108491523D02*
X80116439Y-108566514D01*
X80116439Y-108566514D02*
X80153935Y-108604009D01*
X80153935Y-108604009D02*
X80228925Y-108641504D01*
X80228925Y-108641504D02*
X80378907Y-108641504D01*
X80378907Y-108641504D02*
X80453897Y-108604009D01*
X80453897Y-108604009D02*
X80491393Y-108566514D01*
X80491393Y-108566514D02*
X80528888Y-108491523D01*
X60118666Y-144996819D02*
X60118666Y-145711104D01*
X60118666Y-145711104D02*
X60071047Y-145853961D01*
X60071047Y-145853961D02*
X59975809Y-145949200D01*
X59975809Y-145949200D02*
X59832952Y-145996819D01*
X59832952Y-145996819D02*
X59737714Y-145996819D01*
X60547238Y-145092057D02*
X60594857Y-145044438D01*
X60594857Y-145044438D02*
X60690095Y-144996819D01*
X60690095Y-144996819D02*
X60928190Y-144996819D01*
X60928190Y-144996819D02*
X61023428Y-145044438D01*
X61023428Y-145044438D02*
X61071047Y-145092057D01*
X61071047Y-145092057D02*
X61118666Y-145187295D01*
X61118666Y-145187295D02*
X61118666Y-145282533D01*
X61118666Y-145282533D02*
X61071047Y-145425390D01*
X61071047Y-145425390D02*
X60499619Y-145996819D01*
X60499619Y-145996819D02*
X61118666Y-145996819D01*
X88900095Y-139281819D02*
X88900095Y-140091342D01*
X88900095Y-140091342D02*
X88947714Y-140186580D01*
X88947714Y-140186580D02*
X88995333Y-140234200D01*
X88995333Y-140234200D02*
X89090571Y-140281819D01*
X89090571Y-140281819D02*
X89281047Y-140281819D01*
X89281047Y-140281819D02*
X89376285Y-140234200D01*
X89376285Y-140234200D02*
X89423904Y-140186580D01*
X89423904Y-140186580D02*
X89471523Y-140091342D01*
X89471523Y-140091342D02*
X89471523Y-139281819D01*
X90471523Y-140281819D02*
X89900095Y-140281819D01*
X90185809Y-140281819D02*
X90185809Y-139281819D01*
X90185809Y-139281819D02*
X90090571Y-139424676D01*
X90090571Y-139424676D02*
X89995333Y-139519914D01*
X89995333Y-139519914D02*
X89900095Y-139567533D01*
X78787952Y-145488819D02*
X78787952Y-144488819D01*
X78787952Y-144965009D02*
X79359380Y-144965009D01*
X79359380Y-145488819D02*
X79359380Y-144488819D01*
X79692714Y-144488819D02*
X80026047Y-145488819D01*
X80026047Y-145488819D02*
X80359380Y-144488819D01*
X81168904Y-144488819D02*
X80692714Y-144488819D01*
X80692714Y-144488819D02*
X80645095Y-144965009D01*
X80645095Y-144965009D02*
X80692714Y-144917390D01*
X80692714Y-144917390D02*
X80787952Y-144869771D01*
X80787952Y-144869771D02*
X81026047Y-144869771D01*
X81026047Y-144869771D02*
X81121285Y-144917390D01*
X81121285Y-144917390D02*
X81168904Y-144965009D01*
X81168904Y-144965009D02*
X81216523Y-145060247D01*
X81216523Y-145060247D02*
X81216523Y-145298342D01*
X81216523Y-145298342D02*
X81168904Y-145393580D01*
X81168904Y-145393580D02*
X81121285Y-145441200D01*
X81121285Y-145441200D02*
X81026047Y-145488819D01*
X81026047Y-145488819D02*
X80787952Y-145488819D01*
X80787952Y-145488819D02*
X80692714Y-145441200D01*
X80692714Y-145441200D02*
X80645095Y-145393580D01*
X82121285Y-144488819D02*
X81645095Y-144488819D01*
X81645095Y-144488819D02*
X81597476Y-144965009D01*
X81597476Y-144965009D02*
X81645095Y-144917390D01*
X81645095Y-144917390D02*
X81740333Y-144869771D01*
X81740333Y-144869771D02*
X81978428Y-144869771D01*
X81978428Y-144869771D02*
X82073666Y-144917390D01*
X82073666Y-144917390D02*
X82121285Y-144965009D01*
X82121285Y-144965009D02*
X82168904Y-145060247D01*
X82168904Y-145060247D02*
X82168904Y-145298342D01*
X82168904Y-145298342D02*
X82121285Y-145393580D01*
X82121285Y-145393580D02*
X82073666Y-145441200D01*
X82073666Y-145441200D02*
X81978428Y-145488819D01*
X81978428Y-145488819D02*
X81740333Y-145488819D01*
X81740333Y-145488819D02*
X81645095Y-145441200D01*
X81645095Y-145441200D02*
X81597476Y-145393580D01*
X82502238Y-144488819D02*
X83121285Y-144488819D01*
X83121285Y-144488819D02*
X82787952Y-144869771D01*
X82787952Y-144869771D02*
X82930809Y-144869771D01*
X82930809Y-144869771D02*
X83026047Y-144917390D01*
X83026047Y-144917390D02*
X83073666Y-144965009D01*
X83073666Y-144965009D02*
X83121285Y-145060247D01*
X83121285Y-145060247D02*
X83121285Y-145298342D01*
X83121285Y-145298342D02*
X83073666Y-145393580D01*
X83073666Y-145393580D02*
X83026047Y-145441200D01*
X83026047Y-145441200D02*
X82930809Y-145488819D01*
X82930809Y-145488819D02*
X82645095Y-145488819D01*
X82645095Y-145488819D02*
X82549857Y-145441200D01*
X82549857Y-145441200D02*
X82502238Y-145393580D01*
X83740333Y-144488819D02*
X83835571Y-144488819D01*
X83835571Y-144488819D02*
X83930809Y-144536438D01*
X83930809Y-144536438D02*
X83978428Y-144584057D01*
X83978428Y-144584057D02*
X84026047Y-144679295D01*
X84026047Y-144679295D02*
X84073666Y-144869771D01*
X84073666Y-144869771D02*
X84073666Y-145107866D01*
X84073666Y-145107866D02*
X84026047Y-145298342D01*
X84026047Y-145298342D02*
X83978428Y-145393580D01*
X83978428Y-145393580D02*
X83930809Y-145441200D01*
X83930809Y-145441200D02*
X83835571Y-145488819D01*
X83835571Y-145488819D02*
X83740333Y-145488819D01*
X83740333Y-145488819D02*
X83645095Y-145441200D01*
X83645095Y-145441200D02*
X83597476Y-145393580D01*
X83597476Y-145393580D02*
X83549857Y-145298342D01*
X83549857Y-145298342D02*
X83502238Y-145107866D01*
X83502238Y-145107866D02*
X83502238Y-144869771D01*
X83502238Y-144869771D02*
X83549857Y-144679295D01*
X83549857Y-144679295D02*
X83597476Y-144584057D01*
X83597476Y-144584057D02*
X83645095Y-144536438D01*
X83645095Y-144536438D02*
X83740333Y-144488819D01*
X62519074Y-58624065D02*
X62969018Y-58624065D01*
X62744046Y-59411467D02*
X62744046Y-58624065D01*
X63643934Y-59411467D02*
X63193990Y-59411467D01*
X63418962Y-59411467D02*
X63418962Y-58624065D01*
X63418962Y-58624065D02*
X63343971Y-58736551D01*
X63343971Y-58736551D02*
X63268981Y-58811542D01*
X63268981Y-58811542D02*
X63193990Y-58849037D01*
X86909121Y-66879065D02*
X87359065Y-66879065D01*
X87134093Y-67666467D02*
X87134093Y-66879065D01*
X88033981Y-67666467D02*
X87584037Y-67666467D01*
X87809009Y-67666467D02*
X87809009Y-66879065D01*
X87809009Y-66879065D02*
X87734018Y-66991551D01*
X87734018Y-66991551D02*
X87659028Y-67066542D01*
X87659028Y-67066542D02*
X87584037Y-67104037D01*
X88521421Y-66879065D02*
X88596411Y-66879065D01*
X88596411Y-66879065D02*
X88671402Y-66916560D01*
X88671402Y-66916560D02*
X88708897Y-66954056D01*
X88708897Y-66954056D02*
X88746393Y-67029046D01*
X88746393Y-67029046D02*
X88783888Y-67179028D01*
X88783888Y-67179028D02*
X88783888Y-67366504D01*
X88783888Y-67366504D02*
X88746393Y-67516486D01*
X88746393Y-67516486D02*
X88708897Y-67591476D01*
X88708897Y-67591476D02*
X88671402Y-67628972D01*
X88671402Y-67628972D02*
X88596411Y-67666467D01*
X88596411Y-67666467D02*
X88521421Y-67666467D01*
X88521421Y-67666467D02*
X88446430Y-67628972D01*
X88446430Y-67628972D02*
X88408935Y-67591476D01*
X88408935Y-67591476D02*
X88371439Y-67516486D01*
X88371439Y-67516486D02*
X88333944Y-67366504D01*
X88333944Y-67366504D02*
X88333944Y-67179028D01*
X88333944Y-67179028D02*
X88371439Y-67029046D01*
X88371439Y-67029046D02*
X88408935Y-66954056D01*
X88408935Y-66954056D02*
X88446430Y-66916560D01*
X88446430Y-66916560D02*
X88521421Y-66879065D01*
X95164121Y-66879065D02*
X95614065Y-66879065D01*
X95389093Y-67666467D02*
X95389093Y-66879065D01*
X96288981Y-67666467D02*
X95839037Y-67666467D01*
X96064009Y-67666467D02*
X96064009Y-66879065D01*
X96064009Y-66879065D02*
X95989018Y-66991551D01*
X95989018Y-66991551D02*
X95914028Y-67066542D01*
X95914028Y-67066542D02*
X95839037Y-67104037D01*
X97038888Y-67666467D02*
X96588944Y-67666467D01*
X96813916Y-67666467D02*
X96813916Y-66879065D01*
X96813916Y-66879065D02*
X96738925Y-66991551D01*
X96738925Y-66991551D02*
X96663935Y-67066542D01*
X96663935Y-67066542D02*
X96588944Y-67104037D01*
X76327095Y-52159819D02*
X76327095Y-52969342D01*
X76327095Y-52969342D02*
X76374714Y-53064580D01*
X76374714Y-53064580D02*
X76422333Y-53112200D01*
X76422333Y-53112200D02*
X76517571Y-53159819D01*
X76517571Y-53159819D02*
X76708047Y-53159819D01*
X76708047Y-53159819D02*
X76803285Y-53112200D01*
X76803285Y-53112200D02*
X76850904Y-53064580D01*
X76850904Y-53064580D02*
X76898523Y-52969342D01*
X76898523Y-52969342D02*
X76898523Y-52159819D01*
X77327095Y-52255057D02*
X77374714Y-52207438D01*
X77374714Y-52207438D02*
X77469952Y-52159819D01*
X77469952Y-52159819D02*
X77708047Y-52159819D01*
X77708047Y-52159819D02*
X77803285Y-52207438D01*
X77803285Y-52207438D02*
X77850904Y-52255057D01*
X77850904Y-52255057D02*
X77898523Y-52350295D01*
X77898523Y-52350295D02*
X77898523Y-52445533D01*
X77898523Y-52445533D02*
X77850904Y-52588390D01*
X77850904Y-52588390D02*
X77279476Y-53159819D01*
X77279476Y-53159819D02*
X77898523Y-53159819D01*
X81581952Y-47825819D02*
X81581952Y-46825819D01*
X81581952Y-47302009D02*
X82153380Y-47302009D01*
X82153380Y-47825819D02*
X82153380Y-46825819D01*
X82486714Y-46825819D02*
X82820047Y-47825819D01*
X82820047Y-47825819D02*
X83153380Y-46825819D01*
X83962904Y-46825819D02*
X83486714Y-46825819D01*
X83486714Y-46825819D02*
X83439095Y-47302009D01*
X83439095Y-47302009D02*
X83486714Y-47254390D01*
X83486714Y-47254390D02*
X83581952Y-47206771D01*
X83581952Y-47206771D02*
X83820047Y-47206771D01*
X83820047Y-47206771D02*
X83915285Y-47254390D01*
X83915285Y-47254390D02*
X83962904Y-47302009D01*
X83962904Y-47302009D02*
X84010523Y-47397247D01*
X84010523Y-47397247D02*
X84010523Y-47635342D01*
X84010523Y-47635342D02*
X83962904Y-47730580D01*
X83962904Y-47730580D02*
X83915285Y-47778200D01*
X83915285Y-47778200D02*
X83820047Y-47825819D01*
X83820047Y-47825819D02*
X83581952Y-47825819D01*
X83581952Y-47825819D02*
X83486714Y-47778200D01*
X83486714Y-47778200D02*
X83439095Y-47730580D01*
X84915285Y-46825819D02*
X84439095Y-46825819D01*
X84439095Y-46825819D02*
X84391476Y-47302009D01*
X84391476Y-47302009D02*
X84439095Y-47254390D01*
X84439095Y-47254390D02*
X84534333Y-47206771D01*
X84534333Y-47206771D02*
X84772428Y-47206771D01*
X84772428Y-47206771D02*
X84867666Y-47254390D01*
X84867666Y-47254390D02*
X84915285Y-47302009D01*
X84915285Y-47302009D02*
X84962904Y-47397247D01*
X84962904Y-47397247D02*
X84962904Y-47635342D01*
X84962904Y-47635342D02*
X84915285Y-47730580D01*
X84915285Y-47730580D02*
X84867666Y-47778200D01*
X84867666Y-47778200D02*
X84772428Y-47825819D01*
X84772428Y-47825819D02*
X84534333Y-47825819D01*
X84534333Y-47825819D02*
X84439095Y-47778200D01*
X84439095Y-47778200D02*
X84391476Y-47730580D01*
X85296238Y-46825819D02*
X85915285Y-46825819D01*
X85915285Y-46825819D02*
X85581952Y-47206771D01*
X85581952Y-47206771D02*
X85724809Y-47206771D01*
X85724809Y-47206771D02*
X85820047Y-47254390D01*
X85820047Y-47254390D02*
X85867666Y-47302009D01*
X85867666Y-47302009D02*
X85915285Y-47397247D01*
X85915285Y-47397247D02*
X85915285Y-47635342D01*
X85915285Y-47635342D02*
X85867666Y-47730580D01*
X85867666Y-47730580D02*
X85820047Y-47778200D01*
X85820047Y-47778200D02*
X85724809Y-47825819D01*
X85724809Y-47825819D02*
X85439095Y-47825819D01*
X85439095Y-47825819D02*
X85343857Y-47778200D01*
X85343857Y-47778200D02*
X85296238Y-47730580D01*
X86534333Y-46825819D02*
X86629571Y-46825819D01*
X86629571Y-46825819D02*
X86724809Y-46873438D01*
X86724809Y-46873438D02*
X86772428Y-46921057D01*
X86772428Y-46921057D02*
X86820047Y-47016295D01*
X86820047Y-47016295D02*
X86867666Y-47206771D01*
X86867666Y-47206771D02*
X86867666Y-47444866D01*
X86867666Y-47444866D02*
X86820047Y-47635342D01*
X86820047Y-47635342D02*
X86772428Y-47730580D01*
X86772428Y-47730580D02*
X86724809Y-47778200D01*
X86724809Y-47778200D02*
X86629571Y-47825819D01*
X86629571Y-47825819D02*
X86534333Y-47825819D01*
X86534333Y-47825819D02*
X86439095Y-47778200D01*
X86439095Y-47778200D02*
X86391476Y-47730580D01*
X86391476Y-47730580D02*
X86343857Y-47635342D01*
X86343857Y-47635342D02*
X86296238Y-47444866D01*
X86296238Y-47444866D02*
X86296238Y-47206771D01*
X86296238Y-47206771D02*
X86343857Y-47016295D01*
X86343857Y-47016295D02*
X86391476Y-46921057D01*
X86391476Y-46921057D02*
X86439095Y-46873438D01*
X86439095Y-46873438D02*
X86534333Y-46825819D01*
X62144121Y-83389065D02*
X62594065Y-83389065D01*
X62369093Y-84176467D02*
X62369093Y-83389065D01*
X63268981Y-84176467D02*
X62819037Y-84176467D01*
X63044009Y-84176467D02*
X63044009Y-83389065D01*
X63044009Y-83389065D02*
X62969018Y-83501551D01*
X62969018Y-83501551D02*
X62894028Y-83576542D01*
X62894028Y-83576542D02*
X62819037Y-83614037D01*
X63643935Y-84176467D02*
X63793916Y-84176467D01*
X63793916Y-84176467D02*
X63868907Y-84138972D01*
X63868907Y-84138972D02*
X63906402Y-84101476D01*
X63906402Y-84101476D02*
X63981393Y-83988990D01*
X63981393Y-83988990D02*
X64018888Y-83839009D01*
X64018888Y-83839009D02*
X64018888Y-83539046D01*
X64018888Y-83539046D02*
X63981393Y-83464056D01*
X63981393Y-83464056D02*
X63943897Y-83426560D01*
X63943897Y-83426560D02*
X63868907Y-83389065D01*
X63868907Y-83389065D02*
X63718925Y-83389065D01*
X63718925Y-83389065D02*
X63643935Y-83426560D01*
X63643935Y-83426560D02*
X63606439Y-83464056D01*
X63606439Y-83464056D02*
X63568944Y-83539046D01*
X63568944Y-83539046D02*
X63568944Y-83726523D01*
X63568944Y-83726523D02*
X63606439Y-83801514D01*
X63606439Y-83801514D02*
X63643935Y-83839009D01*
X63643935Y-83839009D02*
X63718925Y-83876504D01*
X63718925Y-83876504D02*
X63868907Y-83876504D01*
X63868907Y-83876504D02*
X63943897Y-83839009D01*
X63943897Y-83839009D02*
X63981393Y-83801514D01*
X63981393Y-83801514D02*
X64018888Y-83726523D01*
X78654121Y-116409065D02*
X79104065Y-116409065D01*
X78879093Y-117196467D02*
X78879093Y-116409065D01*
X79703990Y-116671532D02*
X79703990Y-117196467D01*
X79516514Y-116371570D02*
X79329037Y-116934000D01*
X79329037Y-116934000D02*
X79816476Y-116934000D01*
X80491393Y-116409065D02*
X80116439Y-116409065D01*
X80116439Y-116409065D02*
X80078944Y-116784018D01*
X80078944Y-116784018D02*
X80116439Y-116746523D01*
X80116439Y-116746523D02*
X80191430Y-116709028D01*
X80191430Y-116709028D02*
X80378907Y-116709028D01*
X80378907Y-116709028D02*
X80453897Y-116746523D01*
X80453897Y-116746523D02*
X80491393Y-116784018D01*
X80491393Y-116784018D02*
X80528888Y-116859009D01*
X80528888Y-116859009D02*
X80528888Y-117046486D01*
X80528888Y-117046486D02*
X80491393Y-117121476D01*
X80491393Y-117121476D02*
X80453897Y-117158972D01*
X80453897Y-117158972D02*
X80378907Y-117196467D01*
X80378907Y-117196467D02*
X80191430Y-117196467D01*
X80191430Y-117196467D02*
X80116439Y-117158972D01*
X80116439Y-117158972D02*
X80078944Y-117121476D01*
X87284074Y-58624065D02*
X87734018Y-58624065D01*
X87509046Y-59411467D02*
X87509046Y-58624065D01*
X88333943Y-58886532D02*
X88333943Y-59411467D01*
X88146467Y-58586570D02*
X87958990Y-59149000D01*
X87958990Y-59149000D02*
X88446429Y-59149000D01*
X53889121Y-116409065D02*
X54339065Y-116409065D01*
X54114093Y-117196467D02*
X54114093Y-116409065D01*
X54938990Y-116671532D02*
X54938990Y-117196467D01*
X54751514Y-116371570D02*
X54564037Y-116934000D01*
X54564037Y-116934000D02*
X55051476Y-116934000D01*
X55313944Y-116484056D02*
X55351439Y-116446560D01*
X55351439Y-116446560D02*
X55426430Y-116409065D01*
X55426430Y-116409065D02*
X55613907Y-116409065D01*
X55613907Y-116409065D02*
X55688897Y-116446560D01*
X55688897Y-116446560D02*
X55726393Y-116484056D01*
X55726393Y-116484056D02*
X55763888Y-116559046D01*
X55763888Y-116559046D02*
X55763888Y-116634037D01*
X55763888Y-116634037D02*
X55726393Y-116746523D01*
X55726393Y-116746523D02*
X55276449Y-117196467D01*
X55276449Y-117196467D02*
X55763888Y-117196467D01*
X70774074Y-66879065D02*
X71224018Y-66879065D01*
X70999046Y-67666467D02*
X70999046Y-66879065D01*
X71598971Y-67216523D02*
X71523981Y-67179028D01*
X71523981Y-67179028D02*
X71486485Y-67141532D01*
X71486485Y-67141532D02*
X71448990Y-67066542D01*
X71448990Y-67066542D02*
X71448990Y-67029046D01*
X71448990Y-67029046D02*
X71486485Y-66954056D01*
X71486485Y-66954056D02*
X71523981Y-66916560D01*
X71523981Y-66916560D02*
X71598971Y-66879065D01*
X71598971Y-66879065D02*
X71748953Y-66879065D01*
X71748953Y-66879065D02*
X71823943Y-66916560D01*
X71823943Y-66916560D02*
X71861439Y-66954056D01*
X71861439Y-66954056D02*
X71898934Y-67029046D01*
X71898934Y-67029046D02*
X71898934Y-67066542D01*
X71898934Y-67066542D02*
X71861439Y-67141532D01*
X71861439Y-67141532D02*
X71823943Y-67179028D01*
X71823943Y-67179028D02*
X71748953Y-67216523D01*
X71748953Y-67216523D02*
X71598971Y-67216523D01*
X71598971Y-67216523D02*
X71523981Y-67254018D01*
X71523981Y-67254018D02*
X71486485Y-67291514D01*
X71486485Y-67291514D02*
X71448990Y-67366504D01*
X71448990Y-67366504D02*
X71448990Y-67516486D01*
X71448990Y-67516486D02*
X71486485Y-67591476D01*
X71486485Y-67591476D02*
X71523981Y-67628972D01*
X71523981Y-67628972D02*
X71598971Y-67666467D01*
X71598971Y-67666467D02*
X71748953Y-67666467D01*
X71748953Y-67666467D02*
X71823943Y-67628972D01*
X71823943Y-67628972D02*
X71861439Y-67591476D01*
X71861439Y-67591476D02*
X71898934Y-67516486D01*
X71898934Y-67516486D02*
X71898934Y-67366504D01*
X71898934Y-67366504D02*
X71861439Y-67291514D01*
X71861439Y-67291514D02*
X71823943Y-67254018D01*
X71823943Y-67254018D02*
X71748953Y-67216523D01*
X54264074Y-58624065D02*
X54714018Y-58624065D01*
X54489046Y-59411467D02*
X54489046Y-58624065D01*
X55126467Y-58624065D02*
X55201457Y-58624065D01*
X55201457Y-58624065D02*
X55276448Y-58661560D01*
X55276448Y-58661560D02*
X55313943Y-58699056D01*
X55313943Y-58699056D02*
X55351439Y-58774046D01*
X55351439Y-58774046D02*
X55388934Y-58924028D01*
X55388934Y-58924028D02*
X55388934Y-59111504D01*
X55388934Y-59111504D02*
X55351439Y-59261486D01*
X55351439Y-59261486D02*
X55313943Y-59336476D01*
X55313943Y-59336476D02*
X55276448Y-59373972D01*
X55276448Y-59373972D02*
X55201457Y-59411467D01*
X55201457Y-59411467D02*
X55126467Y-59411467D01*
X55126467Y-59411467D02*
X55051476Y-59373972D01*
X55051476Y-59373972D02*
X55013981Y-59336476D01*
X55013981Y-59336476D02*
X54976485Y-59261486D01*
X54976485Y-59261486D02*
X54938990Y-59111504D01*
X54938990Y-59111504D02*
X54938990Y-58924028D01*
X54938990Y-58924028D02*
X54976485Y-58774046D01*
X54976485Y-58774046D02*
X55013981Y-58699056D01*
X55013981Y-58699056D02*
X55051476Y-58661560D01*
X55051476Y-58661560D02*
X55126467Y-58624065D01*
X52198205Y-58395467D02*
X52198205Y-57608065D01*
X52573158Y-58395467D02*
X52573158Y-57608065D01*
X52573158Y-57608065D02*
X53023102Y-58395467D01*
X53023102Y-58395467D02*
X53023102Y-57608065D01*
X53360560Y-58357972D02*
X53473046Y-58395467D01*
X53473046Y-58395467D02*
X53660523Y-58395467D01*
X53660523Y-58395467D02*
X53735513Y-58357972D01*
X53735513Y-58357972D02*
X53773009Y-58320476D01*
X53773009Y-58320476D02*
X53810504Y-58245486D01*
X53810504Y-58245486D02*
X53810504Y-58170495D01*
X53810504Y-58170495D02*
X53773009Y-58095504D01*
X53773009Y-58095504D02*
X53735513Y-58058009D01*
X53735513Y-58058009D02*
X53660523Y-58020514D01*
X53660523Y-58020514D02*
X53510541Y-57983018D01*
X53510541Y-57983018D02*
X53435551Y-57945523D01*
X53435551Y-57945523D02*
X53398055Y-57908028D01*
X53398055Y-57908028D02*
X53360560Y-57833037D01*
X53360560Y-57833037D02*
X53360560Y-57758046D01*
X53360560Y-57758046D02*
X53398055Y-57683056D01*
X53398055Y-57683056D02*
X53435551Y-57645560D01*
X53435551Y-57645560D02*
X53510541Y-57608065D01*
X53510541Y-57608065D02*
X53698018Y-57608065D01*
X53698018Y-57608065D02*
X53810504Y-57645560D01*
X54147962Y-58095504D02*
X54747888Y-58095504D01*
X55535290Y-58395467D02*
X55085346Y-58395467D01*
X55310318Y-58395467D02*
X55310318Y-57608065D01*
X55310318Y-57608065D02*
X55235327Y-57720551D01*
X55235327Y-57720551D02*
X55160337Y-57795542D01*
X55160337Y-57795542D02*
X55085346Y-57833037D01*
X86909121Y-83389065D02*
X87359065Y-83389065D01*
X87134093Y-84176467D02*
X87134093Y-83389065D01*
X87584037Y-83464056D02*
X87621532Y-83426560D01*
X87621532Y-83426560D02*
X87696523Y-83389065D01*
X87696523Y-83389065D02*
X87884000Y-83389065D01*
X87884000Y-83389065D02*
X87958990Y-83426560D01*
X87958990Y-83426560D02*
X87996486Y-83464056D01*
X87996486Y-83464056D02*
X88033981Y-83539046D01*
X88033981Y-83539046D02*
X88033981Y-83614037D01*
X88033981Y-83614037D02*
X87996486Y-83726523D01*
X87996486Y-83726523D02*
X87546542Y-84176467D01*
X87546542Y-84176467D02*
X88033981Y-84176467D01*
X88333944Y-83464056D02*
X88371439Y-83426560D01*
X88371439Y-83426560D02*
X88446430Y-83389065D01*
X88446430Y-83389065D02*
X88633907Y-83389065D01*
X88633907Y-83389065D02*
X88708897Y-83426560D01*
X88708897Y-83426560D02*
X88746393Y-83464056D01*
X88746393Y-83464056D02*
X88783888Y-83539046D01*
X88783888Y-83539046D02*
X88783888Y-83614037D01*
X88783888Y-83614037D02*
X88746393Y-83726523D01*
X88746393Y-83726523D02*
X88296449Y-84176467D01*
X88296449Y-84176467D02*
X88783888Y-84176467D01*
X95164121Y-75134065D02*
X95614065Y-75134065D01*
X95389093Y-75921467D02*
X95389093Y-75134065D01*
X96288981Y-75921467D02*
X95839037Y-75921467D01*
X96064009Y-75921467D02*
X96064009Y-75134065D01*
X96064009Y-75134065D02*
X95989018Y-75246551D01*
X95989018Y-75246551D02*
X95914028Y-75321542D01*
X95914028Y-75321542D02*
X95839037Y-75359037D01*
X96551449Y-75134065D02*
X97076383Y-75134065D01*
X97076383Y-75134065D02*
X96738925Y-75921467D01*
X86909121Y-132919065D02*
X87359065Y-132919065D01*
X87134093Y-133706467D02*
X87134093Y-132919065D01*
X87996486Y-132919065D02*
X87621532Y-132919065D01*
X87621532Y-132919065D02*
X87584037Y-133294018D01*
X87584037Y-133294018D02*
X87621532Y-133256523D01*
X87621532Y-133256523D02*
X87696523Y-133219028D01*
X87696523Y-133219028D02*
X87884000Y-133219028D01*
X87884000Y-133219028D02*
X87958990Y-133256523D01*
X87958990Y-133256523D02*
X87996486Y-133294018D01*
X87996486Y-133294018D02*
X88033981Y-133369009D01*
X88033981Y-133369009D02*
X88033981Y-133556486D01*
X88033981Y-133556486D02*
X87996486Y-133631476D01*
X87996486Y-133631476D02*
X87958990Y-133668972D01*
X87958990Y-133668972D02*
X87884000Y-133706467D01*
X87884000Y-133706467D02*
X87696523Y-133706467D01*
X87696523Y-133706467D02*
X87621532Y-133668972D01*
X87621532Y-133668972D02*
X87584037Y-133631476D01*
X88483925Y-133256523D02*
X88408935Y-133219028D01*
X88408935Y-133219028D02*
X88371439Y-133181532D01*
X88371439Y-133181532D02*
X88333944Y-133106542D01*
X88333944Y-133106542D02*
X88333944Y-133069046D01*
X88333944Y-133069046D02*
X88371439Y-132994056D01*
X88371439Y-132994056D02*
X88408935Y-132956560D01*
X88408935Y-132956560D02*
X88483925Y-132919065D01*
X88483925Y-132919065D02*
X88633907Y-132919065D01*
X88633907Y-132919065D02*
X88708897Y-132956560D01*
X88708897Y-132956560D02*
X88746393Y-132994056D01*
X88746393Y-132994056D02*
X88783888Y-133069046D01*
X88783888Y-133069046D02*
X88783888Y-133106542D01*
X88783888Y-133106542D02*
X88746393Y-133181532D01*
X88746393Y-133181532D02*
X88708897Y-133219028D01*
X88708897Y-133219028D02*
X88633907Y-133256523D01*
X88633907Y-133256523D02*
X88483925Y-133256523D01*
X88483925Y-133256523D02*
X88408935Y-133294018D01*
X88408935Y-133294018D02*
X88371439Y-133331514D01*
X88371439Y-133331514D02*
X88333944Y-133406504D01*
X88333944Y-133406504D02*
X88333944Y-133556486D01*
X88333944Y-133556486D02*
X88371439Y-133631476D01*
X88371439Y-133631476D02*
X88408935Y-133668972D01*
X88408935Y-133668972D02*
X88483925Y-133706467D01*
X88483925Y-133706467D02*
X88633907Y-133706467D01*
X88633907Y-133706467D02*
X88708897Y-133668972D01*
X88708897Y-133668972D02*
X88746393Y-133631476D01*
X88746393Y-133631476D02*
X88783888Y-133556486D01*
X88783888Y-133556486D02*
X88783888Y-133406504D01*
X88783888Y-133406504D02*
X88746393Y-133331514D01*
X88746393Y-133331514D02*
X88708897Y-133294018D01*
X88708897Y-133294018D02*
X88633907Y-133256523D01*
X62144121Y-99899065D02*
X62594065Y-99899065D01*
X62369093Y-100686467D02*
X62369093Y-99899065D01*
X62781542Y-99899065D02*
X63268981Y-99899065D01*
X63268981Y-99899065D02*
X63006514Y-100199028D01*
X63006514Y-100199028D02*
X63119000Y-100199028D01*
X63119000Y-100199028D02*
X63193990Y-100236523D01*
X63193990Y-100236523D02*
X63231486Y-100274018D01*
X63231486Y-100274018D02*
X63268981Y-100349009D01*
X63268981Y-100349009D02*
X63268981Y-100536486D01*
X63268981Y-100536486D02*
X63231486Y-100611476D01*
X63231486Y-100611476D02*
X63193990Y-100648972D01*
X63193990Y-100648972D02*
X63119000Y-100686467D01*
X63119000Y-100686467D02*
X62894028Y-100686467D01*
X62894028Y-100686467D02*
X62819037Y-100648972D01*
X62819037Y-100648972D02*
X62781542Y-100611476D01*
X64018888Y-100686467D02*
X63568944Y-100686467D01*
X63793916Y-100686467D02*
X63793916Y-99899065D01*
X63793916Y-99899065D02*
X63718925Y-100011551D01*
X63718925Y-100011551D02*
X63643935Y-100086542D01*
X63643935Y-100086542D02*
X63568944Y-100124037D01*
X95164121Y-91644065D02*
X95614065Y-91644065D01*
X95389093Y-92431467D02*
X95389093Y-91644065D01*
X95839037Y-91719056D02*
X95876532Y-91681560D01*
X95876532Y-91681560D02*
X95951523Y-91644065D01*
X95951523Y-91644065D02*
X96139000Y-91644065D01*
X96139000Y-91644065D02*
X96213990Y-91681560D01*
X96213990Y-91681560D02*
X96251486Y-91719056D01*
X96251486Y-91719056D02*
X96288981Y-91794046D01*
X96288981Y-91794046D02*
X96288981Y-91869037D01*
X96288981Y-91869037D02*
X96251486Y-91981523D01*
X96251486Y-91981523D02*
X95801542Y-92431467D01*
X95801542Y-92431467D02*
X96288981Y-92431467D01*
X96663935Y-92431467D02*
X96813916Y-92431467D01*
X96813916Y-92431467D02*
X96888907Y-92393972D01*
X96888907Y-92393972D02*
X96926402Y-92356476D01*
X96926402Y-92356476D02*
X97001393Y-92243990D01*
X97001393Y-92243990D02*
X97038888Y-92094009D01*
X97038888Y-92094009D02*
X97038888Y-91794046D01*
X97038888Y-91794046D02*
X97001393Y-91719056D01*
X97001393Y-91719056D02*
X96963897Y-91681560D01*
X96963897Y-91681560D02*
X96888907Y-91644065D01*
X96888907Y-91644065D02*
X96738925Y-91644065D01*
X96738925Y-91644065D02*
X96663935Y-91681560D01*
X96663935Y-91681560D02*
X96626439Y-91719056D01*
X96626439Y-91719056D02*
X96588944Y-91794046D01*
X96588944Y-91794046D02*
X96588944Y-91981523D01*
X96588944Y-91981523D02*
X96626439Y-92056514D01*
X96626439Y-92056514D02*
X96663935Y-92094009D01*
X96663935Y-92094009D02*
X96738925Y-92131504D01*
X96738925Y-92131504D02*
X96888907Y-92131504D01*
X96888907Y-92131504D02*
X96963897Y-92094009D01*
X96963897Y-92094009D02*
X97001393Y-92056514D01*
X97001393Y-92056514D02*
X97038888Y-91981523D01*
X95164121Y-124664065D02*
X95614065Y-124664065D01*
X95389093Y-125451467D02*
X95389093Y-124664065D01*
X96251486Y-124664065D02*
X95876532Y-124664065D01*
X95876532Y-124664065D02*
X95839037Y-125039018D01*
X95839037Y-125039018D02*
X95876532Y-125001523D01*
X95876532Y-125001523D02*
X95951523Y-124964028D01*
X95951523Y-124964028D02*
X96139000Y-124964028D01*
X96139000Y-124964028D02*
X96213990Y-125001523D01*
X96213990Y-125001523D02*
X96251486Y-125039018D01*
X96251486Y-125039018D02*
X96288981Y-125114009D01*
X96288981Y-125114009D02*
X96288981Y-125301486D01*
X96288981Y-125301486D02*
X96251486Y-125376476D01*
X96251486Y-125376476D02*
X96213990Y-125413972D01*
X96213990Y-125413972D02*
X96139000Y-125451467D01*
X96139000Y-125451467D02*
X95951523Y-125451467D01*
X95951523Y-125451467D02*
X95876532Y-125413972D01*
X95876532Y-125413972D02*
X95839037Y-125376476D01*
X96551449Y-124664065D02*
X97038888Y-124664065D01*
X97038888Y-124664065D02*
X96776421Y-124964028D01*
X96776421Y-124964028D02*
X96888907Y-124964028D01*
X96888907Y-124964028D02*
X96963897Y-125001523D01*
X96963897Y-125001523D02*
X97001393Y-125039018D01*
X97001393Y-125039018D02*
X97038888Y-125114009D01*
X97038888Y-125114009D02*
X97038888Y-125301486D01*
X97038888Y-125301486D02*
X97001393Y-125376476D01*
X97001393Y-125376476D02*
X96963897Y-125413972D01*
X96963897Y-125413972D02*
X96888907Y-125451467D01*
X96888907Y-125451467D02*
X96663935Y-125451467D01*
X96663935Y-125451467D02*
X96588944Y-125413972D01*
X96588944Y-125413972D02*
X96551449Y-125376476D01*
X79029074Y-66879065D02*
X79479018Y-66879065D01*
X79254046Y-67666467D02*
X79254046Y-66879065D01*
X79778981Y-67666467D02*
X79928962Y-67666467D01*
X79928962Y-67666467D02*
X80003953Y-67628972D01*
X80003953Y-67628972D02*
X80041448Y-67591476D01*
X80041448Y-67591476D02*
X80116439Y-67478990D01*
X80116439Y-67478990D02*
X80153934Y-67329009D01*
X80153934Y-67329009D02*
X80153934Y-67029046D01*
X80153934Y-67029046D02*
X80116439Y-66954056D01*
X80116439Y-66954056D02*
X80078943Y-66916560D01*
X80078943Y-66916560D02*
X80003953Y-66879065D01*
X80003953Y-66879065D02*
X79853971Y-66879065D01*
X79853971Y-66879065D02*
X79778981Y-66916560D01*
X79778981Y-66916560D02*
X79741485Y-66954056D01*
X79741485Y-66954056D02*
X79703990Y-67029046D01*
X79703990Y-67029046D02*
X79703990Y-67216523D01*
X79703990Y-67216523D02*
X79741485Y-67291514D01*
X79741485Y-67291514D02*
X79778981Y-67329009D01*
X79778981Y-67329009D02*
X79853971Y-67366504D01*
X79853971Y-67366504D02*
X80003953Y-67366504D01*
X80003953Y-67366504D02*
X80078943Y-67329009D01*
X80078943Y-67329009D02*
X80116439Y-67291514D01*
X80116439Y-67291514D02*
X80153934Y-67216523D01*
X95164121Y-108154065D02*
X95614065Y-108154065D01*
X95389093Y-108941467D02*
X95389093Y-108154065D01*
X96213990Y-108416532D02*
X96213990Y-108941467D01*
X96026514Y-108116570D02*
X95839037Y-108679000D01*
X95839037Y-108679000D02*
X96326476Y-108679000D01*
X97038888Y-108941467D02*
X96588944Y-108941467D01*
X96813916Y-108941467D02*
X96813916Y-108154065D01*
X96813916Y-108154065D02*
X96738925Y-108266551D01*
X96738925Y-108266551D02*
X96663935Y-108341542D01*
X96663935Y-108341542D02*
X96588944Y-108379037D01*
X78654121Y-124664065D02*
X79104065Y-124664065D01*
X78879093Y-125451467D02*
X78879093Y-124664065D01*
X79741486Y-124664065D02*
X79366532Y-124664065D01*
X79366532Y-124664065D02*
X79329037Y-125039018D01*
X79329037Y-125039018D02*
X79366532Y-125001523D01*
X79366532Y-125001523D02*
X79441523Y-124964028D01*
X79441523Y-124964028D02*
X79629000Y-124964028D01*
X79629000Y-124964028D02*
X79703990Y-125001523D01*
X79703990Y-125001523D02*
X79741486Y-125039018D01*
X79741486Y-125039018D02*
X79778981Y-125114009D01*
X79778981Y-125114009D02*
X79778981Y-125301486D01*
X79778981Y-125301486D02*
X79741486Y-125376476D01*
X79741486Y-125376476D02*
X79703990Y-125413972D01*
X79703990Y-125413972D02*
X79629000Y-125451467D01*
X79629000Y-125451467D02*
X79441523Y-125451467D01*
X79441523Y-125451467D02*
X79366532Y-125413972D01*
X79366532Y-125413972D02*
X79329037Y-125376476D01*
X80528888Y-125451467D02*
X80078944Y-125451467D01*
X80303916Y-125451467D02*
X80303916Y-124664065D01*
X80303916Y-124664065D02*
X80228925Y-124776551D01*
X80228925Y-124776551D02*
X80153935Y-124851542D01*
X80153935Y-124851542D02*
X80078944Y-124889037D01*
X86909121Y-116409065D02*
X87359065Y-116409065D01*
X87134093Y-117196467D02*
X87134093Y-116409065D01*
X87958990Y-116671532D02*
X87958990Y-117196467D01*
X87771514Y-116371570D02*
X87584037Y-116934000D01*
X87584037Y-116934000D02*
X88071476Y-116934000D01*
X88708897Y-116409065D02*
X88558916Y-116409065D01*
X88558916Y-116409065D02*
X88483925Y-116446560D01*
X88483925Y-116446560D02*
X88446430Y-116484056D01*
X88446430Y-116484056D02*
X88371439Y-116596542D01*
X88371439Y-116596542D02*
X88333944Y-116746523D01*
X88333944Y-116746523D02*
X88333944Y-117046486D01*
X88333944Y-117046486D02*
X88371439Y-117121476D01*
X88371439Y-117121476D02*
X88408935Y-117158972D01*
X88408935Y-117158972D02*
X88483925Y-117196467D01*
X88483925Y-117196467D02*
X88633907Y-117196467D01*
X88633907Y-117196467D02*
X88708897Y-117158972D01*
X88708897Y-117158972D02*
X88746393Y-117121476D01*
X88746393Y-117121476D02*
X88783888Y-117046486D01*
X88783888Y-117046486D02*
X88783888Y-116859009D01*
X88783888Y-116859009D02*
X88746393Y-116784018D01*
X88746393Y-116784018D02*
X88708897Y-116746523D01*
X88708897Y-116746523D02*
X88633907Y-116709028D01*
X88633907Y-116709028D02*
X88483925Y-116709028D01*
X88483925Y-116709028D02*
X88408935Y-116746523D01*
X88408935Y-116746523D02*
X88371439Y-116784018D01*
X88371439Y-116784018D02*
X88333944Y-116859009D01*
X78654121Y-91644065D02*
X79104065Y-91644065D01*
X78879093Y-92431467D02*
X78879093Y-91644065D01*
X79329037Y-91719056D02*
X79366532Y-91681560D01*
X79366532Y-91681560D02*
X79441523Y-91644065D01*
X79441523Y-91644065D02*
X79629000Y-91644065D01*
X79629000Y-91644065D02*
X79703990Y-91681560D01*
X79703990Y-91681560D02*
X79741486Y-91719056D01*
X79741486Y-91719056D02*
X79778981Y-91794046D01*
X79778981Y-91794046D02*
X79778981Y-91869037D01*
X79778981Y-91869037D02*
X79741486Y-91981523D01*
X79741486Y-91981523D02*
X79291542Y-92431467D01*
X79291542Y-92431467D02*
X79778981Y-92431467D01*
X80041449Y-91644065D02*
X80566383Y-91644065D01*
X80566383Y-91644065D02*
X80228925Y-92431467D01*
X53889121Y-132919065D02*
X54339065Y-132919065D01*
X54114093Y-133706467D02*
X54114093Y-132919065D01*
X54976486Y-132919065D02*
X54601532Y-132919065D01*
X54601532Y-132919065D02*
X54564037Y-133294018D01*
X54564037Y-133294018D02*
X54601532Y-133256523D01*
X54601532Y-133256523D02*
X54676523Y-133219028D01*
X54676523Y-133219028D02*
X54864000Y-133219028D01*
X54864000Y-133219028D02*
X54938990Y-133256523D01*
X54938990Y-133256523D02*
X54976486Y-133294018D01*
X54976486Y-133294018D02*
X55013981Y-133369009D01*
X55013981Y-133369009D02*
X55013981Y-133556486D01*
X55013981Y-133556486D02*
X54976486Y-133631476D01*
X54976486Y-133631476D02*
X54938990Y-133668972D01*
X54938990Y-133668972D02*
X54864000Y-133706467D01*
X54864000Y-133706467D02*
X54676523Y-133706467D01*
X54676523Y-133706467D02*
X54601532Y-133668972D01*
X54601532Y-133668972D02*
X54564037Y-133631476D01*
X55688897Y-133181532D02*
X55688897Y-133706467D01*
X55501421Y-132881570D02*
X55313944Y-133444000D01*
X55313944Y-133444000D02*
X55801383Y-133444000D01*
X86909121Y-99899065D02*
X87359065Y-99899065D01*
X87134093Y-100686467D02*
X87134093Y-99899065D01*
X87546542Y-99899065D02*
X88033981Y-99899065D01*
X88033981Y-99899065D02*
X87771514Y-100199028D01*
X87771514Y-100199028D02*
X87884000Y-100199028D01*
X87884000Y-100199028D02*
X87958990Y-100236523D01*
X87958990Y-100236523D02*
X87996486Y-100274018D01*
X87996486Y-100274018D02*
X88033981Y-100349009D01*
X88033981Y-100349009D02*
X88033981Y-100536486D01*
X88033981Y-100536486D02*
X87996486Y-100611476D01*
X87996486Y-100611476D02*
X87958990Y-100648972D01*
X87958990Y-100648972D02*
X87884000Y-100686467D01*
X87884000Y-100686467D02*
X87659028Y-100686467D01*
X87659028Y-100686467D02*
X87584037Y-100648972D01*
X87584037Y-100648972D02*
X87546542Y-100611476D01*
X88708897Y-100161532D02*
X88708897Y-100686467D01*
X88521421Y-99861570D02*
X88333944Y-100424000D01*
X88333944Y-100424000D02*
X88821383Y-100424000D01*
X86909121Y-91644065D02*
X87359065Y-91644065D01*
X87134093Y-92431467D02*
X87134093Y-91644065D01*
X87584037Y-91719056D02*
X87621532Y-91681560D01*
X87621532Y-91681560D02*
X87696523Y-91644065D01*
X87696523Y-91644065D02*
X87884000Y-91644065D01*
X87884000Y-91644065D02*
X87958990Y-91681560D01*
X87958990Y-91681560D02*
X87996486Y-91719056D01*
X87996486Y-91719056D02*
X88033981Y-91794046D01*
X88033981Y-91794046D02*
X88033981Y-91869037D01*
X88033981Y-91869037D02*
X87996486Y-91981523D01*
X87996486Y-91981523D02*
X87546542Y-92431467D01*
X87546542Y-92431467D02*
X88033981Y-92431467D01*
X88483925Y-91981523D02*
X88408935Y-91944028D01*
X88408935Y-91944028D02*
X88371439Y-91906532D01*
X88371439Y-91906532D02*
X88333944Y-91831542D01*
X88333944Y-91831542D02*
X88333944Y-91794046D01*
X88333944Y-91794046D02*
X88371439Y-91719056D01*
X88371439Y-91719056D02*
X88408935Y-91681560D01*
X88408935Y-91681560D02*
X88483925Y-91644065D01*
X88483925Y-91644065D02*
X88633907Y-91644065D01*
X88633907Y-91644065D02*
X88708897Y-91681560D01*
X88708897Y-91681560D02*
X88746393Y-91719056D01*
X88746393Y-91719056D02*
X88783888Y-91794046D01*
X88783888Y-91794046D02*
X88783888Y-91831542D01*
X88783888Y-91831542D02*
X88746393Y-91906532D01*
X88746393Y-91906532D02*
X88708897Y-91944028D01*
X88708897Y-91944028D02*
X88633907Y-91981523D01*
X88633907Y-91981523D02*
X88483925Y-91981523D01*
X88483925Y-91981523D02*
X88408935Y-92019018D01*
X88408935Y-92019018D02*
X88371439Y-92056514D01*
X88371439Y-92056514D02*
X88333944Y-92131504D01*
X88333944Y-92131504D02*
X88333944Y-92281486D01*
X88333944Y-92281486D02*
X88371439Y-92356476D01*
X88371439Y-92356476D02*
X88408935Y-92393972D01*
X88408935Y-92393972D02*
X88483925Y-92431467D01*
X88483925Y-92431467D02*
X88633907Y-92431467D01*
X88633907Y-92431467D02*
X88708897Y-92393972D01*
X88708897Y-92393972D02*
X88746393Y-92356476D01*
X88746393Y-92356476D02*
X88783888Y-92281486D01*
X88783888Y-92281486D02*
X88783888Y-92131504D01*
X88783888Y-92131504D02*
X88746393Y-92056514D01*
X88746393Y-92056514D02*
X88708897Y-92019018D01*
X88708897Y-92019018D02*
X88633907Y-91981523D01*
X95164121Y-83389065D02*
X95614065Y-83389065D01*
X95389093Y-84176467D02*
X95389093Y-83389065D01*
X95839037Y-83464056D02*
X95876532Y-83426560D01*
X95876532Y-83426560D02*
X95951523Y-83389065D01*
X95951523Y-83389065D02*
X96139000Y-83389065D01*
X96139000Y-83389065D02*
X96213990Y-83426560D01*
X96213990Y-83426560D02*
X96251486Y-83464056D01*
X96251486Y-83464056D02*
X96288981Y-83539046D01*
X96288981Y-83539046D02*
X96288981Y-83614037D01*
X96288981Y-83614037D02*
X96251486Y-83726523D01*
X96251486Y-83726523D02*
X95801542Y-84176467D01*
X95801542Y-84176467D02*
X96288981Y-84176467D01*
X96551449Y-83389065D02*
X97038888Y-83389065D01*
X97038888Y-83389065D02*
X96776421Y-83689028D01*
X96776421Y-83689028D02*
X96888907Y-83689028D01*
X96888907Y-83689028D02*
X96963897Y-83726523D01*
X96963897Y-83726523D02*
X97001393Y-83764018D01*
X97001393Y-83764018D02*
X97038888Y-83839009D01*
X97038888Y-83839009D02*
X97038888Y-84026486D01*
X97038888Y-84026486D02*
X97001393Y-84101476D01*
X97001393Y-84101476D02*
X96963897Y-84138972D01*
X96963897Y-84138972D02*
X96888907Y-84176467D01*
X96888907Y-84176467D02*
X96663935Y-84176467D01*
X96663935Y-84176467D02*
X96588944Y-84138972D01*
X96588944Y-84138972D02*
X96551449Y-84101476D01*
X86909121Y-108154065D02*
X87359065Y-108154065D01*
X87134093Y-108941467D02*
X87134093Y-108154065D01*
X87958990Y-108416532D02*
X87958990Y-108941467D01*
X87771514Y-108116570D02*
X87584037Y-108679000D01*
X87584037Y-108679000D02*
X88071476Y-108679000D01*
X88521421Y-108154065D02*
X88596411Y-108154065D01*
X88596411Y-108154065D02*
X88671402Y-108191560D01*
X88671402Y-108191560D02*
X88708897Y-108229056D01*
X88708897Y-108229056D02*
X88746393Y-108304046D01*
X88746393Y-108304046D02*
X88783888Y-108454028D01*
X88783888Y-108454028D02*
X88783888Y-108641504D01*
X88783888Y-108641504D02*
X88746393Y-108791486D01*
X88746393Y-108791486D02*
X88708897Y-108866476D01*
X88708897Y-108866476D02*
X88671402Y-108903972D01*
X88671402Y-108903972D02*
X88596411Y-108941467D01*
X88596411Y-108941467D02*
X88521421Y-108941467D01*
X88521421Y-108941467D02*
X88446430Y-108903972D01*
X88446430Y-108903972D02*
X88408935Y-108866476D01*
X88408935Y-108866476D02*
X88371439Y-108791486D01*
X88371439Y-108791486D02*
X88333944Y-108641504D01*
X88333944Y-108641504D02*
X88333944Y-108454028D01*
X88333944Y-108454028D02*
X88371439Y-108304046D01*
X88371439Y-108304046D02*
X88408935Y-108229056D01*
X88408935Y-108229056D02*
X88446430Y-108191560D01*
X88446430Y-108191560D02*
X88521421Y-108154065D01*
X78654121Y-83389065D02*
X79104065Y-83389065D01*
X78879093Y-84176467D02*
X78879093Y-83389065D01*
X79329037Y-83464056D02*
X79366532Y-83426560D01*
X79366532Y-83426560D02*
X79441523Y-83389065D01*
X79441523Y-83389065D02*
X79629000Y-83389065D01*
X79629000Y-83389065D02*
X79703990Y-83426560D01*
X79703990Y-83426560D02*
X79741486Y-83464056D01*
X79741486Y-83464056D02*
X79778981Y-83539046D01*
X79778981Y-83539046D02*
X79778981Y-83614037D01*
X79778981Y-83614037D02*
X79741486Y-83726523D01*
X79741486Y-83726523D02*
X79291542Y-84176467D01*
X79291542Y-84176467D02*
X79778981Y-84176467D01*
X80528888Y-84176467D02*
X80078944Y-84176467D01*
X80303916Y-84176467D02*
X80303916Y-83389065D01*
X80303916Y-83389065D02*
X80228925Y-83501551D01*
X80228925Y-83501551D02*
X80153935Y-83576542D01*
X80153935Y-83576542D02*
X80078944Y-83614037D01*
X86909121Y-124664065D02*
X87359065Y-124664065D01*
X87134093Y-125451467D02*
X87134093Y-124664065D01*
X87996486Y-124664065D02*
X87621532Y-124664065D01*
X87621532Y-124664065D02*
X87584037Y-125039018D01*
X87584037Y-125039018D02*
X87621532Y-125001523D01*
X87621532Y-125001523D02*
X87696523Y-124964028D01*
X87696523Y-124964028D02*
X87884000Y-124964028D01*
X87884000Y-124964028D02*
X87958990Y-125001523D01*
X87958990Y-125001523D02*
X87996486Y-125039018D01*
X87996486Y-125039018D02*
X88033981Y-125114009D01*
X88033981Y-125114009D02*
X88033981Y-125301486D01*
X88033981Y-125301486D02*
X87996486Y-125376476D01*
X87996486Y-125376476D02*
X87958990Y-125413972D01*
X87958990Y-125413972D02*
X87884000Y-125451467D01*
X87884000Y-125451467D02*
X87696523Y-125451467D01*
X87696523Y-125451467D02*
X87621532Y-125413972D01*
X87621532Y-125413972D02*
X87584037Y-125376476D01*
X88333944Y-124739056D02*
X88371439Y-124701560D01*
X88371439Y-124701560D02*
X88446430Y-124664065D01*
X88446430Y-124664065D02*
X88633907Y-124664065D01*
X88633907Y-124664065D02*
X88708897Y-124701560D01*
X88708897Y-124701560D02*
X88746393Y-124739056D01*
X88746393Y-124739056D02*
X88783888Y-124814046D01*
X88783888Y-124814046D02*
X88783888Y-124889037D01*
X88783888Y-124889037D02*
X88746393Y-125001523D01*
X88746393Y-125001523D02*
X88296449Y-125451467D01*
X88296449Y-125451467D02*
X88783888Y-125451467D01*
X79029074Y-58624065D02*
X79479018Y-58624065D01*
X79254046Y-59411467D02*
X79254046Y-58624065D01*
X79666495Y-58624065D02*
X80153934Y-58624065D01*
X80153934Y-58624065D02*
X79891467Y-58924028D01*
X79891467Y-58924028D02*
X80003953Y-58924028D01*
X80003953Y-58924028D02*
X80078943Y-58961523D01*
X80078943Y-58961523D02*
X80116439Y-58999018D01*
X80116439Y-58999018D02*
X80153934Y-59074009D01*
X80153934Y-59074009D02*
X80153934Y-59261486D01*
X80153934Y-59261486D02*
X80116439Y-59336476D01*
X80116439Y-59336476D02*
X80078943Y-59373972D01*
X80078943Y-59373972D02*
X80003953Y-59411467D01*
X80003953Y-59411467D02*
X79778981Y-59411467D01*
X79778981Y-59411467D02*
X79703990Y-59373972D01*
X79703990Y-59373972D02*
X79666495Y-59336476D01*
X70399121Y-108074065D02*
X70849065Y-108074065D01*
X70624093Y-108861467D02*
X70624093Y-108074065D01*
X71036542Y-108074065D02*
X71523981Y-108074065D01*
X71523981Y-108074065D02*
X71261514Y-108374028D01*
X71261514Y-108374028D02*
X71374000Y-108374028D01*
X71374000Y-108374028D02*
X71448990Y-108411523D01*
X71448990Y-108411523D02*
X71486486Y-108449018D01*
X71486486Y-108449018D02*
X71523981Y-108524009D01*
X71523981Y-108524009D02*
X71523981Y-108711486D01*
X71523981Y-108711486D02*
X71486486Y-108786476D01*
X71486486Y-108786476D02*
X71448990Y-108823972D01*
X71448990Y-108823972D02*
X71374000Y-108861467D01*
X71374000Y-108861467D02*
X71149028Y-108861467D01*
X71149028Y-108861467D02*
X71074037Y-108823972D01*
X71074037Y-108823972D02*
X71036542Y-108786476D01*
X71973925Y-108411523D02*
X71898935Y-108374028D01*
X71898935Y-108374028D02*
X71861439Y-108336532D01*
X71861439Y-108336532D02*
X71823944Y-108261542D01*
X71823944Y-108261542D02*
X71823944Y-108224046D01*
X71823944Y-108224046D02*
X71861439Y-108149056D01*
X71861439Y-108149056D02*
X71898935Y-108111560D01*
X71898935Y-108111560D02*
X71973925Y-108074065D01*
X71973925Y-108074065D02*
X72123907Y-108074065D01*
X72123907Y-108074065D02*
X72198897Y-108111560D01*
X72198897Y-108111560D02*
X72236393Y-108149056D01*
X72236393Y-108149056D02*
X72273888Y-108224046D01*
X72273888Y-108224046D02*
X72273888Y-108261542D01*
X72273888Y-108261542D02*
X72236393Y-108336532D01*
X72236393Y-108336532D02*
X72198897Y-108374028D01*
X72198897Y-108374028D02*
X72123907Y-108411523D01*
X72123907Y-108411523D02*
X71973925Y-108411523D01*
X71973925Y-108411523D02*
X71898935Y-108449018D01*
X71898935Y-108449018D02*
X71861439Y-108486514D01*
X71861439Y-108486514D02*
X71823944Y-108561504D01*
X71823944Y-108561504D02*
X71823944Y-108711486D01*
X71823944Y-108711486D02*
X71861439Y-108786476D01*
X71861439Y-108786476D02*
X71898935Y-108823972D01*
X71898935Y-108823972D02*
X71973925Y-108861467D01*
X71973925Y-108861467D02*
X72123907Y-108861467D01*
X72123907Y-108861467D02*
X72198897Y-108823972D01*
X72198897Y-108823972D02*
X72236393Y-108786476D01*
X72236393Y-108786476D02*
X72273888Y-108711486D01*
X72273888Y-108711486D02*
X72273888Y-108561504D01*
X72273888Y-108561504D02*
X72236393Y-108486514D01*
X72236393Y-108486514D02*
X72198897Y-108449018D01*
X72198897Y-108449018D02*
X72123907Y-108411523D01*
X53889121Y-99899065D02*
X54339065Y-99899065D01*
X54114093Y-100686467D02*
X54114093Y-99899065D01*
X54526542Y-99899065D02*
X55013981Y-99899065D01*
X55013981Y-99899065D02*
X54751514Y-100199028D01*
X54751514Y-100199028D02*
X54864000Y-100199028D01*
X54864000Y-100199028D02*
X54938990Y-100236523D01*
X54938990Y-100236523D02*
X54976486Y-100274018D01*
X54976486Y-100274018D02*
X55013981Y-100349009D01*
X55013981Y-100349009D02*
X55013981Y-100536486D01*
X55013981Y-100536486D02*
X54976486Y-100611476D01*
X54976486Y-100611476D02*
X54938990Y-100648972D01*
X54938990Y-100648972D02*
X54864000Y-100686467D01*
X54864000Y-100686467D02*
X54639028Y-100686467D01*
X54639028Y-100686467D02*
X54564037Y-100648972D01*
X54564037Y-100648972D02*
X54526542Y-100611476D01*
X55501421Y-99899065D02*
X55576411Y-99899065D01*
X55576411Y-99899065D02*
X55651402Y-99936560D01*
X55651402Y-99936560D02*
X55688897Y-99974056D01*
X55688897Y-99974056D02*
X55726393Y-100049046D01*
X55726393Y-100049046D02*
X55763888Y-100199028D01*
X55763888Y-100199028D02*
X55763888Y-100386504D01*
X55763888Y-100386504D02*
X55726393Y-100536486D01*
X55726393Y-100536486D02*
X55688897Y-100611476D01*
X55688897Y-100611476D02*
X55651402Y-100648972D01*
X55651402Y-100648972D02*
X55576411Y-100686467D01*
X55576411Y-100686467D02*
X55501421Y-100686467D01*
X55501421Y-100686467D02*
X55426430Y-100648972D01*
X55426430Y-100648972D02*
X55388935Y-100611476D01*
X55388935Y-100611476D02*
X55351439Y-100536486D01*
X55351439Y-100536486D02*
X55313944Y-100386504D01*
X55313944Y-100386504D02*
X55313944Y-100199028D01*
X55313944Y-100199028D02*
X55351439Y-100049046D01*
X55351439Y-100049046D02*
X55388935Y-99974056D01*
X55388935Y-99974056D02*
X55426430Y-99936560D01*
X55426430Y-99936560D02*
X55501421Y-99899065D01*
X62144121Y-132919065D02*
X62594065Y-132919065D01*
X62369093Y-133706467D02*
X62369093Y-132919065D01*
X63231486Y-132919065D02*
X62856532Y-132919065D01*
X62856532Y-132919065D02*
X62819037Y-133294018D01*
X62819037Y-133294018D02*
X62856532Y-133256523D01*
X62856532Y-133256523D02*
X62931523Y-133219028D01*
X62931523Y-133219028D02*
X63119000Y-133219028D01*
X63119000Y-133219028D02*
X63193990Y-133256523D01*
X63193990Y-133256523D02*
X63231486Y-133294018D01*
X63231486Y-133294018D02*
X63268981Y-133369009D01*
X63268981Y-133369009D02*
X63268981Y-133556486D01*
X63268981Y-133556486D02*
X63231486Y-133631476D01*
X63231486Y-133631476D02*
X63193990Y-133668972D01*
X63193990Y-133668972D02*
X63119000Y-133706467D01*
X63119000Y-133706467D02*
X62931523Y-133706467D01*
X62931523Y-133706467D02*
X62856532Y-133668972D01*
X62856532Y-133668972D02*
X62819037Y-133631476D01*
X63981393Y-132919065D02*
X63606439Y-132919065D01*
X63606439Y-132919065D02*
X63568944Y-133294018D01*
X63568944Y-133294018D02*
X63606439Y-133256523D01*
X63606439Y-133256523D02*
X63681430Y-133219028D01*
X63681430Y-133219028D02*
X63868907Y-133219028D01*
X63868907Y-133219028D02*
X63943897Y-133256523D01*
X63943897Y-133256523D02*
X63981393Y-133294018D01*
X63981393Y-133294018D02*
X64018888Y-133369009D01*
X64018888Y-133369009D02*
X64018888Y-133556486D01*
X64018888Y-133556486D02*
X63981393Y-133631476D01*
X63981393Y-133631476D02*
X63943897Y-133668972D01*
X63943897Y-133668972D02*
X63868907Y-133706467D01*
X63868907Y-133706467D02*
X63681430Y-133706467D01*
X63681430Y-133706467D02*
X63606439Y-133668972D01*
X63606439Y-133668972D02*
X63568944Y-133631476D01*
X95164121Y-116409065D02*
X95614065Y-116409065D01*
X95389093Y-117196467D02*
X95389093Y-116409065D01*
X96213990Y-116671532D02*
X96213990Y-117196467D01*
X96026514Y-116371570D02*
X95839037Y-116934000D01*
X95839037Y-116934000D02*
X96326476Y-116934000D01*
X96551449Y-116409065D02*
X97076383Y-116409065D01*
X97076383Y-116409065D02*
X96738925Y-117196467D01*
X78654121Y-99899065D02*
X79104065Y-99899065D01*
X78879093Y-100686467D02*
X78879093Y-99899065D01*
X79291542Y-99899065D02*
X79778981Y-99899065D01*
X79778981Y-99899065D02*
X79516514Y-100199028D01*
X79516514Y-100199028D02*
X79629000Y-100199028D01*
X79629000Y-100199028D02*
X79703990Y-100236523D01*
X79703990Y-100236523D02*
X79741486Y-100274018D01*
X79741486Y-100274018D02*
X79778981Y-100349009D01*
X79778981Y-100349009D02*
X79778981Y-100536486D01*
X79778981Y-100536486D02*
X79741486Y-100611476D01*
X79741486Y-100611476D02*
X79703990Y-100648972D01*
X79703990Y-100648972D02*
X79629000Y-100686467D01*
X79629000Y-100686467D02*
X79404028Y-100686467D01*
X79404028Y-100686467D02*
X79329037Y-100648972D01*
X79329037Y-100648972D02*
X79291542Y-100611476D01*
X80041449Y-99899065D02*
X80528888Y-99899065D01*
X80528888Y-99899065D02*
X80266421Y-100199028D01*
X80266421Y-100199028D02*
X80378907Y-100199028D01*
X80378907Y-100199028D02*
X80453897Y-100236523D01*
X80453897Y-100236523D02*
X80491393Y-100274018D01*
X80491393Y-100274018D02*
X80528888Y-100349009D01*
X80528888Y-100349009D02*
X80528888Y-100536486D01*
X80528888Y-100536486D02*
X80491393Y-100611476D01*
X80491393Y-100611476D02*
X80453897Y-100648972D01*
X80453897Y-100648972D02*
X80378907Y-100686467D01*
X80378907Y-100686467D02*
X80153935Y-100686467D01*
X80153935Y-100686467D02*
X80078944Y-100648972D01*
X80078944Y-100648972D02*
X80041449Y-100611476D01*
X62144121Y-116409065D02*
X62594065Y-116409065D01*
X62369093Y-117196467D02*
X62369093Y-116409065D01*
X63193990Y-116671532D02*
X63193990Y-117196467D01*
X63006514Y-116371570D02*
X62819037Y-116934000D01*
X62819037Y-116934000D02*
X63306476Y-116934000D01*
X63531449Y-116409065D02*
X64018888Y-116409065D01*
X64018888Y-116409065D02*
X63756421Y-116709028D01*
X63756421Y-116709028D02*
X63868907Y-116709028D01*
X63868907Y-116709028D02*
X63943897Y-116746523D01*
X63943897Y-116746523D02*
X63981393Y-116784018D01*
X63981393Y-116784018D02*
X64018888Y-116859009D01*
X64018888Y-116859009D02*
X64018888Y-117046486D01*
X64018888Y-117046486D02*
X63981393Y-117121476D01*
X63981393Y-117121476D02*
X63943897Y-117158972D01*
X63943897Y-117158972D02*
X63868907Y-117196467D01*
X63868907Y-117196467D02*
X63643935Y-117196467D01*
X63643935Y-117196467D02*
X63568944Y-117158972D01*
X63568944Y-117158972D02*
X63531449Y-117121476D01*
X70399121Y-99899065D02*
X70849065Y-99899065D01*
X70624093Y-100686467D02*
X70624093Y-99899065D01*
X71036542Y-99899065D02*
X71523981Y-99899065D01*
X71523981Y-99899065D02*
X71261514Y-100199028D01*
X71261514Y-100199028D02*
X71374000Y-100199028D01*
X71374000Y-100199028D02*
X71448990Y-100236523D01*
X71448990Y-100236523D02*
X71486486Y-100274018D01*
X71486486Y-100274018D02*
X71523981Y-100349009D01*
X71523981Y-100349009D02*
X71523981Y-100536486D01*
X71523981Y-100536486D02*
X71486486Y-100611476D01*
X71486486Y-100611476D02*
X71448990Y-100648972D01*
X71448990Y-100648972D02*
X71374000Y-100686467D01*
X71374000Y-100686467D02*
X71149028Y-100686467D01*
X71149028Y-100686467D02*
X71074037Y-100648972D01*
X71074037Y-100648972D02*
X71036542Y-100611476D01*
X71823944Y-99974056D02*
X71861439Y-99936560D01*
X71861439Y-99936560D02*
X71936430Y-99899065D01*
X71936430Y-99899065D02*
X72123907Y-99899065D01*
X72123907Y-99899065D02*
X72198897Y-99936560D01*
X72198897Y-99936560D02*
X72236393Y-99974056D01*
X72236393Y-99974056D02*
X72273888Y-100049046D01*
X72273888Y-100049046D02*
X72273888Y-100124037D01*
X72273888Y-100124037D02*
X72236393Y-100236523D01*
X72236393Y-100236523D02*
X71786449Y-100686467D01*
X71786449Y-100686467D02*
X72273888Y-100686467D01*
X95164121Y-132919065D02*
X95614065Y-132919065D01*
X95389093Y-133706467D02*
X95389093Y-132919065D01*
X96251486Y-132919065D02*
X95876532Y-132919065D01*
X95876532Y-132919065D02*
X95839037Y-133294018D01*
X95839037Y-133294018D02*
X95876532Y-133256523D01*
X95876532Y-133256523D02*
X95951523Y-133219028D01*
X95951523Y-133219028D02*
X96139000Y-133219028D01*
X96139000Y-133219028D02*
X96213990Y-133256523D01*
X96213990Y-133256523D02*
X96251486Y-133294018D01*
X96251486Y-133294018D02*
X96288981Y-133369009D01*
X96288981Y-133369009D02*
X96288981Y-133556486D01*
X96288981Y-133556486D02*
X96251486Y-133631476D01*
X96251486Y-133631476D02*
X96213990Y-133668972D01*
X96213990Y-133668972D02*
X96139000Y-133706467D01*
X96139000Y-133706467D02*
X95951523Y-133706467D01*
X95951523Y-133706467D02*
X95876532Y-133668972D01*
X95876532Y-133668972D02*
X95839037Y-133631476D01*
X96663935Y-133706467D02*
X96813916Y-133706467D01*
X96813916Y-133706467D02*
X96888907Y-133668972D01*
X96888907Y-133668972D02*
X96926402Y-133631476D01*
X96926402Y-133631476D02*
X97001393Y-133518990D01*
X97001393Y-133518990D02*
X97038888Y-133369009D01*
X97038888Y-133369009D02*
X97038888Y-133069046D01*
X97038888Y-133069046D02*
X97001393Y-132994056D01*
X97001393Y-132994056D02*
X96963897Y-132956560D01*
X96963897Y-132956560D02*
X96888907Y-132919065D01*
X96888907Y-132919065D02*
X96738925Y-132919065D01*
X96738925Y-132919065D02*
X96663935Y-132956560D01*
X96663935Y-132956560D02*
X96626439Y-132994056D01*
X96626439Y-132994056D02*
X96588944Y-133069046D01*
X96588944Y-133069046D02*
X96588944Y-133256523D01*
X96588944Y-133256523D02*
X96626439Y-133331514D01*
X96626439Y-133331514D02*
X96663935Y-133369009D01*
X96663935Y-133369009D02*
X96738925Y-133406504D01*
X96738925Y-133406504D02*
X96888907Y-133406504D01*
X96888907Y-133406504D02*
X96963897Y-133369009D01*
X96963897Y-133369009D02*
X97001393Y-133331514D01*
X97001393Y-133331514D02*
X97038888Y-133256523D01*
X53889121Y-91644065D02*
X54339065Y-91644065D01*
X54114093Y-92431467D02*
X54114093Y-91644065D01*
X54564037Y-91719056D02*
X54601532Y-91681560D01*
X54601532Y-91681560D02*
X54676523Y-91644065D01*
X54676523Y-91644065D02*
X54864000Y-91644065D01*
X54864000Y-91644065D02*
X54938990Y-91681560D01*
X54938990Y-91681560D02*
X54976486Y-91719056D01*
X54976486Y-91719056D02*
X55013981Y-91794046D01*
X55013981Y-91794046D02*
X55013981Y-91869037D01*
X55013981Y-91869037D02*
X54976486Y-91981523D01*
X54976486Y-91981523D02*
X54526542Y-92431467D01*
X54526542Y-92431467D02*
X55013981Y-92431467D01*
X55688897Y-91906532D02*
X55688897Y-92431467D01*
X55501421Y-91606570D02*
X55313944Y-92169000D01*
X55313944Y-92169000D02*
X55801383Y-92169000D01*
X62144121Y-108154065D02*
X62594065Y-108154065D01*
X62369093Y-108941467D02*
X62369093Y-108154065D01*
X62781542Y-108154065D02*
X63268981Y-108154065D01*
X63268981Y-108154065D02*
X63006514Y-108454028D01*
X63006514Y-108454028D02*
X63119000Y-108454028D01*
X63119000Y-108454028D02*
X63193990Y-108491523D01*
X63193990Y-108491523D02*
X63231486Y-108529018D01*
X63231486Y-108529018D02*
X63268981Y-108604009D01*
X63268981Y-108604009D02*
X63268981Y-108791486D01*
X63268981Y-108791486D02*
X63231486Y-108866476D01*
X63231486Y-108866476D02*
X63193990Y-108903972D01*
X63193990Y-108903972D02*
X63119000Y-108941467D01*
X63119000Y-108941467D02*
X62894028Y-108941467D01*
X62894028Y-108941467D02*
X62819037Y-108903972D01*
X62819037Y-108903972D02*
X62781542Y-108866476D01*
X63531449Y-108154065D02*
X64056383Y-108154065D01*
X64056383Y-108154065D02*
X63718925Y-108941467D01*
X78654121Y-75134065D02*
X79104065Y-75134065D01*
X78879093Y-75921467D02*
X78879093Y-75134065D01*
X79778981Y-75921467D02*
X79329037Y-75921467D01*
X79554009Y-75921467D02*
X79554009Y-75134065D01*
X79554009Y-75134065D02*
X79479018Y-75246551D01*
X79479018Y-75246551D02*
X79404028Y-75321542D01*
X79404028Y-75321542D02*
X79329037Y-75359037D01*
X80491393Y-75134065D02*
X80116439Y-75134065D01*
X80116439Y-75134065D02*
X80078944Y-75509018D01*
X80078944Y-75509018D02*
X80116439Y-75471523D01*
X80116439Y-75471523D02*
X80191430Y-75434028D01*
X80191430Y-75434028D02*
X80378907Y-75434028D01*
X80378907Y-75434028D02*
X80453897Y-75471523D01*
X80453897Y-75471523D02*
X80491393Y-75509018D01*
X80491393Y-75509018D02*
X80528888Y-75584009D01*
X80528888Y-75584009D02*
X80528888Y-75771486D01*
X80528888Y-75771486D02*
X80491393Y-75846476D01*
X80491393Y-75846476D02*
X80453897Y-75883972D01*
X80453897Y-75883972D02*
X80378907Y-75921467D01*
X80378907Y-75921467D02*
X80191430Y-75921467D01*
X80191430Y-75921467D02*
X80116439Y-75883972D01*
X80116439Y-75883972D02*
X80078944Y-75846476D01*
X95539074Y-58624065D02*
X95989018Y-58624065D01*
X95764046Y-59411467D02*
X95764046Y-58624065D01*
X96626439Y-58624065D02*
X96251485Y-58624065D01*
X96251485Y-58624065D02*
X96213990Y-58999018D01*
X96213990Y-58999018D02*
X96251485Y-58961523D01*
X96251485Y-58961523D02*
X96326476Y-58924028D01*
X96326476Y-58924028D02*
X96513953Y-58924028D01*
X96513953Y-58924028D02*
X96588943Y-58961523D01*
X96588943Y-58961523D02*
X96626439Y-58999018D01*
X96626439Y-58999018D02*
X96663934Y-59074009D01*
X96663934Y-59074009D02*
X96663934Y-59261486D01*
X96663934Y-59261486D02*
X96626439Y-59336476D01*
X96626439Y-59336476D02*
X96588943Y-59373972D01*
X96588943Y-59373972D02*
X96513953Y-59411467D01*
X96513953Y-59411467D02*
X96326476Y-59411467D01*
X96326476Y-59411467D02*
X96251485Y-59373972D01*
X96251485Y-59373972D02*
X96213990Y-59336476D01*
X95164121Y-99899065D02*
X95614065Y-99899065D01*
X95389093Y-100686467D02*
X95389093Y-99899065D01*
X95801542Y-99899065D02*
X96288981Y-99899065D01*
X96288981Y-99899065D02*
X96026514Y-100199028D01*
X96026514Y-100199028D02*
X96139000Y-100199028D01*
X96139000Y-100199028D02*
X96213990Y-100236523D01*
X96213990Y-100236523D02*
X96251486Y-100274018D01*
X96251486Y-100274018D02*
X96288981Y-100349009D01*
X96288981Y-100349009D02*
X96288981Y-100536486D01*
X96288981Y-100536486D02*
X96251486Y-100611476D01*
X96251486Y-100611476D02*
X96213990Y-100648972D01*
X96213990Y-100648972D02*
X96139000Y-100686467D01*
X96139000Y-100686467D02*
X95914028Y-100686467D01*
X95914028Y-100686467D02*
X95839037Y-100648972D01*
X95839037Y-100648972D02*
X95801542Y-100611476D01*
X97001393Y-99899065D02*
X96626439Y-99899065D01*
X96626439Y-99899065D02*
X96588944Y-100274018D01*
X96588944Y-100274018D02*
X96626439Y-100236523D01*
X96626439Y-100236523D02*
X96701430Y-100199028D01*
X96701430Y-100199028D02*
X96888907Y-100199028D01*
X96888907Y-100199028D02*
X96963897Y-100236523D01*
X96963897Y-100236523D02*
X97001393Y-100274018D01*
X97001393Y-100274018D02*
X97038888Y-100349009D01*
X97038888Y-100349009D02*
X97038888Y-100536486D01*
X97038888Y-100536486D02*
X97001393Y-100611476D01*
X97001393Y-100611476D02*
X96963897Y-100648972D01*
X96963897Y-100648972D02*
X96888907Y-100686467D01*
X96888907Y-100686467D02*
X96701430Y-100686467D01*
X96701430Y-100686467D02*
X96626439Y-100648972D01*
X96626439Y-100648972D02*
X96588944Y-100611476D01*
X70399121Y-83389065D02*
X70849065Y-83389065D01*
X70624093Y-84176467D02*
X70624093Y-83389065D01*
X71074037Y-83464056D02*
X71111532Y-83426560D01*
X71111532Y-83426560D02*
X71186523Y-83389065D01*
X71186523Y-83389065D02*
X71374000Y-83389065D01*
X71374000Y-83389065D02*
X71448990Y-83426560D01*
X71448990Y-83426560D02*
X71486486Y-83464056D01*
X71486486Y-83464056D02*
X71523981Y-83539046D01*
X71523981Y-83539046D02*
X71523981Y-83614037D01*
X71523981Y-83614037D02*
X71486486Y-83726523D01*
X71486486Y-83726523D02*
X71036542Y-84176467D01*
X71036542Y-84176467D02*
X71523981Y-84176467D01*
X72011421Y-83389065D02*
X72086411Y-83389065D01*
X72086411Y-83389065D02*
X72161402Y-83426560D01*
X72161402Y-83426560D02*
X72198897Y-83464056D01*
X72198897Y-83464056D02*
X72236393Y-83539046D01*
X72236393Y-83539046D02*
X72273888Y-83689028D01*
X72273888Y-83689028D02*
X72273888Y-83876504D01*
X72273888Y-83876504D02*
X72236393Y-84026486D01*
X72236393Y-84026486D02*
X72198897Y-84101476D01*
X72198897Y-84101476D02*
X72161402Y-84138972D01*
X72161402Y-84138972D02*
X72086411Y-84176467D01*
X72086411Y-84176467D02*
X72011421Y-84176467D01*
X72011421Y-84176467D02*
X71936430Y-84138972D01*
X71936430Y-84138972D02*
X71898935Y-84101476D01*
X71898935Y-84101476D02*
X71861439Y-84026486D01*
X71861439Y-84026486D02*
X71823944Y-83876504D01*
X71823944Y-83876504D02*
X71823944Y-83689028D01*
X71823944Y-83689028D02*
X71861439Y-83539046D01*
X71861439Y-83539046D02*
X71898935Y-83464056D01*
X71898935Y-83464056D02*
X71936430Y-83426560D01*
X71936430Y-83426560D02*
X72011421Y-83389065D01*
X53889121Y-108154065D02*
X54339065Y-108154065D01*
X54114093Y-108941467D02*
X54114093Y-108154065D01*
X54526542Y-108154065D02*
X55013981Y-108154065D01*
X55013981Y-108154065D02*
X54751514Y-108454028D01*
X54751514Y-108454028D02*
X54864000Y-108454028D01*
X54864000Y-108454028D02*
X54938990Y-108491523D01*
X54938990Y-108491523D02*
X54976486Y-108529018D01*
X54976486Y-108529018D02*
X55013981Y-108604009D01*
X55013981Y-108604009D02*
X55013981Y-108791486D01*
X55013981Y-108791486D02*
X54976486Y-108866476D01*
X54976486Y-108866476D02*
X54938990Y-108903972D01*
X54938990Y-108903972D02*
X54864000Y-108941467D01*
X54864000Y-108941467D02*
X54639028Y-108941467D01*
X54639028Y-108941467D02*
X54564037Y-108903972D01*
X54564037Y-108903972D02*
X54526542Y-108866476D01*
X55688897Y-108154065D02*
X55538916Y-108154065D01*
X55538916Y-108154065D02*
X55463925Y-108191560D01*
X55463925Y-108191560D02*
X55426430Y-108229056D01*
X55426430Y-108229056D02*
X55351439Y-108341542D01*
X55351439Y-108341542D02*
X55313944Y-108491523D01*
X55313944Y-108491523D02*
X55313944Y-108791486D01*
X55313944Y-108791486D02*
X55351439Y-108866476D01*
X55351439Y-108866476D02*
X55388935Y-108903972D01*
X55388935Y-108903972D02*
X55463925Y-108941467D01*
X55463925Y-108941467D02*
X55613907Y-108941467D01*
X55613907Y-108941467D02*
X55688897Y-108903972D01*
X55688897Y-108903972D02*
X55726393Y-108866476D01*
X55726393Y-108866476D02*
X55763888Y-108791486D01*
X55763888Y-108791486D02*
X55763888Y-108604009D01*
X55763888Y-108604009D02*
X55726393Y-108529018D01*
X55726393Y-108529018D02*
X55688897Y-108491523D01*
X55688897Y-108491523D02*
X55613907Y-108454028D01*
X55613907Y-108454028D02*
X55463925Y-108454028D01*
X55463925Y-108454028D02*
X55388935Y-108491523D01*
X55388935Y-108491523D02*
X55351439Y-108529018D01*
X55351439Y-108529018D02*
X55313944Y-108604009D01*
X62144121Y-75134065D02*
X62594065Y-75134065D01*
X62369093Y-75921467D02*
X62369093Y-75134065D01*
X63268981Y-75921467D02*
X62819037Y-75921467D01*
X63044009Y-75921467D02*
X63044009Y-75134065D01*
X63044009Y-75134065D02*
X62969018Y-75246551D01*
X62969018Y-75246551D02*
X62894028Y-75321542D01*
X62894028Y-75321542D02*
X62819037Y-75359037D01*
X63531449Y-75134065D02*
X64018888Y-75134065D01*
X64018888Y-75134065D02*
X63756421Y-75434028D01*
X63756421Y-75434028D02*
X63868907Y-75434028D01*
X63868907Y-75434028D02*
X63943897Y-75471523D01*
X63943897Y-75471523D02*
X63981393Y-75509018D01*
X63981393Y-75509018D02*
X64018888Y-75584009D01*
X64018888Y-75584009D02*
X64018888Y-75771486D01*
X64018888Y-75771486D02*
X63981393Y-75846476D01*
X63981393Y-75846476D02*
X63943897Y-75883972D01*
X63943897Y-75883972D02*
X63868907Y-75921467D01*
X63868907Y-75921467D02*
X63643935Y-75921467D01*
X63643935Y-75921467D02*
X63568944Y-75883972D01*
X63568944Y-75883972D02*
X63531449Y-75846476D01*
X54264074Y-66879065D02*
X54714018Y-66879065D01*
X54489046Y-67666467D02*
X54489046Y-66879065D01*
X55313943Y-66879065D02*
X55163962Y-66879065D01*
X55163962Y-66879065D02*
X55088971Y-66916560D01*
X55088971Y-66916560D02*
X55051476Y-66954056D01*
X55051476Y-66954056D02*
X54976485Y-67066542D01*
X54976485Y-67066542D02*
X54938990Y-67216523D01*
X54938990Y-67216523D02*
X54938990Y-67516486D01*
X54938990Y-67516486D02*
X54976485Y-67591476D01*
X54976485Y-67591476D02*
X55013981Y-67628972D01*
X55013981Y-67628972D02*
X55088971Y-67666467D01*
X55088971Y-67666467D02*
X55238953Y-67666467D01*
X55238953Y-67666467D02*
X55313943Y-67628972D01*
X55313943Y-67628972D02*
X55351439Y-67591476D01*
X55351439Y-67591476D02*
X55388934Y-67516486D01*
X55388934Y-67516486D02*
X55388934Y-67329009D01*
X55388934Y-67329009D02*
X55351439Y-67254018D01*
X55351439Y-67254018D02*
X55313943Y-67216523D01*
X55313943Y-67216523D02*
X55238953Y-67179028D01*
X55238953Y-67179028D02*
X55088971Y-67179028D01*
X55088971Y-67179028D02*
X55013981Y-67216523D01*
X55013981Y-67216523D02*
X54976485Y-67254018D01*
X54976485Y-67254018D02*
X54938990Y-67329009D01*
X60245666Y-52667819D02*
X60245666Y-53382104D01*
X60245666Y-53382104D02*
X60198047Y-53524961D01*
X60198047Y-53524961D02*
X60102809Y-53620200D01*
X60102809Y-53620200D02*
X59959952Y-53667819D01*
X59959952Y-53667819D02*
X59864714Y-53667819D01*
X61245666Y-53667819D02*
X60674238Y-53667819D01*
X60959952Y-53667819D02*
X60959952Y-52667819D01*
X60959952Y-52667819D02*
X60864714Y-52810676D01*
X60864714Y-52810676D02*
X60769476Y-52905914D01*
X60769476Y-52905914D02*
X60674238Y-52953533D01*
X70774074Y-58624065D02*
X71224018Y-58624065D01*
X70999046Y-59411467D02*
X70999046Y-58624065D01*
X71448990Y-58699056D02*
X71486485Y-58661560D01*
X71486485Y-58661560D02*
X71561476Y-58624065D01*
X71561476Y-58624065D02*
X71748953Y-58624065D01*
X71748953Y-58624065D02*
X71823943Y-58661560D01*
X71823943Y-58661560D02*
X71861439Y-58699056D01*
X71861439Y-58699056D02*
X71898934Y-58774046D01*
X71898934Y-58774046D02*
X71898934Y-58849037D01*
X71898934Y-58849037D02*
X71861439Y-58961523D01*
X71861439Y-58961523D02*
X71411495Y-59411467D01*
X71411495Y-59411467D02*
X71898934Y-59411467D01*
X62144121Y-91644065D02*
X62594065Y-91644065D01*
X62369093Y-92431467D02*
X62369093Y-91644065D01*
X62819037Y-91719056D02*
X62856532Y-91681560D01*
X62856532Y-91681560D02*
X62931523Y-91644065D01*
X62931523Y-91644065D02*
X63119000Y-91644065D01*
X63119000Y-91644065D02*
X63193990Y-91681560D01*
X63193990Y-91681560D02*
X63231486Y-91719056D01*
X63231486Y-91719056D02*
X63268981Y-91794046D01*
X63268981Y-91794046D02*
X63268981Y-91869037D01*
X63268981Y-91869037D02*
X63231486Y-91981523D01*
X63231486Y-91981523D02*
X62781542Y-92431467D01*
X62781542Y-92431467D02*
X63268981Y-92431467D01*
X63981393Y-91644065D02*
X63606439Y-91644065D01*
X63606439Y-91644065D02*
X63568944Y-92019018D01*
X63568944Y-92019018D02*
X63606439Y-91981523D01*
X63606439Y-91981523D02*
X63681430Y-91944028D01*
X63681430Y-91944028D02*
X63868907Y-91944028D01*
X63868907Y-91944028D02*
X63943897Y-91981523D01*
X63943897Y-91981523D02*
X63981393Y-92019018D01*
X63981393Y-92019018D02*
X64018888Y-92094009D01*
X64018888Y-92094009D02*
X64018888Y-92281486D01*
X64018888Y-92281486D02*
X63981393Y-92356476D01*
X63981393Y-92356476D02*
X63943897Y-92393972D01*
X63943897Y-92393972D02*
X63868907Y-92431467D01*
X63868907Y-92431467D02*
X63681430Y-92431467D01*
X63681430Y-92431467D02*
X63606439Y-92393972D01*
X63606439Y-92393972D02*
X63568944Y-92356476D01*
X86909121Y-75134065D02*
X87359065Y-75134065D01*
X87134093Y-75921467D02*
X87134093Y-75134065D01*
X88033981Y-75921467D02*
X87584037Y-75921467D01*
X87809009Y-75921467D02*
X87809009Y-75134065D01*
X87809009Y-75134065D02*
X87734018Y-75246551D01*
X87734018Y-75246551D02*
X87659028Y-75321542D01*
X87659028Y-75321542D02*
X87584037Y-75359037D01*
X88708897Y-75134065D02*
X88558916Y-75134065D01*
X88558916Y-75134065D02*
X88483925Y-75171560D01*
X88483925Y-75171560D02*
X88446430Y-75209056D01*
X88446430Y-75209056D02*
X88371439Y-75321542D01*
X88371439Y-75321542D02*
X88333944Y-75471523D01*
X88333944Y-75471523D02*
X88333944Y-75771486D01*
X88333944Y-75771486D02*
X88371439Y-75846476D01*
X88371439Y-75846476D02*
X88408935Y-75883972D01*
X88408935Y-75883972D02*
X88483925Y-75921467D01*
X88483925Y-75921467D02*
X88633907Y-75921467D01*
X88633907Y-75921467D02*
X88708897Y-75883972D01*
X88708897Y-75883972D02*
X88746393Y-75846476D01*
X88746393Y-75846476D02*
X88783888Y-75771486D01*
X88783888Y-75771486D02*
X88783888Y-75584009D01*
X88783888Y-75584009D02*
X88746393Y-75509018D01*
X88746393Y-75509018D02*
X88708897Y-75471523D01*
X88708897Y-75471523D02*
X88633907Y-75434028D01*
X88633907Y-75434028D02*
X88483925Y-75434028D01*
X88483925Y-75434028D02*
X88408935Y-75471523D01*
X88408935Y-75471523D02*
X88371439Y-75509018D01*
X88371439Y-75509018D02*
X88333944Y-75584009D01*
X62144121Y-124664065D02*
X62594065Y-124664065D01*
X62369093Y-125451467D02*
X62369093Y-124664065D01*
X63193990Y-124926532D02*
X63193990Y-125451467D01*
X63006514Y-124626570D02*
X62819037Y-125189000D01*
X62819037Y-125189000D02*
X63306476Y-125189000D01*
X63643935Y-125451467D02*
X63793916Y-125451467D01*
X63793916Y-125451467D02*
X63868907Y-125413972D01*
X63868907Y-125413972D02*
X63906402Y-125376476D01*
X63906402Y-125376476D02*
X63981393Y-125263990D01*
X63981393Y-125263990D02*
X64018888Y-125114009D01*
X64018888Y-125114009D02*
X64018888Y-124814046D01*
X64018888Y-124814046D02*
X63981393Y-124739056D01*
X63981393Y-124739056D02*
X63943897Y-124701560D01*
X63943897Y-124701560D02*
X63868907Y-124664065D01*
X63868907Y-124664065D02*
X63718925Y-124664065D01*
X63718925Y-124664065D02*
X63643935Y-124701560D01*
X63643935Y-124701560D02*
X63606439Y-124739056D01*
X63606439Y-124739056D02*
X63568944Y-124814046D01*
X63568944Y-124814046D02*
X63568944Y-125001523D01*
X63568944Y-125001523D02*
X63606439Y-125076514D01*
X63606439Y-125076514D02*
X63643935Y-125114009D01*
X63643935Y-125114009D02*
X63718925Y-125151504D01*
X63718925Y-125151504D02*
X63868907Y-125151504D01*
X63868907Y-125151504D02*
X63943897Y-125114009D01*
X63943897Y-125114009D02*
X63981393Y-125076514D01*
X63981393Y-125076514D02*
X64018888Y-125001523D01*
X62519074Y-66879065D02*
X62969018Y-66879065D01*
X62744046Y-67666467D02*
X62744046Y-66879065D01*
X63156495Y-66879065D02*
X63681429Y-66879065D01*
X63681429Y-66879065D02*
X63343971Y-67666467D01*
X70399121Y-91644065D02*
X70849065Y-91644065D01*
X70624093Y-92431467D02*
X70624093Y-91644065D01*
X71074037Y-91719056D02*
X71111532Y-91681560D01*
X71111532Y-91681560D02*
X71186523Y-91644065D01*
X71186523Y-91644065D02*
X71374000Y-91644065D01*
X71374000Y-91644065D02*
X71448990Y-91681560D01*
X71448990Y-91681560D02*
X71486486Y-91719056D01*
X71486486Y-91719056D02*
X71523981Y-91794046D01*
X71523981Y-91794046D02*
X71523981Y-91869037D01*
X71523981Y-91869037D02*
X71486486Y-91981523D01*
X71486486Y-91981523D02*
X71036542Y-92431467D01*
X71036542Y-92431467D02*
X71523981Y-92431467D01*
X72198897Y-91644065D02*
X72048916Y-91644065D01*
X72048916Y-91644065D02*
X71973925Y-91681560D01*
X71973925Y-91681560D02*
X71936430Y-91719056D01*
X71936430Y-91719056D02*
X71861439Y-91831542D01*
X71861439Y-91831542D02*
X71823944Y-91981523D01*
X71823944Y-91981523D02*
X71823944Y-92281486D01*
X71823944Y-92281486D02*
X71861439Y-92356476D01*
X71861439Y-92356476D02*
X71898935Y-92393972D01*
X71898935Y-92393972D02*
X71973925Y-92431467D01*
X71973925Y-92431467D02*
X72123907Y-92431467D01*
X72123907Y-92431467D02*
X72198897Y-92393972D01*
X72198897Y-92393972D02*
X72236393Y-92356476D01*
X72236393Y-92356476D02*
X72273888Y-92281486D01*
X72273888Y-92281486D02*
X72273888Y-92094009D01*
X72273888Y-92094009D02*
X72236393Y-92019018D01*
X72236393Y-92019018D02*
X72198897Y-91981523D01*
X72198897Y-91981523D02*
X72123907Y-91944028D01*
X72123907Y-91944028D02*
X71973925Y-91944028D01*
X71973925Y-91944028D02*
X71898935Y-91981523D01*
X71898935Y-91981523D02*
X71861439Y-92019018D01*
X71861439Y-92019018D02*
X71823944Y-92094009D01*
X53889121Y-75134065D02*
X54339065Y-75134065D01*
X54114093Y-75921467D02*
X54114093Y-75134065D01*
X55013981Y-75921467D02*
X54564037Y-75921467D01*
X54789009Y-75921467D02*
X54789009Y-75134065D01*
X54789009Y-75134065D02*
X54714018Y-75246551D01*
X54714018Y-75246551D02*
X54639028Y-75321542D01*
X54639028Y-75321542D02*
X54564037Y-75359037D01*
X55313944Y-75209056D02*
X55351439Y-75171560D01*
X55351439Y-75171560D02*
X55426430Y-75134065D01*
X55426430Y-75134065D02*
X55613907Y-75134065D01*
X55613907Y-75134065D02*
X55688897Y-75171560D01*
X55688897Y-75171560D02*
X55726393Y-75209056D01*
X55726393Y-75209056D02*
X55763888Y-75284046D01*
X55763888Y-75284046D02*
X55763888Y-75359037D01*
X55763888Y-75359037D02*
X55726393Y-75471523D01*
X55726393Y-75471523D02*
X55276449Y-75921467D01*
X55276449Y-75921467D02*
X55763888Y-75921467D01*
D11*
X80899000Y-133985000D02*
X79629000Y-133985000D01*
X79629000Y-133985000D02*
X79629000Y-135001000D01*
X79629000Y-133985000D02*
X78359000Y-133985000D01*
X83121500Y-133350000D02*
G75*
G03*
X83121500Y-133350000I-3492500J0D01*
G01*
X72644000Y-76200000D02*
X71374000Y-76200000D01*
X71374000Y-76200000D02*
X71374000Y-77216000D01*
X71374000Y-76200000D02*
X70104000Y-76200000D01*
X74866500Y-75565000D02*
G75*
G03*
X74866500Y-75565000I-3492500J0D01*
G01*
X56134000Y-125730000D02*
X54864000Y-125730000D01*
X54864000Y-125730000D02*
X54864000Y-126746000D01*
X54864000Y-125730000D02*
X53594000Y-125730000D01*
X58356500Y-125095000D02*
G75*
G03*
X58356500Y-125095000I-3492500J0D01*
G01*
X72644000Y-125730000D02*
X71374000Y-125730000D01*
X71374000Y-125730000D02*
X71374000Y-126746000D01*
X71374000Y-125730000D02*
X70104000Y-125730000D01*
X74866500Y-125095000D02*
G75*
G03*
X74866500Y-125095000I-3492500J0D01*
G01*
X72644000Y-117475000D02*
X71374000Y-117475000D01*
X71374000Y-117475000D02*
X71374000Y-118491000D01*
X71374000Y-117475000D02*
X70104000Y-117475000D01*
X74866500Y-116840000D02*
G75*
G03*
X74866500Y-116840000I-3492500J0D01*
G01*
X72644000Y-133985000D02*
X71374000Y-133985000D01*
X71374000Y-133985000D02*
X71374000Y-135001000D01*
X71374000Y-133985000D02*
X70104000Y-133985000D01*
X74866500Y-133350000D02*
G75*
G03*
X74866500Y-133350000I-3492500J0D01*
G01*
X56134000Y-84455000D02*
X54864000Y-84455000D01*
X54864000Y-84455000D02*
X54864000Y-85471000D01*
X54864000Y-84455000D02*
X53594000Y-84455000D01*
X58356500Y-83820000D02*
G75*
G03*
X58356500Y-83820000I-3492500J0D01*
G01*
X80899000Y-109220000D02*
X79629000Y-109220000D01*
X79629000Y-109220000D02*
X79629000Y-110236000D01*
X79629000Y-109220000D02*
X78359000Y-109220000D01*
X83121500Y-108585000D02*
G75*
G03*
X83121500Y-108585000I-3492500J0D01*
G01*
D12*
X56142000Y-148317000D02*
X57142000Y-148317000D01*
X57142000Y-148317000D02*
X56642000Y-147317000D01*
X56642000Y-147317000D02*
X56142000Y-148317000D01*
X51432000Y-146927000D02*
X51432000Y-137807000D01*
X58402000Y-146927000D02*
X58402000Y-145617000D01*
X69472000Y-146927000D02*
X51432000Y-146927000D01*
X52732000Y-145617000D02*
X52732000Y-139117000D01*
X58402000Y-145617000D02*
X52732000Y-145617000D01*
X62502000Y-145617000D02*
X62502000Y-146927000D01*
X62502000Y-145617000D02*
X62502000Y-145617000D01*
X68172000Y-145617000D02*
X62502000Y-145617000D01*
X52732000Y-139117000D02*
X68172000Y-139117000D01*
X68172000Y-139117000D02*
X68172000Y-145617000D01*
X51432000Y-137807000D02*
X69472000Y-137807000D01*
X69472000Y-137807000D02*
X69472000Y-146927000D01*
D11*
X88666000Y-150642000D02*
X78466000Y-150642000D01*
X88666000Y-140442000D02*
X88666000Y-150642000D01*
X78466000Y-150642000D02*
X78466000Y-140442000D01*
X78466000Y-140442000D02*
X88666000Y-140442000D01*
D13*
X87766000Y-141542000D02*
G75*
G03*
X87766000Y-141542000I-200000J0D01*
G01*
D11*
X64389000Y-59690000D02*
X63119000Y-59690000D01*
X63119000Y-59690000D02*
X63119000Y-60706000D01*
X63119000Y-59690000D02*
X61849000Y-59690000D01*
X66611500Y-59055000D02*
G75*
G03*
X66611500Y-59055000I-3492500J0D01*
G01*
X89154000Y-67945000D02*
X87884000Y-67945000D01*
X87884000Y-67945000D02*
X87884000Y-68961000D01*
X87884000Y-67945000D02*
X86614000Y-67945000D01*
X91376500Y-67310000D02*
G75*
G03*
X91376500Y-67310000I-3492500J0D01*
G01*
X97409000Y-67945000D02*
X96139000Y-67945000D01*
X96139000Y-67945000D02*
X96139000Y-68961000D01*
X96139000Y-67945000D02*
X94869000Y-67945000D01*
X99631500Y-67310000D02*
G75*
G03*
X99631500Y-67310000I-3492500J0D01*
G01*
X77958000Y-41763000D02*
X88158000Y-41763000D01*
X77958000Y-51963000D02*
X77958000Y-41763000D01*
X88158000Y-41763000D02*
X88158000Y-51963000D01*
X88158000Y-51963000D02*
X77958000Y-51963000D01*
D13*
X79258000Y-50863000D02*
G75*
G03*
X79258000Y-50863000I-200000J0D01*
G01*
D11*
X64389000Y-84455000D02*
X63119000Y-84455000D01*
X63119000Y-84455000D02*
X63119000Y-85471000D01*
X63119000Y-84455000D02*
X61849000Y-84455000D01*
X66611500Y-83820000D02*
G75*
G03*
X66611500Y-83820000I-3492500J0D01*
G01*
X80899000Y-117475000D02*
X79629000Y-117475000D01*
X79629000Y-117475000D02*
X79629000Y-118491000D01*
X79629000Y-117475000D02*
X78359000Y-117475000D01*
X83121500Y-116840000D02*
G75*
G03*
X83121500Y-116840000I-3492500J0D01*
G01*
X89154000Y-59690000D02*
X87884000Y-59690000D01*
X87884000Y-59690000D02*
X87884000Y-60706000D01*
X87884000Y-59690000D02*
X86614000Y-59690000D01*
X91376500Y-59055000D02*
G75*
G03*
X91376500Y-59055000I-3492500J0D01*
G01*
X56134000Y-117475000D02*
X54864000Y-117475000D01*
X54864000Y-117475000D02*
X54864000Y-118491000D01*
X54864000Y-117475000D02*
X53594000Y-117475000D01*
X58356500Y-116840000D02*
G75*
G03*
X58356500Y-116840000I-3492500J0D01*
G01*
X72644000Y-67945000D02*
X71374000Y-67945000D01*
X71374000Y-67945000D02*
X71374000Y-68961000D01*
X71374000Y-67945000D02*
X70104000Y-67945000D01*
X74866500Y-67310000D02*
G75*
G03*
X74866500Y-67310000I-3492500J0D01*
G01*
X56134000Y-59690000D02*
X54864000Y-59690000D01*
X54864000Y-59690000D02*
X54864000Y-60706000D01*
X54864000Y-59690000D02*
X53594000Y-59690000D01*
X58356500Y-59055000D02*
G75*
G03*
X58356500Y-59055000I-3492500J0D01*
G01*
X89154000Y-84455000D02*
X87884000Y-84455000D01*
X87884000Y-84455000D02*
X87884000Y-85471000D01*
X87884000Y-84455000D02*
X86614000Y-84455000D01*
X91376500Y-83820000D02*
G75*
G03*
X91376500Y-83820000I-3492500J0D01*
G01*
X97409000Y-76200000D02*
X96139000Y-76200000D01*
X96139000Y-76200000D02*
X96139000Y-77216000D01*
X96139000Y-76200000D02*
X94869000Y-76200000D01*
X99631500Y-75565000D02*
G75*
G03*
X99631500Y-75565000I-3492500J0D01*
G01*
X89154000Y-133985000D02*
X87884000Y-133985000D01*
X87884000Y-133985000D02*
X87884000Y-135001000D01*
X87884000Y-133985000D02*
X86614000Y-133985000D01*
X91376500Y-133350000D02*
G75*
G03*
X91376500Y-133350000I-3492500J0D01*
G01*
X64389000Y-100965000D02*
X63119000Y-100965000D01*
X63119000Y-100965000D02*
X63119000Y-101981000D01*
X63119000Y-100965000D02*
X61849000Y-100965000D01*
X66611500Y-100330000D02*
G75*
G03*
X66611500Y-100330000I-3492500J0D01*
G01*
X97409000Y-92710000D02*
X96139000Y-92710000D01*
X96139000Y-92710000D02*
X96139000Y-93726000D01*
X96139000Y-92710000D02*
X94869000Y-92710000D01*
X99631500Y-92075000D02*
G75*
G03*
X99631500Y-92075000I-3492500J0D01*
G01*
X97409000Y-125730000D02*
X96139000Y-125730000D01*
X96139000Y-125730000D02*
X96139000Y-126746000D01*
X96139000Y-125730000D02*
X94869000Y-125730000D01*
X99631500Y-125095000D02*
G75*
G03*
X99631500Y-125095000I-3492500J0D01*
G01*
X80899000Y-67945000D02*
X79629000Y-67945000D01*
X79629000Y-67945000D02*
X79629000Y-68961000D01*
X79629000Y-67945000D02*
X78359000Y-67945000D01*
X83121500Y-67310000D02*
G75*
G03*
X83121500Y-67310000I-3492500J0D01*
G01*
X97409000Y-109220000D02*
X96139000Y-109220000D01*
X96139000Y-109220000D02*
X96139000Y-110236000D01*
X96139000Y-109220000D02*
X94869000Y-109220000D01*
X99631500Y-108585000D02*
G75*
G03*
X99631500Y-108585000I-3492500J0D01*
G01*
X80899000Y-125730000D02*
X79629000Y-125730000D01*
X79629000Y-125730000D02*
X79629000Y-126746000D01*
X79629000Y-125730000D02*
X78359000Y-125730000D01*
X83121500Y-125095000D02*
G75*
G03*
X83121500Y-125095000I-3492500J0D01*
G01*
X89154000Y-117475000D02*
X87884000Y-117475000D01*
X87884000Y-117475000D02*
X87884000Y-118491000D01*
X87884000Y-117475000D02*
X86614000Y-117475000D01*
X91376500Y-116840000D02*
G75*
G03*
X91376500Y-116840000I-3492500J0D01*
G01*
X80899000Y-92710000D02*
X79629000Y-92710000D01*
X79629000Y-92710000D02*
X79629000Y-93726000D01*
X79629000Y-92710000D02*
X78359000Y-92710000D01*
X83121500Y-92075000D02*
G75*
G03*
X83121500Y-92075000I-3492500J0D01*
G01*
X56134000Y-133985000D02*
X54864000Y-133985000D01*
X54864000Y-133985000D02*
X54864000Y-135001000D01*
X54864000Y-133985000D02*
X53594000Y-133985000D01*
X58356500Y-133350000D02*
G75*
G03*
X58356500Y-133350000I-3492500J0D01*
G01*
X89154000Y-100965000D02*
X87884000Y-100965000D01*
X87884000Y-100965000D02*
X87884000Y-101981000D01*
X87884000Y-100965000D02*
X86614000Y-100965000D01*
X91376500Y-100330000D02*
G75*
G03*
X91376500Y-100330000I-3492500J0D01*
G01*
X89154000Y-92710000D02*
X87884000Y-92710000D01*
X87884000Y-92710000D02*
X87884000Y-93726000D01*
X87884000Y-92710000D02*
X86614000Y-92710000D01*
X91376500Y-92075000D02*
G75*
G03*
X91376500Y-92075000I-3492500J0D01*
G01*
X97409000Y-84455000D02*
X96139000Y-84455000D01*
X96139000Y-84455000D02*
X96139000Y-85471000D01*
X96139000Y-84455000D02*
X94869000Y-84455000D01*
X99631500Y-83820000D02*
G75*
G03*
X99631500Y-83820000I-3492500J0D01*
G01*
X89154000Y-109220000D02*
X87884000Y-109220000D01*
X87884000Y-109220000D02*
X87884000Y-110236000D01*
X87884000Y-109220000D02*
X86614000Y-109220000D01*
X91376500Y-108585000D02*
G75*
G03*
X91376500Y-108585000I-3492500J0D01*
G01*
X80899000Y-84455000D02*
X79629000Y-84455000D01*
X79629000Y-84455000D02*
X79629000Y-85471000D01*
X79629000Y-84455000D02*
X78359000Y-84455000D01*
X83121500Y-83820000D02*
G75*
G03*
X83121500Y-83820000I-3492500J0D01*
G01*
X89154000Y-125730000D02*
X87884000Y-125730000D01*
X87884000Y-125730000D02*
X87884000Y-126746000D01*
X87884000Y-125730000D02*
X86614000Y-125730000D01*
X91376500Y-125095000D02*
G75*
G03*
X91376500Y-125095000I-3492500J0D01*
G01*
X80899000Y-59690000D02*
X79629000Y-59690000D01*
X79629000Y-59690000D02*
X79629000Y-60706000D01*
X79629000Y-59690000D02*
X78359000Y-59690000D01*
X83121500Y-59055000D02*
G75*
G03*
X83121500Y-59055000I-3492500J0D01*
G01*
X72644000Y-109140000D02*
X71374000Y-109140000D01*
X71374000Y-109140000D02*
X71374000Y-110156000D01*
X71374000Y-109140000D02*
X70104000Y-109140000D01*
X74866500Y-108505000D02*
G75*
G03*
X74866500Y-108505000I-3492500J0D01*
G01*
X56134000Y-100965000D02*
X54864000Y-100965000D01*
X54864000Y-100965000D02*
X54864000Y-101981000D01*
X54864000Y-100965000D02*
X53594000Y-100965000D01*
X58356500Y-100330000D02*
G75*
G03*
X58356500Y-100330000I-3492500J0D01*
G01*
X64389000Y-133985000D02*
X63119000Y-133985000D01*
X63119000Y-133985000D02*
X63119000Y-135001000D01*
X63119000Y-133985000D02*
X61849000Y-133985000D01*
X66611500Y-133350000D02*
G75*
G03*
X66611500Y-133350000I-3492500J0D01*
G01*
X97409000Y-117475000D02*
X96139000Y-117475000D01*
X96139000Y-117475000D02*
X96139000Y-118491000D01*
X96139000Y-117475000D02*
X94869000Y-117475000D01*
X99631500Y-116840000D02*
G75*
G03*
X99631500Y-116840000I-3492500J0D01*
G01*
X80899000Y-100965000D02*
X79629000Y-100965000D01*
X79629000Y-100965000D02*
X79629000Y-101981000D01*
X79629000Y-100965000D02*
X78359000Y-100965000D01*
X83121500Y-100330000D02*
G75*
G03*
X83121500Y-100330000I-3492500J0D01*
G01*
X64389000Y-117475000D02*
X63119000Y-117475000D01*
X63119000Y-117475000D02*
X63119000Y-118491000D01*
X63119000Y-117475000D02*
X61849000Y-117475000D01*
X66611500Y-116840000D02*
G75*
G03*
X66611500Y-116840000I-3492500J0D01*
G01*
X72644000Y-100965000D02*
X71374000Y-100965000D01*
X71374000Y-100965000D02*
X71374000Y-101981000D01*
X71374000Y-100965000D02*
X70104000Y-100965000D01*
X74866500Y-100330000D02*
G75*
G03*
X74866500Y-100330000I-3492500J0D01*
G01*
X97409000Y-133985000D02*
X96139000Y-133985000D01*
X96139000Y-133985000D02*
X96139000Y-135001000D01*
X96139000Y-133985000D02*
X94869000Y-133985000D01*
X99631500Y-133350000D02*
G75*
G03*
X99631500Y-133350000I-3492500J0D01*
G01*
X56134000Y-92710000D02*
X54864000Y-92710000D01*
X54864000Y-92710000D02*
X54864000Y-93726000D01*
X54864000Y-92710000D02*
X53594000Y-92710000D01*
X58356500Y-92075000D02*
G75*
G03*
X58356500Y-92075000I-3492500J0D01*
G01*
X64389000Y-109220000D02*
X63119000Y-109220000D01*
X63119000Y-109220000D02*
X63119000Y-110236000D01*
X63119000Y-109220000D02*
X61849000Y-109220000D01*
X66611500Y-108585000D02*
G75*
G03*
X66611500Y-108585000I-3492500J0D01*
G01*
X80899000Y-76200000D02*
X79629000Y-76200000D01*
X79629000Y-76200000D02*
X79629000Y-77216000D01*
X79629000Y-76200000D02*
X78359000Y-76200000D01*
X83121500Y-75565000D02*
G75*
G03*
X83121500Y-75565000I-3492500J0D01*
G01*
X97409000Y-59690000D02*
X96139000Y-59690000D01*
X96139000Y-59690000D02*
X96139000Y-60706000D01*
X96139000Y-59690000D02*
X94869000Y-59690000D01*
X99631500Y-59055000D02*
G75*
G03*
X99631500Y-59055000I-3492500J0D01*
G01*
X97409000Y-100965000D02*
X96139000Y-100965000D01*
X96139000Y-100965000D02*
X96139000Y-101981000D01*
X96139000Y-100965000D02*
X94869000Y-100965000D01*
X99631500Y-100330000D02*
G75*
G03*
X99631500Y-100330000I-3492500J0D01*
G01*
X72644000Y-84455000D02*
X71374000Y-84455000D01*
X71374000Y-84455000D02*
X71374000Y-85471000D01*
X71374000Y-84455000D02*
X70104000Y-84455000D01*
X74866500Y-83820000D02*
G75*
G03*
X74866500Y-83820000I-3492500J0D01*
G01*
X56134000Y-109220000D02*
X54864000Y-109220000D01*
X54864000Y-109220000D02*
X54864000Y-110236000D01*
X54864000Y-109220000D02*
X53594000Y-109220000D01*
X58356500Y-108585000D02*
G75*
G03*
X58356500Y-108585000I-3492500J0D01*
G01*
X64389000Y-76200000D02*
X63119000Y-76200000D01*
X63119000Y-76200000D02*
X63119000Y-77216000D01*
X63119000Y-76200000D02*
X61849000Y-76200000D01*
X66611500Y-75565000D02*
G75*
G03*
X66611500Y-75565000I-3492500J0D01*
G01*
X56134000Y-67945000D02*
X54864000Y-67945000D01*
X54864000Y-67945000D02*
X54864000Y-68961000D01*
X54864000Y-67945000D02*
X53594000Y-67945000D01*
X58356500Y-67310000D02*
G75*
G03*
X58356500Y-67310000I-3492500J0D01*
G01*
D12*
X56142000Y-55988000D02*
X57142000Y-55988000D01*
X57142000Y-55988000D02*
X56642000Y-54988000D01*
X56642000Y-54988000D02*
X56142000Y-55988000D01*
X51432000Y-54598000D02*
X51432000Y-45478000D01*
X58402000Y-54598000D02*
X58402000Y-53288000D01*
X69472000Y-54598000D02*
X51432000Y-54598000D01*
X52732000Y-53288000D02*
X52732000Y-46788000D01*
X58402000Y-53288000D02*
X52732000Y-53288000D01*
X62502000Y-53288000D02*
X62502000Y-54598000D01*
X62502000Y-53288000D02*
X62502000Y-53288000D01*
X68172000Y-53288000D02*
X62502000Y-53288000D01*
X52732000Y-46788000D02*
X68172000Y-46788000D01*
X68172000Y-46788000D02*
X68172000Y-53288000D01*
X51432000Y-45478000D02*
X69472000Y-45478000D01*
X69472000Y-45478000D02*
X69472000Y-54598000D01*
D11*
X72644000Y-59690000D02*
X71374000Y-59690000D01*
X71374000Y-59690000D02*
X71374000Y-60706000D01*
X71374000Y-59690000D02*
X70104000Y-59690000D01*
X74866500Y-59055000D02*
G75*
G03*
X74866500Y-59055000I-3492500J0D01*
G01*
X64389000Y-92710000D02*
X63119000Y-92710000D01*
X63119000Y-92710000D02*
X63119000Y-93726000D01*
X63119000Y-92710000D02*
X61849000Y-92710000D01*
X66611500Y-92075000D02*
G75*
G03*
X66611500Y-92075000I-3492500J0D01*
G01*
X89154000Y-76200000D02*
X87884000Y-76200000D01*
X87884000Y-76200000D02*
X87884000Y-77216000D01*
X87884000Y-76200000D02*
X86614000Y-76200000D01*
X91376500Y-75565000D02*
G75*
G03*
X91376500Y-75565000I-3492500J0D01*
G01*
X64389000Y-125730000D02*
X63119000Y-125730000D01*
X63119000Y-125730000D02*
X63119000Y-126746000D01*
X63119000Y-125730000D02*
X61849000Y-125730000D01*
X66611500Y-125095000D02*
G75*
G03*
X66611500Y-125095000I-3492500J0D01*
G01*
X64389000Y-67945000D02*
X63119000Y-67945000D01*
X63119000Y-67945000D02*
X63119000Y-68961000D01*
X63119000Y-67945000D02*
X61849000Y-67945000D01*
X66611500Y-67310000D02*
G75*
G03*
X66611500Y-67310000I-3492500J0D01*
G01*
X72644000Y-92710000D02*
X71374000Y-92710000D01*
X71374000Y-92710000D02*
X71374000Y-93726000D01*
X71374000Y-92710000D02*
X70104000Y-92710000D01*
X74866500Y-92075000D02*
G75*
G03*
X74866500Y-92075000I-3492500J0D01*
G01*
X56134000Y-76200000D02*
X54864000Y-76200000D01*
X54864000Y-76200000D02*
X54864000Y-77216000D01*
X54864000Y-76200000D02*
X53594000Y-76200000D01*
X58356500Y-75565000D02*
G75*
G03*
X58356500Y-75565000I-3492500J0D01*
G01*
%LPC*%
D14*
X79629000Y-135890000D03*
D15*
X79629000Y-130810000D03*
D14*
X71374000Y-78105000D03*
D15*
X71374000Y-73025000D03*
D14*
X54864000Y-127635000D03*
D15*
X54864000Y-122555000D03*
D14*
X71374000Y-127635000D03*
D15*
X71374000Y-122555000D03*
D14*
X71374000Y-119380000D03*
D15*
X71374000Y-114300000D03*
D14*
X71374000Y-135890000D03*
D15*
X71374000Y-130810000D03*
D14*
X54864000Y-86360000D03*
D15*
X54864000Y-81280000D03*
D14*
X79629000Y-111125000D03*
D15*
X79629000Y-106045000D03*
D16*
X56642000Y-143637000D03*
D17*
X56642000Y-141097000D03*
X59182000Y-143637000D03*
X59182000Y-141097000D03*
X61722000Y-143637000D03*
X61722000Y-141097000D03*
X64262000Y-143637000D03*
X64262000Y-141097000D03*
D18*
X87566000Y-152342000D03*
X83566000Y-152342000D03*
X86766000Y-152342000D03*
X79566000Y-152342000D03*
D19*
X90366000Y-148742000D03*
X90366000Y-147942000D03*
X90366000Y-147142000D03*
X90366000Y-146342000D03*
X90366000Y-145542000D03*
X90366000Y-144742000D03*
X90366000Y-143942000D03*
X90366000Y-143142000D03*
X90366000Y-142342000D03*
X90366000Y-141542000D03*
D18*
X87566000Y-138742000D03*
X86766000Y-138742000D03*
X85966000Y-138742000D03*
X85166000Y-138742000D03*
X84366000Y-138742000D03*
X83566000Y-138742000D03*
X82766000Y-138742000D03*
X81966000Y-138742000D03*
X81166000Y-138742000D03*
X80366000Y-138742000D03*
X79566000Y-138742000D03*
D19*
X76766000Y-141542000D03*
X76766000Y-142342000D03*
X76766000Y-143142000D03*
X76766000Y-143942000D03*
X76766000Y-144742000D03*
X76766000Y-145542000D03*
X76766000Y-146342000D03*
X76766000Y-147142000D03*
X76766000Y-147942000D03*
X76766000Y-148742000D03*
X76766000Y-149542000D03*
D18*
X85966000Y-152342000D03*
X80366000Y-152342000D03*
X81166000Y-152342000D03*
X81966000Y-152342000D03*
D19*
X90366000Y-149542000D03*
D18*
X82766000Y-152342000D03*
X85166000Y-152342000D03*
X84366000Y-152342000D03*
D14*
X63119000Y-61595000D03*
D15*
X63119000Y-56515000D03*
D14*
X87884000Y-69850000D03*
D15*
X87884000Y-64770000D03*
D20*
X96700000Y-150800000D03*
D14*
X96139000Y-69850000D03*
D15*
X96139000Y-64770000D03*
D21*
X52578000Y-145796000D03*
D18*
X79058000Y-40063000D03*
X83058000Y-40063000D03*
X79858000Y-40063000D03*
X87058000Y-40063000D03*
D19*
X76258000Y-43663000D03*
X76258000Y-44463000D03*
X76258000Y-45263000D03*
X76258000Y-46063000D03*
X76258000Y-46863000D03*
X76258000Y-47663000D03*
X76258000Y-48463000D03*
X76258000Y-49263000D03*
X76258000Y-50063000D03*
X76258000Y-50863000D03*
D18*
X79058000Y-53663000D03*
X79858000Y-53663000D03*
X80658000Y-53663000D03*
X81458000Y-53663000D03*
X82258000Y-53663000D03*
X83058000Y-53663000D03*
X83858000Y-53663000D03*
X84658000Y-53663000D03*
X85458000Y-53663000D03*
X86258000Y-53663000D03*
X87058000Y-53663000D03*
D19*
X89858000Y-50863000D03*
X89858000Y-50063000D03*
X89858000Y-49263000D03*
X89858000Y-48463000D03*
X89858000Y-47663000D03*
X89858000Y-46863000D03*
X89858000Y-46063000D03*
X89858000Y-45263000D03*
X89858000Y-44463000D03*
X89858000Y-43663000D03*
X89858000Y-42863000D03*
D18*
X80658000Y-40063000D03*
X86258000Y-40063000D03*
X85458000Y-40063000D03*
X84658000Y-40063000D03*
D19*
X76258000Y-42863000D03*
D18*
X83858000Y-40063000D03*
X81458000Y-40063000D03*
X82258000Y-40063000D03*
D14*
X63119000Y-86360000D03*
D15*
X63119000Y-81280000D03*
D14*
X79629000Y-119380000D03*
D15*
X79629000Y-114300000D03*
D14*
X87884000Y-61595000D03*
D15*
X87884000Y-56515000D03*
D14*
X54864000Y-119380000D03*
D15*
X54864000Y-114300000D03*
D14*
X71374000Y-69850000D03*
D15*
X71374000Y-64770000D03*
D14*
X54864000Y-61595000D03*
D15*
X54864000Y-56515000D03*
D14*
X87884000Y-86360000D03*
D15*
X87884000Y-81280000D03*
D14*
X96139000Y-78105000D03*
D15*
X96139000Y-73025000D03*
D14*
X87884000Y-135890000D03*
D15*
X87884000Y-130810000D03*
D14*
X63119000Y-102870000D03*
D15*
X63119000Y-97790000D03*
D14*
X96139000Y-94615000D03*
D15*
X96139000Y-89535000D03*
D14*
X96139000Y-127635000D03*
D15*
X96139000Y-122555000D03*
D14*
X79629000Y-69850000D03*
D15*
X79629000Y-64770000D03*
D14*
X96139000Y-111125000D03*
D15*
X96139000Y-106045000D03*
D14*
X79629000Y-127635000D03*
D15*
X79629000Y-122555000D03*
D14*
X87884000Y-119380000D03*
D15*
X87884000Y-114300000D03*
D14*
X79629000Y-94615000D03*
D15*
X79629000Y-89535000D03*
D14*
X54864000Y-135890000D03*
D15*
X54864000Y-130810000D03*
D14*
X87884000Y-102870000D03*
D15*
X87884000Y-97790000D03*
D14*
X87884000Y-94615000D03*
D15*
X87884000Y-89535000D03*
D14*
X96139000Y-86360000D03*
D15*
X96139000Y-81280000D03*
D14*
X87884000Y-111125000D03*
D15*
X87884000Y-106045000D03*
D14*
X79629000Y-86360000D03*
D15*
X79629000Y-81280000D03*
D14*
X87884000Y-127635000D03*
D15*
X87884000Y-122555000D03*
D14*
X79629000Y-61595000D03*
D15*
X79629000Y-56515000D03*
D14*
X71374000Y-111045000D03*
D15*
X71374000Y-105965000D03*
D14*
X54864000Y-102870000D03*
D15*
X54864000Y-97790000D03*
D14*
X63119000Y-135890000D03*
D15*
X63119000Y-130810000D03*
D14*
X96139000Y-119380000D03*
D15*
X96139000Y-114300000D03*
D14*
X79629000Y-102870000D03*
D15*
X79629000Y-97790000D03*
D20*
X54300000Y-150800000D03*
D14*
X63119000Y-119380000D03*
D15*
X63119000Y-114300000D03*
D14*
X71374000Y-102870000D03*
D15*
X71374000Y-97790000D03*
D14*
X96139000Y-135890000D03*
D15*
X96139000Y-130810000D03*
D14*
X54864000Y-94615000D03*
D15*
X54864000Y-89535000D03*
D21*
X52578000Y-46609000D03*
D14*
X63119000Y-111125000D03*
D15*
X63119000Y-106045000D03*
D20*
X54300000Y-41600000D03*
D21*
X98425000Y-145796000D03*
D14*
X79629000Y-78105000D03*
D15*
X79629000Y-73025000D03*
D14*
X96139000Y-61595000D03*
D15*
X96139000Y-56515000D03*
D14*
X96139000Y-102870000D03*
D15*
X96139000Y-97790000D03*
D14*
X71374000Y-86360000D03*
D15*
X71374000Y-81280000D03*
D14*
X54864000Y-111125000D03*
D15*
X54864000Y-106045000D03*
D14*
X63119000Y-78105000D03*
D15*
X63119000Y-73025000D03*
D14*
X54864000Y-69850000D03*
D15*
X54864000Y-64770000D03*
D16*
X56642000Y-51308000D03*
D17*
X56642000Y-48768000D03*
X59182000Y-51308000D03*
X59182000Y-48768000D03*
X61722000Y-51308000D03*
X61722000Y-48768000D03*
X64262000Y-51308000D03*
X64262000Y-48768000D03*
D14*
X71374000Y-61595000D03*
D15*
X71374000Y-56515000D03*
D14*
X63119000Y-94615000D03*
D15*
X63119000Y-89535000D03*
D14*
X87884000Y-78105000D03*
D15*
X87884000Y-73025000D03*
D20*
X96700000Y-41600000D03*
D21*
X98425000Y-46609000D03*
D14*
X63119000Y-127635000D03*
D15*
X63119000Y-122555000D03*
D14*
X63119000Y-69850000D03*
D15*
X63119000Y-64770000D03*
D14*
X71374000Y-94615000D03*
D15*
X71374000Y-89535000D03*
D14*
X54864000Y-78105000D03*
D15*
X54864000Y-73025000D03*
%LPD*%
M02*
