M48
; DRILL file {KiCad 7.0.5} date Wed Sep  6 13:43:11 2023
; FORMAT={-:-/ absolute / metric / decimal}
; #@! TF.CreationDate,2023-09-06T13:43:11-04:00
; #@! TF.GenerationSoftware,Kicad,Pcbnew,7.0.5
; #@! TF.FileFunction,Plated,1,2,PTH
FMAT,2
METRIC
; #@! TA.AperFunction,Plated,PTH,ViaDrill
T1C0.400
; #@! TA.AperFunction,Plated,PTH,ViaDrill
T2C0.500
; #@! TA.AperFunction,Plated,PTH,ViaDrill
T3C0.600
; #@! TA.AperFunction,Plated,PTH,ComponentDrill
T4C0.800
; #@! TA.AperFunction,Plated,PTH,ComponentDrill
T5C1.000
%
G90
G05
T1
X58.674Y-88.773
X58.801Y-68.326
X58.801Y-74.803
X58.801Y-84.201
X58.928Y-64.643
X58.928Y-79.629
X58.928Y-122.682
X59.055Y-114.554
X59.182Y-106.68
X59.182Y-109.093
X59.182Y-119.507
X62.865Y-53.721
X62.865Y-148.971
X66.802Y-99.441
X69.37Y-109.957
X69.548Y-91.354
X69.85Y-90.297
X69.977Y-149.733
X70.264Y-92.204
X70.358Y-109.347
X72.39Y-149.104
X72.872Y-88.847
X73.66Y-88.011
X76.2Y-110.236
X76.661Y-84.484
X76.708Y-118.11
X77.089Y-111.252
X77.588Y-117.45
X77.597Y-83.907
X78.311Y-116.622
X78.774Y-142.274
X79.071Y-48.312
X79.883Y-48.895
X79.976Y-142.392
X80.63Y-47.587
X80.772Y-79.554
X81.28Y-81.661
X81.661Y-45.974
X81.661Y-143.191
X82.042Y-150.278
X82.235Y-82.207
X83.072Y-73.525
X83.615Y-121.412
X83.82Y-72.39
X84.074Y-143.992
X84.415Y-126.238
X84.455Y-51.308
X84.68Y-74.375
X84.992Y-125.302
X85.217Y-144.791
X85.323Y-50.292
X85.604Y-124.388
X85.852Y-149.828
X85.979Y-75.311
X86.173Y-49.324
X86.36Y-145.566
X86.487Y-147.828
X86.741Y-150.876
X87.034Y-48.641
X87.058Y-41.402
X87.22Y-75.213
X87.63Y-149.606
X87.757Y-46.863
X88.519Y-75.311
X89.008Y-58.801
X89.408Y-63.119
X90.17Y-65.151
X91.059Y-72.517
X91.186Y-75.692
X91.342Y-65.18
X91.371Y-66.352
X92.075Y-131.953
X92.329Y-129.667
X93.472Y-65.913
X94.361Y-61.214
T2
X53.467Y-52.959
X56.781Y-146.038
X58.801Y-134.62
X59.055Y-129.286
X59.309Y-146.812
X65.913Y-147.828
X70.485Y-45.593
X78.613Y-42.527
X81.523Y-42.615
X82.296Y-43.688
X82.55Y-147.828
X84.697Y-147.84
T3
X66.167Y-59.309
T4
X54.864Y-56.515
X54.864Y-61.595
X54.864Y-64.77
X54.864Y-69.85
X54.864Y-73.025
X54.864Y-78.105
X54.864Y-81.28
X54.864Y-86.36
X54.864Y-89.535
X54.864Y-94.615
X54.864Y-97.79
X54.864Y-102.87
X54.864Y-106.045
X54.864Y-111.125
X54.864Y-114.3
X54.864Y-119.38
X54.864Y-122.555
X54.864Y-127.635
X54.864Y-130.81
X54.864Y-135.89
X63.119Y-56.515
X63.119Y-61.595
X63.119Y-64.77
X63.119Y-69.85
X63.119Y-73.025
X63.119Y-78.105
X63.119Y-81.28
X63.119Y-86.36
X63.119Y-89.535
X63.119Y-94.615
X63.119Y-97.79
X63.119Y-102.87
X63.119Y-106.045
X63.119Y-111.125
X63.119Y-114.3
X63.119Y-119.38
X63.119Y-122.555
X63.119Y-127.635
X63.119Y-130.81
X63.119Y-135.89
X71.374Y-56.515
X71.374Y-61.595
X71.374Y-64.77
X71.374Y-69.85
X71.374Y-73.025
X71.374Y-78.105
X71.374Y-81.28
X71.374Y-86.36
X71.374Y-89.535
X71.374Y-94.615
X71.374Y-97.79
X71.374Y-102.87
X71.374Y-105.965
X71.374Y-111.045
X71.374Y-114.3
X71.374Y-119.38
X71.374Y-122.555
X71.374Y-127.635
X71.374Y-130.81
X71.374Y-135.89
X79.629Y-56.515
X79.629Y-61.595
X79.629Y-64.77
X79.629Y-69.85
X79.629Y-73.025
X79.629Y-78.105
X79.629Y-81.28
X79.629Y-86.36
X79.629Y-89.535
X79.629Y-94.615
X79.629Y-97.79
X79.629Y-102.87
X79.629Y-106.045
X79.629Y-111.125
X79.629Y-114.3
X79.629Y-119.38
X79.629Y-122.555
X79.629Y-127.635
X79.629Y-130.81
X79.629Y-135.89
X87.884Y-56.515
X87.884Y-61.595
X87.884Y-64.77
X87.884Y-69.85
X87.884Y-73.025
X87.884Y-78.105
X87.884Y-81.28
X87.884Y-86.36
X87.884Y-89.535
X87.884Y-94.615
X87.884Y-97.79
X87.884Y-102.87
X87.884Y-106.045
X87.884Y-111.125
X87.884Y-114.3
X87.884Y-119.38
X87.884Y-122.555
X87.884Y-127.635
X87.884Y-130.81
X87.884Y-135.89
X96.139Y-56.515
X96.139Y-61.595
X96.139Y-64.77
X96.139Y-69.85
X96.139Y-73.025
X96.139Y-78.105
X96.139Y-81.28
X96.139Y-86.36
X96.139Y-89.535
X96.139Y-94.615
X96.139Y-97.79
X96.139Y-102.87
X96.139Y-106.045
X96.139Y-111.125
X96.139Y-114.3
X96.139Y-119.38
X96.139Y-122.555
X96.139Y-127.635
X96.139Y-130.81
X96.139Y-135.89
T5
X56.642Y-48.768
X56.642Y-51.308
X56.642Y-141.097
X56.642Y-143.637
X59.182Y-48.768
X59.182Y-51.308
X59.182Y-141.097
X59.182Y-143.637
X61.722Y-48.768
X61.722Y-51.308
X61.722Y-141.097
X61.722Y-143.637
X64.262Y-48.768
X64.262Y-51.308
X64.262Y-141.097
X64.262Y-143.637
T0
M30
