G04 #@! TF.GenerationSoftware,KiCad,Pcbnew,7.0.5*
G04 #@! TF.CreationDate,2023-09-06T13:43:01-04:00*
G04 #@! TF.ProjectId,INS-1 Matrix_DRC,494e532d-3120-44d6-9174-7269785f4452,rev?*
G04 #@! TF.SameCoordinates,Original*
G04 #@! TF.FileFunction,Legend,Bot*
G04 #@! TF.FilePolarity,Positive*
%FSLAX46Y46*%
G04 Gerber Fmt 4.6, Leading zero omitted, Abs format (unit mm)*
G04 Created by KiCad (PCBNEW 7.0.5) date 2023-09-06 13:43:01*
%MOMM*%
%LPD*%
G01*
G04 APERTURE LIST*
G04 Aperture macros list*
%AMRoundRect*
0 Rectangle with rounded corners*
0 $1 Rounding radius*
0 $2 $3 $4 $5 $6 $7 $8 $9 X,Y pos of 4 corners*
0 Add a 4 corners polygon primitive as box body*
4,1,4,$2,$3,$4,$5,$6,$7,$8,$9,$2,$3,0*
0 Add four circle primitives for the rounded corners*
1,1,$1+$1,$2,$3*
1,1,$1+$1,$4,$5*
1,1,$1+$1,$6,$7*
1,1,$1+$1,$8,$9*
0 Add four rect primitives between the rounded corners*
20,1,$1+$1,$2,$3,$4,$5,0*
20,1,$1+$1,$4,$5,$6,$7,0*
20,1,$1+$1,$6,$7,$8,$9,0*
20,1,$1+$1,$8,$9,$2,$3,0*%
G04 Aperture macros list end*
%ADD10C,0.150000*%
%ADD11C,0.120000*%
%ADD12R,1.308000X1.308000*%
%ADD13C,1.308000*%
%ADD14RoundRect,0.250000X0.600000X-0.600000X0.600000X0.600000X-0.600000X0.600000X-0.600000X-0.600000X0*%
%ADD15C,1.700000*%
%ADD16C,3.200000*%
%ADD17C,1.152000*%
%ADD18RoundRect,0.250000X-0.350000X-0.450000X0.350000X-0.450000X0.350000X0.450000X-0.350000X0.450000X0*%
%ADD19RoundRect,0.250000X0.350000X0.450000X-0.350000X0.450000X-0.350000X-0.450000X0.350000X-0.450000X0*%
%ADD20RoundRect,0.250000X0.337500X0.475000X-0.337500X0.475000X-0.337500X-0.475000X0.337500X-0.475000X0*%
%ADD21RoundRect,0.250000X-0.475000X0.337500X-0.475000X-0.337500X0.475000X-0.337500X0.475000X0.337500X0*%
G04 APERTURE END LIST*
D10*
X91515982Y-152474866D02*
X91515982Y-151074866D01*
X91515982Y-151074866D02*
X90715982Y-152474866D01*
X90715982Y-152474866D02*
X90715982Y-151074866D01*
X89449315Y-152474866D02*
X89449315Y-151741533D01*
X89449315Y-151741533D02*
X89515982Y-151608200D01*
X89515982Y-151608200D02*
X89649315Y-151541533D01*
X89649315Y-151541533D02*
X89915982Y-151541533D01*
X89915982Y-151541533D02*
X90049315Y-151608200D01*
X89449315Y-152408200D02*
X89582649Y-152474866D01*
X89582649Y-152474866D02*
X89915982Y-152474866D01*
X89915982Y-152474866D02*
X90049315Y-152408200D01*
X90049315Y-152408200D02*
X90115982Y-152274866D01*
X90115982Y-152274866D02*
X90115982Y-152141533D01*
X90115982Y-152141533D02*
X90049315Y-152008200D01*
X90049315Y-152008200D02*
X89915982Y-151941533D01*
X89915982Y-151941533D02*
X89582649Y-151941533D01*
X89582649Y-151941533D02*
X89449315Y-151874866D01*
X88982648Y-151541533D02*
X88449315Y-151541533D01*
X88782648Y-151074866D02*
X88782648Y-152274866D01*
X88782648Y-152274866D02*
X88715982Y-152408200D01*
X88715982Y-152408200D02*
X88582648Y-152474866D01*
X88582648Y-152474866D02*
X88449315Y-152474866D01*
X87982648Y-152474866D02*
X87982648Y-151074866D01*
X87382648Y-152474866D02*
X87382648Y-151741533D01*
X87382648Y-151741533D02*
X87449315Y-151608200D01*
X87449315Y-151608200D02*
X87582648Y-151541533D01*
X87582648Y-151541533D02*
X87782648Y-151541533D01*
X87782648Y-151541533D02*
X87915982Y-151608200D01*
X87915982Y-151608200D02*
X87982648Y-151674866D01*
X86115981Y-152474866D02*
X86115981Y-151741533D01*
X86115981Y-151741533D02*
X86182648Y-151608200D01*
X86182648Y-151608200D02*
X86315981Y-151541533D01*
X86315981Y-151541533D02*
X86582648Y-151541533D01*
X86582648Y-151541533D02*
X86715981Y-151608200D01*
X86115981Y-152408200D02*
X86249315Y-152474866D01*
X86249315Y-152474866D02*
X86582648Y-152474866D01*
X86582648Y-152474866D02*
X86715981Y-152408200D01*
X86715981Y-152408200D02*
X86782648Y-152274866D01*
X86782648Y-152274866D02*
X86782648Y-152141533D01*
X86782648Y-152141533D02*
X86715981Y-152008200D01*
X86715981Y-152008200D02*
X86582648Y-151941533D01*
X86582648Y-151941533D02*
X86249315Y-151941533D01*
X86249315Y-151941533D02*
X86115981Y-151874866D01*
X85449314Y-151541533D02*
X85449314Y-152474866D01*
X85449314Y-151674866D02*
X85382648Y-151608200D01*
X85382648Y-151608200D02*
X85249314Y-151541533D01*
X85249314Y-151541533D02*
X85049314Y-151541533D01*
X85049314Y-151541533D02*
X84915981Y-151608200D01*
X84915981Y-151608200D02*
X84849314Y-151741533D01*
X84849314Y-151741533D02*
X84849314Y-152474866D01*
X83182647Y-152408200D02*
X82982647Y-152474866D01*
X82982647Y-152474866D02*
X82649314Y-152474866D01*
X82649314Y-152474866D02*
X82515980Y-152408200D01*
X82515980Y-152408200D02*
X82449314Y-152341533D01*
X82449314Y-152341533D02*
X82382647Y-152208200D01*
X82382647Y-152208200D02*
X82382647Y-152074866D01*
X82382647Y-152074866D02*
X82449314Y-151941533D01*
X82449314Y-151941533D02*
X82515980Y-151874866D01*
X82515980Y-151874866D02*
X82649314Y-151808200D01*
X82649314Y-151808200D02*
X82915980Y-151741533D01*
X82915980Y-151741533D02*
X83049314Y-151674866D01*
X83049314Y-151674866D02*
X83115980Y-151608200D01*
X83115980Y-151608200D02*
X83182647Y-151474866D01*
X83182647Y-151474866D02*
X83182647Y-151341533D01*
X83182647Y-151341533D02*
X83115980Y-151208200D01*
X83115980Y-151208200D02*
X83049314Y-151141533D01*
X83049314Y-151141533D02*
X82915980Y-151074866D01*
X82915980Y-151074866D02*
X82582647Y-151074866D01*
X82582647Y-151074866D02*
X82382647Y-151141533D01*
X81182647Y-152474866D02*
X81182647Y-151741533D01*
X81182647Y-151741533D02*
X81249314Y-151608200D01*
X81249314Y-151608200D02*
X81382647Y-151541533D01*
X81382647Y-151541533D02*
X81649314Y-151541533D01*
X81649314Y-151541533D02*
X81782647Y-151608200D01*
X81182647Y-152408200D02*
X81315981Y-152474866D01*
X81315981Y-152474866D02*
X81649314Y-152474866D01*
X81649314Y-152474866D02*
X81782647Y-152408200D01*
X81782647Y-152408200D02*
X81849314Y-152274866D01*
X81849314Y-152274866D02*
X81849314Y-152141533D01*
X81849314Y-152141533D02*
X81782647Y-152008200D01*
X81782647Y-152008200D02*
X81649314Y-151941533D01*
X81649314Y-151941533D02*
X81315981Y-151941533D01*
X81315981Y-151941533D02*
X81182647Y-151874866D01*
X80715980Y-151541533D02*
X80182647Y-151541533D01*
X80515980Y-152474866D02*
X80515980Y-151274866D01*
X80515980Y-151274866D02*
X80449314Y-151141533D01*
X80449314Y-151141533D02*
X80315980Y-151074866D01*
X80315980Y-151074866D02*
X80182647Y-151074866D01*
X79715980Y-152474866D02*
X79715980Y-151541533D01*
X79715980Y-151808200D02*
X79649314Y-151674866D01*
X79649314Y-151674866D02*
X79582647Y-151608200D01*
X79582647Y-151608200D02*
X79449314Y-151541533D01*
X79449314Y-151541533D02*
X79315980Y-151541533D01*
X78249313Y-152474866D02*
X78249313Y-151741533D01*
X78249313Y-151741533D02*
X78315980Y-151608200D01*
X78315980Y-151608200D02*
X78449313Y-151541533D01*
X78449313Y-151541533D02*
X78715980Y-151541533D01*
X78715980Y-151541533D02*
X78849313Y-151608200D01*
X78249313Y-152408200D02*
X78382647Y-152474866D01*
X78382647Y-152474866D02*
X78715980Y-152474866D01*
X78715980Y-152474866D02*
X78849313Y-152408200D01*
X78849313Y-152408200D02*
X78915980Y-152274866D01*
X78915980Y-152274866D02*
X78915980Y-152141533D01*
X78915980Y-152141533D02*
X78849313Y-152008200D01*
X78849313Y-152008200D02*
X78715980Y-151941533D01*
X78715980Y-151941533D02*
X78382647Y-151941533D01*
X78382647Y-151941533D02*
X78249313Y-151874866D01*
X77582646Y-151541533D02*
X77582646Y-152474866D01*
X77582646Y-151674866D02*
X77515980Y-151608200D01*
X77515980Y-151608200D02*
X77382646Y-151541533D01*
X77382646Y-151541533D02*
X77182646Y-151541533D01*
X77182646Y-151541533D02*
X77049313Y-151608200D01*
X77049313Y-151608200D02*
X76982646Y-151741533D01*
X76982646Y-151741533D02*
X76982646Y-152474866D01*
X75182646Y-152474866D02*
X74915979Y-152474866D01*
X74915979Y-152474866D02*
X74782646Y-152408200D01*
X74782646Y-152408200D02*
X74715979Y-152341533D01*
X74715979Y-152341533D02*
X74582646Y-152141533D01*
X74582646Y-152141533D02*
X74515979Y-151874866D01*
X74515979Y-151874866D02*
X74515979Y-151341533D01*
X74515979Y-151341533D02*
X74582646Y-151208200D01*
X74582646Y-151208200D02*
X74649312Y-151141533D01*
X74649312Y-151141533D02*
X74782646Y-151074866D01*
X74782646Y-151074866D02*
X75049312Y-151074866D01*
X75049312Y-151074866D02*
X75182646Y-151141533D01*
X75182646Y-151141533D02*
X75249312Y-151208200D01*
X75249312Y-151208200D02*
X75315979Y-151341533D01*
X75315979Y-151341533D02*
X75315979Y-151674866D01*
X75315979Y-151674866D02*
X75249312Y-151808200D01*
X75249312Y-151808200D02*
X75182646Y-151874866D01*
X75182646Y-151874866D02*
X75049312Y-151941533D01*
X75049312Y-151941533D02*
X74782646Y-151941533D01*
X74782646Y-151941533D02*
X74649312Y-151874866D01*
X74649312Y-151874866D02*
X74582646Y-151808200D01*
X74582646Y-151808200D02*
X74515979Y-151674866D01*
X72915979Y-151008200D02*
X74115979Y-152808200D01*
X72515979Y-151208200D02*
X72449312Y-151141533D01*
X72449312Y-151141533D02*
X72315979Y-151074866D01*
X72315979Y-151074866D02*
X71982646Y-151074866D01*
X71982646Y-151074866D02*
X71849312Y-151141533D01*
X71849312Y-151141533D02*
X71782646Y-151208200D01*
X71782646Y-151208200D02*
X71715979Y-151341533D01*
X71715979Y-151341533D02*
X71715979Y-151474866D01*
X71715979Y-151474866D02*
X71782646Y-151674866D01*
X71782646Y-151674866D02*
X72582646Y-152474866D01*
X72582646Y-152474866D02*
X71715979Y-152474866D01*
X70849313Y-151074866D02*
X70715979Y-151074866D01*
X70715979Y-151074866D02*
X70582646Y-151141533D01*
X70582646Y-151141533D02*
X70515979Y-151208200D01*
X70515979Y-151208200D02*
X70449313Y-151341533D01*
X70449313Y-151341533D02*
X70382646Y-151608200D01*
X70382646Y-151608200D02*
X70382646Y-151941533D01*
X70382646Y-151941533D02*
X70449313Y-152208200D01*
X70449313Y-152208200D02*
X70515979Y-152341533D01*
X70515979Y-152341533D02*
X70582646Y-152408200D01*
X70582646Y-152408200D02*
X70715979Y-152474866D01*
X70715979Y-152474866D02*
X70849313Y-152474866D01*
X70849313Y-152474866D02*
X70982646Y-152408200D01*
X70982646Y-152408200D02*
X71049313Y-152341533D01*
X71049313Y-152341533D02*
X71115979Y-152208200D01*
X71115979Y-152208200D02*
X71182646Y-151941533D01*
X71182646Y-151941533D02*
X71182646Y-151608200D01*
X71182646Y-151608200D02*
X71115979Y-151341533D01*
X71115979Y-151341533D02*
X71049313Y-151208200D01*
X71049313Y-151208200D02*
X70982646Y-151141533D01*
X70982646Y-151141533D02*
X70849313Y-151074866D01*
X69849313Y-151208200D02*
X69782646Y-151141533D01*
X69782646Y-151141533D02*
X69649313Y-151074866D01*
X69649313Y-151074866D02*
X69315980Y-151074866D01*
X69315980Y-151074866D02*
X69182646Y-151141533D01*
X69182646Y-151141533D02*
X69115980Y-151208200D01*
X69115980Y-151208200D02*
X69049313Y-151341533D01*
X69049313Y-151341533D02*
X69049313Y-151474866D01*
X69049313Y-151474866D02*
X69115980Y-151674866D01*
X69115980Y-151674866D02*
X69915980Y-152474866D01*
X69915980Y-152474866D02*
X69049313Y-152474866D01*
X68582647Y-151074866D02*
X67715980Y-151074866D01*
X67715980Y-151074866D02*
X68182647Y-151608200D01*
X68182647Y-151608200D02*
X67982647Y-151608200D01*
X67982647Y-151608200D02*
X67849313Y-151674866D01*
X67849313Y-151674866D02*
X67782647Y-151741533D01*
X67782647Y-151741533D02*
X67715980Y-151874866D01*
X67715980Y-151874866D02*
X67715980Y-152208200D01*
X67715980Y-152208200D02*
X67782647Y-152341533D01*
X67782647Y-152341533D02*
X67849313Y-152408200D01*
X67849313Y-152408200D02*
X67982647Y-152474866D01*
X67982647Y-152474866D02*
X68382647Y-152474866D01*
X68382647Y-152474866D02*
X68515980Y-152408200D01*
X68515980Y-152408200D02*
X68582647Y-152341533D01*
X64385866Y-54946779D02*
X64385866Y-55708684D01*
X64766819Y-55327731D02*
X64004914Y-55327731D01*
X64766819Y-56708683D02*
X64766819Y-56137255D01*
X64766819Y-56422969D02*
X63766819Y-56422969D01*
X63766819Y-56422969D02*
X63909676Y-56327731D01*
X63909676Y-56327731D02*
X64004914Y-56232493D01*
X64004914Y-56232493D02*
X64052533Y-56137255D01*
X63766819Y-57042017D02*
X63766819Y-57708683D01*
X63766819Y-57708683D02*
X64766819Y-57280112D01*
X63766819Y-58280112D02*
X63766819Y-58375350D01*
X63766819Y-58375350D02*
X63814438Y-58470588D01*
X63814438Y-58470588D02*
X63862057Y-58518207D01*
X63862057Y-58518207D02*
X63957295Y-58565826D01*
X63957295Y-58565826D02*
X64147771Y-58613445D01*
X64147771Y-58613445D02*
X64385866Y-58613445D01*
X64385866Y-58613445D02*
X64576342Y-58565826D01*
X64576342Y-58565826D02*
X64671580Y-58518207D01*
X64671580Y-58518207D02*
X64719200Y-58470588D01*
X64719200Y-58470588D02*
X64766819Y-58375350D01*
X64766819Y-58375350D02*
X64766819Y-58280112D01*
X64766819Y-58280112D02*
X64719200Y-58184874D01*
X64719200Y-58184874D02*
X64671580Y-58137255D01*
X64671580Y-58137255D02*
X64576342Y-58089636D01*
X64576342Y-58089636D02*
X64385866Y-58042017D01*
X64385866Y-58042017D02*
X64147771Y-58042017D01*
X64147771Y-58042017D02*
X63957295Y-58089636D01*
X63957295Y-58089636D02*
X63862057Y-58137255D01*
X63862057Y-58137255D02*
X63814438Y-58184874D01*
X63814438Y-58184874D02*
X63766819Y-58280112D01*
X63766819Y-58899160D02*
X64766819Y-59232493D01*
X64766819Y-59232493D02*
X63766819Y-59565826D01*
X58772419Y-137013792D02*
X58724800Y-137061411D01*
X58724800Y-137061411D02*
X58677180Y-137204268D01*
X58677180Y-137204268D02*
X58677180Y-137299506D01*
X58677180Y-137299506D02*
X58724800Y-137442363D01*
X58724800Y-137442363D02*
X58820038Y-137537601D01*
X58820038Y-137537601D02*
X58915276Y-137585220D01*
X58915276Y-137585220D02*
X59105752Y-137632839D01*
X59105752Y-137632839D02*
X59248609Y-137632839D01*
X59248609Y-137632839D02*
X59439085Y-137585220D01*
X59439085Y-137585220D02*
X59534323Y-137537601D01*
X59534323Y-137537601D02*
X59629561Y-137442363D01*
X59629561Y-137442363D02*
X59677180Y-137299506D01*
X59677180Y-137299506D02*
X59677180Y-137204268D01*
X59677180Y-137204268D02*
X59629561Y-137061411D01*
X59629561Y-137061411D02*
X59581942Y-137013792D01*
X58677180Y-136109030D02*
X58677180Y-136585220D01*
X58677180Y-136585220D02*
X59677180Y-136585220D01*
X58677180Y-135775696D02*
X59677180Y-135775696D01*
X58677180Y-135204268D02*
X59248609Y-135632839D01*
X59677180Y-135204268D02*
X59105752Y-135775696D01*
X58734438Y-147672588D02*
X58686819Y-147577350D01*
X58686819Y-147577350D02*
X58686819Y-147434493D01*
X58686819Y-147434493D02*
X58734438Y-147291636D01*
X58734438Y-147291636D02*
X58829676Y-147196398D01*
X58829676Y-147196398D02*
X58924914Y-147148779D01*
X58924914Y-147148779D02*
X59115390Y-147101160D01*
X59115390Y-147101160D02*
X59258247Y-147101160D01*
X59258247Y-147101160D02*
X59448723Y-147148779D01*
X59448723Y-147148779D02*
X59543961Y-147196398D01*
X59543961Y-147196398D02*
X59639200Y-147291636D01*
X59639200Y-147291636D02*
X59686819Y-147434493D01*
X59686819Y-147434493D02*
X59686819Y-147529731D01*
X59686819Y-147529731D02*
X59639200Y-147672588D01*
X59639200Y-147672588D02*
X59591580Y-147720207D01*
X59591580Y-147720207D02*
X59258247Y-147720207D01*
X59258247Y-147720207D02*
X59258247Y-147529731D01*
X59686819Y-148148779D02*
X58686819Y-148148779D01*
X58686819Y-148148779D02*
X59686819Y-148720207D01*
X59686819Y-148720207D02*
X58686819Y-148720207D01*
X59686819Y-149196398D02*
X58686819Y-149196398D01*
X58686819Y-149196398D02*
X58686819Y-149434493D01*
X58686819Y-149434493D02*
X58734438Y-149577350D01*
X58734438Y-149577350D02*
X58829676Y-149672588D01*
X58829676Y-149672588D02*
X58924914Y-149720207D01*
X58924914Y-149720207D02*
X59115390Y-149767826D01*
X59115390Y-149767826D02*
X59258247Y-149767826D01*
X59258247Y-149767826D02*
X59448723Y-149720207D01*
X59448723Y-149720207D02*
X59543961Y-149672588D01*
X59543961Y-149672588D02*
X59639200Y-149577350D01*
X59639200Y-149577350D02*
X59686819Y-149434493D01*
X59686819Y-149434493D02*
X59686819Y-149196398D01*
X61147438Y-55470588D02*
X61099819Y-55375350D01*
X61099819Y-55375350D02*
X61099819Y-55232493D01*
X61099819Y-55232493D02*
X61147438Y-55089636D01*
X61147438Y-55089636D02*
X61242676Y-54994398D01*
X61242676Y-54994398D02*
X61337914Y-54946779D01*
X61337914Y-54946779D02*
X61528390Y-54899160D01*
X61528390Y-54899160D02*
X61671247Y-54899160D01*
X61671247Y-54899160D02*
X61861723Y-54946779D01*
X61861723Y-54946779D02*
X61956961Y-54994398D01*
X61956961Y-54994398D02*
X62052200Y-55089636D01*
X62052200Y-55089636D02*
X62099819Y-55232493D01*
X62099819Y-55232493D02*
X62099819Y-55327731D01*
X62099819Y-55327731D02*
X62052200Y-55470588D01*
X62052200Y-55470588D02*
X62004580Y-55518207D01*
X62004580Y-55518207D02*
X61671247Y-55518207D01*
X61671247Y-55518207D02*
X61671247Y-55327731D01*
X62099819Y-55946779D02*
X61099819Y-55946779D01*
X61099819Y-55946779D02*
X62099819Y-56518207D01*
X62099819Y-56518207D02*
X61099819Y-56518207D01*
X62099819Y-56994398D02*
X61099819Y-56994398D01*
X61099819Y-56994398D02*
X61099819Y-57232493D01*
X61099819Y-57232493D02*
X61147438Y-57375350D01*
X61147438Y-57375350D02*
X61242676Y-57470588D01*
X61242676Y-57470588D02*
X61337914Y-57518207D01*
X61337914Y-57518207D02*
X61528390Y-57565826D01*
X61528390Y-57565826D02*
X61671247Y-57565826D01*
X61671247Y-57565826D02*
X61861723Y-57518207D01*
X61861723Y-57518207D02*
X61956961Y-57470588D01*
X61956961Y-57470588D02*
X62052200Y-57375350D01*
X62052200Y-57375350D02*
X62099819Y-57232493D01*
X62099819Y-57232493D02*
X62099819Y-56994398D01*
X64407990Y-137251887D02*
X64360371Y-137109030D01*
X64360371Y-137109030D02*
X64312752Y-137061411D01*
X64312752Y-137061411D02*
X64217514Y-137013792D01*
X64217514Y-137013792D02*
X64074657Y-137013792D01*
X64074657Y-137013792D02*
X63979419Y-137061411D01*
X63979419Y-137061411D02*
X63931800Y-137109030D01*
X63931800Y-137109030D02*
X63884180Y-137204268D01*
X63884180Y-137204268D02*
X63884180Y-137585220D01*
X63884180Y-137585220D02*
X64884180Y-137585220D01*
X64884180Y-137585220D02*
X64884180Y-137251887D01*
X64884180Y-137251887D02*
X64836561Y-137156649D01*
X64836561Y-137156649D02*
X64788942Y-137109030D01*
X64788942Y-137109030D02*
X64693704Y-137061411D01*
X64693704Y-137061411D02*
X64598466Y-137061411D01*
X64598466Y-137061411D02*
X64503228Y-137109030D01*
X64503228Y-137109030D02*
X64455609Y-137156649D01*
X64455609Y-137156649D02*
X64407990Y-137251887D01*
X64407990Y-137251887D02*
X64407990Y-137585220D01*
X63884180Y-136109030D02*
X63884180Y-136585220D01*
X63884180Y-136585220D02*
X64884180Y-136585220D01*
X75005982Y-40162533D02*
X75005982Y-41095866D01*
X75005982Y-40295866D02*
X74939316Y-40229200D01*
X74939316Y-40229200D02*
X74805982Y-40162533D01*
X74805982Y-40162533D02*
X74605982Y-40162533D01*
X74605982Y-40162533D02*
X74472649Y-40229200D01*
X74472649Y-40229200D02*
X74405982Y-40362533D01*
X74405982Y-40362533D02*
X74405982Y-41095866D01*
X73805982Y-41029200D02*
X73672649Y-41095866D01*
X73672649Y-41095866D02*
X73405982Y-41095866D01*
X73405982Y-41095866D02*
X73272649Y-41029200D01*
X73272649Y-41029200D02*
X73205982Y-40895866D01*
X73205982Y-40895866D02*
X73205982Y-40829200D01*
X73205982Y-40829200D02*
X73272649Y-40695866D01*
X73272649Y-40695866D02*
X73405982Y-40629200D01*
X73405982Y-40629200D02*
X73605982Y-40629200D01*
X73605982Y-40629200D02*
X73739315Y-40562533D01*
X73739315Y-40562533D02*
X73805982Y-40429200D01*
X73805982Y-40429200D02*
X73805982Y-40362533D01*
X73805982Y-40362533D02*
X73739315Y-40229200D01*
X73739315Y-40229200D02*
X73605982Y-40162533D01*
X73605982Y-40162533D02*
X73405982Y-40162533D01*
X73405982Y-40162533D02*
X73272649Y-40229200D01*
X72005982Y-41095866D02*
X72005982Y-40362533D01*
X72005982Y-40362533D02*
X72072649Y-40229200D01*
X72072649Y-40229200D02*
X72205982Y-40162533D01*
X72205982Y-40162533D02*
X72472649Y-40162533D01*
X72472649Y-40162533D02*
X72605982Y-40229200D01*
X72005982Y-41029200D02*
X72139316Y-41095866D01*
X72139316Y-41095866D02*
X72472649Y-41095866D01*
X72472649Y-41095866D02*
X72605982Y-41029200D01*
X72605982Y-41029200D02*
X72672649Y-40895866D01*
X72672649Y-40895866D02*
X72672649Y-40762533D01*
X72672649Y-40762533D02*
X72605982Y-40629200D01*
X72605982Y-40629200D02*
X72472649Y-40562533D01*
X72472649Y-40562533D02*
X72139316Y-40562533D01*
X72139316Y-40562533D02*
X72005982Y-40495866D01*
X71539315Y-40162533D02*
X71005982Y-40162533D01*
X71339315Y-41095866D02*
X71339315Y-39895866D01*
X71339315Y-39895866D02*
X71272649Y-39762533D01*
X71272649Y-39762533D02*
X71139315Y-39695866D01*
X71139315Y-39695866D02*
X71005982Y-39695866D01*
X70539315Y-41095866D02*
X70539315Y-40162533D01*
X70539315Y-40429200D02*
X70472649Y-40295866D01*
X70472649Y-40295866D02*
X70405982Y-40229200D01*
X70405982Y-40229200D02*
X70272649Y-40162533D01*
X70272649Y-40162533D02*
X70139315Y-40162533D01*
X69072648Y-41095866D02*
X69072648Y-40362533D01*
X69072648Y-40362533D02*
X69139315Y-40229200D01*
X69139315Y-40229200D02*
X69272648Y-40162533D01*
X69272648Y-40162533D02*
X69539315Y-40162533D01*
X69539315Y-40162533D02*
X69672648Y-40229200D01*
X69072648Y-41029200D02*
X69205982Y-41095866D01*
X69205982Y-41095866D02*
X69539315Y-41095866D01*
X69539315Y-41095866D02*
X69672648Y-41029200D01*
X69672648Y-41029200D02*
X69739315Y-40895866D01*
X69739315Y-40895866D02*
X69739315Y-40762533D01*
X69739315Y-40762533D02*
X69672648Y-40629200D01*
X69672648Y-40629200D02*
X69539315Y-40562533D01*
X69539315Y-40562533D02*
X69205982Y-40562533D01*
X69205982Y-40562533D02*
X69072648Y-40495866D01*
X68405981Y-40162533D02*
X68405981Y-41095866D01*
X68405981Y-40295866D02*
X68339315Y-40229200D01*
X68339315Y-40229200D02*
X68205981Y-40162533D01*
X68205981Y-40162533D02*
X68005981Y-40162533D01*
X68005981Y-40162533D02*
X67872648Y-40229200D01*
X67872648Y-40229200D02*
X67805981Y-40362533D01*
X67805981Y-40362533D02*
X67805981Y-41095866D01*
X67139314Y-40962533D02*
X67072648Y-41029200D01*
X67072648Y-41029200D02*
X67139314Y-41095866D01*
X67139314Y-41095866D02*
X67205981Y-41029200D01*
X67205981Y-41029200D02*
X67139314Y-40962533D01*
X67139314Y-40962533D02*
X67139314Y-41095866D01*
X65872647Y-41029200D02*
X66005981Y-41095866D01*
X66005981Y-41095866D02*
X66272647Y-41095866D01*
X66272647Y-41095866D02*
X66405981Y-41029200D01*
X66405981Y-41029200D02*
X66472647Y-40962533D01*
X66472647Y-40962533D02*
X66539314Y-40829200D01*
X66539314Y-40829200D02*
X66539314Y-40429200D01*
X66539314Y-40429200D02*
X66472647Y-40295866D01*
X66472647Y-40295866D02*
X66405981Y-40229200D01*
X66405981Y-40229200D02*
X66272647Y-40162533D01*
X66272647Y-40162533D02*
X66005981Y-40162533D01*
X66005981Y-40162533D02*
X65872647Y-40229200D01*
X65072647Y-41095866D02*
X65205981Y-41029200D01*
X65205981Y-41029200D02*
X65272647Y-40962533D01*
X65272647Y-40962533D02*
X65339314Y-40829200D01*
X65339314Y-40829200D02*
X65339314Y-40429200D01*
X65339314Y-40429200D02*
X65272647Y-40295866D01*
X65272647Y-40295866D02*
X65205981Y-40229200D01*
X65205981Y-40229200D02*
X65072647Y-40162533D01*
X65072647Y-40162533D02*
X64872647Y-40162533D01*
X64872647Y-40162533D02*
X64739314Y-40229200D01*
X64739314Y-40229200D02*
X64672647Y-40295866D01*
X64672647Y-40295866D02*
X64605981Y-40429200D01*
X64605981Y-40429200D02*
X64605981Y-40829200D01*
X64605981Y-40829200D02*
X64672647Y-40962533D01*
X64672647Y-40962533D02*
X64739314Y-41029200D01*
X64739314Y-41029200D02*
X64872647Y-41095866D01*
X64872647Y-41095866D02*
X65072647Y-41095866D01*
X64005980Y-41095866D02*
X64005980Y-40162533D01*
X64005980Y-40295866D02*
X63939314Y-40229200D01*
X63939314Y-40229200D02*
X63805980Y-40162533D01*
X63805980Y-40162533D02*
X63605980Y-40162533D01*
X63605980Y-40162533D02*
X63472647Y-40229200D01*
X63472647Y-40229200D02*
X63405980Y-40362533D01*
X63405980Y-40362533D02*
X63405980Y-41095866D01*
X63405980Y-40362533D02*
X63339314Y-40229200D01*
X63339314Y-40229200D02*
X63205980Y-40162533D01*
X63205980Y-40162533D02*
X63005980Y-40162533D01*
X63005980Y-40162533D02*
X62872647Y-40229200D01*
X62872647Y-40229200D02*
X62805980Y-40362533D01*
X62805980Y-40362533D02*
X62805980Y-41095866D01*
X56010180Y-45256220D02*
X57010180Y-45256220D01*
X57010180Y-45256220D02*
X57010180Y-45018125D01*
X57010180Y-45018125D02*
X56962561Y-44875268D01*
X56962561Y-44875268D02*
X56867323Y-44780030D01*
X56867323Y-44780030D02*
X56772085Y-44732411D01*
X56772085Y-44732411D02*
X56581609Y-44684792D01*
X56581609Y-44684792D02*
X56438752Y-44684792D01*
X56438752Y-44684792D02*
X56248276Y-44732411D01*
X56248276Y-44732411D02*
X56153038Y-44780030D01*
X56153038Y-44780030D02*
X56057800Y-44875268D01*
X56057800Y-44875268D02*
X56010180Y-45018125D01*
X56010180Y-45018125D02*
X56010180Y-45256220D01*
X57010180Y-44065744D02*
X57010180Y-43875268D01*
X57010180Y-43875268D02*
X56962561Y-43780030D01*
X56962561Y-43780030D02*
X56867323Y-43684792D01*
X56867323Y-43684792D02*
X56676847Y-43637173D01*
X56676847Y-43637173D02*
X56343514Y-43637173D01*
X56343514Y-43637173D02*
X56153038Y-43684792D01*
X56153038Y-43684792D02*
X56057800Y-43780030D01*
X56057800Y-43780030D02*
X56010180Y-43875268D01*
X56010180Y-43875268D02*
X56010180Y-44065744D01*
X56010180Y-44065744D02*
X56057800Y-44160982D01*
X56057800Y-44160982D02*
X56153038Y-44256220D01*
X56153038Y-44256220D02*
X56343514Y-44303839D01*
X56343514Y-44303839D02*
X56676847Y-44303839D01*
X56676847Y-44303839D02*
X56867323Y-44256220D01*
X56867323Y-44256220D02*
X56962561Y-44160982D01*
X56962561Y-44160982D02*
X57010180Y-44065744D01*
X57010180Y-43208601D02*
X56200657Y-43208601D01*
X56200657Y-43208601D02*
X56105419Y-43160982D01*
X56105419Y-43160982D02*
X56057800Y-43113363D01*
X56057800Y-43113363D02*
X56010180Y-43018125D01*
X56010180Y-43018125D02*
X56010180Y-42827649D01*
X56010180Y-42827649D02*
X56057800Y-42732411D01*
X56057800Y-42732411D02*
X56105419Y-42684792D01*
X56105419Y-42684792D02*
X56200657Y-42637173D01*
X56200657Y-42637173D02*
X57010180Y-42637173D01*
X57010180Y-42303839D02*
X57010180Y-41732411D01*
X56010180Y-42018125D02*
X57010180Y-42018125D01*
X61274438Y-147672588D02*
X61226819Y-147577350D01*
X61226819Y-147577350D02*
X61226819Y-147434493D01*
X61226819Y-147434493D02*
X61274438Y-147291636D01*
X61274438Y-147291636D02*
X61369676Y-147196398D01*
X61369676Y-147196398D02*
X61464914Y-147148779D01*
X61464914Y-147148779D02*
X61655390Y-147101160D01*
X61655390Y-147101160D02*
X61798247Y-147101160D01*
X61798247Y-147101160D02*
X61988723Y-147148779D01*
X61988723Y-147148779D02*
X62083961Y-147196398D01*
X62083961Y-147196398D02*
X62179200Y-147291636D01*
X62179200Y-147291636D02*
X62226819Y-147434493D01*
X62226819Y-147434493D02*
X62226819Y-147529731D01*
X62226819Y-147529731D02*
X62179200Y-147672588D01*
X62179200Y-147672588D02*
X62131580Y-147720207D01*
X62131580Y-147720207D02*
X61798247Y-147720207D01*
X61798247Y-147720207D02*
X61798247Y-147529731D01*
X62226819Y-148148779D02*
X61226819Y-148148779D01*
X61226819Y-148148779D02*
X62226819Y-148720207D01*
X62226819Y-148720207D02*
X61226819Y-148720207D01*
X62226819Y-149196398D02*
X61226819Y-149196398D01*
X61226819Y-149196398D02*
X61226819Y-149434493D01*
X61226819Y-149434493D02*
X61274438Y-149577350D01*
X61274438Y-149577350D02*
X61369676Y-149672588D01*
X61369676Y-149672588D02*
X61464914Y-149720207D01*
X61464914Y-149720207D02*
X61655390Y-149767826D01*
X61655390Y-149767826D02*
X61798247Y-149767826D01*
X61798247Y-149767826D02*
X61988723Y-149720207D01*
X61988723Y-149720207D02*
X62083961Y-149672588D01*
X62083961Y-149672588D02*
X62179200Y-149577350D01*
X62179200Y-149577350D02*
X62226819Y-149434493D01*
X62226819Y-149434493D02*
X62226819Y-149196398D01*
X56765866Y-147148779D02*
X56765866Y-147910684D01*
X57146819Y-147529731D02*
X56384914Y-147529731D01*
X57146819Y-148910683D02*
X57146819Y-148339255D01*
X57146819Y-148624969D02*
X56146819Y-148624969D01*
X56146819Y-148624969D02*
X56289676Y-148529731D01*
X56289676Y-148529731D02*
X56384914Y-148434493D01*
X56384914Y-148434493D02*
X56432533Y-148339255D01*
X56242057Y-149291636D02*
X56194438Y-149339255D01*
X56194438Y-149339255D02*
X56146819Y-149434493D01*
X56146819Y-149434493D02*
X56146819Y-149672588D01*
X56146819Y-149672588D02*
X56194438Y-149767826D01*
X56194438Y-149767826D02*
X56242057Y-149815445D01*
X56242057Y-149815445D02*
X56337295Y-149863064D01*
X56337295Y-149863064D02*
X56432533Y-149863064D01*
X56432533Y-149863064D02*
X56575390Y-149815445D01*
X56575390Y-149815445D02*
X57146819Y-149244017D01*
X57146819Y-149244017D02*
X57146819Y-149863064D01*
X56146819Y-150148779D02*
X57146819Y-150482112D01*
X57146819Y-150482112D02*
X56146819Y-150815445D01*
X61217180Y-44780030D02*
X61217180Y-45256220D01*
X61217180Y-45256220D02*
X62217180Y-45256220D01*
X61740990Y-44446696D02*
X61740990Y-44113363D01*
X61217180Y-43970506D02*
X61217180Y-44446696D01*
X61217180Y-44446696D02*
X62217180Y-44446696D01*
X62217180Y-44446696D02*
X62217180Y-43970506D01*
X64407990Y-44922887D02*
X64360371Y-44780030D01*
X64360371Y-44780030D02*
X64312752Y-44732411D01*
X64312752Y-44732411D02*
X64217514Y-44684792D01*
X64217514Y-44684792D02*
X64074657Y-44684792D01*
X64074657Y-44684792D02*
X63979419Y-44732411D01*
X63979419Y-44732411D02*
X63931800Y-44780030D01*
X63931800Y-44780030D02*
X63884180Y-44875268D01*
X63884180Y-44875268D02*
X63884180Y-45256220D01*
X63884180Y-45256220D02*
X64884180Y-45256220D01*
X64884180Y-45256220D02*
X64884180Y-44922887D01*
X64884180Y-44922887D02*
X64836561Y-44827649D01*
X64836561Y-44827649D02*
X64788942Y-44780030D01*
X64788942Y-44780030D02*
X64693704Y-44732411D01*
X64693704Y-44732411D02*
X64598466Y-44732411D01*
X64598466Y-44732411D02*
X64503228Y-44780030D01*
X64503228Y-44780030D02*
X64455609Y-44827649D01*
X64455609Y-44827649D02*
X64407990Y-44922887D01*
X64407990Y-44922887D02*
X64407990Y-45256220D01*
X63884180Y-43780030D02*
X63884180Y-44256220D01*
X63884180Y-44256220D02*
X64884180Y-44256220D01*
X51858342Y-110963255D02*
X52715485Y-110963255D01*
X52715485Y-110963255D02*
X52886914Y-110906112D01*
X52886914Y-110906112D02*
X53001200Y-110791826D01*
X53001200Y-110791826D02*
X53058342Y-110620398D01*
X53058342Y-110620398D02*
X53058342Y-110506112D01*
X53058342Y-112106112D02*
X53058342Y-111534684D01*
X53058342Y-111534684D02*
X51858342Y-111534684D01*
X52944057Y-113191827D02*
X53001200Y-113134684D01*
X53001200Y-113134684D02*
X53058342Y-112963256D01*
X53058342Y-112963256D02*
X53058342Y-112848970D01*
X53058342Y-112848970D02*
X53001200Y-112677541D01*
X53001200Y-112677541D02*
X52886914Y-112563256D01*
X52886914Y-112563256D02*
X52772628Y-112506113D01*
X52772628Y-112506113D02*
X52544057Y-112448970D01*
X52544057Y-112448970D02*
X52372628Y-112448970D01*
X52372628Y-112448970D02*
X52144057Y-112506113D01*
X52144057Y-112506113D02*
X52029771Y-112563256D01*
X52029771Y-112563256D02*
X51915485Y-112677541D01*
X51915485Y-112677541D02*
X51858342Y-112848970D01*
X51858342Y-112848970D02*
X51858342Y-112963256D01*
X51858342Y-112963256D02*
X51915485Y-113134684D01*
X51915485Y-113134684D02*
X51972628Y-113191827D01*
X51858342Y-114048970D02*
X52715485Y-114048970D01*
X52715485Y-114048970D02*
X52886914Y-113991827D01*
X52886914Y-113991827D02*
X53001200Y-113877541D01*
X53001200Y-113877541D02*
X53058342Y-113706113D01*
X53058342Y-113706113D02*
X53058342Y-113591827D01*
X53058342Y-115191827D02*
X53058342Y-114620399D01*
X53058342Y-114620399D02*
X51858342Y-114620399D01*
X52944057Y-116277542D02*
X53001200Y-116220399D01*
X53001200Y-116220399D02*
X53058342Y-116048971D01*
X53058342Y-116048971D02*
X53058342Y-115934685D01*
X53058342Y-115934685D02*
X53001200Y-115763256D01*
X53001200Y-115763256D02*
X52886914Y-115648971D01*
X52886914Y-115648971D02*
X52772628Y-115591828D01*
X52772628Y-115591828D02*
X52544057Y-115534685D01*
X52544057Y-115534685D02*
X52372628Y-115534685D01*
X52372628Y-115534685D02*
X52144057Y-115591828D01*
X52144057Y-115591828D02*
X52029771Y-115648971D01*
X52029771Y-115648971D02*
X51915485Y-115763256D01*
X51915485Y-115763256D02*
X51858342Y-115934685D01*
X51858342Y-115934685D02*
X51858342Y-116048971D01*
X51858342Y-116048971D02*
X51915485Y-116220399D01*
X51915485Y-116220399D02*
X51972628Y-116277542D01*
X51858342Y-117134685D02*
X52715485Y-117134685D01*
X52715485Y-117134685D02*
X52886914Y-117077542D01*
X52886914Y-117077542D02*
X53001200Y-116963256D01*
X53001200Y-116963256D02*
X53058342Y-116791828D01*
X53058342Y-116791828D02*
X53058342Y-116677542D01*
X53058342Y-118277542D02*
X53058342Y-117706114D01*
X53058342Y-117706114D02*
X51858342Y-117706114D01*
X52944057Y-119363257D02*
X53001200Y-119306114D01*
X53001200Y-119306114D02*
X53058342Y-119134686D01*
X53058342Y-119134686D02*
X53058342Y-119020400D01*
X53058342Y-119020400D02*
X53001200Y-118848971D01*
X53001200Y-118848971D02*
X52886914Y-118734686D01*
X52886914Y-118734686D02*
X52772628Y-118677543D01*
X52772628Y-118677543D02*
X52544057Y-118620400D01*
X52544057Y-118620400D02*
X52372628Y-118620400D01*
X52372628Y-118620400D02*
X52144057Y-118677543D01*
X52144057Y-118677543D02*
X52029771Y-118734686D01*
X52029771Y-118734686D02*
X51915485Y-118848971D01*
X51915485Y-118848971D02*
X51858342Y-119020400D01*
X51858342Y-119020400D02*
X51858342Y-119134686D01*
X51858342Y-119134686D02*
X51915485Y-119306114D01*
X51915485Y-119306114D02*
X51972628Y-119363257D01*
X51858342Y-120220400D02*
X52715485Y-120220400D01*
X52715485Y-120220400D02*
X52886914Y-120163257D01*
X52886914Y-120163257D02*
X53001200Y-120048971D01*
X53001200Y-120048971D02*
X53058342Y-119877543D01*
X53058342Y-119877543D02*
X53058342Y-119763257D01*
X53058342Y-121363257D02*
X53058342Y-120791829D01*
X53058342Y-120791829D02*
X51858342Y-120791829D01*
X52944057Y-122448972D02*
X53001200Y-122391829D01*
X53001200Y-122391829D02*
X53058342Y-122220401D01*
X53058342Y-122220401D02*
X53058342Y-122106115D01*
X53058342Y-122106115D02*
X53001200Y-121934686D01*
X53001200Y-121934686D02*
X52886914Y-121820401D01*
X52886914Y-121820401D02*
X52772628Y-121763258D01*
X52772628Y-121763258D02*
X52544057Y-121706115D01*
X52544057Y-121706115D02*
X52372628Y-121706115D01*
X52372628Y-121706115D02*
X52144057Y-121763258D01*
X52144057Y-121763258D02*
X52029771Y-121820401D01*
X52029771Y-121820401D02*
X51915485Y-121934686D01*
X51915485Y-121934686D02*
X51858342Y-122106115D01*
X51858342Y-122106115D02*
X51858342Y-122220401D01*
X51858342Y-122220401D02*
X51915485Y-122391829D01*
X51915485Y-122391829D02*
X51972628Y-122448972D01*
X61217180Y-137109030D02*
X61217180Y-137585220D01*
X61217180Y-137585220D02*
X62217180Y-137585220D01*
X61740990Y-136775696D02*
X61740990Y-136442363D01*
X61217180Y-136299506D02*
X61217180Y-136775696D01*
X61217180Y-136775696D02*
X62217180Y-136775696D01*
X62217180Y-136775696D02*
X62217180Y-136299506D01*
X92770125Y-51309438D02*
X92770125Y-49309438D01*
X92770125Y-50261819D02*
X91627268Y-50261819D01*
X91627268Y-51309438D02*
X91627268Y-49309438D01*
X90674887Y-51309438D02*
X90674887Y-49309438D01*
X88674887Y-49404676D02*
X88865363Y-49309438D01*
X88865363Y-49309438D02*
X89151077Y-49309438D01*
X89151077Y-49309438D02*
X89436792Y-49404676D01*
X89436792Y-49404676D02*
X89627268Y-49595152D01*
X89627268Y-49595152D02*
X89722506Y-49785628D01*
X89722506Y-49785628D02*
X89817744Y-50166580D01*
X89817744Y-50166580D02*
X89817744Y-50452295D01*
X89817744Y-50452295D02*
X89722506Y-50833247D01*
X89722506Y-50833247D02*
X89627268Y-51023723D01*
X89627268Y-51023723D02*
X89436792Y-51214200D01*
X89436792Y-51214200D02*
X89151077Y-51309438D01*
X89151077Y-51309438D02*
X88960601Y-51309438D01*
X88960601Y-51309438D02*
X88674887Y-51214200D01*
X88674887Y-51214200D02*
X88579649Y-51118961D01*
X88579649Y-51118961D02*
X88579649Y-50452295D01*
X88579649Y-50452295D02*
X88960601Y-50452295D01*
X87722506Y-51309438D02*
X87722506Y-49309438D01*
X87722506Y-50261819D02*
X86579649Y-50261819D01*
X86579649Y-51309438D02*
X86579649Y-49309438D01*
X84389172Y-49309438D02*
X83722506Y-51309438D01*
X83722506Y-51309438D02*
X83055839Y-49309438D01*
X82008220Y-49309438D02*
X81627267Y-49309438D01*
X81627267Y-49309438D02*
X81436791Y-49404676D01*
X81436791Y-49404676D02*
X81246315Y-49595152D01*
X81246315Y-49595152D02*
X81151077Y-49976104D01*
X81151077Y-49976104D02*
X81151077Y-50642771D01*
X81151077Y-50642771D02*
X81246315Y-51023723D01*
X81246315Y-51023723D02*
X81436791Y-51214200D01*
X81436791Y-51214200D02*
X81627267Y-51309438D01*
X81627267Y-51309438D02*
X82008220Y-51309438D01*
X82008220Y-51309438D02*
X82198696Y-51214200D01*
X82198696Y-51214200D02*
X82389172Y-51023723D01*
X82389172Y-51023723D02*
X82484410Y-50642771D01*
X82484410Y-50642771D02*
X82484410Y-49976104D01*
X82484410Y-49976104D02*
X82389172Y-49595152D01*
X82389172Y-49595152D02*
X82198696Y-49404676D01*
X82198696Y-49404676D02*
X82008220Y-49309438D01*
X79341553Y-51309438D02*
X80293934Y-51309438D01*
X80293934Y-51309438D02*
X80293934Y-49309438D01*
X78960600Y-49309438D02*
X77817743Y-49309438D01*
X78389172Y-51309438D02*
X78389172Y-49309438D01*
X77246314Y-50738009D02*
X76293933Y-50738009D01*
X77436790Y-51309438D02*
X76770124Y-49309438D01*
X76770124Y-49309438D02*
X76103457Y-51309438D01*
X74389171Y-49404676D02*
X74579647Y-49309438D01*
X74579647Y-49309438D02*
X74865361Y-49309438D01*
X74865361Y-49309438D02*
X75151076Y-49404676D01*
X75151076Y-49404676D02*
X75341552Y-49595152D01*
X75341552Y-49595152D02*
X75436790Y-49785628D01*
X75436790Y-49785628D02*
X75532028Y-50166580D01*
X75532028Y-50166580D02*
X75532028Y-50452295D01*
X75532028Y-50452295D02*
X75436790Y-50833247D01*
X75436790Y-50833247D02*
X75341552Y-51023723D01*
X75341552Y-51023723D02*
X75151076Y-51214200D01*
X75151076Y-51214200D02*
X74865361Y-51309438D01*
X74865361Y-51309438D02*
X74674885Y-51309438D01*
X74674885Y-51309438D02*
X74389171Y-51214200D01*
X74389171Y-51214200D02*
X74293933Y-51118961D01*
X74293933Y-51118961D02*
X74293933Y-50452295D01*
X74293933Y-50452295D02*
X74674885Y-50452295D01*
X73436790Y-50261819D02*
X72770123Y-50261819D01*
X72484409Y-51309438D02*
X73436790Y-51309438D01*
X73436790Y-51309438D02*
X73436790Y-49309438D01*
X73436790Y-49309438D02*
X72484409Y-49309438D01*
X71627266Y-51118961D02*
X71532028Y-51214200D01*
X71532028Y-51214200D02*
X71627266Y-51309438D01*
X71627266Y-51309438D02*
X71722504Y-51214200D01*
X71722504Y-51214200D02*
X71627266Y-51118961D01*
X71627266Y-51118961D02*
X71627266Y-51309438D01*
X71627266Y-50547533D02*
X71722504Y-49404676D01*
X71722504Y-49404676D02*
X71627266Y-49309438D01*
X71627266Y-49309438D02*
X71532028Y-49404676D01*
X71532028Y-49404676D02*
X71627266Y-50547533D01*
X71627266Y-50547533D02*
X71627266Y-49309438D01*
X70674885Y-51118961D02*
X70579647Y-51214200D01*
X70579647Y-51214200D02*
X70674885Y-51309438D01*
X70674885Y-51309438D02*
X70770123Y-51214200D01*
X70770123Y-51214200D02*
X70674885Y-51118961D01*
X70674885Y-51118961D02*
X70674885Y-51309438D01*
X70674885Y-50547533D02*
X70770123Y-49404676D01*
X70770123Y-49404676D02*
X70674885Y-49309438D01*
X70674885Y-49309438D02*
X70579647Y-49404676D01*
X70579647Y-49404676D02*
X70674885Y-50547533D01*
X70674885Y-50547533D02*
X70674885Y-49309438D01*
X58772419Y-44684792D02*
X58724800Y-44732411D01*
X58724800Y-44732411D02*
X58677180Y-44875268D01*
X58677180Y-44875268D02*
X58677180Y-44970506D01*
X58677180Y-44970506D02*
X58724800Y-45113363D01*
X58724800Y-45113363D02*
X58820038Y-45208601D01*
X58820038Y-45208601D02*
X58915276Y-45256220D01*
X58915276Y-45256220D02*
X59105752Y-45303839D01*
X59105752Y-45303839D02*
X59248609Y-45303839D01*
X59248609Y-45303839D02*
X59439085Y-45256220D01*
X59439085Y-45256220D02*
X59534323Y-45208601D01*
X59534323Y-45208601D02*
X59629561Y-45113363D01*
X59629561Y-45113363D02*
X59677180Y-44970506D01*
X59677180Y-44970506D02*
X59677180Y-44875268D01*
X59677180Y-44875268D02*
X59629561Y-44732411D01*
X59629561Y-44732411D02*
X59581942Y-44684792D01*
X58677180Y-43780030D02*
X58677180Y-44256220D01*
X58677180Y-44256220D02*
X59677180Y-44256220D01*
X58677180Y-43446696D02*
X59677180Y-43446696D01*
X58677180Y-42875268D02*
X59248609Y-43303839D01*
X59677180Y-42875268D02*
X59105752Y-43446696D01*
X56638866Y-54946779D02*
X56638866Y-55708684D01*
X57019819Y-55327731D02*
X56257914Y-55327731D01*
X57019819Y-56708683D02*
X57019819Y-56137255D01*
X57019819Y-56422969D02*
X56019819Y-56422969D01*
X56019819Y-56422969D02*
X56162676Y-56327731D01*
X56162676Y-56327731D02*
X56257914Y-56232493D01*
X56257914Y-56232493D02*
X56305533Y-56137255D01*
X56115057Y-57089636D02*
X56067438Y-57137255D01*
X56067438Y-57137255D02*
X56019819Y-57232493D01*
X56019819Y-57232493D02*
X56019819Y-57470588D01*
X56019819Y-57470588D02*
X56067438Y-57565826D01*
X56067438Y-57565826D02*
X56115057Y-57613445D01*
X56115057Y-57613445D02*
X56210295Y-57661064D01*
X56210295Y-57661064D02*
X56305533Y-57661064D01*
X56305533Y-57661064D02*
X56448390Y-57613445D01*
X56448390Y-57613445D02*
X57019819Y-57042017D01*
X57019819Y-57042017D02*
X57019819Y-57661064D01*
X56019819Y-57946779D02*
X57019819Y-58280112D01*
X57019819Y-58280112D02*
X56019819Y-58613445D01*
X56010180Y-137585220D02*
X57010180Y-137585220D01*
X57010180Y-137585220D02*
X57010180Y-137347125D01*
X57010180Y-137347125D02*
X56962561Y-137204268D01*
X56962561Y-137204268D02*
X56867323Y-137109030D01*
X56867323Y-137109030D02*
X56772085Y-137061411D01*
X56772085Y-137061411D02*
X56581609Y-137013792D01*
X56581609Y-137013792D02*
X56438752Y-137013792D01*
X56438752Y-137013792D02*
X56248276Y-137061411D01*
X56248276Y-137061411D02*
X56153038Y-137109030D01*
X56153038Y-137109030D02*
X56057800Y-137204268D01*
X56057800Y-137204268D02*
X56010180Y-137347125D01*
X56010180Y-137347125D02*
X56010180Y-137585220D01*
X56010180Y-136585220D02*
X57010180Y-136585220D01*
X56010180Y-136109030D02*
X57010180Y-136109030D01*
X57010180Y-136109030D02*
X56010180Y-135537602D01*
X56010180Y-135537602D02*
X57010180Y-135537602D01*
X64512866Y-147148779D02*
X64512866Y-147910684D01*
X64893819Y-147529731D02*
X64131914Y-147529731D01*
X64893819Y-148910683D02*
X64893819Y-148339255D01*
X64893819Y-148624969D02*
X63893819Y-148624969D01*
X63893819Y-148624969D02*
X64036676Y-148529731D01*
X64036676Y-148529731D02*
X64131914Y-148434493D01*
X64131914Y-148434493D02*
X64179533Y-148339255D01*
X63893819Y-149244017D02*
X63893819Y-149910683D01*
X63893819Y-149910683D02*
X64893819Y-149482112D01*
X63893819Y-150482112D02*
X63893819Y-150577350D01*
X63893819Y-150577350D02*
X63941438Y-150672588D01*
X63941438Y-150672588D02*
X63989057Y-150720207D01*
X63989057Y-150720207D02*
X64084295Y-150767826D01*
X64084295Y-150767826D02*
X64274771Y-150815445D01*
X64274771Y-150815445D02*
X64512866Y-150815445D01*
X64512866Y-150815445D02*
X64703342Y-150767826D01*
X64703342Y-150767826D02*
X64798580Y-150720207D01*
X64798580Y-150720207D02*
X64846200Y-150672588D01*
X64846200Y-150672588D02*
X64893819Y-150577350D01*
X64893819Y-150577350D02*
X64893819Y-150482112D01*
X64893819Y-150482112D02*
X64846200Y-150386874D01*
X64846200Y-150386874D02*
X64798580Y-150339255D01*
X64798580Y-150339255D02*
X64703342Y-150291636D01*
X64703342Y-150291636D02*
X64512866Y-150244017D01*
X64512866Y-150244017D02*
X64274771Y-150244017D01*
X64274771Y-150244017D02*
X64084295Y-150291636D01*
X64084295Y-150291636D02*
X63989057Y-150339255D01*
X63989057Y-150339255D02*
X63941438Y-150386874D01*
X63941438Y-150386874D02*
X63893819Y-150482112D01*
X63893819Y-151101160D02*
X64893819Y-151434493D01*
X64893819Y-151434493D02*
X63893819Y-151767826D01*
X58607438Y-55470588D02*
X58559819Y-55375350D01*
X58559819Y-55375350D02*
X58559819Y-55232493D01*
X58559819Y-55232493D02*
X58607438Y-55089636D01*
X58607438Y-55089636D02*
X58702676Y-54994398D01*
X58702676Y-54994398D02*
X58797914Y-54946779D01*
X58797914Y-54946779D02*
X58988390Y-54899160D01*
X58988390Y-54899160D02*
X59131247Y-54899160D01*
X59131247Y-54899160D02*
X59321723Y-54946779D01*
X59321723Y-54946779D02*
X59416961Y-54994398D01*
X59416961Y-54994398D02*
X59512200Y-55089636D01*
X59512200Y-55089636D02*
X59559819Y-55232493D01*
X59559819Y-55232493D02*
X59559819Y-55327731D01*
X59559819Y-55327731D02*
X59512200Y-55470588D01*
X59512200Y-55470588D02*
X59464580Y-55518207D01*
X59464580Y-55518207D02*
X59131247Y-55518207D01*
X59131247Y-55518207D02*
X59131247Y-55327731D01*
X59559819Y-55946779D02*
X58559819Y-55946779D01*
X58559819Y-55946779D02*
X59559819Y-56518207D01*
X59559819Y-56518207D02*
X58559819Y-56518207D01*
X59559819Y-56994398D02*
X58559819Y-56994398D01*
X58559819Y-56994398D02*
X58559819Y-57232493D01*
X58559819Y-57232493D02*
X58607438Y-57375350D01*
X58607438Y-57375350D02*
X58702676Y-57470588D01*
X58702676Y-57470588D02*
X58797914Y-57518207D01*
X58797914Y-57518207D02*
X58988390Y-57565826D01*
X58988390Y-57565826D02*
X59131247Y-57565826D01*
X59131247Y-57565826D02*
X59321723Y-57518207D01*
X59321723Y-57518207D02*
X59416961Y-57470588D01*
X59416961Y-57470588D02*
X59512200Y-57375350D01*
X59512200Y-57375350D02*
X59559819Y-57232493D01*
X59559819Y-57232493D02*
X59559819Y-56994398D01*
X99007866Y-80442017D02*
X97607866Y-80442017D01*
X99007866Y-81108684D02*
X97607866Y-81108684D01*
X97607866Y-81108684D02*
X99007866Y-81908684D01*
X99007866Y-81908684D02*
X97607866Y-81908684D01*
X98941200Y-82508684D02*
X99007866Y-82708684D01*
X99007866Y-82708684D02*
X99007866Y-83042018D01*
X99007866Y-83042018D02*
X98941200Y-83175351D01*
X98941200Y-83175351D02*
X98874533Y-83242018D01*
X98874533Y-83242018D02*
X98741200Y-83308684D01*
X98741200Y-83308684D02*
X98607866Y-83308684D01*
X98607866Y-83308684D02*
X98474533Y-83242018D01*
X98474533Y-83242018D02*
X98407866Y-83175351D01*
X98407866Y-83175351D02*
X98341200Y-83042018D01*
X98341200Y-83042018D02*
X98274533Y-82775351D01*
X98274533Y-82775351D02*
X98207866Y-82642018D01*
X98207866Y-82642018D02*
X98141200Y-82575351D01*
X98141200Y-82575351D02*
X98007866Y-82508684D01*
X98007866Y-82508684D02*
X97874533Y-82508684D01*
X97874533Y-82508684D02*
X97741200Y-82575351D01*
X97741200Y-82575351D02*
X97674533Y-82642018D01*
X97674533Y-82642018D02*
X97607866Y-82775351D01*
X97607866Y-82775351D02*
X97607866Y-83108684D01*
X97607866Y-83108684D02*
X97674533Y-83308684D01*
X98474533Y-83908684D02*
X98474533Y-84975351D01*
X99007866Y-86375350D02*
X99007866Y-85575350D01*
X99007866Y-85975350D02*
X97607866Y-85975350D01*
X97607866Y-85975350D02*
X97807866Y-85842017D01*
X97807866Y-85842017D02*
X97941200Y-85708684D01*
X97941200Y-85708684D02*
X98007866Y-85575350D01*
X99007866Y-88775350D02*
X99007866Y-87975350D01*
X99007866Y-88375350D02*
X97607866Y-88375350D01*
X97607866Y-88375350D02*
X97807866Y-88242017D01*
X97807866Y-88242017D02*
X97941200Y-88108684D01*
X97941200Y-88108684D02*
X98007866Y-87975350D01*
X97607866Y-89642017D02*
X97607866Y-89775350D01*
X97607866Y-89775350D02*
X97674533Y-89908683D01*
X97674533Y-89908683D02*
X97741200Y-89975350D01*
X97741200Y-89975350D02*
X97874533Y-90042017D01*
X97874533Y-90042017D02*
X98141200Y-90108683D01*
X98141200Y-90108683D02*
X98474533Y-90108683D01*
X98474533Y-90108683D02*
X98741200Y-90042017D01*
X98741200Y-90042017D02*
X98874533Y-89975350D01*
X98874533Y-89975350D02*
X98941200Y-89908683D01*
X98941200Y-89908683D02*
X99007866Y-89775350D01*
X99007866Y-89775350D02*
X99007866Y-89642017D01*
X99007866Y-89642017D02*
X98941200Y-89508683D01*
X98941200Y-89508683D02*
X98874533Y-89442017D01*
X98874533Y-89442017D02*
X98741200Y-89375350D01*
X98741200Y-89375350D02*
X98474533Y-89308683D01*
X98474533Y-89308683D02*
X98141200Y-89308683D01*
X98141200Y-89308683D02*
X97874533Y-89375350D01*
X97874533Y-89375350D02*
X97741200Y-89442017D01*
X97741200Y-89442017D02*
X97674533Y-89508683D01*
X97674533Y-89508683D02*
X97607866Y-89642017D01*
X99007866Y-90575350D02*
X98074533Y-91308683D01*
X98074533Y-90575350D02*
X99007866Y-91308683D01*
X97607866Y-92442016D02*
X97607866Y-92175349D01*
X97607866Y-92175349D02*
X97674533Y-92042016D01*
X97674533Y-92042016D02*
X97741200Y-91975349D01*
X97741200Y-91975349D02*
X97941200Y-91842016D01*
X97941200Y-91842016D02*
X98207866Y-91775349D01*
X98207866Y-91775349D02*
X98741200Y-91775349D01*
X98741200Y-91775349D02*
X98874533Y-91842016D01*
X98874533Y-91842016D02*
X98941200Y-91908683D01*
X98941200Y-91908683D02*
X99007866Y-92042016D01*
X99007866Y-92042016D02*
X99007866Y-92308683D01*
X99007866Y-92308683D02*
X98941200Y-92442016D01*
X98941200Y-92442016D02*
X98874533Y-92508683D01*
X98874533Y-92508683D02*
X98741200Y-92575349D01*
X98741200Y-92575349D02*
X98407866Y-92575349D01*
X98407866Y-92575349D02*
X98274533Y-92508683D01*
X98274533Y-92508683D02*
X98207866Y-92442016D01*
X98207866Y-92442016D02*
X98141200Y-92308683D01*
X98141200Y-92308683D02*
X98141200Y-92042016D01*
X98141200Y-92042016D02*
X98207866Y-91908683D01*
X98207866Y-91908683D02*
X98274533Y-91842016D01*
X98274533Y-91842016D02*
X98407866Y-91775349D01*
X99007866Y-94242016D02*
X97607866Y-94242016D01*
X97607866Y-94242016D02*
X98607866Y-94708683D01*
X98607866Y-94708683D02*
X97607866Y-95175349D01*
X97607866Y-95175349D02*
X99007866Y-95175349D01*
X99007866Y-96442016D02*
X98274533Y-96442016D01*
X98274533Y-96442016D02*
X98141200Y-96375349D01*
X98141200Y-96375349D02*
X98074533Y-96242016D01*
X98074533Y-96242016D02*
X98074533Y-95975349D01*
X98074533Y-95975349D02*
X98141200Y-95842016D01*
X98941200Y-96442016D02*
X99007866Y-96308683D01*
X99007866Y-96308683D02*
X99007866Y-95975349D01*
X99007866Y-95975349D02*
X98941200Y-95842016D01*
X98941200Y-95842016D02*
X98807866Y-95775349D01*
X98807866Y-95775349D02*
X98674533Y-95775349D01*
X98674533Y-95775349D02*
X98541200Y-95842016D01*
X98541200Y-95842016D02*
X98474533Y-95975349D01*
X98474533Y-95975349D02*
X98474533Y-96308683D01*
X98474533Y-96308683D02*
X98407866Y-96442016D01*
X98074533Y-96908683D02*
X98074533Y-97442016D01*
X97607866Y-97108683D02*
X98807866Y-97108683D01*
X98807866Y-97108683D02*
X98941200Y-97175350D01*
X98941200Y-97175350D02*
X99007866Y-97308683D01*
X99007866Y-97308683D02*
X99007866Y-97442016D01*
X99007866Y-97908683D02*
X98074533Y-97908683D01*
X98341200Y-97908683D02*
X98207866Y-97975350D01*
X98207866Y-97975350D02*
X98141200Y-98042016D01*
X98141200Y-98042016D02*
X98074533Y-98175350D01*
X98074533Y-98175350D02*
X98074533Y-98308683D01*
X99007866Y-98775350D02*
X98074533Y-98775350D01*
X97607866Y-98775350D02*
X97674533Y-98708683D01*
X97674533Y-98708683D02*
X97741200Y-98775350D01*
X97741200Y-98775350D02*
X97674533Y-98842017D01*
X97674533Y-98842017D02*
X97607866Y-98775350D01*
X97607866Y-98775350D02*
X97741200Y-98775350D01*
X99007866Y-99308684D02*
X98074533Y-100042017D01*
X98074533Y-99308684D02*
X99007866Y-100042017D01*
X99007866Y-101642017D02*
X97607866Y-101642017D01*
X97607866Y-101642017D02*
X97607866Y-101975350D01*
X97607866Y-101975350D02*
X97674533Y-102175350D01*
X97674533Y-102175350D02*
X97807866Y-102308684D01*
X97807866Y-102308684D02*
X97941200Y-102375350D01*
X97941200Y-102375350D02*
X98207866Y-102442017D01*
X98207866Y-102442017D02*
X98407866Y-102442017D01*
X98407866Y-102442017D02*
X98674533Y-102375350D01*
X98674533Y-102375350D02*
X98807866Y-102308684D01*
X98807866Y-102308684D02*
X98941200Y-102175350D01*
X98941200Y-102175350D02*
X99007866Y-101975350D01*
X99007866Y-101975350D02*
X99007866Y-101642017D01*
X99007866Y-103042017D02*
X98074533Y-103042017D01*
X97607866Y-103042017D02*
X97674533Y-102975350D01*
X97674533Y-102975350D02*
X97741200Y-103042017D01*
X97741200Y-103042017D02*
X97674533Y-103108684D01*
X97674533Y-103108684D02*
X97607866Y-103042017D01*
X97607866Y-103042017D02*
X97741200Y-103042017D01*
X98941200Y-103642017D02*
X99007866Y-103775351D01*
X99007866Y-103775351D02*
X99007866Y-104042017D01*
X99007866Y-104042017D02*
X98941200Y-104175351D01*
X98941200Y-104175351D02*
X98807866Y-104242017D01*
X98807866Y-104242017D02*
X98741200Y-104242017D01*
X98741200Y-104242017D02*
X98607866Y-104175351D01*
X98607866Y-104175351D02*
X98541200Y-104042017D01*
X98541200Y-104042017D02*
X98541200Y-103842017D01*
X98541200Y-103842017D02*
X98474533Y-103708684D01*
X98474533Y-103708684D02*
X98341200Y-103642017D01*
X98341200Y-103642017D02*
X98274533Y-103642017D01*
X98274533Y-103642017D02*
X98141200Y-103708684D01*
X98141200Y-103708684D02*
X98074533Y-103842017D01*
X98074533Y-103842017D02*
X98074533Y-104042017D01*
X98074533Y-104042017D02*
X98141200Y-104175351D01*
X98074533Y-104842017D02*
X99474533Y-104842017D01*
X98141200Y-104842017D02*
X98074533Y-104975350D01*
X98074533Y-104975350D02*
X98074533Y-105242017D01*
X98074533Y-105242017D02*
X98141200Y-105375350D01*
X98141200Y-105375350D02*
X98207866Y-105442017D01*
X98207866Y-105442017D02*
X98341200Y-105508684D01*
X98341200Y-105508684D02*
X98741200Y-105508684D01*
X98741200Y-105508684D02*
X98874533Y-105442017D01*
X98874533Y-105442017D02*
X98941200Y-105375350D01*
X98941200Y-105375350D02*
X99007866Y-105242017D01*
X99007866Y-105242017D02*
X99007866Y-104975350D01*
X99007866Y-104975350D02*
X98941200Y-104842017D01*
X99007866Y-106308684D02*
X98941200Y-106175351D01*
X98941200Y-106175351D02*
X98807866Y-106108684D01*
X98807866Y-106108684D02*
X97607866Y-106108684D01*
X99007866Y-107442017D02*
X98274533Y-107442017D01*
X98274533Y-107442017D02*
X98141200Y-107375350D01*
X98141200Y-107375350D02*
X98074533Y-107242017D01*
X98074533Y-107242017D02*
X98074533Y-106975350D01*
X98074533Y-106975350D02*
X98141200Y-106842017D01*
X98941200Y-107442017D02*
X99007866Y-107308684D01*
X99007866Y-107308684D02*
X99007866Y-106975350D01*
X99007866Y-106975350D02*
X98941200Y-106842017D01*
X98941200Y-106842017D02*
X98807866Y-106775350D01*
X98807866Y-106775350D02*
X98674533Y-106775350D01*
X98674533Y-106775350D02*
X98541200Y-106842017D01*
X98541200Y-106842017D02*
X98474533Y-106975350D01*
X98474533Y-106975350D02*
X98474533Y-107308684D01*
X98474533Y-107308684D02*
X98407866Y-107442017D01*
X98074533Y-107975351D02*
X99007866Y-108308684D01*
X98074533Y-108642017D02*
X99007866Y-108308684D01*
X99007866Y-108308684D02*
X99341200Y-108175351D01*
X99341200Y-108175351D02*
X99407866Y-108108684D01*
X99407866Y-108108684D02*
X99474533Y-107975351D01*
X57776857Y-96719819D02*
X58110190Y-96243628D01*
X58348285Y-96719819D02*
X58348285Y-95719819D01*
X58348285Y-95719819D02*
X57967333Y-95719819D01*
X57967333Y-95719819D02*
X57872095Y-95767438D01*
X57872095Y-95767438D02*
X57824476Y-95815057D01*
X57824476Y-95815057D02*
X57776857Y-95910295D01*
X57776857Y-95910295D02*
X57776857Y-96053152D01*
X57776857Y-96053152D02*
X57824476Y-96148390D01*
X57824476Y-96148390D02*
X57872095Y-96196009D01*
X57872095Y-96196009D02*
X57967333Y-96243628D01*
X57967333Y-96243628D02*
X58348285Y-96243628D01*
X57395904Y-95815057D02*
X57348285Y-95767438D01*
X57348285Y-95767438D02*
X57253047Y-95719819D01*
X57253047Y-95719819D02*
X57014952Y-95719819D01*
X57014952Y-95719819D02*
X56919714Y-95767438D01*
X56919714Y-95767438D02*
X56872095Y-95815057D01*
X56872095Y-95815057D02*
X56824476Y-95910295D01*
X56824476Y-95910295D02*
X56824476Y-96005533D01*
X56824476Y-96005533D02*
X56872095Y-96148390D01*
X56872095Y-96148390D02*
X57443523Y-96719819D01*
X57443523Y-96719819D02*
X56824476Y-96719819D01*
X55967333Y-96053152D02*
X55967333Y-96719819D01*
X56205428Y-95672200D02*
X56443523Y-96386485D01*
X56443523Y-96386485D02*
X55824476Y-96386485D01*
X94495857Y-99642819D02*
X94829190Y-99166628D01*
X95067285Y-99642819D02*
X95067285Y-98642819D01*
X95067285Y-98642819D02*
X94686333Y-98642819D01*
X94686333Y-98642819D02*
X94591095Y-98690438D01*
X94591095Y-98690438D02*
X94543476Y-98738057D01*
X94543476Y-98738057D02*
X94495857Y-98833295D01*
X94495857Y-98833295D02*
X94495857Y-98976152D01*
X94495857Y-98976152D02*
X94543476Y-99071390D01*
X94543476Y-99071390D02*
X94591095Y-99119009D01*
X94591095Y-99119009D02*
X94686333Y-99166628D01*
X94686333Y-99166628D02*
X95067285Y-99166628D01*
X94162523Y-98642819D02*
X93543476Y-98642819D01*
X93543476Y-98642819D02*
X93876809Y-99023771D01*
X93876809Y-99023771D02*
X93733952Y-99023771D01*
X93733952Y-99023771D02*
X93638714Y-99071390D01*
X93638714Y-99071390D02*
X93591095Y-99119009D01*
X93591095Y-99119009D02*
X93543476Y-99214247D01*
X93543476Y-99214247D02*
X93543476Y-99452342D01*
X93543476Y-99452342D02*
X93591095Y-99547580D01*
X93591095Y-99547580D02*
X93638714Y-99595200D01*
X93638714Y-99595200D02*
X93733952Y-99642819D01*
X93733952Y-99642819D02*
X94019666Y-99642819D01*
X94019666Y-99642819D02*
X94114904Y-99595200D01*
X94114904Y-99595200D02*
X94162523Y-99547580D01*
X92638714Y-98642819D02*
X93114904Y-98642819D01*
X93114904Y-98642819D02*
X93162523Y-99119009D01*
X93162523Y-99119009D02*
X93114904Y-99071390D01*
X93114904Y-99071390D02*
X93019666Y-99023771D01*
X93019666Y-99023771D02*
X92781571Y-99023771D01*
X92781571Y-99023771D02*
X92686333Y-99071390D01*
X92686333Y-99071390D02*
X92638714Y-99119009D01*
X92638714Y-99119009D02*
X92591095Y-99214247D01*
X92591095Y-99214247D02*
X92591095Y-99452342D01*
X92591095Y-99452342D02*
X92638714Y-99547580D01*
X92638714Y-99547580D02*
X92686333Y-99595200D01*
X92686333Y-99595200D02*
X92781571Y-99642819D01*
X92781571Y-99642819D02*
X93019666Y-99642819D01*
X93019666Y-99642819D02*
X93114904Y-99595200D01*
X93114904Y-99595200D02*
X93162523Y-99547580D01*
X90796857Y-129739819D02*
X91130190Y-129263628D01*
X91368285Y-129739819D02*
X91368285Y-128739819D01*
X91368285Y-128739819D02*
X90987333Y-128739819D01*
X90987333Y-128739819D02*
X90892095Y-128787438D01*
X90892095Y-128787438D02*
X90844476Y-128835057D01*
X90844476Y-128835057D02*
X90796857Y-128930295D01*
X90796857Y-128930295D02*
X90796857Y-129073152D01*
X90796857Y-129073152D02*
X90844476Y-129168390D01*
X90844476Y-129168390D02*
X90892095Y-129216009D01*
X90892095Y-129216009D02*
X90987333Y-129263628D01*
X90987333Y-129263628D02*
X91368285Y-129263628D01*
X89892095Y-128739819D02*
X90368285Y-128739819D01*
X90368285Y-128739819D02*
X90415904Y-129216009D01*
X90415904Y-129216009D02*
X90368285Y-129168390D01*
X90368285Y-129168390D02*
X90273047Y-129120771D01*
X90273047Y-129120771D02*
X90034952Y-129120771D01*
X90034952Y-129120771D02*
X89939714Y-129168390D01*
X89939714Y-129168390D02*
X89892095Y-129216009D01*
X89892095Y-129216009D02*
X89844476Y-129311247D01*
X89844476Y-129311247D02*
X89844476Y-129549342D01*
X89844476Y-129549342D02*
X89892095Y-129644580D01*
X89892095Y-129644580D02*
X89939714Y-129692200D01*
X89939714Y-129692200D02*
X90034952Y-129739819D01*
X90034952Y-129739819D02*
X90273047Y-129739819D01*
X90273047Y-129739819D02*
X90368285Y-129692200D01*
X90368285Y-129692200D02*
X90415904Y-129644580D01*
X89463523Y-128835057D02*
X89415904Y-128787438D01*
X89415904Y-128787438D02*
X89320666Y-128739819D01*
X89320666Y-128739819D02*
X89082571Y-128739819D01*
X89082571Y-128739819D02*
X88987333Y-128787438D01*
X88987333Y-128787438D02*
X88939714Y-128835057D01*
X88939714Y-128835057D02*
X88892095Y-128930295D01*
X88892095Y-128930295D02*
X88892095Y-129025533D01*
X88892095Y-129025533D02*
X88939714Y-129168390D01*
X88939714Y-129168390D02*
X89511142Y-129739819D01*
X89511142Y-129739819D02*
X88892095Y-129739819D01*
X65555666Y-71954819D02*
X65888999Y-71478628D01*
X66127094Y-71954819D02*
X66127094Y-70954819D01*
X66127094Y-70954819D02*
X65746142Y-70954819D01*
X65746142Y-70954819D02*
X65650904Y-71002438D01*
X65650904Y-71002438D02*
X65603285Y-71050057D01*
X65603285Y-71050057D02*
X65555666Y-71145295D01*
X65555666Y-71145295D02*
X65555666Y-71288152D01*
X65555666Y-71288152D02*
X65603285Y-71383390D01*
X65603285Y-71383390D02*
X65650904Y-71431009D01*
X65650904Y-71431009D02*
X65746142Y-71478628D01*
X65746142Y-71478628D02*
X66127094Y-71478628D01*
X65222332Y-70954819D02*
X64555666Y-70954819D01*
X64555666Y-70954819D02*
X64984237Y-71954819D01*
X73810666Y-71954819D02*
X74143999Y-71478628D01*
X74382094Y-71954819D02*
X74382094Y-70954819D01*
X74382094Y-70954819D02*
X74001142Y-70954819D01*
X74001142Y-70954819D02*
X73905904Y-71002438D01*
X73905904Y-71002438D02*
X73858285Y-71050057D01*
X73858285Y-71050057D02*
X73810666Y-71145295D01*
X73810666Y-71145295D02*
X73810666Y-71288152D01*
X73810666Y-71288152D02*
X73858285Y-71383390D01*
X73858285Y-71383390D02*
X73905904Y-71431009D01*
X73905904Y-71431009D02*
X74001142Y-71478628D01*
X74001142Y-71478628D02*
X74382094Y-71478628D01*
X73239237Y-71383390D02*
X73334475Y-71335771D01*
X73334475Y-71335771D02*
X73382094Y-71288152D01*
X73382094Y-71288152D02*
X73429713Y-71192914D01*
X73429713Y-71192914D02*
X73429713Y-71145295D01*
X73429713Y-71145295D02*
X73382094Y-71050057D01*
X73382094Y-71050057D02*
X73334475Y-71002438D01*
X73334475Y-71002438D02*
X73239237Y-70954819D01*
X73239237Y-70954819D02*
X73048761Y-70954819D01*
X73048761Y-70954819D02*
X72953523Y-71002438D01*
X72953523Y-71002438D02*
X72905904Y-71050057D01*
X72905904Y-71050057D02*
X72858285Y-71145295D01*
X72858285Y-71145295D02*
X72858285Y-71192914D01*
X72858285Y-71192914D02*
X72905904Y-71288152D01*
X72905904Y-71288152D02*
X72953523Y-71335771D01*
X72953523Y-71335771D02*
X73048761Y-71383390D01*
X73048761Y-71383390D02*
X73239237Y-71383390D01*
X73239237Y-71383390D02*
X73334475Y-71431009D01*
X73334475Y-71431009D02*
X73382094Y-71478628D01*
X73382094Y-71478628D02*
X73429713Y-71573866D01*
X73429713Y-71573866D02*
X73429713Y-71764342D01*
X73429713Y-71764342D02*
X73382094Y-71859580D01*
X73382094Y-71859580D02*
X73334475Y-71907200D01*
X73334475Y-71907200D02*
X73239237Y-71954819D01*
X73239237Y-71954819D02*
X73048761Y-71954819D01*
X73048761Y-71954819D02*
X72953523Y-71907200D01*
X72953523Y-71907200D02*
X72905904Y-71859580D01*
X72905904Y-71859580D02*
X72858285Y-71764342D01*
X72858285Y-71764342D02*
X72858285Y-71573866D01*
X72858285Y-71573866D02*
X72905904Y-71478628D01*
X72905904Y-71478628D02*
X72953523Y-71431009D01*
X72953523Y-71431009D02*
X73048761Y-71383390D01*
X90796857Y-113229819D02*
X91130190Y-112753628D01*
X91368285Y-113229819D02*
X91368285Y-112229819D01*
X91368285Y-112229819D02*
X90987333Y-112229819D01*
X90987333Y-112229819D02*
X90892095Y-112277438D01*
X90892095Y-112277438D02*
X90844476Y-112325057D01*
X90844476Y-112325057D02*
X90796857Y-112420295D01*
X90796857Y-112420295D02*
X90796857Y-112563152D01*
X90796857Y-112563152D02*
X90844476Y-112658390D01*
X90844476Y-112658390D02*
X90892095Y-112706009D01*
X90892095Y-112706009D02*
X90987333Y-112753628D01*
X90987333Y-112753628D02*
X91368285Y-112753628D01*
X89939714Y-112563152D02*
X89939714Y-113229819D01*
X90177809Y-112182200D02*
X90415904Y-112896485D01*
X90415904Y-112896485D02*
X89796857Y-112896485D01*
X89225428Y-112229819D02*
X89130190Y-112229819D01*
X89130190Y-112229819D02*
X89034952Y-112277438D01*
X89034952Y-112277438D02*
X88987333Y-112325057D01*
X88987333Y-112325057D02*
X88939714Y-112420295D01*
X88939714Y-112420295D02*
X88892095Y-112610771D01*
X88892095Y-112610771D02*
X88892095Y-112848866D01*
X88892095Y-112848866D02*
X88939714Y-113039342D01*
X88939714Y-113039342D02*
X88987333Y-113134580D01*
X88987333Y-113134580D02*
X89034952Y-113182200D01*
X89034952Y-113182200D02*
X89130190Y-113229819D01*
X89130190Y-113229819D02*
X89225428Y-113229819D01*
X89225428Y-113229819D02*
X89320666Y-113182200D01*
X89320666Y-113182200D02*
X89368285Y-113134580D01*
X89368285Y-113134580D02*
X89415904Y-113039342D01*
X89415904Y-113039342D02*
X89463523Y-112848866D01*
X89463523Y-112848866D02*
X89463523Y-112610771D01*
X89463523Y-112610771D02*
X89415904Y-112420295D01*
X89415904Y-112420295D02*
X89368285Y-112325057D01*
X89368285Y-112325057D02*
X89320666Y-112277438D01*
X89320666Y-112277438D02*
X89225428Y-112229819D01*
X66031857Y-80209819D02*
X66365190Y-79733628D01*
X66603285Y-80209819D02*
X66603285Y-79209819D01*
X66603285Y-79209819D02*
X66222333Y-79209819D01*
X66222333Y-79209819D02*
X66127095Y-79257438D01*
X66127095Y-79257438D02*
X66079476Y-79305057D01*
X66079476Y-79305057D02*
X66031857Y-79400295D01*
X66031857Y-79400295D02*
X66031857Y-79543152D01*
X66031857Y-79543152D02*
X66079476Y-79638390D01*
X66079476Y-79638390D02*
X66127095Y-79686009D01*
X66127095Y-79686009D02*
X66222333Y-79733628D01*
X66222333Y-79733628D02*
X66603285Y-79733628D01*
X65079476Y-80209819D02*
X65650904Y-80209819D01*
X65365190Y-80209819D02*
X65365190Y-79209819D01*
X65365190Y-79209819D02*
X65460428Y-79352676D01*
X65460428Y-79352676D02*
X65555666Y-79447914D01*
X65555666Y-79447914D02*
X65650904Y-79495533D01*
X64746142Y-79209819D02*
X64127095Y-79209819D01*
X64127095Y-79209819D02*
X64460428Y-79590771D01*
X64460428Y-79590771D02*
X64317571Y-79590771D01*
X64317571Y-79590771D02*
X64222333Y-79638390D01*
X64222333Y-79638390D02*
X64174714Y-79686009D01*
X64174714Y-79686009D02*
X64127095Y-79781247D01*
X64127095Y-79781247D02*
X64127095Y-80019342D01*
X64127095Y-80019342D02*
X64174714Y-80114580D01*
X64174714Y-80114580D02*
X64222333Y-80162200D01*
X64222333Y-80162200D02*
X64317571Y-80209819D01*
X64317571Y-80209819D02*
X64603285Y-80209819D01*
X64603285Y-80209819D02*
X64698523Y-80162200D01*
X64698523Y-80162200D02*
X64746142Y-80114580D01*
X57776857Y-129739819D02*
X58110190Y-129263628D01*
X58348285Y-129739819D02*
X58348285Y-128739819D01*
X58348285Y-128739819D02*
X57967333Y-128739819D01*
X57967333Y-128739819D02*
X57872095Y-128787438D01*
X57872095Y-128787438D02*
X57824476Y-128835057D01*
X57824476Y-128835057D02*
X57776857Y-128930295D01*
X57776857Y-128930295D02*
X57776857Y-129073152D01*
X57776857Y-129073152D02*
X57824476Y-129168390D01*
X57824476Y-129168390D02*
X57872095Y-129216009D01*
X57872095Y-129216009D02*
X57967333Y-129263628D01*
X57967333Y-129263628D02*
X58348285Y-129263628D01*
X56919714Y-129073152D02*
X56919714Y-129739819D01*
X57157809Y-128692200D02*
X57395904Y-129406485D01*
X57395904Y-129406485D02*
X56776857Y-129406485D01*
X56253047Y-129168390D02*
X56348285Y-129120771D01*
X56348285Y-129120771D02*
X56395904Y-129073152D01*
X56395904Y-129073152D02*
X56443523Y-128977914D01*
X56443523Y-128977914D02*
X56443523Y-128930295D01*
X56443523Y-128930295D02*
X56395904Y-128835057D01*
X56395904Y-128835057D02*
X56348285Y-128787438D01*
X56348285Y-128787438D02*
X56253047Y-128739819D01*
X56253047Y-128739819D02*
X56062571Y-128739819D01*
X56062571Y-128739819D02*
X55967333Y-128787438D01*
X55967333Y-128787438D02*
X55919714Y-128835057D01*
X55919714Y-128835057D02*
X55872095Y-128930295D01*
X55872095Y-128930295D02*
X55872095Y-128977914D01*
X55872095Y-128977914D02*
X55919714Y-129073152D01*
X55919714Y-129073152D02*
X55967333Y-129120771D01*
X55967333Y-129120771D02*
X56062571Y-129168390D01*
X56062571Y-129168390D02*
X56253047Y-129168390D01*
X56253047Y-129168390D02*
X56348285Y-129216009D01*
X56348285Y-129216009D02*
X56395904Y-129263628D01*
X56395904Y-129263628D02*
X56443523Y-129358866D01*
X56443523Y-129358866D02*
X56443523Y-129549342D01*
X56443523Y-129549342D02*
X56395904Y-129644580D01*
X56395904Y-129644580D02*
X56348285Y-129692200D01*
X56348285Y-129692200D02*
X56253047Y-129739819D01*
X56253047Y-129739819D02*
X56062571Y-129739819D01*
X56062571Y-129739819D02*
X55967333Y-129692200D01*
X55967333Y-129692200D02*
X55919714Y-129644580D01*
X55919714Y-129644580D02*
X55872095Y-129549342D01*
X55872095Y-129549342D02*
X55872095Y-129358866D01*
X55872095Y-129358866D02*
X55919714Y-129263628D01*
X55919714Y-129263628D02*
X55967333Y-129216009D01*
X55967333Y-129216009D02*
X56062571Y-129168390D01*
X66031857Y-129739819D02*
X66365190Y-129263628D01*
X66603285Y-129739819D02*
X66603285Y-128739819D01*
X66603285Y-128739819D02*
X66222333Y-128739819D01*
X66222333Y-128739819D02*
X66127095Y-128787438D01*
X66127095Y-128787438D02*
X66079476Y-128835057D01*
X66079476Y-128835057D02*
X66031857Y-128930295D01*
X66031857Y-128930295D02*
X66031857Y-129073152D01*
X66031857Y-129073152D02*
X66079476Y-129168390D01*
X66079476Y-129168390D02*
X66127095Y-129216009D01*
X66127095Y-129216009D02*
X66222333Y-129263628D01*
X66222333Y-129263628D02*
X66603285Y-129263628D01*
X65174714Y-129073152D02*
X65174714Y-129739819D01*
X65412809Y-128692200D02*
X65650904Y-129406485D01*
X65650904Y-129406485D02*
X65031857Y-129406485D01*
X64603285Y-129739819D02*
X64412809Y-129739819D01*
X64412809Y-129739819D02*
X64317571Y-129692200D01*
X64317571Y-129692200D02*
X64269952Y-129644580D01*
X64269952Y-129644580D02*
X64174714Y-129501723D01*
X64174714Y-129501723D02*
X64127095Y-129311247D01*
X64127095Y-129311247D02*
X64127095Y-128930295D01*
X64127095Y-128930295D02*
X64174714Y-128835057D01*
X64174714Y-128835057D02*
X64222333Y-128787438D01*
X64222333Y-128787438D02*
X64317571Y-128739819D01*
X64317571Y-128739819D02*
X64508047Y-128739819D01*
X64508047Y-128739819D02*
X64603285Y-128787438D01*
X64603285Y-128787438D02*
X64650904Y-128835057D01*
X64650904Y-128835057D02*
X64698523Y-128930295D01*
X64698523Y-128930295D02*
X64698523Y-129168390D01*
X64698523Y-129168390D02*
X64650904Y-129263628D01*
X64650904Y-129263628D02*
X64603285Y-129311247D01*
X64603285Y-129311247D02*
X64508047Y-129358866D01*
X64508047Y-129358866D02*
X64317571Y-129358866D01*
X64317571Y-129358866D02*
X64222333Y-129311247D01*
X64222333Y-129311247D02*
X64174714Y-129263628D01*
X64174714Y-129263628D02*
X64127095Y-129168390D01*
X94622857Y-107897819D02*
X94956190Y-107421628D01*
X95194285Y-107897819D02*
X95194285Y-106897819D01*
X95194285Y-106897819D02*
X94813333Y-106897819D01*
X94813333Y-106897819D02*
X94718095Y-106945438D01*
X94718095Y-106945438D02*
X94670476Y-106993057D01*
X94670476Y-106993057D02*
X94622857Y-107088295D01*
X94622857Y-107088295D02*
X94622857Y-107231152D01*
X94622857Y-107231152D02*
X94670476Y-107326390D01*
X94670476Y-107326390D02*
X94718095Y-107374009D01*
X94718095Y-107374009D02*
X94813333Y-107421628D01*
X94813333Y-107421628D02*
X95194285Y-107421628D01*
X93765714Y-107231152D02*
X93765714Y-107897819D01*
X94003809Y-106850200D02*
X94241904Y-107564485D01*
X94241904Y-107564485D02*
X93622857Y-107564485D01*
X92718095Y-107897819D02*
X93289523Y-107897819D01*
X93003809Y-107897819D02*
X93003809Y-106897819D01*
X93003809Y-106897819D02*
X93099047Y-107040676D01*
X93099047Y-107040676D02*
X93194285Y-107135914D01*
X93194285Y-107135914D02*
X93289523Y-107183533D01*
X83838166Y-144983580D02*
X83885785Y-145031200D01*
X83885785Y-145031200D02*
X84028642Y-145078819D01*
X84028642Y-145078819D02*
X84123880Y-145078819D01*
X84123880Y-145078819D02*
X84266737Y-145031200D01*
X84266737Y-145031200D02*
X84361975Y-144935961D01*
X84361975Y-144935961D02*
X84409594Y-144840723D01*
X84409594Y-144840723D02*
X84457213Y-144650247D01*
X84457213Y-144650247D02*
X84457213Y-144507390D01*
X84457213Y-144507390D02*
X84409594Y-144316914D01*
X84409594Y-144316914D02*
X84361975Y-144221676D01*
X84361975Y-144221676D02*
X84266737Y-144126438D01*
X84266737Y-144126438D02*
X84123880Y-144078819D01*
X84123880Y-144078819D02*
X84028642Y-144078819D01*
X84028642Y-144078819D02*
X83885785Y-144126438D01*
X83885785Y-144126438D02*
X83838166Y-144174057D01*
X82885785Y-145078819D02*
X83457213Y-145078819D01*
X83171499Y-145078819D02*
X83171499Y-144078819D01*
X83171499Y-144078819D02*
X83266737Y-144221676D01*
X83266737Y-144221676D02*
X83361975Y-144316914D01*
X83361975Y-144316914D02*
X83457213Y-144364533D01*
X85219119Y-148438819D02*
X85790547Y-148438819D01*
X85504833Y-148438819D02*
X85504833Y-147438819D01*
X85504833Y-147438819D02*
X85600071Y-147581676D01*
X85600071Y-147581676D02*
X85695309Y-147676914D01*
X85695309Y-147676914D02*
X85790547Y-147724533D01*
X84600071Y-147438819D02*
X84504833Y-147438819D01*
X84504833Y-147438819D02*
X84409595Y-147486438D01*
X84409595Y-147486438D02*
X84361976Y-147534057D01*
X84361976Y-147534057D02*
X84314357Y-147629295D01*
X84314357Y-147629295D02*
X84266738Y-147819771D01*
X84266738Y-147819771D02*
X84266738Y-148057866D01*
X84266738Y-148057866D02*
X84314357Y-148248342D01*
X84314357Y-148248342D02*
X84361976Y-148343580D01*
X84361976Y-148343580D02*
X84409595Y-148391200D01*
X84409595Y-148391200D02*
X84504833Y-148438819D01*
X84504833Y-148438819D02*
X84600071Y-148438819D01*
X84600071Y-148438819D02*
X84695309Y-148391200D01*
X84695309Y-148391200D02*
X84742928Y-148343580D01*
X84742928Y-148343580D02*
X84790547Y-148248342D01*
X84790547Y-148248342D02*
X84838166Y-148057866D01*
X84838166Y-148057866D02*
X84838166Y-147819771D01*
X84838166Y-147819771D02*
X84790547Y-147629295D01*
X84790547Y-147629295D02*
X84742928Y-147534057D01*
X84742928Y-147534057D02*
X84695309Y-147486438D01*
X84695309Y-147486438D02*
X84600071Y-147438819D01*
X83647690Y-147438819D02*
X83552452Y-147438819D01*
X83552452Y-147438819D02*
X83457214Y-147486438D01*
X83457214Y-147486438D02*
X83409595Y-147534057D01*
X83409595Y-147534057D02*
X83361976Y-147629295D01*
X83361976Y-147629295D02*
X83314357Y-147819771D01*
X83314357Y-147819771D02*
X83314357Y-148057866D01*
X83314357Y-148057866D02*
X83361976Y-148248342D01*
X83361976Y-148248342D02*
X83409595Y-148343580D01*
X83409595Y-148343580D02*
X83457214Y-148391200D01*
X83457214Y-148391200D02*
X83552452Y-148438819D01*
X83552452Y-148438819D02*
X83647690Y-148438819D01*
X83647690Y-148438819D02*
X83742928Y-148391200D01*
X83742928Y-148391200D02*
X83790547Y-148343580D01*
X83790547Y-148343580D02*
X83838166Y-148248342D01*
X83838166Y-148248342D02*
X83885785Y-148057866D01*
X83885785Y-148057866D02*
X83885785Y-147819771D01*
X83885785Y-147819771D02*
X83838166Y-147629295D01*
X83838166Y-147629295D02*
X83790547Y-147534057D01*
X83790547Y-147534057D02*
X83742928Y-147486438D01*
X83742928Y-147486438D02*
X83647690Y-147438819D01*
X82885785Y-147772152D02*
X82885785Y-148438819D01*
X82885785Y-147867390D02*
X82838166Y-147819771D01*
X82838166Y-147819771D02*
X82742928Y-147772152D01*
X82742928Y-147772152D02*
X82600071Y-147772152D01*
X82600071Y-147772152D02*
X82504833Y-147819771D01*
X82504833Y-147819771D02*
X82457214Y-147915009D01*
X82457214Y-147915009D02*
X82457214Y-148438819D01*
X81647690Y-147915009D02*
X81981023Y-147915009D01*
X81981023Y-148438819D02*
X81981023Y-147438819D01*
X81981023Y-147438819D02*
X81504833Y-147438819D01*
X57776857Y-80209819D02*
X58110190Y-79733628D01*
X58348285Y-80209819D02*
X58348285Y-79209819D01*
X58348285Y-79209819D02*
X57967333Y-79209819D01*
X57967333Y-79209819D02*
X57872095Y-79257438D01*
X57872095Y-79257438D02*
X57824476Y-79305057D01*
X57824476Y-79305057D02*
X57776857Y-79400295D01*
X57776857Y-79400295D02*
X57776857Y-79543152D01*
X57776857Y-79543152D02*
X57824476Y-79638390D01*
X57824476Y-79638390D02*
X57872095Y-79686009D01*
X57872095Y-79686009D02*
X57967333Y-79733628D01*
X57967333Y-79733628D02*
X58348285Y-79733628D01*
X56824476Y-80209819D02*
X57395904Y-80209819D01*
X57110190Y-80209819D02*
X57110190Y-79209819D01*
X57110190Y-79209819D02*
X57205428Y-79352676D01*
X57205428Y-79352676D02*
X57300666Y-79447914D01*
X57300666Y-79447914D02*
X57395904Y-79495533D01*
X56443523Y-79305057D02*
X56395904Y-79257438D01*
X56395904Y-79257438D02*
X56300666Y-79209819D01*
X56300666Y-79209819D02*
X56062571Y-79209819D01*
X56062571Y-79209819D02*
X55967333Y-79257438D01*
X55967333Y-79257438D02*
X55919714Y-79305057D01*
X55919714Y-79305057D02*
X55872095Y-79400295D01*
X55872095Y-79400295D02*
X55872095Y-79495533D01*
X55872095Y-79495533D02*
X55919714Y-79638390D01*
X55919714Y-79638390D02*
X56491142Y-80209819D01*
X56491142Y-80209819D02*
X55872095Y-80209819D01*
X57300666Y-71954819D02*
X57633999Y-71478628D01*
X57872094Y-71954819D02*
X57872094Y-70954819D01*
X57872094Y-70954819D02*
X57491142Y-70954819D01*
X57491142Y-70954819D02*
X57395904Y-71002438D01*
X57395904Y-71002438D02*
X57348285Y-71050057D01*
X57348285Y-71050057D02*
X57300666Y-71145295D01*
X57300666Y-71145295D02*
X57300666Y-71288152D01*
X57300666Y-71288152D02*
X57348285Y-71383390D01*
X57348285Y-71383390D02*
X57395904Y-71431009D01*
X57395904Y-71431009D02*
X57491142Y-71478628D01*
X57491142Y-71478628D02*
X57872094Y-71478628D01*
X56443523Y-70954819D02*
X56633999Y-70954819D01*
X56633999Y-70954819D02*
X56729237Y-71002438D01*
X56729237Y-71002438D02*
X56776856Y-71050057D01*
X56776856Y-71050057D02*
X56872094Y-71192914D01*
X56872094Y-71192914D02*
X56919713Y-71383390D01*
X56919713Y-71383390D02*
X56919713Y-71764342D01*
X56919713Y-71764342D02*
X56872094Y-71859580D01*
X56872094Y-71859580D02*
X56824475Y-71907200D01*
X56824475Y-71907200D02*
X56729237Y-71954819D01*
X56729237Y-71954819D02*
X56538761Y-71954819D01*
X56538761Y-71954819D02*
X56443523Y-71907200D01*
X56443523Y-71907200D02*
X56395904Y-71859580D01*
X56395904Y-71859580D02*
X56348285Y-71764342D01*
X56348285Y-71764342D02*
X56348285Y-71526247D01*
X56348285Y-71526247D02*
X56395904Y-71431009D01*
X56395904Y-71431009D02*
X56443523Y-71383390D01*
X56443523Y-71383390D02*
X56538761Y-71335771D01*
X56538761Y-71335771D02*
X56729237Y-71335771D01*
X56729237Y-71335771D02*
X56824475Y-71383390D01*
X56824475Y-71383390D02*
X56872094Y-71431009D01*
X56872094Y-71431009D02*
X56919713Y-71526247D01*
X94496857Y-91509819D02*
X94830190Y-91033628D01*
X95068285Y-91509819D02*
X95068285Y-90509819D01*
X95068285Y-90509819D02*
X94687333Y-90509819D01*
X94687333Y-90509819D02*
X94592095Y-90557438D01*
X94592095Y-90557438D02*
X94544476Y-90605057D01*
X94544476Y-90605057D02*
X94496857Y-90700295D01*
X94496857Y-90700295D02*
X94496857Y-90843152D01*
X94496857Y-90843152D02*
X94544476Y-90938390D01*
X94544476Y-90938390D02*
X94592095Y-90986009D01*
X94592095Y-90986009D02*
X94687333Y-91033628D01*
X94687333Y-91033628D02*
X95068285Y-91033628D01*
X94115904Y-90605057D02*
X94068285Y-90557438D01*
X94068285Y-90557438D02*
X93973047Y-90509819D01*
X93973047Y-90509819D02*
X93734952Y-90509819D01*
X93734952Y-90509819D02*
X93639714Y-90557438D01*
X93639714Y-90557438D02*
X93592095Y-90605057D01*
X93592095Y-90605057D02*
X93544476Y-90700295D01*
X93544476Y-90700295D02*
X93544476Y-90795533D01*
X93544476Y-90795533D02*
X93592095Y-90938390D01*
X93592095Y-90938390D02*
X94163523Y-91509819D01*
X94163523Y-91509819D02*
X93544476Y-91509819D01*
X93068285Y-91509819D02*
X92877809Y-91509819D01*
X92877809Y-91509819D02*
X92782571Y-91462200D01*
X92782571Y-91462200D02*
X92734952Y-91414580D01*
X92734952Y-91414580D02*
X92639714Y-91271723D01*
X92639714Y-91271723D02*
X92592095Y-91081247D01*
X92592095Y-91081247D02*
X92592095Y-90700295D01*
X92592095Y-90700295D02*
X92639714Y-90605057D01*
X92639714Y-90605057D02*
X92687333Y-90557438D01*
X92687333Y-90557438D02*
X92782571Y-90509819D01*
X92782571Y-90509819D02*
X92973047Y-90509819D01*
X92973047Y-90509819D02*
X93068285Y-90557438D01*
X93068285Y-90557438D02*
X93115904Y-90605057D01*
X93115904Y-90605057D02*
X93163523Y-90700295D01*
X93163523Y-90700295D02*
X93163523Y-90938390D01*
X93163523Y-90938390D02*
X93115904Y-91033628D01*
X93115904Y-91033628D02*
X93068285Y-91081247D01*
X93068285Y-91081247D02*
X92973047Y-91128866D01*
X92973047Y-91128866D02*
X92782571Y-91128866D01*
X92782571Y-91128866D02*
X92687333Y-91081247D01*
X92687333Y-91081247D02*
X92639714Y-91033628D01*
X92639714Y-91033628D02*
X92592095Y-90938390D01*
X74286857Y-137994819D02*
X74620190Y-137518628D01*
X74858285Y-137994819D02*
X74858285Y-136994819D01*
X74858285Y-136994819D02*
X74477333Y-136994819D01*
X74477333Y-136994819D02*
X74382095Y-137042438D01*
X74382095Y-137042438D02*
X74334476Y-137090057D01*
X74334476Y-137090057D02*
X74286857Y-137185295D01*
X74286857Y-137185295D02*
X74286857Y-137328152D01*
X74286857Y-137328152D02*
X74334476Y-137423390D01*
X74334476Y-137423390D02*
X74382095Y-137471009D01*
X74382095Y-137471009D02*
X74477333Y-137518628D01*
X74477333Y-137518628D02*
X74858285Y-137518628D01*
X73382095Y-136994819D02*
X73858285Y-136994819D01*
X73858285Y-136994819D02*
X73905904Y-137471009D01*
X73905904Y-137471009D02*
X73858285Y-137423390D01*
X73858285Y-137423390D02*
X73763047Y-137375771D01*
X73763047Y-137375771D02*
X73524952Y-137375771D01*
X73524952Y-137375771D02*
X73429714Y-137423390D01*
X73429714Y-137423390D02*
X73382095Y-137471009D01*
X73382095Y-137471009D02*
X73334476Y-137566247D01*
X73334476Y-137566247D02*
X73334476Y-137804342D01*
X73334476Y-137804342D02*
X73382095Y-137899580D01*
X73382095Y-137899580D02*
X73429714Y-137947200D01*
X73429714Y-137947200D02*
X73524952Y-137994819D01*
X73524952Y-137994819D02*
X73763047Y-137994819D01*
X73763047Y-137994819D02*
X73858285Y-137947200D01*
X73858285Y-137947200D02*
X73905904Y-137899580D01*
X72477333Y-136994819D02*
X72667809Y-136994819D01*
X72667809Y-136994819D02*
X72763047Y-137042438D01*
X72763047Y-137042438D02*
X72810666Y-137090057D01*
X72810666Y-137090057D02*
X72905904Y-137232914D01*
X72905904Y-137232914D02*
X72953523Y-137423390D01*
X72953523Y-137423390D02*
X72953523Y-137804342D01*
X72953523Y-137804342D02*
X72905904Y-137899580D01*
X72905904Y-137899580D02*
X72858285Y-137947200D01*
X72858285Y-137947200D02*
X72763047Y-137994819D01*
X72763047Y-137994819D02*
X72572571Y-137994819D01*
X72572571Y-137994819D02*
X72477333Y-137947200D01*
X72477333Y-137947200D02*
X72429714Y-137899580D01*
X72429714Y-137899580D02*
X72382095Y-137804342D01*
X72382095Y-137804342D02*
X72382095Y-137566247D01*
X72382095Y-137566247D02*
X72429714Y-137471009D01*
X72429714Y-137471009D02*
X72477333Y-137423390D01*
X72477333Y-137423390D02*
X72572571Y-137375771D01*
X72572571Y-137375771D02*
X72763047Y-137375771D01*
X72763047Y-137375771D02*
X72858285Y-137423390D01*
X72858285Y-137423390D02*
X72905904Y-137471009D01*
X72905904Y-137471009D02*
X72953523Y-137566247D01*
X63142857Y-132027819D02*
X63476190Y-131551628D01*
X63714285Y-132027819D02*
X63714285Y-131027819D01*
X63714285Y-131027819D02*
X63333333Y-131027819D01*
X63333333Y-131027819D02*
X63238095Y-131075438D01*
X63238095Y-131075438D02*
X63190476Y-131123057D01*
X63190476Y-131123057D02*
X63142857Y-131218295D01*
X63142857Y-131218295D02*
X63142857Y-131361152D01*
X63142857Y-131361152D02*
X63190476Y-131456390D01*
X63190476Y-131456390D02*
X63238095Y-131504009D01*
X63238095Y-131504009D02*
X63333333Y-131551628D01*
X63333333Y-131551628D02*
X63714285Y-131551628D01*
X62238095Y-131027819D02*
X62714285Y-131027819D01*
X62714285Y-131027819D02*
X62761904Y-131504009D01*
X62761904Y-131504009D02*
X62714285Y-131456390D01*
X62714285Y-131456390D02*
X62619047Y-131408771D01*
X62619047Y-131408771D02*
X62380952Y-131408771D01*
X62380952Y-131408771D02*
X62285714Y-131456390D01*
X62285714Y-131456390D02*
X62238095Y-131504009D01*
X62238095Y-131504009D02*
X62190476Y-131599247D01*
X62190476Y-131599247D02*
X62190476Y-131837342D01*
X62190476Y-131837342D02*
X62238095Y-131932580D01*
X62238095Y-131932580D02*
X62285714Y-131980200D01*
X62285714Y-131980200D02*
X62380952Y-132027819D01*
X62380952Y-132027819D02*
X62619047Y-132027819D01*
X62619047Y-132027819D02*
X62714285Y-131980200D01*
X62714285Y-131980200D02*
X62761904Y-131932580D01*
X61285714Y-131027819D02*
X61761904Y-131027819D01*
X61761904Y-131027819D02*
X61809523Y-131504009D01*
X61809523Y-131504009D02*
X61761904Y-131456390D01*
X61761904Y-131456390D02*
X61666666Y-131408771D01*
X61666666Y-131408771D02*
X61428571Y-131408771D01*
X61428571Y-131408771D02*
X61333333Y-131456390D01*
X61333333Y-131456390D02*
X61285714Y-131504009D01*
X61285714Y-131504009D02*
X61238095Y-131599247D01*
X61238095Y-131599247D02*
X61238095Y-131837342D01*
X61238095Y-131837342D02*
X61285714Y-131932580D01*
X61285714Y-131932580D02*
X61333333Y-131980200D01*
X61333333Y-131980200D02*
X61428571Y-132027819D01*
X61428571Y-132027819D02*
X61666666Y-132027819D01*
X61666666Y-132027819D02*
X61761904Y-131980200D01*
X61761904Y-131980200D02*
X61809523Y-131932580D01*
X82541857Y-137994819D02*
X82875190Y-137518628D01*
X83113285Y-137994819D02*
X83113285Y-136994819D01*
X83113285Y-136994819D02*
X82732333Y-136994819D01*
X82732333Y-136994819D02*
X82637095Y-137042438D01*
X82637095Y-137042438D02*
X82589476Y-137090057D01*
X82589476Y-137090057D02*
X82541857Y-137185295D01*
X82541857Y-137185295D02*
X82541857Y-137328152D01*
X82541857Y-137328152D02*
X82589476Y-137423390D01*
X82589476Y-137423390D02*
X82637095Y-137471009D01*
X82637095Y-137471009D02*
X82732333Y-137518628D01*
X82732333Y-137518628D02*
X83113285Y-137518628D01*
X81637095Y-136994819D02*
X82113285Y-136994819D01*
X82113285Y-136994819D02*
X82160904Y-137471009D01*
X82160904Y-137471009D02*
X82113285Y-137423390D01*
X82113285Y-137423390D02*
X82018047Y-137375771D01*
X82018047Y-137375771D02*
X81779952Y-137375771D01*
X81779952Y-137375771D02*
X81684714Y-137423390D01*
X81684714Y-137423390D02*
X81637095Y-137471009D01*
X81637095Y-137471009D02*
X81589476Y-137566247D01*
X81589476Y-137566247D02*
X81589476Y-137804342D01*
X81589476Y-137804342D02*
X81637095Y-137899580D01*
X81637095Y-137899580D02*
X81684714Y-137947200D01*
X81684714Y-137947200D02*
X81779952Y-137994819D01*
X81779952Y-137994819D02*
X82018047Y-137994819D01*
X82018047Y-137994819D02*
X82113285Y-137947200D01*
X82113285Y-137947200D02*
X82160904Y-137899580D01*
X81256142Y-136994819D02*
X80589476Y-136994819D01*
X80589476Y-136994819D02*
X81018047Y-137994819D01*
X57776857Y-88464819D02*
X58110190Y-87988628D01*
X58348285Y-88464819D02*
X58348285Y-87464819D01*
X58348285Y-87464819D02*
X57967333Y-87464819D01*
X57967333Y-87464819D02*
X57872095Y-87512438D01*
X57872095Y-87512438D02*
X57824476Y-87560057D01*
X57824476Y-87560057D02*
X57776857Y-87655295D01*
X57776857Y-87655295D02*
X57776857Y-87798152D01*
X57776857Y-87798152D02*
X57824476Y-87893390D01*
X57824476Y-87893390D02*
X57872095Y-87941009D01*
X57872095Y-87941009D02*
X57967333Y-87988628D01*
X57967333Y-87988628D02*
X58348285Y-87988628D01*
X56824476Y-88464819D02*
X57395904Y-88464819D01*
X57110190Y-88464819D02*
X57110190Y-87464819D01*
X57110190Y-87464819D02*
X57205428Y-87607676D01*
X57205428Y-87607676D02*
X57300666Y-87702914D01*
X57300666Y-87702914D02*
X57395904Y-87750533D01*
X56253047Y-87893390D02*
X56348285Y-87845771D01*
X56348285Y-87845771D02*
X56395904Y-87798152D01*
X56395904Y-87798152D02*
X56443523Y-87702914D01*
X56443523Y-87702914D02*
X56443523Y-87655295D01*
X56443523Y-87655295D02*
X56395904Y-87560057D01*
X56395904Y-87560057D02*
X56348285Y-87512438D01*
X56348285Y-87512438D02*
X56253047Y-87464819D01*
X56253047Y-87464819D02*
X56062571Y-87464819D01*
X56062571Y-87464819D02*
X55967333Y-87512438D01*
X55967333Y-87512438D02*
X55919714Y-87560057D01*
X55919714Y-87560057D02*
X55872095Y-87655295D01*
X55872095Y-87655295D02*
X55872095Y-87702914D01*
X55872095Y-87702914D02*
X55919714Y-87798152D01*
X55919714Y-87798152D02*
X55967333Y-87845771D01*
X55967333Y-87845771D02*
X56062571Y-87893390D01*
X56062571Y-87893390D02*
X56253047Y-87893390D01*
X56253047Y-87893390D02*
X56348285Y-87941009D01*
X56348285Y-87941009D02*
X56395904Y-87988628D01*
X56395904Y-87988628D02*
X56443523Y-88083866D01*
X56443523Y-88083866D02*
X56443523Y-88274342D01*
X56443523Y-88274342D02*
X56395904Y-88369580D01*
X56395904Y-88369580D02*
X56348285Y-88417200D01*
X56348285Y-88417200D02*
X56253047Y-88464819D01*
X56253047Y-88464819D02*
X56062571Y-88464819D01*
X56062571Y-88464819D02*
X55967333Y-88417200D01*
X55967333Y-88417200D02*
X55919714Y-88369580D01*
X55919714Y-88369580D02*
X55872095Y-88274342D01*
X55872095Y-88274342D02*
X55872095Y-88083866D01*
X55872095Y-88083866D02*
X55919714Y-87988628D01*
X55919714Y-87988628D02*
X55967333Y-87941009D01*
X55967333Y-87941009D02*
X56062571Y-87893390D01*
X94115666Y-58362819D02*
X94448999Y-57886628D01*
X94687094Y-58362819D02*
X94687094Y-57362819D01*
X94687094Y-57362819D02*
X94306142Y-57362819D01*
X94306142Y-57362819D02*
X94210904Y-57410438D01*
X94210904Y-57410438D02*
X94163285Y-57458057D01*
X94163285Y-57458057D02*
X94115666Y-57553295D01*
X94115666Y-57553295D02*
X94115666Y-57696152D01*
X94115666Y-57696152D02*
X94163285Y-57791390D01*
X94163285Y-57791390D02*
X94210904Y-57839009D01*
X94210904Y-57839009D02*
X94306142Y-57886628D01*
X94306142Y-57886628D02*
X94687094Y-57886628D01*
X93210904Y-57362819D02*
X93687094Y-57362819D01*
X93687094Y-57362819D02*
X93734713Y-57839009D01*
X93734713Y-57839009D02*
X93687094Y-57791390D01*
X93687094Y-57791390D02*
X93591856Y-57743771D01*
X93591856Y-57743771D02*
X93353761Y-57743771D01*
X93353761Y-57743771D02*
X93258523Y-57791390D01*
X93258523Y-57791390D02*
X93210904Y-57839009D01*
X93210904Y-57839009D02*
X93163285Y-57934247D01*
X93163285Y-57934247D02*
X93163285Y-58172342D01*
X93163285Y-58172342D02*
X93210904Y-58267580D01*
X93210904Y-58267580D02*
X93258523Y-58315200D01*
X93258523Y-58315200D02*
X93353761Y-58362819D01*
X93353761Y-58362819D02*
X93591856Y-58362819D01*
X93591856Y-58362819D02*
X93687094Y-58315200D01*
X93687094Y-58315200D02*
X93734713Y-58267580D01*
X82541857Y-96719819D02*
X82875190Y-96243628D01*
X83113285Y-96719819D02*
X83113285Y-95719819D01*
X83113285Y-95719819D02*
X82732333Y-95719819D01*
X82732333Y-95719819D02*
X82637095Y-95767438D01*
X82637095Y-95767438D02*
X82589476Y-95815057D01*
X82589476Y-95815057D02*
X82541857Y-95910295D01*
X82541857Y-95910295D02*
X82541857Y-96053152D01*
X82541857Y-96053152D02*
X82589476Y-96148390D01*
X82589476Y-96148390D02*
X82637095Y-96196009D01*
X82637095Y-96196009D02*
X82732333Y-96243628D01*
X82732333Y-96243628D02*
X83113285Y-96243628D01*
X82160904Y-95815057D02*
X82113285Y-95767438D01*
X82113285Y-95767438D02*
X82018047Y-95719819D01*
X82018047Y-95719819D02*
X81779952Y-95719819D01*
X81779952Y-95719819D02*
X81684714Y-95767438D01*
X81684714Y-95767438D02*
X81637095Y-95815057D01*
X81637095Y-95815057D02*
X81589476Y-95910295D01*
X81589476Y-95910295D02*
X81589476Y-96005533D01*
X81589476Y-96005533D02*
X81637095Y-96148390D01*
X81637095Y-96148390D02*
X82208523Y-96719819D01*
X82208523Y-96719819D02*
X81589476Y-96719819D01*
X81256142Y-95719819D02*
X80589476Y-95719819D01*
X80589476Y-95719819D02*
X81018047Y-96719819D01*
X90796857Y-104974819D02*
X91130190Y-104498628D01*
X91368285Y-104974819D02*
X91368285Y-103974819D01*
X91368285Y-103974819D02*
X90987333Y-103974819D01*
X90987333Y-103974819D02*
X90892095Y-104022438D01*
X90892095Y-104022438D02*
X90844476Y-104070057D01*
X90844476Y-104070057D02*
X90796857Y-104165295D01*
X90796857Y-104165295D02*
X90796857Y-104308152D01*
X90796857Y-104308152D02*
X90844476Y-104403390D01*
X90844476Y-104403390D02*
X90892095Y-104451009D01*
X90892095Y-104451009D02*
X90987333Y-104498628D01*
X90987333Y-104498628D02*
X91368285Y-104498628D01*
X90463523Y-103974819D02*
X89844476Y-103974819D01*
X89844476Y-103974819D02*
X90177809Y-104355771D01*
X90177809Y-104355771D02*
X90034952Y-104355771D01*
X90034952Y-104355771D02*
X89939714Y-104403390D01*
X89939714Y-104403390D02*
X89892095Y-104451009D01*
X89892095Y-104451009D02*
X89844476Y-104546247D01*
X89844476Y-104546247D02*
X89844476Y-104784342D01*
X89844476Y-104784342D02*
X89892095Y-104879580D01*
X89892095Y-104879580D02*
X89939714Y-104927200D01*
X89939714Y-104927200D02*
X90034952Y-104974819D01*
X90034952Y-104974819D02*
X90320666Y-104974819D01*
X90320666Y-104974819D02*
X90415904Y-104927200D01*
X90415904Y-104927200D02*
X90463523Y-104879580D01*
X88987333Y-104308152D02*
X88987333Y-104974819D01*
X89225428Y-103927200D02*
X89463523Y-104641485D01*
X89463523Y-104641485D02*
X88844476Y-104641485D01*
X94638857Y-124407819D02*
X94972190Y-123931628D01*
X95210285Y-124407819D02*
X95210285Y-123407819D01*
X95210285Y-123407819D02*
X94829333Y-123407819D01*
X94829333Y-123407819D02*
X94734095Y-123455438D01*
X94734095Y-123455438D02*
X94686476Y-123503057D01*
X94686476Y-123503057D02*
X94638857Y-123598295D01*
X94638857Y-123598295D02*
X94638857Y-123741152D01*
X94638857Y-123741152D02*
X94686476Y-123836390D01*
X94686476Y-123836390D02*
X94734095Y-123884009D01*
X94734095Y-123884009D02*
X94829333Y-123931628D01*
X94829333Y-123931628D02*
X95210285Y-123931628D01*
X93734095Y-123407819D02*
X94210285Y-123407819D01*
X94210285Y-123407819D02*
X94257904Y-123884009D01*
X94257904Y-123884009D02*
X94210285Y-123836390D01*
X94210285Y-123836390D02*
X94115047Y-123788771D01*
X94115047Y-123788771D02*
X93876952Y-123788771D01*
X93876952Y-123788771D02*
X93781714Y-123836390D01*
X93781714Y-123836390D02*
X93734095Y-123884009D01*
X93734095Y-123884009D02*
X93686476Y-123979247D01*
X93686476Y-123979247D02*
X93686476Y-124217342D01*
X93686476Y-124217342D02*
X93734095Y-124312580D01*
X93734095Y-124312580D02*
X93781714Y-124360200D01*
X93781714Y-124360200D02*
X93876952Y-124407819D01*
X93876952Y-124407819D02*
X94115047Y-124407819D01*
X94115047Y-124407819D02*
X94210285Y-124360200D01*
X94210285Y-124360200D02*
X94257904Y-124312580D01*
X93353142Y-123407819D02*
X92734095Y-123407819D01*
X92734095Y-123407819D02*
X93067428Y-123788771D01*
X93067428Y-123788771D02*
X92924571Y-123788771D01*
X92924571Y-123788771D02*
X92829333Y-123836390D01*
X92829333Y-123836390D02*
X92781714Y-123884009D01*
X92781714Y-123884009D02*
X92734095Y-123979247D01*
X92734095Y-123979247D02*
X92734095Y-124217342D01*
X92734095Y-124217342D02*
X92781714Y-124312580D01*
X92781714Y-124312580D02*
X92829333Y-124360200D01*
X92829333Y-124360200D02*
X92924571Y-124407819D01*
X92924571Y-124407819D02*
X93210285Y-124407819D01*
X93210285Y-124407819D02*
X93305523Y-124360200D01*
X93305523Y-124360200D02*
X93353142Y-124312580D01*
X94718857Y-74999819D02*
X95052190Y-74523628D01*
X95290285Y-74999819D02*
X95290285Y-73999819D01*
X95290285Y-73999819D02*
X94909333Y-73999819D01*
X94909333Y-73999819D02*
X94814095Y-74047438D01*
X94814095Y-74047438D02*
X94766476Y-74095057D01*
X94766476Y-74095057D02*
X94718857Y-74190295D01*
X94718857Y-74190295D02*
X94718857Y-74333152D01*
X94718857Y-74333152D02*
X94766476Y-74428390D01*
X94766476Y-74428390D02*
X94814095Y-74476009D01*
X94814095Y-74476009D02*
X94909333Y-74523628D01*
X94909333Y-74523628D02*
X95290285Y-74523628D01*
X93766476Y-74999819D02*
X94337904Y-74999819D01*
X94052190Y-74999819D02*
X94052190Y-73999819D01*
X94052190Y-73999819D02*
X94147428Y-74142676D01*
X94147428Y-74142676D02*
X94242666Y-74237914D01*
X94242666Y-74237914D02*
X94337904Y-74285533D01*
X93433142Y-73999819D02*
X92766476Y-73999819D01*
X92766476Y-73999819D02*
X93195047Y-74999819D01*
X66031857Y-113229819D02*
X66365190Y-112753628D01*
X66603285Y-113229819D02*
X66603285Y-112229819D01*
X66603285Y-112229819D02*
X66222333Y-112229819D01*
X66222333Y-112229819D02*
X66127095Y-112277438D01*
X66127095Y-112277438D02*
X66079476Y-112325057D01*
X66079476Y-112325057D02*
X66031857Y-112420295D01*
X66031857Y-112420295D02*
X66031857Y-112563152D01*
X66031857Y-112563152D02*
X66079476Y-112658390D01*
X66079476Y-112658390D02*
X66127095Y-112706009D01*
X66127095Y-112706009D02*
X66222333Y-112753628D01*
X66222333Y-112753628D02*
X66603285Y-112753628D01*
X65698523Y-112229819D02*
X65079476Y-112229819D01*
X65079476Y-112229819D02*
X65412809Y-112610771D01*
X65412809Y-112610771D02*
X65269952Y-112610771D01*
X65269952Y-112610771D02*
X65174714Y-112658390D01*
X65174714Y-112658390D02*
X65127095Y-112706009D01*
X65127095Y-112706009D02*
X65079476Y-112801247D01*
X65079476Y-112801247D02*
X65079476Y-113039342D01*
X65079476Y-113039342D02*
X65127095Y-113134580D01*
X65127095Y-113134580D02*
X65174714Y-113182200D01*
X65174714Y-113182200D02*
X65269952Y-113229819D01*
X65269952Y-113229819D02*
X65555666Y-113229819D01*
X65555666Y-113229819D02*
X65650904Y-113182200D01*
X65650904Y-113182200D02*
X65698523Y-113134580D01*
X64746142Y-112229819D02*
X64079476Y-112229819D01*
X64079476Y-112229819D02*
X64508047Y-113229819D01*
X82541857Y-104974819D02*
X82875190Y-104498628D01*
X83113285Y-104974819D02*
X83113285Y-103974819D01*
X83113285Y-103974819D02*
X82732333Y-103974819D01*
X82732333Y-103974819D02*
X82637095Y-104022438D01*
X82637095Y-104022438D02*
X82589476Y-104070057D01*
X82589476Y-104070057D02*
X82541857Y-104165295D01*
X82541857Y-104165295D02*
X82541857Y-104308152D01*
X82541857Y-104308152D02*
X82589476Y-104403390D01*
X82589476Y-104403390D02*
X82637095Y-104451009D01*
X82637095Y-104451009D02*
X82732333Y-104498628D01*
X82732333Y-104498628D02*
X83113285Y-104498628D01*
X82208523Y-103974819D02*
X81589476Y-103974819D01*
X81589476Y-103974819D02*
X81922809Y-104355771D01*
X81922809Y-104355771D02*
X81779952Y-104355771D01*
X81779952Y-104355771D02*
X81684714Y-104403390D01*
X81684714Y-104403390D02*
X81637095Y-104451009D01*
X81637095Y-104451009D02*
X81589476Y-104546247D01*
X81589476Y-104546247D02*
X81589476Y-104784342D01*
X81589476Y-104784342D02*
X81637095Y-104879580D01*
X81637095Y-104879580D02*
X81684714Y-104927200D01*
X81684714Y-104927200D02*
X81779952Y-104974819D01*
X81779952Y-104974819D02*
X82065666Y-104974819D01*
X82065666Y-104974819D02*
X82160904Y-104927200D01*
X82160904Y-104927200D02*
X82208523Y-104879580D01*
X81256142Y-103974819D02*
X80637095Y-103974819D01*
X80637095Y-103974819D02*
X80970428Y-104355771D01*
X80970428Y-104355771D02*
X80827571Y-104355771D01*
X80827571Y-104355771D02*
X80732333Y-104403390D01*
X80732333Y-104403390D02*
X80684714Y-104451009D01*
X80684714Y-104451009D02*
X80637095Y-104546247D01*
X80637095Y-104546247D02*
X80637095Y-104784342D01*
X80637095Y-104784342D02*
X80684714Y-104879580D01*
X80684714Y-104879580D02*
X80732333Y-104927200D01*
X80732333Y-104927200D02*
X80827571Y-104974819D01*
X80827571Y-104974819D02*
X81113285Y-104974819D01*
X81113285Y-104974819D02*
X81208523Y-104927200D01*
X81208523Y-104927200D02*
X81256142Y-104879580D01*
X66031857Y-121484819D02*
X66365190Y-121008628D01*
X66603285Y-121484819D02*
X66603285Y-120484819D01*
X66603285Y-120484819D02*
X66222333Y-120484819D01*
X66222333Y-120484819D02*
X66127095Y-120532438D01*
X66127095Y-120532438D02*
X66079476Y-120580057D01*
X66079476Y-120580057D02*
X66031857Y-120675295D01*
X66031857Y-120675295D02*
X66031857Y-120818152D01*
X66031857Y-120818152D02*
X66079476Y-120913390D01*
X66079476Y-120913390D02*
X66127095Y-120961009D01*
X66127095Y-120961009D02*
X66222333Y-121008628D01*
X66222333Y-121008628D02*
X66603285Y-121008628D01*
X65174714Y-120818152D02*
X65174714Y-121484819D01*
X65412809Y-120437200D02*
X65650904Y-121151485D01*
X65650904Y-121151485D02*
X65031857Y-121151485D01*
X64746142Y-120484819D02*
X64127095Y-120484819D01*
X64127095Y-120484819D02*
X64460428Y-120865771D01*
X64460428Y-120865771D02*
X64317571Y-120865771D01*
X64317571Y-120865771D02*
X64222333Y-120913390D01*
X64222333Y-120913390D02*
X64174714Y-120961009D01*
X64174714Y-120961009D02*
X64127095Y-121056247D01*
X64127095Y-121056247D02*
X64127095Y-121294342D01*
X64127095Y-121294342D02*
X64174714Y-121389580D01*
X64174714Y-121389580D02*
X64222333Y-121437200D01*
X64222333Y-121437200D02*
X64317571Y-121484819D01*
X64317571Y-121484819D02*
X64603285Y-121484819D01*
X64603285Y-121484819D02*
X64698523Y-121437200D01*
X64698523Y-121437200D02*
X64746142Y-121389580D01*
X82065666Y-63699819D02*
X82398999Y-63223628D01*
X82637094Y-63699819D02*
X82637094Y-62699819D01*
X82637094Y-62699819D02*
X82256142Y-62699819D01*
X82256142Y-62699819D02*
X82160904Y-62747438D01*
X82160904Y-62747438D02*
X82113285Y-62795057D01*
X82113285Y-62795057D02*
X82065666Y-62890295D01*
X82065666Y-62890295D02*
X82065666Y-63033152D01*
X82065666Y-63033152D02*
X82113285Y-63128390D01*
X82113285Y-63128390D02*
X82160904Y-63176009D01*
X82160904Y-63176009D02*
X82256142Y-63223628D01*
X82256142Y-63223628D02*
X82637094Y-63223628D01*
X81732332Y-62699819D02*
X81113285Y-62699819D01*
X81113285Y-62699819D02*
X81446618Y-63080771D01*
X81446618Y-63080771D02*
X81303761Y-63080771D01*
X81303761Y-63080771D02*
X81208523Y-63128390D01*
X81208523Y-63128390D02*
X81160904Y-63176009D01*
X81160904Y-63176009D02*
X81113285Y-63271247D01*
X81113285Y-63271247D02*
X81113285Y-63509342D01*
X81113285Y-63509342D02*
X81160904Y-63604580D01*
X81160904Y-63604580D02*
X81208523Y-63652200D01*
X81208523Y-63652200D02*
X81303761Y-63699819D01*
X81303761Y-63699819D02*
X81589475Y-63699819D01*
X81589475Y-63699819D02*
X81684713Y-63652200D01*
X81684713Y-63652200D02*
X81732332Y-63604580D01*
X66031857Y-88464819D02*
X66365190Y-87988628D01*
X66603285Y-88464819D02*
X66603285Y-87464819D01*
X66603285Y-87464819D02*
X66222333Y-87464819D01*
X66222333Y-87464819D02*
X66127095Y-87512438D01*
X66127095Y-87512438D02*
X66079476Y-87560057D01*
X66079476Y-87560057D02*
X66031857Y-87655295D01*
X66031857Y-87655295D02*
X66031857Y-87798152D01*
X66031857Y-87798152D02*
X66079476Y-87893390D01*
X66079476Y-87893390D02*
X66127095Y-87941009D01*
X66127095Y-87941009D02*
X66222333Y-87988628D01*
X66222333Y-87988628D02*
X66603285Y-87988628D01*
X65079476Y-88464819D02*
X65650904Y-88464819D01*
X65365190Y-88464819D02*
X65365190Y-87464819D01*
X65365190Y-87464819D02*
X65460428Y-87607676D01*
X65460428Y-87607676D02*
X65555666Y-87702914D01*
X65555666Y-87702914D02*
X65650904Y-87750533D01*
X64603285Y-88464819D02*
X64412809Y-88464819D01*
X64412809Y-88464819D02*
X64317571Y-88417200D01*
X64317571Y-88417200D02*
X64269952Y-88369580D01*
X64269952Y-88369580D02*
X64174714Y-88226723D01*
X64174714Y-88226723D02*
X64127095Y-88036247D01*
X64127095Y-88036247D02*
X64127095Y-87655295D01*
X64127095Y-87655295D02*
X64174714Y-87560057D01*
X64174714Y-87560057D02*
X64222333Y-87512438D01*
X64222333Y-87512438D02*
X64317571Y-87464819D01*
X64317571Y-87464819D02*
X64508047Y-87464819D01*
X64508047Y-87464819D02*
X64603285Y-87512438D01*
X64603285Y-87512438D02*
X64650904Y-87560057D01*
X64650904Y-87560057D02*
X64698523Y-87655295D01*
X64698523Y-87655295D02*
X64698523Y-87893390D01*
X64698523Y-87893390D02*
X64650904Y-87988628D01*
X64650904Y-87988628D02*
X64603285Y-88036247D01*
X64603285Y-88036247D02*
X64508047Y-88083866D01*
X64508047Y-88083866D02*
X64317571Y-88083866D01*
X64317571Y-88083866D02*
X64222333Y-88036247D01*
X64222333Y-88036247D02*
X64174714Y-87988628D01*
X64174714Y-87988628D02*
X64127095Y-87893390D01*
X82541857Y-113229819D02*
X82875190Y-112753628D01*
X83113285Y-113229819D02*
X83113285Y-112229819D01*
X83113285Y-112229819D02*
X82732333Y-112229819D01*
X82732333Y-112229819D02*
X82637095Y-112277438D01*
X82637095Y-112277438D02*
X82589476Y-112325057D01*
X82589476Y-112325057D02*
X82541857Y-112420295D01*
X82541857Y-112420295D02*
X82541857Y-112563152D01*
X82541857Y-112563152D02*
X82589476Y-112658390D01*
X82589476Y-112658390D02*
X82637095Y-112706009D01*
X82637095Y-112706009D02*
X82732333Y-112753628D01*
X82732333Y-112753628D02*
X83113285Y-112753628D01*
X82208523Y-112229819D02*
X81589476Y-112229819D01*
X81589476Y-112229819D02*
X81922809Y-112610771D01*
X81922809Y-112610771D02*
X81779952Y-112610771D01*
X81779952Y-112610771D02*
X81684714Y-112658390D01*
X81684714Y-112658390D02*
X81637095Y-112706009D01*
X81637095Y-112706009D02*
X81589476Y-112801247D01*
X81589476Y-112801247D02*
X81589476Y-113039342D01*
X81589476Y-113039342D02*
X81637095Y-113134580D01*
X81637095Y-113134580D02*
X81684714Y-113182200D01*
X81684714Y-113182200D02*
X81779952Y-113229819D01*
X81779952Y-113229819D02*
X82065666Y-113229819D01*
X82065666Y-113229819D02*
X82160904Y-113182200D01*
X82160904Y-113182200D02*
X82208523Y-113134580D01*
X81113285Y-113229819D02*
X80922809Y-113229819D01*
X80922809Y-113229819D02*
X80827571Y-113182200D01*
X80827571Y-113182200D02*
X80779952Y-113134580D01*
X80779952Y-113134580D02*
X80684714Y-112991723D01*
X80684714Y-112991723D02*
X80637095Y-112801247D01*
X80637095Y-112801247D02*
X80637095Y-112420295D01*
X80637095Y-112420295D02*
X80684714Y-112325057D01*
X80684714Y-112325057D02*
X80732333Y-112277438D01*
X80732333Y-112277438D02*
X80827571Y-112229819D01*
X80827571Y-112229819D02*
X81018047Y-112229819D01*
X81018047Y-112229819D02*
X81113285Y-112277438D01*
X81113285Y-112277438D02*
X81160904Y-112325057D01*
X81160904Y-112325057D02*
X81208523Y-112420295D01*
X81208523Y-112420295D02*
X81208523Y-112658390D01*
X81208523Y-112658390D02*
X81160904Y-112753628D01*
X81160904Y-112753628D02*
X81113285Y-112801247D01*
X81113285Y-112801247D02*
X81018047Y-112848866D01*
X81018047Y-112848866D02*
X80827571Y-112848866D01*
X80827571Y-112848866D02*
X80732333Y-112801247D01*
X80732333Y-112801247D02*
X80684714Y-112753628D01*
X80684714Y-112753628D02*
X80637095Y-112658390D01*
X82541857Y-129739819D02*
X82875190Y-129263628D01*
X83113285Y-129739819D02*
X83113285Y-128739819D01*
X83113285Y-128739819D02*
X82732333Y-128739819D01*
X82732333Y-128739819D02*
X82637095Y-128787438D01*
X82637095Y-128787438D02*
X82589476Y-128835057D01*
X82589476Y-128835057D02*
X82541857Y-128930295D01*
X82541857Y-128930295D02*
X82541857Y-129073152D01*
X82541857Y-129073152D02*
X82589476Y-129168390D01*
X82589476Y-129168390D02*
X82637095Y-129216009D01*
X82637095Y-129216009D02*
X82732333Y-129263628D01*
X82732333Y-129263628D02*
X83113285Y-129263628D01*
X81637095Y-128739819D02*
X82113285Y-128739819D01*
X82113285Y-128739819D02*
X82160904Y-129216009D01*
X82160904Y-129216009D02*
X82113285Y-129168390D01*
X82113285Y-129168390D02*
X82018047Y-129120771D01*
X82018047Y-129120771D02*
X81779952Y-129120771D01*
X81779952Y-129120771D02*
X81684714Y-129168390D01*
X81684714Y-129168390D02*
X81637095Y-129216009D01*
X81637095Y-129216009D02*
X81589476Y-129311247D01*
X81589476Y-129311247D02*
X81589476Y-129549342D01*
X81589476Y-129549342D02*
X81637095Y-129644580D01*
X81637095Y-129644580D02*
X81684714Y-129692200D01*
X81684714Y-129692200D02*
X81779952Y-129739819D01*
X81779952Y-129739819D02*
X82018047Y-129739819D01*
X82018047Y-129739819D02*
X82113285Y-129692200D01*
X82113285Y-129692200D02*
X82160904Y-129644580D01*
X80637095Y-129739819D02*
X81208523Y-129739819D01*
X80922809Y-129739819D02*
X80922809Y-128739819D01*
X80922809Y-128739819D02*
X81018047Y-128882676D01*
X81018047Y-128882676D02*
X81113285Y-128977914D01*
X81113285Y-128977914D02*
X81208523Y-129025533D01*
X90796857Y-88464819D02*
X91130190Y-87988628D01*
X91368285Y-88464819D02*
X91368285Y-87464819D01*
X91368285Y-87464819D02*
X90987333Y-87464819D01*
X90987333Y-87464819D02*
X90892095Y-87512438D01*
X90892095Y-87512438D02*
X90844476Y-87560057D01*
X90844476Y-87560057D02*
X90796857Y-87655295D01*
X90796857Y-87655295D02*
X90796857Y-87798152D01*
X90796857Y-87798152D02*
X90844476Y-87893390D01*
X90844476Y-87893390D02*
X90892095Y-87941009D01*
X90892095Y-87941009D02*
X90987333Y-87988628D01*
X90987333Y-87988628D02*
X91368285Y-87988628D01*
X90415904Y-87560057D02*
X90368285Y-87512438D01*
X90368285Y-87512438D02*
X90273047Y-87464819D01*
X90273047Y-87464819D02*
X90034952Y-87464819D01*
X90034952Y-87464819D02*
X89939714Y-87512438D01*
X89939714Y-87512438D02*
X89892095Y-87560057D01*
X89892095Y-87560057D02*
X89844476Y-87655295D01*
X89844476Y-87655295D02*
X89844476Y-87750533D01*
X89844476Y-87750533D02*
X89892095Y-87893390D01*
X89892095Y-87893390D02*
X90463523Y-88464819D01*
X90463523Y-88464819D02*
X89844476Y-88464819D01*
X89463523Y-87560057D02*
X89415904Y-87512438D01*
X89415904Y-87512438D02*
X89320666Y-87464819D01*
X89320666Y-87464819D02*
X89082571Y-87464819D01*
X89082571Y-87464819D02*
X88987333Y-87512438D01*
X88987333Y-87512438D02*
X88939714Y-87560057D01*
X88939714Y-87560057D02*
X88892095Y-87655295D01*
X88892095Y-87655295D02*
X88892095Y-87750533D01*
X88892095Y-87750533D02*
X88939714Y-87893390D01*
X88939714Y-87893390D02*
X89511142Y-88464819D01*
X89511142Y-88464819D02*
X88892095Y-88464819D01*
X94495857Y-132535819D02*
X94829190Y-132059628D01*
X95067285Y-132535819D02*
X95067285Y-131535819D01*
X95067285Y-131535819D02*
X94686333Y-131535819D01*
X94686333Y-131535819D02*
X94591095Y-131583438D01*
X94591095Y-131583438D02*
X94543476Y-131631057D01*
X94543476Y-131631057D02*
X94495857Y-131726295D01*
X94495857Y-131726295D02*
X94495857Y-131869152D01*
X94495857Y-131869152D02*
X94543476Y-131964390D01*
X94543476Y-131964390D02*
X94591095Y-132012009D01*
X94591095Y-132012009D02*
X94686333Y-132059628D01*
X94686333Y-132059628D02*
X95067285Y-132059628D01*
X93591095Y-131535819D02*
X94067285Y-131535819D01*
X94067285Y-131535819D02*
X94114904Y-132012009D01*
X94114904Y-132012009D02*
X94067285Y-131964390D01*
X94067285Y-131964390D02*
X93972047Y-131916771D01*
X93972047Y-131916771D02*
X93733952Y-131916771D01*
X93733952Y-131916771D02*
X93638714Y-131964390D01*
X93638714Y-131964390D02*
X93591095Y-132012009D01*
X93591095Y-132012009D02*
X93543476Y-132107247D01*
X93543476Y-132107247D02*
X93543476Y-132345342D01*
X93543476Y-132345342D02*
X93591095Y-132440580D01*
X93591095Y-132440580D02*
X93638714Y-132488200D01*
X93638714Y-132488200D02*
X93733952Y-132535819D01*
X93733952Y-132535819D02*
X93972047Y-132535819D01*
X93972047Y-132535819D02*
X94067285Y-132488200D01*
X94067285Y-132488200D02*
X94114904Y-132440580D01*
X93067285Y-132535819D02*
X92876809Y-132535819D01*
X92876809Y-132535819D02*
X92781571Y-132488200D01*
X92781571Y-132488200D02*
X92733952Y-132440580D01*
X92733952Y-132440580D02*
X92638714Y-132297723D01*
X92638714Y-132297723D02*
X92591095Y-132107247D01*
X92591095Y-132107247D02*
X92591095Y-131726295D01*
X92591095Y-131726295D02*
X92638714Y-131631057D01*
X92638714Y-131631057D02*
X92686333Y-131583438D01*
X92686333Y-131583438D02*
X92781571Y-131535819D01*
X92781571Y-131535819D02*
X92972047Y-131535819D01*
X92972047Y-131535819D02*
X93067285Y-131583438D01*
X93067285Y-131583438D02*
X93114904Y-131631057D01*
X93114904Y-131631057D02*
X93162523Y-131726295D01*
X93162523Y-131726295D02*
X93162523Y-131964390D01*
X93162523Y-131964390D02*
X93114904Y-132059628D01*
X93114904Y-132059628D02*
X93067285Y-132107247D01*
X93067285Y-132107247D02*
X92972047Y-132154866D01*
X92972047Y-132154866D02*
X92781571Y-132154866D01*
X92781571Y-132154866D02*
X92686333Y-132107247D01*
X92686333Y-132107247D02*
X92638714Y-132059628D01*
X92638714Y-132059628D02*
X92591095Y-131964390D01*
X65555666Y-63699819D02*
X65888999Y-63223628D01*
X66127094Y-63699819D02*
X66127094Y-62699819D01*
X66127094Y-62699819D02*
X65746142Y-62699819D01*
X65746142Y-62699819D02*
X65650904Y-62747438D01*
X65650904Y-62747438D02*
X65603285Y-62795057D01*
X65603285Y-62795057D02*
X65555666Y-62890295D01*
X65555666Y-62890295D02*
X65555666Y-63033152D01*
X65555666Y-63033152D02*
X65603285Y-63128390D01*
X65603285Y-63128390D02*
X65650904Y-63176009D01*
X65650904Y-63176009D02*
X65746142Y-63223628D01*
X65746142Y-63223628D02*
X66127094Y-63223628D01*
X64603285Y-63699819D02*
X65174713Y-63699819D01*
X64888999Y-63699819D02*
X64888999Y-62699819D01*
X64888999Y-62699819D02*
X64984237Y-62842676D01*
X64984237Y-62842676D02*
X65079475Y-62937914D01*
X65079475Y-62937914D02*
X65174713Y-62985533D01*
X74286857Y-113229819D02*
X74620190Y-112753628D01*
X74858285Y-113229819D02*
X74858285Y-112229819D01*
X74858285Y-112229819D02*
X74477333Y-112229819D01*
X74477333Y-112229819D02*
X74382095Y-112277438D01*
X74382095Y-112277438D02*
X74334476Y-112325057D01*
X74334476Y-112325057D02*
X74286857Y-112420295D01*
X74286857Y-112420295D02*
X74286857Y-112563152D01*
X74286857Y-112563152D02*
X74334476Y-112658390D01*
X74334476Y-112658390D02*
X74382095Y-112706009D01*
X74382095Y-112706009D02*
X74477333Y-112753628D01*
X74477333Y-112753628D02*
X74858285Y-112753628D01*
X73953523Y-112229819D02*
X73334476Y-112229819D01*
X73334476Y-112229819D02*
X73667809Y-112610771D01*
X73667809Y-112610771D02*
X73524952Y-112610771D01*
X73524952Y-112610771D02*
X73429714Y-112658390D01*
X73429714Y-112658390D02*
X73382095Y-112706009D01*
X73382095Y-112706009D02*
X73334476Y-112801247D01*
X73334476Y-112801247D02*
X73334476Y-113039342D01*
X73334476Y-113039342D02*
X73382095Y-113134580D01*
X73382095Y-113134580D02*
X73429714Y-113182200D01*
X73429714Y-113182200D02*
X73524952Y-113229819D01*
X73524952Y-113229819D02*
X73810666Y-113229819D01*
X73810666Y-113229819D02*
X73905904Y-113182200D01*
X73905904Y-113182200D02*
X73953523Y-113134580D01*
X72763047Y-112658390D02*
X72858285Y-112610771D01*
X72858285Y-112610771D02*
X72905904Y-112563152D01*
X72905904Y-112563152D02*
X72953523Y-112467914D01*
X72953523Y-112467914D02*
X72953523Y-112420295D01*
X72953523Y-112420295D02*
X72905904Y-112325057D01*
X72905904Y-112325057D02*
X72858285Y-112277438D01*
X72858285Y-112277438D02*
X72763047Y-112229819D01*
X72763047Y-112229819D02*
X72572571Y-112229819D01*
X72572571Y-112229819D02*
X72477333Y-112277438D01*
X72477333Y-112277438D02*
X72429714Y-112325057D01*
X72429714Y-112325057D02*
X72382095Y-112420295D01*
X72382095Y-112420295D02*
X72382095Y-112467914D01*
X72382095Y-112467914D02*
X72429714Y-112563152D01*
X72429714Y-112563152D02*
X72477333Y-112610771D01*
X72477333Y-112610771D02*
X72572571Y-112658390D01*
X72572571Y-112658390D02*
X72763047Y-112658390D01*
X72763047Y-112658390D02*
X72858285Y-112706009D01*
X72858285Y-112706009D02*
X72905904Y-112753628D01*
X72905904Y-112753628D02*
X72953523Y-112848866D01*
X72953523Y-112848866D02*
X72953523Y-113039342D01*
X72953523Y-113039342D02*
X72905904Y-113134580D01*
X72905904Y-113134580D02*
X72858285Y-113182200D01*
X72858285Y-113182200D02*
X72763047Y-113229819D01*
X72763047Y-113229819D02*
X72572571Y-113229819D01*
X72572571Y-113229819D02*
X72477333Y-113182200D01*
X72477333Y-113182200D02*
X72429714Y-113134580D01*
X72429714Y-113134580D02*
X72382095Y-113039342D01*
X72382095Y-113039342D02*
X72382095Y-112848866D01*
X72382095Y-112848866D02*
X72429714Y-112753628D01*
X72429714Y-112753628D02*
X72477333Y-112706009D01*
X72477333Y-112706009D02*
X72572571Y-112658390D01*
X94607857Y-83254819D02*
X94941190Y-82778628D01*
X95179285Y-83254819D02*
X95179285Y-82254819D01*
X95179285Y-82254819D02*
X94798333Y-82254819D01*
X94798333Y-82254819D02*
X94703095Y-82302438D01*
X94703095Y-82302438D02*
X94655476Y-82350057D01*
X94655476Y-82350057D02*
X94607857Y-82445295D01*
X94607857Y-82445295D02*
X94607857Y-82588152D01*
X94607857Y-82588152D02*
X94655476Y-82683390D01*
X94655476Y-82683390D02*
X94703095Y-82731009D01*
X94703095Y-82731009D02*
X94798333Y-82778628D01*
X94798333Y-82778628D02*
X95179285Y-82778628D01*
X94226904Y-82350057D02*
X94179285Y-82302438D01*
X94179285Y-82302438D02*
X94084047Y-82254819D01*
X94084047Y-82254819D02*
X93845952Y-82254819D01*
X93845952Y-82254819D02*
X93750714Y-82302438D01*
X93750714Y-82302438D02*
X93703095Y-82350057D01*
X93703095Y-82350057D02*
X93655476Y-82445295D01*
X93655476Y-82445295D02*
X93655476Y-82540533D01*
X93655476Y-82540533D02*
X93703095Y-82683390D01*
X93703095Y-82683390D02*
X94274523Y-83254819D01*
X94274523Y-83254819D02*
X93655476Y-83254819D01*
X93322142Y-82254819D02*
X92703095Y-82254819D01*
X92703095Y-82254819D02*
X93036428Y-82635771D01*
X93036428Y-82635771D02*
X92893571Y-82635771D01*
X92893571Y-82635771D02*
X92798333Y-82683390D01*
X92798333Y-82683390D02*
X92750714Y-82731009D01*
X92750714Y-82731009D02*
X92703095Y-82826247D01*
X92703095Y-82826247D02*
X92703095Y-83064342D01*
X92703095Y-83064342D02*
X92750714Y-83159580D01*
X92750714Y-83159580D02*
X92798333Y-83207200D01*
X92798333Y-83207200D02*
X92893571Y-83254819D01*
X92893571Y-83254819D02*
X93179285Y-83254819D01*
X93179285Y-83254819D02*
X93274523Y-83207200D01*
X93274523Y-83207200D02*
X93322142Y-83159580D01*
X82541857Y-121484819D02*
X82875190Y-121008628D01*
X83113285Y-121484819D02*
X83113285Y-120484819D01*
X83113285Y-120484819D02*
X82732333Y-120484819D01*
X82732333Y-120484819D02*
X82637095Y-120532438D01*
X82637095Y-120532438D02*
X82589476Y-120580057D01*
X82589476Y-120580057D02*
X82541857Y-120675295D01*
X82541857Y-120675295D02*
X82541857Y-120818152D01*
X82541857Y-120818152D02*
X82589476Y-120913390D01*
X82589476Y-120913390D02*
X82637095Y-120961009D01*
X82637095Y-120961009D02*
X82732333Y-121008628D01*
X82732333Y-121008628D02*
X83113285Y-121008628D01*
X81684714Y-120818152D02*
X81684714Y-121484819D01*
X81922809Y-120437200D02*
X82160904Y-121151485D01*
X82160904Y-121151485D02*
X81541857Y-121151485D01*
X80684714Y-120484819D02*
X81160904Y-120484819D01*
X81160904Y-120484819D02*
X81208523Y-120961009D01*
X81208523Y-120961009D02*
X81160904Y-120913390D01*
X81160904Y-120913390D02*
X81065666Y-120865771D01*
X81065666Y-120865771D02*
X80827571Y-120865771D01*
X80827571Y-120865771D02*
X80732333Y-120913390D01*
X80732333Y-120913390D02*
X80684714Y-120961009D01*
X80684714Y-120961009D02*
X80637095Y-121056247D01*
X80637095Y-121056247D02*
X80637095Y-121294342D01*
X80637095Y-121294342D02*
X80684714Y-121389580D01*
X80684714Y-121389580D02*
X80732333Y-121437200D01*
X80732333Y-121437200D02*
X80827571Y-121484819D01*
X80827571Y-121484819D02*
X81065666Y-121484819D01*
X81065666Y-121484819D02*
X81160904Y-121437200D01*
X81160904Y-121437200D02*
X81208523Y-121389580D01*
X73810666Y-63699819D02*
X74143999Y-63223628D01*
X74382094Y-63699819D02*
X74382094Y-62699819D01*
X74382094Y-62699819D02*
X74001142Y-62699819D01*
X74001142Y-62699819D02*
X73905904Y-62747438D01*
X73905904Y-62747438D02*
X73858285Y-62795057D01*
X73858285Y-62795057D02*
X73810666Y-62890295D01*
X73810666Y-62890295D02*
X73810666Y-63033152D01*
X73810666Y-63033152D02*
X73858285Y-63128390D01*
X73858285Y-63128390D02*
X73905904Y-63176009D01*
X73905904Y-63176009D02*
X74001142Y-63223628D01*
X74001142Y-63223628D02*
X74382094Y-63223628D01*
X73429713Y-62795057D02*
X73382094Y-62747438D01*
X73382094Y-62747438D02*
X73286856Y-62699819D01*
X73286856Y-62699819D02*
X73048761Y-62699819D01*
X73048761Y-62699819D02*
X72953523Y-62747438D01*
X72953523Y-62747438D02*
X72905904Y-62795057D01*
X72905904Y-62795057D02*
X72858285Y-62890295D01*
X72858285Y-62890295D02*
X72858285Y-62985533D01*
X72858285Y-62985533D02*
X72905904Y-63128390D01*
X72905904Y-63128390D02*
X73477332Y-63699819D01*
X73477332Y-63699819D02*
X72858285Y-63699819D01*
X94480857Y-66490819D02*
X94814190Y-66014628D01*
X95052285Y-66490819D02*
X95052285Y-65490819D01*
X95052285Y-65490819D02*
X94671333Y-65490819D01*
X94671333Y-65490819D02*
X94576095Y-65538438D01*
X94576095Y-65538438D02*
X94528476Y-65586057D01*
X94528476Y-65586057D02*
X94480857Y-65681295D01*
X94480857Y-65681295D02*
X94480857Y-65824152D01*
X94480857Y-65824152D02*
X94528476Y-65919390D01*
X94528476Y-65919390D02*
X94576095Y-65967009D01*
X94576095Y-65967009D02*
X94671333Y-66014628D01*
X94671333Y-66014628D02*
X95052285Y-66014628D01*
X93528476Y-66490819D02*
X94099904Y-66490819D01*
X93814190Y-66490819D02*
X93814190Y-65490819D01*
X93814190Y-65490819D02*
X93909428Y-65633676D01*
X93909428Y-65633676D02*
X94004666Y-65728914D01*
X94004666Y-65728914D02*
X94099904Y-65776533D01*
X92576095Y-66490819D02*
X93147523Y-66490819D01*
X92861809Y-66490819D02*
X92861809Y-65490819D01*
X92861809Y-65490819D02*
X92957047Y-65633676D01*
X92957047Y-65633676D02*
X93052285Y-65728914D01*
X93052285Y-65728914D02*
X93147523Y-65776533D01*
X90796857Y-137994819D02*
X91130190Y-137518628D01*
X91368285Y-137994819D02*
X91368285Y-136994819D01*
X91368285Y-136994819D02*
X90987333Y-136994819D01*
X90987333Y-136994819D02*
X90892095Y-137042438D01*
X90892095Y-137042438D02*
X90844476Y-137090057D01*
X90844476Y-137090057D02*
X90796857Y-137185295D01*
X90796857Y-137185295D02*
X90796857Y-137328152D01*
X90796857Y-137328152D02*
X90844476Y-137423390D01*
X90844476Y-137423390D02*
X90892095Y-137471009D01*
X90892095Y-137471009D02*
X90987333Y-137518628D01*
X90987333Y-137518628D02*
X91368285Y-137518628D01*
X89892095Y-136994819D02*
X90368285Y-136994819D01*
X90368285Y-136994819D02*
X90415904Y-137471009D01*
X90415904Y-137471009D02*
X90368285Y-137423390D01*
X90368285Y-137423390D02*
X90273047Y-137375771D01*
X90273047Y-137375771D02*
X90034952Y-137375771D01*
X90034952Y-137375771D02*
X89939714Y-137423390D01*
X89939714Y-137423390D02*
X89892095Y-137471009D01*
X89892095Y-137471009D02*
X89844476Y-137566247D01*
X89844476Y-137566247D02*
X89844476Y-137804342D01*
X89844476Y-137804342D02*
X89892095Y-137899580D01*
X89892095Y-137899580D02*
X89939714Y-137947200D01*
X89939714Y-137947200D02*
X90034952Y-137994819D01*
X90034952Y-137994819D02*
X90273047Y-137994819D01*
X90273047Y-137994819D02*
X90368285Y-137947200D01*
X90368285Y-137947200D02*
X90415904Y-137899580D01*
X89273047Y-137423390D02*
X89368285Y-137375771D01*
X89368285Y-137375771D02*
X89415904Y-137328152D01*
X89415904Y-137328152D02*
X89463523Y-137232914D01*
X89463523Y-137232914D02*
X89463523Y-137185295D01*
X89463523Y-137185295D02*
X89415904Y-137090057D01*
X89415904Y-137090057D02*
X89368285Y-137042438D01*
X89368285Y-137042438D02*
X89273047Y-136994819D01*
X89273047Y-136994819D02*
X89082571Y-136994819D01*
X89082571Y-136994819D02*
X88987333Y-137042438D01*
X88987333Y-137042438D02*
X88939714Y-137090057D01*
X88939714Y-137090057D02*
X88892095Y-137185295D01*
X88892095Y-137185295D02*
X88892095Y-137232914D01*
X88892095Y-137232914D02*
X88939714Y-137328152D01*
X88939714Y-137328152D02*
X88987333Y-137375771D01*
X88987333Y-137375771D02*
X89082571Y-137423390D01*
X89082571Y-137423390D02*
X89273047Y-137423390D01*
X89273047Y-137423390D02*
X89368285Y-137471009D01*
X89368285Y-137471009D02*
X89415904Y-137518628D01*
X89415904Y-137518628D02*
X89463523Y-137613866D01*
X89463523Y-137613866D02*
X89463523Y-137804342D01*
X89463523Y-137804342D02*
X89415904Y-137899580D01*
X89415904Y-137899580D02*
X89368285Y-137947200D01*
X89368285Y-137947200D02*
X89273047Y-137994819D01*
X89273047Y-137994819D02*
X89082571Y-137994819D01*
X89082571Y-137994819D02*
X88987333Y-137947200D01*
X88987333Y-137947200D02*
X88939714Y-137899580D01*
X88939714Y-137899580D02*
X88892095Y-137804342D01*
X88892095Y-137804342D02*
X88892095Y-137613866D01*
X88892095Y-137613866D02*
X88939714Y-137518628D01*
X88939714Y-137518628D02*
X88987333Y-137471009D01*
X88987333Y-137471009D02*
X89082571Y-137423390D01*
X74286857Y-129739819D02*
X74620190Y-129263628D01*
X74858285Y-129739819D02*
X74858285Y-128739819D01*
X74858285Y-128739819D02*
X74477333Y-128739819D01*
X74477333Y-128739819D02*
X74382095Y-128787438D01*
X74382095Y-128787438D02*
X74334476Y-128835057D01*
X74334476Y-128835057D02*
X74286857Y-128930295D01*
X74286857Y-128930295D02*
X74286857Y-129073152D01*
X74286857Y-129073152D02*
X74334476Y-129168390D01*
X74334476Y-129168390D02*
X74382095Y-129216009D01*
X74382095Y-129216009D02*
X74477333Y-129263628D01*
X74477333Y-129263628D02*
X74858285Y-129263628D01*
X73382095Y-128739819D02*
X73858285Y-128739819D01*
X73858285Y-128739819D02*
X73905904Y-129216009D01*
X73905904Y-129216009D02*
X73858285Y-129168390D01*
X73858285Y-129168390D02*
X73763047Y-129120771D01*
X73763047Y-129120771D02*
X73524952Y-129120771D01*
X73524952Y-129120771D02*
X73429714Y-129168390D01*
X73429714Y-129168390D02*
X73382095Y-129216009D01*
X73382095Y-129216009D02*
X73334476Y-129311247D01*
X73334476Y-129311247D02*
X73334476Y-129549342D01*
X73334476Y-129549342D02*
X73382095Y-129644580D01*
X73382095Y-129644580D02*
X73429714Y-129692200D01*
X73429714Y-129692200D02*
X73524952Y-129739819D01*
X73524952Y-129739819D02*
X73763047Y-129739819D01*
X73763047Y-129739819D02*
X73858285Y-129692200D01*
X73858285Y-129692200D02*
X73905904Y-129644580D01*
X72715428Y-128739819D02*
X72620190Y-128739819D01*
X72620190Y-128739819D02*
X72524952Y-128787438D01*
X72524952Y-128787438D02*
X72477333Y-128835057D01*
X72477333Y-128835057D02*
X72429714Y-128930295D01*
X72429714Y-128930295D02*
X72382095Y-129120771D01*
X72382095Y-129120771D02*
X72382095Y-129358866D01*
X72382095Y-129358866D02*
X72429714Y-129549342D01*
X72429714Y-129549342D02*
X72477333Y-129644580D01*
X72477333Y-129644580D02*
X72524952Y-129692200D01*
X72524952Y-129692200D02*
X72620190Y-129739819D01*
X72620190Y-129739819D02*
X72715428Y-129739819D01*
X72715428Y-129739819D02*
X72810666Y-129692200D01*
X72810666Y-129692200D02*
X72858285Y-129644580D01*
X72858285Y-129644580D02*
X72905904Y-129549342D01*
X72905904Y-129549342D02*
X72953523Y-129358866D01*
X72953523Y-129358866D02*
X72953523Y-129120771D01*
X72953523Y-129120771D02*
X72905904Y-128930295D01*
X72905904Y-128930295D02*
X72858285Y-128835057D01*
X72858285Y-128835057D02*
X72810666Y-128787438D01*
X72810666Y-128787438D02*
X72715428Y-128739819D01*
X90796857Y-96719819D02*
X91130190Y-96243628D01*
X91368285Y-96719819D02*
X91368285Y-95719819D01*
X91368285Y-95719819D02*
X90987333Y-95719819D01*
X90987333Y-95719819D02*
X90892095Y-95767438D01*
X90892095Y-95767438D02*
X90844476Y-95815057D01*
X90844476Y-95815057D02*
X90796857Y-95910295D01*
X90796857Y-95910295D02*
X90796857Y-96053152D01*
X90796857Y-96053152D02*
X90844476Y-96148390D01*
X90844476Y-96148390D02*
X90892095Y-96196009D01*
X90892095Y-96196009D02*
X90987333Y-96243628D01*
X90987333Y-96243628D02*
X91368285Y-96243628D01*
X90415904Y-95815057D02*
X90368285Y-95767438D01*
X90368285Y-95767438D02*
X90273047Y-95719819D01*
X90273047Y-95719819D02*
X90034952Y-95719819D01*
X90034952Y-95719819D02*
X89939714Y-95767438D01*
X89939714Y-95767438D02*
X89892095Y-95815057D01*
X89892095Y-95815057D02*
X89844476Y-95910295D01*
X89844476Y-95910295D02*
X89844476Y-96005533D01*
X89844476Y-96005533D02*
X89892095Y-96148390D01*
X89892095Y-96148390D02*
X90463523Y-96719819D01*
X90463523Y-96719819D02*
X89844476Y-96719819D01*
X89273047Y-96148390D02*
X89368285Y-96100771D01*
X89368285Y-96100771D02*
X89415904Y-96053152D01*
X89415904Y-96053152D02*
X89463523Y-95957914D01*
X89463523Y-95957914D02*
X89463523Y-95910295D01*
X89463523Y-95910295D02*
X89415904Y-95815057D01*
X89415904Y-95815057D02*
X89368285Y-95767438D01*
X89368285Y-95767438D02*
X89273047Y-95719819D01*
X89273047Y-95719819D02*
X89082571Y-95719819D01*
X89082571Y-95719819D02*
X88987333Y-95767438D01*
X88987333Y-95767438D02*
X88939714Y-95815057D01*
X88939714Y-95815057D02*
X88892095Y-95910295D01*
X88892095Y-95910295D02*
X88892095Y-95957914D01*
X88892095Y-95957914D02*
X88939714Y-96053152D01*
X88939714Y-96053152D02*
X88987333Y-96100771D01*
X88987333Y-96100771D02*
X89082571Y-96148390D01*
X89082571Y-96148390D02*
X89273047Y-96148390D01*
X89273047Y-96148390D02*
X89368285Y-96196009D01*
X89368285Y-96196009D02*
X89415904Y-96243628D01*
X89415904Y-96243628D02*
X89463523Y-96338866D01*
X89463523Y-96338866D02*
X89463523Y-96529342D01*
X89463523Y-96529342D02*
X89415904Y-96624580D01*
X89415904Y-96624580D02*
X89368285Y-96672200D01*
X89368285Y-96672200D02*
X89273047Y-96719819D01*
X89273047Y-96719819D02*
X89082571Y-96719819D01*
X89082571Y-96719819D02*
X88987333Y-96672200D01*
X88987333Y-96672200D02*
X88939714Y-96624580D01*
X88939714Y-96624580D02*
X88892095Y-96529342D01*
X88892095Y-96529342D02*
X88892095Y-96338866D01*
X88892095Y-96338866D02*
X88939714Y-96243628D01*
X88939714Y-96243628D02*
X88987333Y-96196009D01*
X88987333Y-96196009D02*
X89082571Y-96148390D01*
X94622857Y-116152819D02*
X94956190Y-115676628D01*
X95194285Y-116152819D02*
X95194285Y-115152819D01*
X95194285Y-115152819D02*
X94813333Y-115152819D01*
X94813333Y-115152819D02*
X94718095Y-115200438D01*
X94718095Y-115200438D02*
X94670476Y-115248057D01*
X94670476Y-115248057D02*
X94622857Y-115343295D01*
X94622857Y-115343295D02*
X94622857Y-115486152D01*
X94622857Y-115486152D02*
X94670476Y-115581390D01*
X94670476Y-115581390D02*
X94718095Y-115629009D01*
X94718095Y-115629009D02*
X94813333Y-115676628D01*
X94813333Y-115676628D02*
X95194285Y-115676628D01*
X93765714Y-115486152D02*
X93765714Y-116152819D01*
X94003809Y-115105200D02*
X94241904Y-115819485D01*
X94241904Y-115819485D02*
X93622857Y-115819485D01*
X93337142Y-115152819D02*
X92670476Y-115152819D01*
X92670476Y-115152819D02*
X93099047Y-116152819D01*
X57776857Y-104974819D02*
X58110190Y-104498628D01*
X58348285Y-104974819D02*
X58348285Y-103974819D01*
X58348285Y-103974819D02*
X57967333Y-103974819D01*
X57967333Y-103974819D02*
X57872095Y-104022438D01*
X57872095Y-104022438D02*
X57824476Y-104070057D01*
X57824476Y-104070057D02*
X57776857Y-104165295D01*
X57776857Y-104165295D02*
X57776857Y-104308152D01*
X57776857Y-104308152D02*
X57824476Y-104403390D01*
X57824476Y-104403390D02*
X57872095Y-104451009D01*
X57872095Y-104451009D02*
X57967333Y-104498628D01*
X57967333Y-104498628D02*
X58348285Y-104498628D01*
X57443523Y-103974819D02*
X56824476Y-103974819D01*
X56824476Y-103974819D02*
X57157809Y-104355771D01*
X57157809Y-104355771D02*
X57014952Y-104355771D01*
X57014952Y-104355771D02*
X56919714Y-104403390D01*
X56919714Y-104403390D02*
X56872095Y-104451009D01*
X56872095Y-104451009D02*
X56824476Y-104546247D01*
X56824476Y-104546247D02*
X56824476Y-104784342D01*
X56824476Y-104784342D02*
X56872095Y-104879580D01*
X56872095Y-104879580D02*
X56919714Y-104927200D01*
X56919714Y-104927200D02*
X57014952Y-104974819D01*
X57014952Y-104974819D02*
X57300666Y-104974819D01*
X57300666Y-104974819D02*
X57395904Y-104927200D01*
X57395904Y-104927200D02*
X57443523Y-104879580D01*
X56205428Y-103974819D02*
X56110190Y-103974819D01*
X56110190Y-103974819D02*
X56014952Y-104022438D01*
X56014952Y-104022438D02*
X55967333Y-104070057D01*
X55967333Y-104070057D02*
X55919714Y-104165295D01*
X55919714Y-104165295D02*
X55872095Y-104355771D01*
X55872095Y-104355771D02*
X55872095Y-104593866D01*
X55872095Y-104593866D02*
X55919714Y-104784342D01*
X55919714Y-104784342D02*
X55967333Y-104879580D01*
X55967333Y-104879580D02*
X56014952Y-104927200D01*
X56014952Y-104927200D02*
X56110190Y-104974819D01*
X56110190Y-104974819D02*
X56205428Y-104974819D01*
X56205428Y-104974819D02*
X56300666Y-104927200D01*
X56300666Y-104927200D02*
X56348285Y-104879580D01*
X56348285Y-104879580D02*
X56395904Y-104784342D01*
X56395904Y-104784342D02*
X56443523Y-104593866D01*
X56443523Y-104593866D02*
X56443523Y-104355771D01*
X56443523Y-104355771D02*
X56395904Y-104165295D01*
X56395904Y-104165295D02*
X56348285Y-104070057D01*
X56348285Y-104070057D02*
X56300666Y-104022438D01*
X56300666Y-104022438D02*
X56205428Y-103974819D01*
X74286857Y-96719819D02*
X74620190Y-96243628D01*
X74858285Y-96719819D02*
X74858285Y-95719819D01*
X74858285Y-95719819D02*
X74477333Y-95719819D01*
X74477333Y-95719819D02*
X74382095Y-95767438D01*
X74382095Y-95767438D02*
X74334476Y-95815057D01*
X74334476Y-95815057D02*
X74286857Y-95910295D01*
X74286857Y-95910295D02*
X74286857Y-96053152D01*
X74286857Y-96053152D02*
X74334476Y-96148390D01*
X74334476Y-96148390D02*
X74382095Y-96196009D01*
X74382095Y-96196009D02*
X74477333Y-96243628D01*
X74477333Y-96243628D02*
X74858285Y-96243628D01*
X73905904Y-95815057D02*
X73858285Y-95767438D01*
X73858285Y-95767438D02*
X73763047Y-95719819D01*
X73763047Y-95719819D02*
X73524952Y-95719819D01*
X73524952Y-95719819D02*
X73429714Y-95767438D01*
X73429714Y-95767438D02*
X73382095Y-95815057D01*
X73382095Y-95815057D02*
X73334476Y-95910295D01*
X73334476Y-95910295D02*
X73334476Y-96005533D01*
X73334476Y-96005533D02*
X73382095Y-96148390D01*
X73382095Y-96148390D02*
X73953523Y-96719819D01*
X73953523Y-96719819D02*
X73334476Y-96719819D01*
X72477333Y-95719819D02*
X72667809Y-95719819D01*
X72667809Y-95719819D02*
X72763047Y-95767438D01*
X72763047Y-95767438D02*
X72810666Y-95815057D01*
X72810666Y-95815057D02*
X72905904Y-95957914D01*
X72905904Y-95957914D02*
X72953523Y-96148390D01*
X72953523Y-96148390D02*
X72953523Y-96529342D01*
X72953523Y-96529342D02*
X72905904Y-96624580D01*
X72905904Y-96624580D02*
X72858285Y-96672200D01*
X72858285Y-96672200D02*
X72763047Y-96719819D01*
X72763047Y-96719819D02*
X72572571Y-96719819D01*
X72572571Y-96719819D02*
X72477333Y-96672200D01*
X72477333Y-96672200D02*
X72429714Y-96624580D01*
X72429714Y-96624580D02*
X72382095Y-96529342D01*
X72382095Y-96529342D02*
X72382095Y-96291247D01*
X72382095Y-96291247D02*
X72429714Y-96196009D01*
X72429714Y-96196009D02*
X72477333Y-96148390D01*
X72477333Y-96148390D02*
X72572571Y-96100771D01*
X72572571Y-96100771D02*
X72763047Y-96100771D01*
X72763047Y-96100771D02*
X72858285Y-96148390D01*
X72858285Y-96148390D02*
X72905904Y-96196009D01*
X72905904Y-96196009D02*
X72953523Y-96291247D01*
X82541857Y-80209819D02*
X82875190Y-79733628D01*
X83113285Y-80209819D02*
X83113285Y-79209819D01*
X83113285Y-79209819D02*
X82732333Y-79209819D01*
X82732333Y-79209819D02*
X82637095Y-79257438D01*
X82637095Y-79257438D02*
X82589476Y-79305057D01*
X82589476Y-79305057D02*
X82541857Y-79400295D01*
X82541857Y-79400295D02*
X82541857Y-79543152D01*
X82541857Y-79543152D02*
X82589476Y-79638390D01*
X82589476Y-79638390D02*
X82637095Y-79686009D01*
X82637095Y-79686009D02*
X82732333Y-79733628D01*
X82732333Y-79733628D02*
X83113285Y-79733628D01*
X81589476Y-80209819D02*
X82160904Y-80209819D01*
X81875190Y-80209819D02*
X81875190Y-79209819D01*
X81875190Y-79209819D02*
X81970428Y-79352676D01*
X81970428Y-79352676D02*
X82065666Y-79447914D01*
X82065666Y-79447914D02*
X82160904Y-79495533D01*
X80684714Y-79209819D02*
X81160904Y-79209819D01*
X81160904Y-79209819D02*
X81208523Y-79686009D01*
X81208523Y-79686009D02*
X81160904Y-79638390D01*
X81160904Y-79638390D02*
X81065666Y-79590771D01*
X81065666Y-79590771D02*
X80827571Y-79590771D01*
X80827571Y-79590771D02*
X80732333Y-79638390D01*
X80732333Y-79638390D02*
X80684714Y-79686009D01*
X80684714Y-79686009D02*
X80637095Y-79781247D01*
X80637095Y-79781247D02*
X80637095Y-80019342D01*
X80637095Y-80019342D02*
X80684714Y-80114580D01*
X80684714Y-80114580D02*
X80732333Y-80162200D01*
X80732333Y-80162200D02*
X80827571Y-80209819D01*
X80827571Y-80209819D02*
X81065666Y-80209819D01*
X81065666Y-80209819D02*
X81160904Y-80162200D01*
X81160904Y-80162200D02*
X81208523Y-80114580D01*
X66031857Y-104974819D02*
X66365190Y-104498628D01*
X66603285Y-104974819D02*
X66603285Y-103974819D01*
X66603285Y-103974819D02*
X66222333Y-103974819D01*
X66222333Y-103974819D02*
X66127095Y-104022438D01*
X66127095Y-104022438D02*
X66079476Y-104070057D01*
X66079476Y-104070057D02*
X66031857Y-104165295D01*
X66031857Y-104165295D02*
X66031857Y-104308152D01*
X66031857Y-104308152D02*
X66079476Y-104403390D01*
X66079476Y-104403390D02*
X66127095Y-104451009D01*
X66127095Y-104451009D02*
X66222333Y-104498628D01*
X66222333Y-104498628D02*
X66603285Y-104498628D01*
X65698523Y-103974819D02*
X65079476Y-103974819D01*
X65079476Y-103974819D02*
X65412809Y-104355771D01*
X65412809Y-104355771D02*
X65269952Y-104355771D01*
X65269952Y-104355771D02*
X65174714Y-104403390D01*
X65174714Y-104403390D02*
X65127095Y-104451009D01*
X65127095Y-104451009D02*
X65079476Y-104546247D01*
X65079476Y-104546247D02*
X65079476Y-104784342D01*
X65079476Y-104784342D02*
X65127095Y-104879580D01*
X65127095Y-104879580D02*
X65174714Y-104927200D01*
X65174714Y-104927200D02*
X65269952Y-104974819D01*
X65269952Y-104974819D02*
X65555666Y-104974819D01*
X65555666Y-104974819D02*
X65650904Y-104927200D01*
X65650904Y-104927200D02*
X65698523Y-104879580D01*
X64127095Y-104974819D02*
X64698523Y-104974819D01*
X64412809Y-104974819D02*
X64412809Y-103974819D01*
X64412809Y-103974819D02*
X64508047Y-104117676D01*
X64508047Y-104117676D02*
X64603285Y-104212914D01*
X64603285Y-104212914D02*
X64698523Y-104260533D01*
X74286857Y-88464819D02*
X74620190Y-87988628D01*
X74858285Y-88464819D02*
X74858285Y-87464819D01*
X74858285Y-87464819D02*
X74477333Y-87464819D01*
X74477333Y-87464819D02*
X74382095Y-87512438D01*
X74382095Y-87512438D02*
X74334476Y-87560057D01*
X74334476Y-87560057D02*
X74286857Y-87655295D01*
X74286857Y-87655295D02*
X74286857Y-87798152D01*
X74286857Y-87798152D02*
X74334476Y-87893390D01*
X74334476Y-87893390D02*
X74382095Y-87941009D01*
X74382095Y-87941009D02*
X74477333Y-87988628D01*
X74477333Y-87988628D02*
X74858285Y-87988628D01*
X73905904Y-87560057D02*
X73858285Y-87512438D01*
X73858285Y-87512438D02*
X73763047Y-87464819D01*
X73763047Y-87464819D02*
X73524952Y-87464819D01*
X73524952Y-87464819D02*
X73429714Y-87512438D01*
X73429714Y-87512438D02*
X73382095Y-87560057D01*
X73382095Y-87560057D02*
X73334476Y-87655295D01*
X73334476Y-87655295D02*
X73334476Y-87750533D01*
X73334476Y-87750533D02*
X73382095Y-87893390D01*
X73382095Y-87893390D02*
X73953523Y-88464819D01*
X73953523Y-88464819D02*
X73334476Y-88464819D01*
X72715428Y-87464819D02*
X72620190Y-87464819D01*
X72620190Y-87464819D02*
X72524952Y-87512438D01*
X72524952Y-87512438D02*
X72477333Y-87560057D01*
X72477333Y-87560057D02*
X72429714Y-87655295D01*
X72429714Y-87655295D02*
X72382095Y-87845771D01*
X72382095Y-87845771D02*
X72382095Y-88083866D01*
X72382095Y-88083866D02*
X72429714Y-88274342D01*
X72429714Y-88274342D02*
X72477333Y-88369580D01*
X72477333Y-88369580D02*
X72524952Y-88417200D01*
X72524952Y-88417200D02*
X72620190Y-88464819D01*
X72620190Y-88464819D02*
X72715428Y-88464819D01*
X72715428Y-88464819D02*
X72810666Y-88417200D01*
X72810666Y-88417200D02*
X72858285Y-88369580D01*
X72858285Y-88369580D02*
X72905904Y-88274342D01*
X72905904Y-88274342D02*
X72953523Y-88083866D01*
X72953523Y-88083866D02*
X72953523Y-87845771D01*
X72953523Y-87845771D02*
X72905904Y-87655295D01*
X72905904Y-87655295D02*
X72858285Y-87560057D01*
X72858285Y-87560057D02*
X72810666Y-87512438D01*
X72810666Y-87512438D02*
X72715428Y-87464819D01*
X82541857Y-88464819D02*
X82875190Y-87988628D01*
X83113285Y-88464819D02*
X83113285Y-87464819D01*
X83113285Y-87464819D02*
X82732333Y-87464819D01*
X82732333Y-87464819D02*
X82637095Y-87512438D01*
X82637095Y-87512438D02*
X82589476Y-87560057D01*
X82589476Y-87560057D02*
X82541857Y-87655295D01*
X82541857Y-87655295D02*
X82541857Y-87798152D01*
X82541857Y-87798152D02*
X82589476Y-87893390D01*
X82589476Y-87893390D02*
X82637095Y-87941009D01*
X82637095Y-87941009D02*
X82732333Y-87988628D01*
X82732333Y-87988628D02*
X83113285Y-87988628D01*
X82160904Y-87560057D02*
X82113285Y-87512438D01*
X82113285Y-87512438D02*
X82018047Y-87464819D01*
X82018047Y-87464819D02*
X81779952Y-87464819D01*
X81779952Y-87464819D02*
X81684714Y-87512438D01*
X81684714Y-87512438D02*
X81637095Y-87560057D01*
X81637095Y-87560057D02*
X81589476Y-87655295D01*
X81589476Y-87655295D02*
X81589476Y-87750533D01*
X81589476Y-87750533D02*
X81637095Y-87893390D01*
X81637095Y-87893390D02*
X82208523Y-88464819D01*
X82208523Y-88464819D02*
X81589476Y-88464819D01*
X80637095Y-88464819D02*
X81208523Y-88464819D01*
X80922809Y-88464819D02*
X80922809Y-87464819D01*
X80922809Y-87464819D02*
X81018047Y-87607676D01*
X81018047Y-87607676D02*
X81113285Y-87702914D01*
X81113285Y-87702914D02*
X81208523Y-87750533D01*
X58427857Y-134946819D02*
X58761190Y-134470628D01*
X58999285Y-134946819D02*
X58999285Y-133946819D01*
X58999285Y-133946819D02*
X58618333Y-133946819D01*
X58618333Y-133946819D02*
X58523095Y-133994438D01*
X58523095Y-133994438D02*
X58475476Y-134042057D01*
X58475476Y-134042057D02*
X58427857Y-134137295D01*
X58427857Y-134137295D02*
X58427857Y-134280152D01*
X58427857Y-134280152D02*
X58475476Y-134375390D01*
X58475476Y-134375390D02*
X58523095Y-134423009D01*
X58523095Y-134423009D02*
X58618333Y-134470628D01*
X58618333Y-134470628D02*
X58999285Y-134470628D01*
X57523095Y-133946819D02*
X57999285Y-133946819D01*
X57999285Y-133946819D02*
X58046904Y-134423009D01*
X58046904Y-134423009D02*
X57999285Y-134375390D01*
X57999285Y-134375390D02*
X57904047Y-134327771D01*
X57904047Y-134327771D02*
X57665952Y-134327771D01*
X57665952Y-134327771D02*
X57570714Y-134375390D01*
X57570714Y-134375390D02*
X57523095Y-134423009D01*
X57523095Y-134423009D02*
X57475476Y-134518247D01*
X57475476Y-134518247D02*
X57475476Y-134756342D01*
X57475476Y-134756342D02*
X57523095Y-134851580D01*
X57523095Y-134851580D02*
X57570714Y-134899200D01*
X57570714Y-134899200D02*
X57665952Y-134946819D01*
X57665952Y-134946819D02*
X57904047Y-134946819D01*
X57904047Y-134946819D02*
X57999285Y-134899200D01*
X57999285Y-134899200D02*
X58046904Y-134851580D01*
X56618333Y-134280152D02*
X56618333Y-134946819D01*
X56856428Y-133899200D02*
X57094523Y-134613485D01*
X57094523Y-134613485D02*
X56475476Y-134613485D01*
X66031857Y-96719819D02*
X66365190Y-96243628D01*
X66603285Y-96719819D02*
X66603285Y-95719819D01*
X66603285Y-95719819D02*
X66222333Y-95719819D01*
X66222333Y-95719819D02*
X66127095Y-95767438D01*
X66127095Y-95767438D02*
X66079476Y-95815057D01*
X66079476Y-95815057D02*
X66031857Y-95910295D01*
X66031857Y-95910295D02*
X66031857Y-96053152D01*
X66031857Y-96053152D02*
X66079476Y-96148390D01*
X66079476Y-96148390D02*
X66127095Y-96196009D01*
X66127095Y-96196009D02*
X66222333Y-96243628D01*
X66222333Y-96243628D02*
X66603285Y-96243628D01*
X65650904Y-95815057D02*
X65603285Y-95767438D01*
X65603285Y-95767438D02*
X65508047Y-95719819D01*
X65508047Y-95719819D02*
X65269952Y-95719819D01*
X65269952Y-95719819D02*
X65174714Y-95767438D01*
X65174714Y-95767438D02*
X65127095Y-95815057D01*
X65127095Y-95815057D02*
X65079476Y-95910295D01*
X65079476Y-95910295D02*
X65079476Y-96005533D01*
X65079476Y-96005533D02*
X65127095Y-96148390D01*
X65127095Y-96148390D02*
X65698523Y-96719819D01*
X65698523Y-96719819D02*
X65079476Y-96719819D01*
X64174714Y-95719819D02*
X64650904Y-95719819D01*
X64650904Y-95719819D02*
X64698523Y-96196009D01*
X64698523Y-96196009D02*
X64650904Y-96148390D01*
X64650904Y-96148390D02*
X64555666Y-96100771D01*
X64555666Y-96100771D02*
X64317571Y-96100771D01*
X64317571Y-96100771D02*
X64222333Y-96148390D01*
X64222333Y-96148390D02*
X64174714Y-96196009D01*
X64174714Y-96196009D02*
X64127095Y-96291247D01*
X64127095Y-96291247D02*
X64127095Y-96529342D01*
X64127095Y-96529342D02*
X64174714Y-96624580D01*
X64174714Y-96624580D02*
X64222333Y-96672200D01*
X64222333Y-96672200D02*
X64317571Y-96719819D01*
X64317571Y-96719819D02*
X64555666Y-96719819D01*
X64555666Y-96719819D02*
X64650904Y-96672200D01*
X64650904Y-96672200D02*
X64698523Y-96624580D01*
X90796857Y-121484819D02*
X91130190Y-121008628D01*
X91368285Y-121484819D02*
X91368285Y-120484819D01*
X91368285Y-120484819D02*
X90987333Y-120484819D01*
X90987333Y-120484819D02*
X90892095Y-120532438D01*
X90892095Y-120532438D02*
X90844476Y-120580057D01*
X90844476Y-120580057D02*
X90796857Y-120675295D01*
X90796857Y-120675295D02*
X90796857Y-120818152D01*
X90796857Y-120818152D02*
X90844476Y-120913390D01*
X90844476Y-120913390D02*
X90892095Y-120961009D01*
X90892095Y-120961009D02*
X90987333Y-121008628D01*
X90987333Y-121008628D02*
X91368285Y-121008628D01*
X89939714Y-120818152D02*
X89939714Y-121484819D01*
X90177809Y-120437200D02*
X90415904Y-121151485D01*
X90415904Y-121151485D02*
X89796857Y-121151485D01*
X88987333Y-120484819D02*
X89177809Y-120484819D01*
X89177809Y-120484819D02*
X89273047Y-120532438D01*
X89273047Y-120532438D02*
X89320666Y-120580057D01*
X89320666Y-120580057D02*
X89415904Y-120722914D01*
X89415904Y-120722914D02*
X89463523Y-120913390D01*
X89463523Y-120913390D02*
X89463523Y-121294342D01*
X89463523Y-121294342D02*
X89415904Y-121389580D01*
X89415904Y-121389580D02*
X89368285Y-121437200D01*
X89368285Y-121437200D02*
X89273047Y-121484819D01*
X89273047Y-121484819D02*
X89082571Y-121484819D01*
X89082571Y-121484819D02*
X88987333Y-121437200D01*
X88987333Y-121437200D02*
X88939714Y-121389580D01*
X88939714Y-121389580D02*
X88892095Y-121294342D01*
X88892095Y-121294342D02*
X88892095Y-121056247D01*
X88892095Y-121056247D02*
X88939714Y-120961009D01*
X88939714Y-120961009D02*
X88987333Y-120913390D01*
X88987333Y-120913390D02*
X89082571Y-120865771D01*
X89082571Y-120865771D02*
X89273047Y-120865771D01*
X89273047Y-120865771D02*
X89368285Y-120913390D01*
X89368285Y-120913390D02*
X89415904Y-120961009D01*
X89415904Y-120961009D02*
X89463523Y-121056247D01*
X74286857Y-104974819D02*
X74620190Y-104498628D01*
X74858285Y-104974819D02*
X74858285Y-103974819D01*
X74858285Y-103974819D02*
X74477333Y-103974819D01*
X74477333Y-103974819D02*
X74382095Y-104022438D01*
X74382095Y-104022438D02*
X74334476Y-104070057D01*
X74334476Y-104070057D02*
X74286857Y-104165295D01*
X74286857Y-104165295D02*
X74286857Y-104308152D01*
X74286857Y-104308152D02*
X74334476Y-104403390D01*
X74334476Y-104403390D02*
X74382095Y-104451009D01*
X74382095Y-104451009D02*
X74477333Y-104498628D01*
X74477333Y-104498628D02*
X74858285Y-104498628D01*
X73953523Y-103974819D02*
X73334476Y-103974819D01*
X73334476Y-103974819D02*
X73667809Y-104355771D01*
X73667809Y-104355771D02*
X73524952Y-104355771D01*
X73524952Y-104355771D02*
X73429714Y-104403390D01*
X73429714Y-104403390D02*
X73382095Y-104451009D01*
X73382095Y-104451009D02*
X73334476Y-104546247D01*
X73334476Y-104546247D02*
X73334476Y-104784342D01*
X73334476Y-104784342D02*
X73382095Y-104879580D01*
X73382095Y-104879580D02*
X73429714Y-104927200D01*
X73429714Y-104927200D02*
X73524952Y-104974819D01*
X73524952Y-104974819D02*
X73810666Y-104974819D01*
X73810666Y-104974819D02*
X73905904Y-104927200D01*
X73905904Y-104927200D02*
X73953523Y-104879580D01*
X72953523Y-104070057D02*
X72905904Y-104022438D01*
X72905904Y-104022438D02*
X72810666Y-103974819D01*
X72810666Y-103974819D02*
X72572571Y-103974819D01*
X72572571Y-103974819D02*
X72477333Y-104022438D01*
X72477333Y-104022438D02*
X72429714Y-104070057D01*
X72429714Y-104070057D02*
X72382095Y-104165295D01*
X72382095Y-104165295D02*
X72382095Y-104260533D01*
X72382095Y-104260533D02*
X72429714Y-104403390D01*
X72429714Y-104403390D02*
X73001142Y-104974819D01*
X73001142Y-104974819D02*
X72382095Y-104974819D01*
X57776857Y-121484819D02*
X58110190Y-121008628D01*
X58348285Y-121484819D02*
X58348285Y-120484819D01*
X58348285Y-120484819D02*
X57967333Y-120484819D01*
X57967333Y-120484819D02*
X57872095Y-120532438D01*
X57872095Y-120532438D02*
X57824476Y-120580057D01*
X57824476Y-120580057D02*
X57776857Y-120675295D01*
X57776857Y-120675295D02*
X57776857Y-120818152D01*
X57776857Y-120818152D02*
X57824476Y-120913390D01*
X57824476Y-120913390D02*
X57872095Y-120961009D01*
X57872095Y-120961009D02*
X57967333Y-121008628D01*
X57967333Y-121008628D02*
X58348285Y-121008628D01*
X56919714Y-120818152D02*
X56919714Y-121484819D01*
X57157809Y-120437200D02*
X57395904Y-121151485D01*
X57395904Y-121151485D02*
X56776857Y-121151485D01*
X56443523Y-120580057D02*
X56395904Y-120532438D01*
X56395904Y-120532438D02*
X56300666Y-120484819D01*
X56300666Y-120484819D02*
X56062571Y-120484819D01*
X56062571Y-120484819D02*
X55967333Y-120532438D01*
X55967333Y-120532438D02*
X55919714Y-120580057D01*
X55919714Y-120580057D02*
X55872095Y-120675295D01*
X55872095Y-120675295D02*
X55872095Y-120770533D01*
X55872095Y-120770533D02*
X55919714Y-120913390D01*
X55919714Y-120913390D02*
X56491142Y-121484819D01*
X56491142Y-121484819D02*
X55872095Y-121484819D01*
X90796857Y-71954819D02*
X91130190Y-71478628D01*
X91368285Y-71954819D02*
X91368285Y-70954819D01*
X91368285Y-70954819D02*
X90987333Y-70954819D01*
X90987333Y-70954819D02*
X90892095Y-71002438D01*
X90892095Y-71002438D02*
X90844476Y-71050057D01*
X90844476Y-71050057D02*
X90796857Y-71145295D01*
X90796857Y-71145295D02*
X90796857Y-71288152D01*
X90796857Y-71288152D02*
X90844476Y-71383390D01*
X90844476Y-71383390D02*
X90892095Y-71431009D01*
X90892095Y-71431009D02*
X90987333Y-71478628D01*
X90987333Y-71478628D02*
X91368285Y-71478628D01*
X89844476Y-71954819D02*
X90415904Y-71954819D01*
X90130190Y-71954819D02*
X90130190Y-70954819D01*
X90130190Y-70954819D02*
X90225428Y-71097676D01*
X90225428Y-71097676D02*
X90320666Y-71192914D01*
X90320666Y-71192914D02*
X90415904Y-71240533D01*
X89225428Y-70954819D02*
X89130190Y-70954819D01*
X89130190Y-70954819D02*
X89034952Y-71002438D01*
X89034952Y-71002438D02*
X88987333Y-71050057D01*
X88987333Y-71050057D02*
X88939714Y-71145295D01*
X88939714Y-71145295D02*
X88892095Y-71335771D01*
X88892095Y-71335771D02*
X88892095Y-71573866D01*
X88892095Y-71573866D02*
X88939714Y-71764342D01*
X88939714Y-71764342D02*
X88987333Y-71859580D01*
X88987333Y-71859580D02*
X89034952Y-71907200D01*
X89034952Y-71907200D02*
X89130190Y-71954819D01*
X89130190Y-71954819D02*
X89225428Y-71954819D01*
X89225428Y-71954819D02*
X89320666Y-71907200D01*
X89320666Y-71907200D02*
X89368285Y-71859580D01*
X89368285Y-71859580D02*
X89415904Y-71764342D01*
X89415904Y-71764342D02*
X89463523Y-71573866D01*
X89463523Y-71573866D02*
X89463523Y-71335771D01*
X89463523Y-71335771D02*
X89415904Y-71145295D01*
X89415904Y-71145295D02*
X89368285Y-71050057D01*
X89368285Y-71050057D02*
X89320666Y-71002438D01*
X89320666Y-71002438D02*
X89225428Y-70954819D01*
X90796857Y-80209819D02*
X91130190Y-79733628D01*
X91368285Y-80209819D02*
X91368285Y-79209819D01*
X91368285Y-79209819D02*
X90987333Y-79209819D01*
X90987333Y-79209819D02*
X90892095Y-79257438D01*
X90892095Y-79257438D02*
X90844476Y-79305057D01*
X90844476Y-79305057D02*
X90796857Y-79400295D01*
X90796857Y-79400295D02*
X90796857Y-79543152D01*
X90796857Y-79543152D02*
X90844476Y-79638390D01*
X90844476Y-79638390D02*
X90892095Y-79686009D01*
X90892095Y-79686009D02*
X90987333Y-79733628D01*
X90987333Y-79733628D02*
X91368285Y-79733628D01*
X89844476Y-80209819D02*
X90415904Y-80209819D01*
X90130190Y-80209819D02*
X90130190Y-79209819D01*
X90130190Y-79209819D02*
X90225428Y-79352676D01*
X90225428Y-79352676D02*
X90320666Y-79447914D01*
X90320666Y-79447914D02*
X90415904Y-79495533D01*
X88987333Y-79209819D02*
X89177809Y-79209819D01*
X89177809Y-79209819D02*
X89273047Y-79257438D01*
X89273047Y-79257438D02*
X89320666Y-79305057D01*
X89320666Y-79305057D02*
X89415904Y-79447914D01*
X89415904Y-79447914D02*
X89463523Y-79638390D01*
X89463523Y-79638390D02*
X89463523Y-80019342D01*
X89463523Y-80019342D02*
X89415904Y-80114580D01*
X89415904Y-80114580D02*
X89368285Y-80162200D01*
X89368285Y-80162200D02*
X89273047Y-80209819D01*
X89273047Y-80209819D02*
X89082571Y-80209819D01*
X89082571Y-80209819D02*
X88987333Y-80162200D01*
X88987333Y-80162200D02*
X88939714Y-80114580D01*
X88939714Y-80114580D02*
X88892095Y-80019342D01*
X88892095Y-80019342D02*
X88892095Y-79781247D01*
X88892095Y-79781247D02*
X88939714Y-79686009D01*
X88939714Y-79686009D02*
X88987333Y-79638390D01*
X88987333Y-79638390D02*
X89082571Y-79590771D01*
X89082571Y-79590771D02*
X89273047Y-79590771D01*
X89273047Y-79590771D02*
X89368285Y-79638390D01*
X89368285Y-79638390D02*
X89415904Y-79686009D01*
X89415904Y-79686009D02*
X89463523Y-79781247D01*
X57776857Y-113229819D02*
X58110190Y-112753628D01*
X58348285Y-113229819D02*
X58348285Y-112229819D01*
X58348285Y-112229819D02*
X57967333Y-112229819D01*
X57967333Y-112229819D02*
X57872095Y-112277438D01*
X57872095Y-112277438D02*
X57824476Y-112325057D01*
X57824476Y-112325057D02*
X57776857Y-112420295D01*
X57776857Y-112420295D02*
X57776857Y-112563152D01*
X57776857Y-112563152D02*
X57824476Y-112658390D01*
X57824476Y-112658390D02*
X57872095Y-112706009D01*
X57872095Y-112706009D02*
X57967333Y-112753628D01*
X57967333Y-112753628D02*
X58348285Y-112753628D01*
X57443523Y-112229819D02*
X56824476Y-112229819D01*
X56824476Y-112229819D02*
X57157809Y-112610771D01*
X57157809Y-112610771D02*
X57014952Y-112610771D01*
X57014952Y-112610771D02*
X56919714Y-112658390D01*
X56919714Y-112658390D02*
X56872095Y-112706009D01*
X56872095Y-112706009D02*
X56824476Y-112801247D01*
X56824476Y-112801247D02*
X56824476Y-113039342D01*
X56824476Y-113039342D02*
X56872095Y-113134580D01*
X56872095Y-113134580D02*
X56919714Y-113182200D01*
X56919714Y-113182200D02*
X57014952Y-113229819D01*
X57014952Y-113229819D02*
X57300666Y-113229819D01*
X57300666Y-113229819D02*
X57395904Y-113182200D01*
X57395904Y-113182200D02*
X57443523Y-113134580D01*
X55967333Y-112229819D02*
X56157809Y-112229819D01*
X56157809Y-112229819D02*
X56253047Y-112277438D01*
X56253047Y-112277438D02*
X56300666Y-112325057D01*
X56300666Y-112325057D02*
X56395904Y-112467914D01*
X56395904Y-112467914D02*
X56443523Y-112658390D01*
X56443523Y-112658390D02*
X56443523Y-113039342D01*
X56443523Y-113039342D02*
X56395904Y-113134580D01*
X56395904Y-113134580D02*
X56348285Y-113182200D01*
X56348285Y-113182200D02*
X56253047Y-113229819D01*
X56253047Y-113229819D02*
X56062571Y-113229819D01*
X56062571Y-113229819D02*
X55967333Y-113182200D01*
X55967333Y-113182200D02*
X55919714Y-113134580D01*
X55919714Y-113134580D02*
X55872095Y-113039342D01*
X55872095Y-113039342D02*
X55872095Y-112801247D01*
X55872095Y-112801247D02*
X55919714Y-112706009D01*
X55919714Y-112706009D02*
X55967333Y-112658390D01*
X55967333Y-112658390D02*
X56062571Y-112610771D01*
X56062571Y-112610771D02*
X56253047Y-112610771D01*
X56253047Y-112610771D02*
X56348285Y-112658390D01*
X56348285Y-112658390D02*
X56395904Y-112706009D01*
X56395904Y-112706009D02*
X56443523Y-112801247D01*
X78562580Y-44410333D02*
X78610200Y-44362714D01*
X78610200Y-44362714D02*
X78657819Y-44219857D01*
X78657819Y-44219857D02*
X78657819Y-44124619D01*
X78657819Y-44124619D02*
X78610200Y-43981762D01*
X78610200Y-43981762D02*
X78514961Y-43886524D01*
X78514961Y-43886524D02*
X78419723Y-43838905D01*
X78419723Y-43838905D02*
X78229247Y-43791286D01*
X78229247Y-43791286D02*
X78086390Y-43791286D01*
X78086390Y-43791286D02*
X77895914Y-43838905D01*
X77895914Y-43838905D02*
X77800676Y-43886524D01*
X77800676Y-43886524D02*
X77705438Y-43981762D01*
X77705438Y-43981762D02*
X77657819Y-44124619D01*
X77657819Y-44124619D02*
X77657819Y-44219857D01*
X77657819Y-44219857D02*
X77705438Y-44362714D01*
X77705438Y-44362714D02*
X77753057Y-44410333D01*
X77753057Y-44791286D02*
X77705438Y-44838905D01*
X77705438Y-44838905D02*
X77657819Y-44934143D01*
X77657819Y-44934143D02*
X77657819Y-45172238D01*
X77657819Y-45172238D02*
X77705438Y-45267476D01*
X77705438Y-45267476D02*
X77753057Y-45315095D01*
X77753057Y-45315095D02*
X77848295Y-45362714D01*
X77848295Y-45362714D02*
X77943533Y-45362714D01*
X77943533Y-45362714D02*
X78086390Y-45315095D01*
X78086390Y-45315095D02*
X78657819Y-44743667D01*
X78657819Y-44743667D02*
X78657819Y-45362714D01*
X82017819Y-43029380D02*
X82017819Y-42457952D01*
X82017819Y-42743666D02*
X81017819Y-42743666D01*
X81017819Y-42743666D02*
X81160676Y-42648428D01*
X81160676Y-42648428D02*
X81255914Y-42553190D01*
X81255914Y-42553190D02*
X81303533Y-42457952D01*
X81017819Y-43648428D02*
X81017819Y-43743666D01*
X81017819Y-43743666D02*
X81065438Y-43838904D01*
X81065438Y-43838904D02*
X81113057Y-43886523D01*
X81113057Y-43886523D02*
X81208295Y-43934142D01*
X81208295Y-43934142D02*
X81398771Y-43981761D01*
X81398771Y-43981761D02*
X81636866Y-43981761D01*
X81636866Y-43981761D02*
X81827342Y-43934142D01*
X81827342Y-43934142D02*
X81922580Y-43886523D01*
X81922580Y-43886523D02*
X81970200Y-43838904D01*
X81970200Y-43838904D02*
X82017819Y-43743666D01*
X82017819Y-43743666D02*
X82017819Y-43648428D01*
X82017819Y-43648428D02*
X81970200Y-43553190D01*
X81970200Y-43553190D02*
X81922580Y-43505571D01*
X81922580Y-43505571D02*
X81827342Y-43457952D01*
X81827342Y-43457952D02*
X81636866Y-43410333D01*
X81636866Y-43410333D02*
X81398771Y-43410333D01*
X81398771Y-43410333D02*
X81208295Y-43457952D01*
X81208295Y-43457952D02*
X81113057Y-43505571D01*
X81113057Y-43505571D02*
X81065438Y-43553190D01*
X81065438Y-43553190D02*
X81017819Y-43648428D01*
X81017819Y-44600809D02*
X81017819Y-44696047D01*
X81017819Y-44696047D02*
X81065438Y-44791285D01*
X81065438Y-44791285D02*
X81113057Y-44838904D01*
X81113057Y-44838904D02*
X81208295Y-44886523D01*
X81208295Y-44886523D02*
X81398771Y-44934142D01*
X81398771Y-44934142D02*
X81636866Y-44934142D01*
X81636866Y-44934142D02*
X81827342Y-44886523D01*
X81827342Y-44886523D02*
X81922580Y-44838904D01*
X81922580Y-44838904D02*
X81970200Y-44791285D01*
X81970200Y-44791285D02*
X82017819Y-44696047D01*
X82017819Y-44696047D02*
X82017819Y-44600809D01*
X82017819Y-44600809D02*
X81970200Y-44505571D01*
X81970200Y-44505571D02*
X81922580Y-44457952D01*
X81922580Y-44457952D02*
X81827342Y-44410333D01*
X81827342Y-44410333D02*
X81636866Y-44362714D01*
X81636866Y-44362714D02*
X81398771Y-44362714D01*
X81398771Y-44362714D02*
X81208295Y-44410333D01*
X81208295Y-44410333D02*
X81113057Y-44457952D01*
X81113057Y-44457952D02*
X81065438Y-44505571D01*
X81065438Y-44505571D02*
X81017819Y-44600809D01*
X81351152Y-45362714D02*
X82017819Y-45362714D01*
X81446390Y-45362714D02*
X81398771Y-45410333D01*
X81398771Y-45410333D02*
X81351152Y-45505571D01*
X81351152Y-45505571D02*
X81351152Y-45648428D01*
X81351152Y-45648428D02*
X81398771Y-45743666D01*
X81398771Y-45743666D02*
X81494009Y-45791285D01*
X81494009Y-45791285D02*
X82017819Y-45791285D01*
X81494009Y-46600809D02*
X81494009Y-46267476D01*
X82017819Y-46267476D02*
X81017819Y-46267476D01*
X81017819Y-46267476D02*
X81017819Y-46743666D01*
X57300666Y-63699819D02*
X57633999Y-63223628D01*
X57872094Y-63699819D02*
X57872094Y-62699819D01*
X57872094Y-62699819D02*
X57491142Y-62699819D01*
X57491142Y-62699819D02*
X57395904Y-62747438D01*
X57395904Y-62747438D02*
X57348285Y-62795057D01*
X57348285Y-62795057D02*
X57300666Y-62890295D01*
X57300666Y-62890295D02*
X57300666Y-63033152D01*
X57300666Y-63033152D02*
X57348285Y-63128390D01*
X57348285Y-63128390D02*
X57395904Y-63176009D01*
X57395904Y-63176009D02*
X57491142Y-63223628D01*
X57491142Y-63223628D02*
X57872094Y-63223628D01*
X56681618Y-62699819D02*
X56586380Y-62699819D01*
X56586380Y-62699819D02*
X56491142Y-62747438D01*
X56491142Y-62747438D02*
X56443523Y-62795057D01*
X56443523Y-62795057D02*
X56395904Y-62890295D01*
X56395904Y-62890295D02*
X56348285Y-63080771D01*
X56348285Y-63080771D02*
X56348285Y-63318866D01*
X56348285Y-63318866D02*
X56395904Y-63509342D01*
X56395904Y-63509342D02*
X56443523Y-63604580D01*
X56443523Y-63604580D02*
X56491142Y-63652200D01*
X56491142Y-63652200D02*
X56586380Y-63699819D01*
X56586380Y-63699819D02*
X56681618Y-63699819D01*
X56681618Y-63699819D02*
X56776856Y-63652200D01*
X56776856Y-63652200D02*
X56824475Y-63604580D01*
X56824475Y-63604580D02*
X56872094Y-63509342D01*
X56872094Y-63509342D02*
X56919713Y-63318866D01*
X56919713Y-63318866D02*
X56919713Y-63080771D01*
X56919713Y-63080771D02*
X56872094Y-62890295D01*
X56872094Y-62890295D02*
X56824475Y-62795057D01*
X56824475Y-62795057D02*
X56776856Y-62747438D01*
X56776856Y-62747438D02*
X56681618Y-62699819D01*
X58776856Y-59495057D02*
X58729237Y-59447438D01*
X58729237Y-59447438D02*
X58633999Y-59399819D01*
X58633999Y-59399819D02*
X58395904Y-59399819D01*
X58395904Y-59399819D02*
X58300666Y-59447438D01*
X58300666Y-59447438D02*
X58253047Y-59495057D01*
X58253047Y-59495057D02*
X58205428Y-59590295D01*
X58205428Y-59590295D02*
X58205428Y-59685533D01*
X58205428Y-59685533D02*
X58253047Y-59828390D01*
X58253047Y-59828390D02*
X58824475Y-60399819D01*
X58824475Y-60399819D02*
X58205428Y-60399819D01*
X57300666Y-59399819D02*
X57776856Y-59399819D01*
X57776856Y-59399819D02*
X57824475Y-59876009D01*
X57824475Y-59876009D02*
X57776856Y-59828390D01*
X57776856Y-59828390D02*
X57681618Y-59780771D01*
X57681618Y-59780771D02*
X57443523Y-59780771D01*
X57443523Y-59780771D02*
X57348285Y-59828390D01*
X57348285Y-59828390D02*
X57300666Y-59876009D01*
X57300666Y-59876009D02*
X57253047Y-59971247D01*
X57253047Y-59971247D02*
X57253047Y-60209342D01*
X57253047Y-60209342D02*
X57300666Y-60304580D01*
X57300666Y-60304580D02*
X57348285Y-60352200D01*
X57348285Y-60352200D02*
X57443523Y-60399819D01*
X57443523Y-60399819D02*
X57681618Y-60399819D01*
X57681618Y-60399819D02*
X57776856Y-60352200D01*
X57776856Y-60352200D02*
X57824475Y-60304580D01*
X56633999Y-59399819D02*
X56538761Y-59399819D01*
X56538761Y-59399819D02*
X56443523Y-59447438D01*
X56443523Y-59447438D02*
X56395904Y-59495057D01*
X56395904Y-59495057D02*
X56348285Y-59590295D01*
X56348285Y-59590295D02*
X56300666Y-59780771D01*
X56300666Y-59780771D02*
X56300666Y-60018866D01*
X56300666Y-60018866D02*
X56348285Y-60209342D01*
X56348285Y-60209342D02*
X56395904Y-60304580D01*
X56395904Y-60304580D02*
X56443523Y-60352200D01*
X56443523Y-60352200D02*
X56538761Y-60399819D01*
X56538761Y-60399819D02*
X56633999Y-60399819D01*
X56633999Y-60399819D02*
X56729237Y-60352200D01*
X56729237Y-60352200D02*
X56776856Y-60304580D01*
X56776856Y-60304580D02*
X56824475Y-60209342D01*
X56824475Y-60209342D02*
X56872094Y-60018866D01*
X56872094Y-60018866D02*
X56872094Y-59780771D01*
X56872094Y-59780771D02*
X56824475Y-59590295D01*
X56824475Y-59590295D02*
X56776856Y-59495057D01*
X56776856Y-59495057D02*
X56729237Y-59447438D01*
X56729237Y-59447438D02*
X56633999Y-59399819D01*
X55872094Y-60399819D02*
X55872094Y-59399819D01*
X55776856Y-60018866D02*
X55491142Y-60399819D01*
X55491142Y-59733152D02*
X55872094Y-60114104D01*
X82065666Y-71954819D02*
X82398999Y-71478628D01*
X82637094Y-71954819D02*
X82637094Y-70954819D01*
X82637094Y-70954819D02*
X82256142Y-70954819D01*
X82256142Y-70954819D02*
X82160904Y-71002438D01*
X82160904Y-71002438D02*
X82113285Y-71050057D01*
X82113285Y-71050057D02*
X82065666Y-71145295D01*
X82065666Y-71145295D02*
X82065666Y-71288152D01*
X82065666Y-71288152D02*
X82113285Y-71383390D01*
X82113285Y-71383390D02*
X82160904Y-71431009D01*
X82160904Y-71431009D02*
X82256142Y-71478628D01*
X82256142Y-71478628D02*
X82637094Y-71478628D01*
X81589475Y-71954819D02*
X81398999Y-71954819D01*
X81398999Y-71954819D02*
X81303761Y-71907200D01*
X81303761Y-71907200D02*
X81256142Y-71859580D01*
X81256142Y-71859580D02*
X81160904Y-71716723D01*
X81160904Y-71716723D02*
X81113285Y-71526247D01*
X81113285Y-71526247D02*
X81113285Y-71145295D01*
X81113285Y-71145295D02*
X81160904Y-71050057D01*
X81160904Y-71050057D02*
X81208523Y-71002438D01*
X81208523Y-71002438D02*
X81303761Y-70954819D01*
X81303761Y-70954819D02*
X81494237Y-70954819D01*
X81494237Y-70954819D02*
X81589475Y-71002438D01*
X81589475Y-71002438D02*
X81637094Y-71050057D01*
X81637094Y-71050057D02*
X81684713Y-71145295D01*
X81684713Y-71145295D02*
X81684713Y-71383390D01*
X81684713Y-71383390D02*
X81637094Y-71478628D01*
X81637094Y-71478628D02*
X81589475Y-71526247D01*
X81589475Y-71526247D02*
X81494237Y-71573866D01*
X81494237Y-71573866D02*
X81303761Y-71573866D01*
X81303761Y-71573866D02*
X81208523Y-71526247D01*
X81208523Y-71526247D02*
X81160904Y-71478628D01*
X81160904Y-71478628D02*
X81113285Y-71383390D01*
X74286857Y-121484819D02*
X74620190Y-121008628D01*
X74858285Y-121484819D02*
X74858285Y-120484819D01*
X74858285Y-120484819D02*
X74477333Y-120484819D01*
X74477333Y-120484819D02*
X74382095Y-120532438D01*
X74382095Y-120532438D02*
X74334476Y-120580057D01*
X74334476Y-120580057D02*
X74286857Y-120675295D01*
X74286857Y-120675295D02*
X74286857Y-120818152D01*
X74286857Y-120818152D02*
X74334476Y-120913390D01*
X74334476Y-120913390D02*
X74382095Y-120961009D01*
X74382095Y-120961009D02*
X74477333Y-121008628D01*
X74477333Y-121008628D02*
X74858285Y-121008628D01*
X73429714Y-120818152D02*
X73429714Y-121484819D01*
X73667809Y-120437200D02*
X73905904Y-121151485D01*
X73905904Y-121151485D02*
X73286857Y-121151485D01*
X72477333Y-120818152D02*
X72477333Y-121484819D01*
X72715428Y-120437200D02*
X72953523Y-121151485D01*
X72953523Y-121151485D02*
X72334476Y-121151485D01*
X74286857Y-80209819D02*
X74620190Y-79733628D01*
X74858285Y-80209819D02*
X74858285Y-79209819D01*
X74858285Y-79209819D02*
X74477333Y-79209819D01*
X74477333Y-79209819D02*
X74382095Y-79257438D01*
X74382095Y-79257438D02*
X74334476Y-79305057D01*
X74334476Y-79305057D02*
X74286857Y-79400295D01*
X74286857Y-79400295D02*
X74286857Y-79543152D01*
X74286857Y-79543152D02*
X74334476Y-79638390D01*
X74334476Y-79638390D02*
X74382095Y-79686009D01*
X74382095Y-79686009D02*
X74477333Y-79733628D01*
X74477333Y-79733628D02*
X74858285Y-79733628D01*
X73334476Y-80209819D02*
X73905904Y-80209819D01*
X73620190Y-80209819D02*
X73620190Y-79209819D01*
X73620190Y-79209819D02*
X73715428Y-79352676D01*
X73715428Y-79352676D02*
X73810666Y-79447914D01*
X73810666Y-79447914D02*
X73905904Y-79495533D01*
X72477333Y-79543152D02*
X72477333Y-80209819D01*
X72715428Y-79162200D02*
X72953523Y-79876485D01*
X72953523Y-79876485D02*
X72334476Y-79876485D01*
X90320666Y-63699819D02*
X90653999Y-63223628D01*
X90892094Y-63699819D02*
X90892094Y-62699819D01*
X90892094Y-62699819D02*
X90511142Y-62699819D01*
X90511142Y-62699819D02*
X90415904Y-62747438D01*
X90415904Y-62747438D02*
X90368285Y-62795057D01*
X90368285Y-62795057D02*
X90320666Y-62890295D01*
X90320666Y-62890295D02*
X90320666Y-63033152D01*
X90320666Y-63033152D02*
X90368285Y-63128390D01*
X90368285Y-63128390D02*
X90415904Y-63176009D01*
X90415904Y-63176009D02*
X90511142Y-63223628D01*
X90511142Y-63223628D02*
X90892094Y-63223628D01*
X89463523Y-63033152D02*
X89463523Y-63699819D01*
X89701618Y-62652200D02*
X89939713Y-63366485D01*
X89939713Y-63366485D02*
X89320666Y-63366485D01*
D11*
X56906936Y-93880000D02*
X57361064Y-93880000D01*
X56906936Y-95350000D02*
X57361064Y-95350000D01*
X94080064Y-101573000D02*
X93625936Y-101573000D01*
X94080064Y-100103000D02*
X93625936Y-100103000D01*
X89926936Y-126900000D02*
X90381064Y-126900000D01*
X89926936Y-128370000D02*
X90381064Y-128370000D01*
X65161936Y-69115000D02*
X65616064Y-69115000D01*
X65161936Y-70585000D02*
X65616064Y-70585000D01*
X73416936Y-69115000D02*
X73871064Y-69115000D01*
X73416936Y-70585000D02*
X73871064Y-70585000D01*
X89926936Y-110390000D02*
X90381064Y-110390000D01*
X89926936Y-111860000D02*
X90381064Y-111860000D01*
X65161936Y-77370000D02*
X65616064Y-77370000D01*
X65161936Y-78840000D02*
X65616064Y-78840000D01*
X56906936Y-126900000D02*
X57361064Y-126900000D01*
X56906936Y-128370000D02*
X57361064Y-128370000D01*
X65161936Y-126900000D02*
X65616064Y-126900000D01*
X65161936Y-128370000D02*
X65616064Y-128370000D01*
X94207064Y-109828000D02*
X93752936Y-109828000D01*
X94207064Y-108358000D02*
X93752936Y-108358000D01*
X83932752Y-147039000D02*
X83410248Y-147039000D01*
X83932752Y-145569000D02*
X83410248Y-145569000D01*
X56906936Y-77370000D02*
X57361064Y-77370000D01*
X56906936Y-78840000D02*
X57361064Y-78840000D01*
X56906936Y-69115000D02*
X57361064Y-69115000D01*
X56906936Y-70585000D02*
X57361064Y-70585000D01*
X94081064Y-93440000D02*
X93626936Y-93440000D01*
X94081064Y-91970000D02*
X93626936Y-91970000D01*
X73416936Y-135155000D02*
X73871064Y-135155000D01*
X73416936Y-136625000D02*
X73871064Y-136625000D01*
X62727064Y-133958000D02*
X62272936Y-133958000D01*
X62727064Y-132488000D02*
X62272936Y-132488000D01*
X81671936Y-135155000D02*
X82126064Y-135155000D01*
X81671936Y-136625000D02*
X82126064Y-136625000D01*
X56906936Y-85625000D02*
X57361064Y-85625000D01*
X56906936Y-87095000D02*
X57361064Y-87095000D01*
X94176064Y-60293000D02*
X93721936Y-60293000D01*
X94176064Y-58823000D02*
X93721936Y-58823000D01*
X81671936Y-93880000D02*
X82126064Y-93880000D01*
X81671936Y-95350000D02*
X82126064Y-95350000D01*
X89926936Y-102135000D02*
X90381064Y-102135000D01*
X89926936Y-103605000D02*
X90381064Y-103605000D01*
X94223064Y-126338000D02*
X93768936Y-126338000D01*
X94223064Y-124868000D02*
X93768936Y-124868000D01*
X94303064Y-76930000D02*
X93848936Y-76930000D01*
X94303064Y-75460000D02*
X93848936Y-75460000D01*
X65161936Y-110390000D02*
X65616064Y-110390000D01*
X65161936Y-111860000D02*
X65616064Y-111860000D01*
X81671936Y-102135000D02*
X82126064Y-102135000D01*
X81671936Y-103605000D02*
X82126064Y-103605000D01*
X65161936Y-118645000D02*
X65616064Y-118645000D01*
X65161936Y-120115000D02*
X65616064Y-120115000D01*
X81671936Y-60860000D02*
X82126064Y-60860000D01*
X81671936Y-62330000D02*
X82126064Y-62330000D01*
X65161936Y-85625000D02*
X65616064Y-85625000D01*
X65161936Y-87095000D02*
X65616064Y-87095000D01*
X81671936Y-110390000D02*
X82126064Y-110390000D01*
X81671936Y-111860000D02*
X82126064Y-111860000D01*
X81671936Y-126900000D02*
X82126064Y-126900000D01*
X81671936Y-128370000D02*
X82126064Y-128370000D01*
X89926936Y-85625000D02*
X90381064Y-85625000D01*
X89926936Y-87095000D02*
X90381064Y-87095000D01*
X94080064Y-134466000D02*
X93625936Y-134466000D01*
X94080064Y-132996000D02*
X93625936Y-132996000D01*
X65161936Y-60860000D02*
X65616064Y-60860000D01*
X65161936Y-62330000D02*
X65616064Y-62330000D01*
X73416936Y-110390000D02*
X73871064Y-110390000D01*
X73416936Y-111860000D02*
X73871064Y-111860000D01*
X94192064Y-85185000D02*
X93737936Y-85185000D01*
X94192064Y-83715000D02*
X93737936Y-83715000D01*
X81671936Y-118645000D02*
X82126064Y-118645000D01*
X81671936Y-120115000D02*
X82126064Y-120115000D01*
X73416936Y-60860000D02*
X73871064Y-60860000D01*
X73416936Y-62330000D02*
X73871064Y-62330000D01*
X94065064Y-68421000D02*
X93610936Y-68421000D01*
X94065064Y-66951000D02*
X93610936Y-66951000D01*
X89926936Y-135155000D02*
X90381064Y-135155000D01*
X89926936Y-136625000D02*
X90381064Y-136625000D01*
X73416936Y-126900000D02*
X73871064Y-126900000D01*
X73416936Y-128370000D02*
X73871064Y-128370000D01*
X89926936Y-93880000D02*
X90381064Y-93880000D01*
X89926936Y-95350000D02*
X90381064Y-95350000D01*
X94207064Y-118083000D02*
X93752936Y-118083000D01*
X94207064Y-116613000D02*
X93752936Y-116613000D01*
X56906936Y-102135000D02*
X57361064Y-102135000D01*
X56906936Y-103605000D02*
X57361064Y-103605000D01*
X73416936Y-93880000D02*
X73871064Y-93880000D01*
X73416936Y-95350000D02*
X73871064Y-95350000D01*
X81671936Y-77370000D02*
X82126064Y-77370000D01*
X81671936Y-78840000D02*
X82126064Y-78840000D01*
X65161936Y-102135000D02*
X65616064Y-102135000D01*
X65161936Y-103605000D02*
X65616064Y-103605000D01*
X73416936Y-85625000D02*
X73871064Y-85625000D01*
X73416936Y-87095000D02*
X73871064Y-87095000D01*
X81671936Y-85625000D02*
X82126064Y-85625000D01*
X81671936Y-87095000D02*
X82126064Y-87095000D01*
X57557936Y-132107000D02*
X58012064Y-132107000D01*
X57557936Y-133577000D02*
X58012064Y-133577000D01*
X65161936Y-93880000D02*
X65616064Y-93880000D01*
X65161936Y-95350000D02*
X65616064Y-95350000D01*
X89926936Y-118645000D02*
X90381064Y-118645000D01*
X89926936Y-120115000D02*
X90381064Y-120115000D01*
X73416936Y-102135000D02*
X73871064Y-102135000D01*
X73416936Y-103605000D02*
X73871064Y-103605000D01*
X56906936Y-118645000D02*
X57361064Y-118645000D01*
X56906936Y-120115000D02*
X57361064Y-120115000D01*
X89926936Y-69115000D02*
X90381064Y-69115000D01*
X89926936Y-70585000D02*
X90381064Y-70585000D01*
X89926936Y-77370000D02*
X90381064Y-77370000D01*
X89926936Y-78840000D02*
X90381064Y-78840000D01*
X56906936Y-110390000D02*
X57361064Y-110390000D01*
X56906936Y-111860000D02*
X57361064Y-111860000D01*
X80618000Y-44315748D02*
X80618000Y-44838252D01*
X79148000Y-44315748D02*
X79148000Y-44838252D01*
X56906936Y-60860000D02*
X57361064Y-60860000D01*
X56906936Y-62330000D02*
X57361064Y-62330000D01*
X81671936Y-69115000D02*
X82126064Y-69115000D01*
X81671936Y-70585000D02*
X82126064Y-70585000D01*
X73416936Y-118645000D02*
X73871064Y-118645000D01*
X73416936Y-120115000D02*
X73871064Y-120115000D01*
X73416936Y-77370000D02*
X73871064Y-77370000D01*
X73416936Y-78840000D02*
X73871064Y-78840000D01*
X89926936Y-60860000D02*
X90381064Y-60860000D01*
X89926936Y-62330000D02*
X90381064Y-62330000D01*
%LPC*%
D12*
X79629000Y-135890000D03*
D13*
X79629000Y-130810000D03*
D12*
X71374000Y-78105000D03*
D13*
X71374000Y-73025000D03*
D12*
X54864000Y-127635000D03*
D13*
X54864000Y-122555000D03*
D12*
X71374000Y-127635000D03*
D13*
X71374000Y-122555000D03*
D12*
X71374000Y-119380000D03*
D13*
X71374000Y-114300000D03*
D12*
X71374000Y-135890000D03*
D13*
X71374000Y-130810000D03*
D12*
X54864000Y-86360000D03*
D13*
X54864000Y-81280000D03*
D12*
X79629000Y-111125000D03*
D13*
X79629000Y-106045000D03*
D14*
X56642000Y-143637000D03*
D15*
X56642000Y-141097000D03*
X59182000Y-143637000D03*
X59182000Y-141097000D03*
X61722000Y-143637000D03*
X61722000Y-141097000D03*
X64262000Y-143637000D03*
X64262000Y-141097000D03*
D12*
X63119000Y-61595000D03*
D13*
X63119000Y-56515000D03*
D12*
X87884000Y-69850000D03*
D13*
X87884000Y-64770000D03*
D16*
X96700000Y-150800000D03*
D12*
X96139000Y-69850000D03*
D13*
X96139000Y-64770000D03*
D17*
X52578000Y-145796000D03*
D12*
X63119000Y-86360000D03*
D13*
X63119000Y-81280000D03*
D12*
X79629000Y-119380000D03*
D13*
X79629000Y-114300000D03*
D12*
X87884000Y-61595000D03*
D13*
X87884000Y-56515000D03*
D12*
X54864000Y-119380000D03*
D13*
X54864000Y-114300000D03*
D12*
X71374000Y-69850000D03*
D13*
X71374000Y-64770000D03*
D12*
X54864000Y-61595000D03*
D13*
X54864000Y-56515000D03*
D12*
X87884000Y-86360000D03*
D13*
X87884000Y-81280000D03*
D12*
X96139000Y-78105000D03*
D13*
X96139000Y-73025000D03*
D12*
X87884000Y-135890000D03*
D13*
X87884000Y-130810000D03*
D12*
X63119000Y-102870000D03*
D13*
X63119000Y-97790000D03*
D12*
X96139000Y-94615000D03*
D13*
X96139000Y-89535000D03*
D12*
X96139000Y-127635000D03*
D13*
X96139000Y-122555000D03*
D12*
X79629000Y-69850000D03*
D13*
X79629000Y-64770000D03*
D12*
X96139000Y-111125000D03*
D13*
X96139000Y-106045000D03*
D12*
X79629000Y-127635000D03*
D13*
X79629000Y-122555000D03*
D12*
X87884000Y-119380000D03*
D13*
X87884000Y-114300000D03*
D12*
X79629000Y-94615000D03*
D13*
X79629000Y-89535000D03*
D12*
X54864000Y-135890000D03*
D13*
X54864000Y-130810000D03*
D12*
X87884000Y-102870000D03*
D13*
X87884000Y-97790000D03*
D12*
X87884000Y-94615000D03*
D13*
X87884000Y-89535000D03*
D12*
X96139000Y-86360000D03*
D13*
X96139000Y-81280000D03*
D12*
X87884000Y-111125000D03*
D13*
X87884000Y-106045000D03*
D12*
X79629000Y-86360000D03*
D13*
X79629000Y-81280000D03*
D12*
X87884000Y-127635000D03*
D13*
X87884000Y-122555000D03*
D12*
X79629000Y-61595000D03*
D13*
X79629000Y-56515000D03*
D12*
X71374000Y-111045000D03*
D13*
X71374000Y-105965000D03*
D12*
X54864000Y-102870000D03*
D13*
X54864000Y-97790000D03*
D12*
X63119000Y-135890000D03*
D13*
X63119000Y-130810000D03*
D12*
X96139000Y-119380000D03*
D13*
X96139000Y-114300000D03*
D12*
X79629000Y-102870000D03*
D13*
X79629000Y-97790000D03*
D16*
X54300000Y-150800000D03*
D12*
X63119000Y-119380000D03*
D13*
X63119000Y-114300000D03*
D12*
X71374000Y-102870000D03*
D13*
X71374000Y-97790000D03*
D12*
X96139000Y-135890000D03*
D13*
X96139000Y-130810000D03*
D12*
X54864000Y-94615000D03*
D13*
X54864000Y-89535000D03*
D17*
X52578000Y-46609000D03*
D12*
X63119000Y-111125000D03*
D13*
X63119000Y-106045000D03*
D16*
X54300000Y-41600000D03*
D17*
X98425000Y-145796000D03*
D12*
X79629000Y-78105000D03*
D13*
X79629000Y-73025000D03*
D12*
X96139000Y-61595000D03*
D13*
X96139000Y-56515000D03*
D12*
X96139000Y-102870000D03*
D13*
X96139000Y-97790000D03*
D12*
X71374000Y-86360000D03*
D13*
X71374000Y-81280000D03*
D12*
X54864000Y-111125000D03*
D13*
X54864000Y-106045000D03*
D12*
X63119000Y-78105000D03*
D13*
X63119000Y-73025000D03*
D12*
X54864000Y-69850000D03*
D13*
X54864000Y-64770000D03*
D14*
X56642000Y-51308000D03*
D15*
X56642000Y-48768000D03*
X59182000Y-51308000D03*
X59182000Y-48768000D03*
X61722000Y-51308000D03*
X61722000Y-48768000D03*
X64262000Y-51308000D03*
X64262000Y-48768000D03*
D12*
X71374000Y-61595000D03*
D13*
X71374000Y-56515000D03*
D12*
X63119000Y-94615000D03*
D13*
X63119000Y-89535000D03*
D12*
X87884000Y-78105000D03*
D13*
X87884000Y-73025000D03*
D16*
X96700000Y-41600000D03*
D17*
X98425000Y-46609000D03*
D12*
X63119000Y-127635000D03*
D13*
X63119000Y-122555000D03*
D12*
X63119000Y-69850000D03*
D13*
X63119000Y-64770000D03*
D12*
X71374000Y-94615000D03*
D13*
X71374000Y-89535000D03*
D12*
X54864000Y-78105000D03*
D13*
X54864000Y-73025000D03*
D18*
X56134000Y-94615000D03*
X58134000Y-94615000D03*
D19*
X94853000Y-100838000D03*
X92853000Y-100838000D03*
D18*
X89154000Y-127635000D03*
X91154000Y-127635000D03*
X64389000Y-69850000D03*
X66389000Y-69850000D03*
X72644000Y-69850000D03*
X74644000Y-69850000D03*
X89154000Y-111125000D03*
X91154000Y-111125000D03*
X64389000Y-78105000D03*
X66389000Y-78105000D03*
X56134000Y-127635000D03*
X58134000Y-127635000D03*
X64389000Y-127635000D03*
X66389000Y-127635000D03*
D19*
X94980000Y-109093000D03*
X92980000Y-109093000D03*
D20*
X84709000Y-146304000D03*
X82634000Y-146304000D03*
D18*
X56134000Y-78105000D03*
X58134000Y-78105000D03*
X56134000Y-69850000D03*
X58134000Y-69850000D03*
D19*
X94854000Y-92705000D03*
X92854000Y-92705000D03*
D18*
X72644000Y-135890000D03*
X74644000Y-135890000D03*
D19*
X63500000Y-133223000D03*
X61500000Y-133223000D03*
D18*
X80899000Y-135890000D03*
X82899000Y-135890000D03*
X56134000Y-86360000D03*
X58134000Y-86360000D03*
D19*
X94949000Y-59558000D03*
X92949000Y-59558000D03*
D18*
X80899000Y-94615000D03*
X82899000Y-94615000D03*
X89154000Y-102870000D03*
X91154000Y-102870000D03*
D19*
X94996000Y-125603000D03*
X92996000Y-125603000D03*
X95076000Y-76195000D03*
X93076000Y-76195000D03*
D18*
X64389000Y-111125000D03*
X66389000Y-111125000D03*
X80899000Y-102870000D03*
X82899000Y-102870000D03*
X64389000Y-119380000D03*
X66389000Y-119380000D03*
X80899000Y-61595000D03*
X82899000Y-61595000D03*
X64389000Y-86360000D03*
X66389000Y-86360000D03*
X80899000Y-111125000D03*
X82899000Y-111125000D03*
X80899000Y-127635000D03*
X82899000Y-127635000D03*
X89154000Y-86360000D03*
X91154000Y-86360000D03*
D19*
X94853000Y-133731000D03*
X92853000Y-133731000D03*
D18*
X64389000Y-61595000D03*
X66389000Y-61595000D03*
X72644000Y-111125000D03*
X74644000Y-111125000D03*
D19*
X94965000Y-84450000D03*
X92965000Y-84450000D03*
D18*
X80899000Y-119380000D03*
X82899000Y-119380000D03*
X72644000Y-61595000D03*
X74644000Y-61595000D03*
D19*
X94838000Y-67686000D03*
X92838000Y-67686000D03*
D18*
X89154000Y-135890000D03*
X91154000Y-135890000D03*
X72644000Y-127635000D03*
X74644000Y-127635000D03*
X89154000Y-94615000D03*
X91154000Y-94615000D03*
D19*
X94980000Y-117348000D03*
X92980000Y-117348000D03*
D18*
X56134000Y-102870000D03*
X58134000Y-102870000D03*
X72644000Y-94615000D03*
X74644000Y-94615000D03*
X80899000Y-78105000D03*
X82899000Y-78105000D03*
X64389000Y-102870000D03*
X66389000Y-102870000D03*
X72644000Y-86360000D03*
X74644000Y-86360000D03*
X80899000Y-86360000D03*
X82899000Y-86360000D03*
X56785000Y-132842000D03*
X58785000Y-132842000D03*
X64389000Y-94615000D03*
X66389000Y-94615000D03*
X89154000Y-119380000D03*
X91154000Y-119380000D03*
X72644000Y-102870000D03*
X74644000Y-102870000D03*
X56134000Y-119380000D03*
X58134000Y-119380000D03*
X89154000Y-69850000D03*
X91154000Y-69850000D03*
X89154000Y-78105000D03*
X91154000Y-78105000D03*
X56134000Y-111125000D03*
X58134000Y-111125000D03*
D21*
X79883000Y-43539500D03*
X79883000Y-45614500D03*
D18*
X56134000Y-61595000D03*
X58134000Y-61595000D03*
X80899000Y-69850000D03*
X82899000Y-69850000D03*
X72644000Y-119380000D03*
X74644000Y-119380000D03*
X72644000Y-78105000D03*
X74644000Y-78105000D03*
X89154000Y-61595000D03*
X91154000Y-61595000D03*
%LPD*%
M02*
